<?xml version="1.0" standalone="no"?>
<!DOCTYPE svg PUBLIC "-//W3C//DTD SVG 20010904//EN"
 "http://www.w3.org/TR/2001/REC-SVG-20010904/DTD/svg10.dtd">
<svg version="1.0" xmlns="http://www.w3.org/2000/svg"
 width="700.000000pt" height="700.000000pt" viewBox="0 0 700.000000 700.000000"
 preserveAspectRatio="xMidYMid meet">
<metadata>
Created by potrace 1.14, written by Peter Selinger 2001-2017
</metadata>
<g transform="translate(0.000000,700.000000) scale(0.100000,-0.100000)"
fill="#000000" stroke="none">
<path d="M3329 6996 c-2 -2 -31 -7 -64 -10 -142 -16 -332 -81 -490 -169 -82
-46 -309 -175 -345 -196 -37 -22 -586 -338 -619 -356 -20 -11 -52 -30 -71 -41
-19 -12 -55 -33 -80 -46 -25 -14 -151 -86 -280 -160 -248 -143 -267 -154 -370
-213 -191 -108 -335 -227 -442 -365 -32 -41 -62 -80 -67 -86 -20 -25 -93 -161
-120 -223 -46 -106 -84 -234 -96 -321 -3 -25 -9 -54 -12 -65 -9 -28 -10 -2330
-1 -2429 9 -104 14 -131 44 -245 27 -104 36 -126 100 -258 77 -158 196 -308
339 -429 61 -52 186 -138 240 -166 17 -8 201 -115 410 -238 209 -122 398 -232
420 -245 22 -12 92 -53 155 -90 63 -37 133 -78 155 -90 22 -13 71 -41 110 -63
38 -22 72 -39 75 -37 3 2 5 996 4 2209 l-1 2206 21 1 c121 4 1621 -1 1672 -6
136 -13 189 -22 299 -50 421 -107 696 -399 742 -790 13 -107 5 -358 -12 -385
-2 -4 -7 -22 -10 -41 -7 -38 -42 -144 -58 -174 -6 -11 -12 -22 -13 -25 -10
-44 -109 -185 -179 -255 -180 -182 -433 -290 -750 -321 -44 -4 -293 -8 -552
-8 l-473 -1 0 -1371 0 -1371 58 -16 c150 -42 220 -51 382 -51 194 -1 314 19
470 76 105 38 164 67 355 176 173 98 549 312 875 497 280 160 287 163 333 189
21 11 46 26 55 31 9 6 69 40 132 75 63 36 124 70 135 77 11 7 26 15 34 19 115
58 332 197 394 253 181 164 295 325 388 546 34 81 72 243 86 365 8 71 8 2317
0 2390 -10 94 -18 144 -24 160 -3 8 -7 28 -10 45 -16 93 -111 306 -192 430
-109 167 -275 323 -451 425 -62 35 -99 56 -207 116 -27 15 -61 34 -78 44 -16
10 -50 29 -75 42 -25 14 -103 58 -175 98 -71 40 -150 84 -175 98 -25 14 -80
45 -123 69 -42 24 -99 55 -125 70 -26 14 -78 44 -117 66 -38 22 -92 52 -120
67 -27 15 -198 110 -380 212 -181 102 -357 199 -390 215 -107 54 -267 106
-395 128 -38 7 -336 16 -341 11z"/>
<path d="M3020 3840 l0 -515 412 1 c227 1 430 4 451 8 20 3 54 9 74 12 52 8
152 47 200 77 52 33 129 120 154 173 68 151 70 359 3 499 -62 133 -209 224
-407 251 -28 4 -240 8 -469 8 l-418 1 0 -515z"/>
</g>
</svg>
