<svg width="228" height="758" viewBox="0 0 228 758" fill="none" xmlns="http://www.w3.org/2000/svg">
<path d="M225 192.833H226.5V191.333V139.092V137.592H225H191.885V99.4956V97.9956H190.385H128.145H126.645V99.4956V137.592H83.757L176.971 3.85772L178.615 1.5H175.741H107.51H106.741L106.292 2.12456L1.78197 147.533L1.5 147.926V148.409V191.333V192.833H3H124.648V235.92V237.42H126.148H190.385H191.885V235.92V192.833H225ZM19.5531 444.856L19.5577 444.866L19.5625 444.875C28.5488 463.292 40.936 477.385 56.7373 487.089C72.528 496.786 90.5559 501.619 110.776 501.619C130.777 501.619 148.693 496.785 164.481 487.089C180.285 477.383 192.563 463.288 201.327 444.867C210.32 426.211 214.788 404.241 214.788 379C214.788 353.763 210.321 331.903 201.328 313.467C192.565 294.828 180.288 280.619 164.481 270.911C148.693 261.215 130.777 256.381 110.776 256.381C90.5559 256.381 72.528 261.214 56.7373 270.911C40.9312 280.618 28.5441 294.825 19.5594 313.464L19.5561 313.471C10.7862 331.905 6.4301 353.764 6.4301 379C6.4301 404.237 10.7864 426.204 19.5531 444.856ZM135.79 429.459L135.786 429.467C129.583 439.73 121.273 444.714 110.776 444.714C100.046 444.714 91.5147 439.719 85.0974 429.462C78.8787 418.946 75.664 402.204 75.664 379C75.664 355.783 78.8826 339.157 85.0974 328.87C91.5222 318.381 100.057 313.286 110.776 313.286C121.258 313.286 129.569 318.365 135.779 328.854L135.788 328.87L135.798 328.885C142.225 339.166 145.555 355.784 145.555 379C145.555 402.211 142.226 418.95 135.79 429.459ZM225 711.912H226.5V710.412V658.172V656.672H225H191.885V618.575V617.075H190.385H128.145H126.645V618.575V656.672H83.757L176.971 522.937L178.615 520.58H175.741H107.51H106.741L106.292 521.204L1.78197 666.613L1.5 667.005V667.488V710.412V711.912H3H124.648V755V756.5H126.148H190.385H191.885V755V711.912H225Z" stroke="#604AF6" stroke-opacity="0.2" stroke-width="3"/>
</svg>
