<svg width="1683" height="613" viewBox="0 0 1683 613" fill="none" xmlns="http://www.w3.org/2000/svg">
<path d="M559.009 488.099H560.509V486.599V355.694V354.194H559.009H473.815V256.473V254.973H472.315H316.432H314.932V256.473V354.194H200.935L436.867 15.5305L438.51 13.1731H435.636H264.749H263.98L263.531 13.7979L1.78176 378.165L1.5 378.557V379.04V486.599V488.099H3H309.931V598.327V599.827H311.431H472.315H473.815V598.327V488.099H559.009ZM606.996 470.561L607.001 470.571L607.005 470.581C629.345 516.388 660.094 551.358 699.264 575.425C738.424 599.486 783.159 611.5 833.425 611.5C883.138 611.5 927.595 599.484 966.752 575.425C1005.92 551.357 1036.4 516.385 1058.18 470.574C1080.53 424.194 1091.67 369.488 1091.67 306.5C1091.67 243.516 1080.53 189.087 1058.18 143.261C1036.4 96.8975 1005.93 61.6454 966.752 37.575C927.595 13.5158 883.138 1.5 833.425 1.5C783.159 1.5 738.424 13.5142 699.264 37.575C660.089 61.6453 629.341 96.8968 607.002 143.26L606.999 143.267C585.209 189.091 574.343 243.518 574.343 306.5C574.343 369.483 585.21 424.184 606.996 470.561ZM897.999 434.121L897.995 434.128C882.111 460.425 860.614 473.426 833.425 473.426C805.669 473.426 783.618 460.414 767.185 434.124C751.285 407.241 743.229 364.778 743.229 306.5C743.229 248.211 751.288 206.032 767.184 179.711C783.624 152.853 805.679 139.574 833.425 139.574C860.598 139.574 882.097 152.837 897.988 179.694L897.997 179.709L898.007 179.725C914.449 206.039 922.787 248.211 922.787 306.5C922.787 364.785 914.451 407.244 897.999 434.121ZM1680 488.099H1681.5V486.599V355.694V354.194H1680H1594.81V256.473V254.973H1593.31H1437.42H1435.92V256.473V354.194H1321.93L1557.86 15.5305L1559.5 13.1731H1556.63H1385.74H1384.97L1384.52 13.7979L1122.77 378.165L1122.49 378.557V379.04V486.599V488.099H1123.99H1430.92V598.327V599.827H1432.42H1593.31H1594.81V598.327V488.099H1680Z" stroke="#604AF7" stroke-opacity="0.2" stroke-width="3"/>
</svg>
