<svg width="211" height="762" viewBox="0 0 211 762" fill="none" xmlns="http://www.w3.org/2000/svg">
<path d="M130.937 162.578C130.937 169.792 127.792 175.425 121.329 179.599C115.008 183.603 106.352 185.679 95.2248 185.679C84.0785 185.679 72.9252 184.04 61.7612 180.754C50.8255 177.471 40.774 172.769 31.6002 166.649L30.1586 165.688L29.4135 167.252L5.82354 216.788L5.25246 217.987L6.37374 218.699C18.052 226.115 31.9401 231.822 48.0132 235.843L48.0179 235.844C64.3032 239.862 80.7042 241.872 97.2183 241.872C119.739 241.872 138.69 238.304 154.008 231.091L154.017 231.087C169.505 223.674 181.047 213.857 188.537 201.595C196.214 189.168 200.055 175.598 200.055 160.916C200.055 138.351 192.027 120.188 175.938 106.581C160.04 92.9481 135.582 86.2757 102.867 86.2757H88.8889L91.6146 55.3654H183.936H185.436V53.8654V3V1.5H183.936H35.7516H34.3744L34.257 2.87218L22.6282 138.846L22.489 140.474H24.1227H87.2508C104.063 140.474 115.433 142.483 121.697 146.244C127.89 149.962 130.937 155.347 130.937 162.578ZM14.6001 444.471L14.6048 444.481L14.6096 444.491C23.5802 462.892 35.9459 476.973 51.7202 486.668C67.4839 496.358 85.481 501.186 105.666 501.186C125.633 501.186 143.519 496.356 159.28 486.668C175.057 476.971 187.313 462.887 196.063 444.482C205.039 425.843 209.5 403.892 209.5 378.673C209.5 353.458 205.041 331.617 196.063 313.197C187.315 294.573 175.06 280.376 159.28 270.677C143.519 260.99 125.633 256.16 105.666 256.16C85.481 256.16 67.4839 260.988 51.7202 270.677C35.9412 280.376 23.5755 294.571 14.6064 313.193L14.6031 313.2C5.84846 331.619 1.5 353.458 1.5 378.673C1.5 403.888 5.84869 425.835 14.6001 444.471ZM130.635 429.088L130.63 429.095C124.438 439.35 116.143 444.329 105.666 444.329C94.9568 444.329 86.4415 439.339 80.0356 429.092C73.8276 418.585 70.6183 401.857 70.6183 378.673C70.6183 355.476 73.8312 338.865 80.0349 328.587C86.4484 318.107 94.9672 313.017 105.666 313.017C116.128 313.017 124.425 318.091 130.623 328.571L130.632 328.587L130.642 328.602C137.058 338.874 140.382 355.477 140.382 378.673C140.382 401.864 137.059 418.588 130.635 429.088ZM14.6001 703.785L14.6048 703.795L14.6096 703.805C23.5802 722.206 35.9459 736.287 51.7202 745.982C67.4839 755.672 85.481 760.5 105.666 760.5C125.633 760.5 143.519 755.67 159.28 745.982C175.057 736.285 187.313 722.201 196.063 703.796C205.039 685.157 209.5 663.206 209.5 637.987C209.5 612.772 205.041 590.93 196.063 572.511C187.315 553.887 175.06 539.69 159.28 529.991C143.519 520.304 125.633 515.474 105.666 515.474C85.481 515.474 67.4839 520.302 51.7202 529.991C35.9412 539.69 23.5755 553.885 14.6064 572.507L14.6031 572.514C5.84846 590.933 1.5 612.772 1.5 637.987C1.5 663.202 5.84869 685.149 14.6001 703.785ZM130.635 688.402L130.63 688.409C124.438 698.664 116.143 703.643 105.666 703.643C94.9568 703.643 86.4415 698.653 80.0356 688.406C73.8276 677.899 70.6183 661.171 70.6183 637.987C70.6183 614.79 73.8313 598.179 80.035 587.901C86.4485 577.421 94.9672 572.331 105.666 572.331C116.128 572.331 124.425 577.405 130.623 587.885L130.632 587.901L130.642 587.916C137.058 598.188 140.382 614.791 140.382 637.987C140.382 661.178 137.059 677.902 130.635 688.402Z" stroke="#D63031" stroke-opacity="0.2" stroke-width="3"/>
</svg>
