<svg width="1440" height="613" viewBox="0 0 1440 613" fill="none" xmlns="http://www.w3.org/2000/svg">
<path d="M242.834 414.893C242.834 433.805 234.506 448.63 217.677 459.488C201.326 469.842 179.129 475.093 150.951 475.093C122.753 475.093 94.5473 470.947 66.3314 462.648C38.6783 454.352 13.2467 442.463 -9.96981 426.985L-11.4109 426.025L-12.156 427.588L-71.3541 551.823L-71.9258 553.023L-70.8037 553.735C-41.7394 572.18 -7.12169 586.41 33.0245 596.447L33.0292 596.448C73.7219 606.482 114.697 611.5 155.953 611.5C212.243 611.5 259.446 602.584 297.5 584.676L297.509 584.672C336.067 566.23 364.661 541.875 383.184 511.565C402.23 480.755 411.755 447.131 411.755 410.724C411.755 354.736 391.857 309.835 352.029 276.175C312.727 242.489 251.992 225.79 170.128 225.79H132.578L139.818 143.743H373.569H375.069V142.243V14.6731V13.1731H373.569H1.70478H0.32766L0.210243 14.5452L-28.9719 355.566L-29.1112 357.194H-27.4774H130.94C173.163 357.194 202.254 362.211 218.549 371.988C234.772 381.722 242.834 395.964 242.834 414.893ZM472.616 470.561L472.621 470.571L472.626 470.581C494.971 516.388 525.726 551.358 564.904 575.425C604.072 599.486 648.817 611.5 699.094 611.5C748.818 611.5 793.284 599.484 832.449 575.425C871.632 551.356 902.111 516.381 923.9 470.567C946.25 424.189 957.397 369.485 957.397 306.5C957.397 243.518 946.251 189.09 923.899 143.264C902.112 96.899 871.634 61.6459 832.449 37.5749C793.284 13.5158 748.818 1.5 699.094 1.5C648.817 1.5 604.072 13.5141 564.904 37.5749C525.721 61.6452 494.966 96.8967 472.623 143.26L472.619 143.266C450.825 189.091 439.957 243.518 439.957 306.5C439.957 369.483 450.825 424.184 472.616 470.561ZM763.683 434.121L763.678 434.128C747.791 460.425 726.289 473.426 699.094 473.426C671.332 473.426 649.276 460.414 632.839 434.124C616.936 407.241 608.878 364.778 608.878 306.5C608.878 248.211 616.939 206.032 632.838 179.711C649.282 152.854 671.342 139.574 699.094 139.574C726.274 139.574 747.777 152.837 763.671 179.694L763.68 179.71L763.69 179.725C780.136 206.039 788.475 248.211 788.475 306.5C788.475 364.785 780.138 407.244 763.683 434.121ZM1026.72 470.561L1026.72 470.571L1026.73 470.581C1049.07 516.388 1079.83 551.358 1119.01 575.425C1158.18 599.486 1202.92 611.5 1253.2 611.5C1302.92 611.5 1347.39 599.484 1386.55 575.425C1425.73 551.357 1456.21 516.385 1478 470.574C1500.35 424.194 1511.5 369.488 1511.5 306.5C1511.5 243.516 1500.35 189.087 1478 143.26C1456.21 96.8973 1425.74 61.6453 1386.55 37.5749C1347.39 13.5158 1302.92 1.5 1253.2 1.5C1202.92 1.5 1158.18 13.5141 1119.01 37.5749C1079.82 61.6452 1049.07 96.8967 1026.73 143.26L1026.72 143.266C1004.93 189.091 994.06 243.518 994.06 306.5C994.06 369.483 1004.93 424.184 1026.72 470.561ZM1317.79 434.121L1317.78 434.128C1301.89 460.425 1280.39 473.426 1253.2 473.426C1225.44 473.426 1203.38 460.415 1186.94 434.126C1171.04 407.243 1162.98 364.779 1162.98 306.5C1162.98 248.206 1171.04 206.026 1186.94 179.706C1203.39 152.852 1225.45 139.574 1253.2 139.574C1280.38 139.574 1301.88 152.837 1317.77 179.694L1317.78 179.71L1317.79 179.725C1334.24 206.039 1342.58 248.211 1342.58 306.5C1342.58 364.785 1334.24 407.244 1317.79 434.121Z" stroke="#D63031" stroke-opacity="0.2" stroke-width="3"/>
</svg>
