<svg width="14" height="18" viewBox="0 0 14 18" fill="none" xmlns="http://www.w3.org/2000/svg">
<g clip-path="url(#clip0_274_197)">
<path d="M11.6724 16.82C10.7712 17.7142 9.77692 17.5748 8.82918 17.1532C7.82158 16.7231 6.90044 16.6959 5.8363 17.1532C4.51113 17.738 3.8078 17.568 3.0097 16.82C-1.49623 12.077 -0.831151 4.852 4.28999 4.58C5.53203 4.648 6.40162 5.2821 7.13322 5.3348C8.22063 5.1087 9.26148 4.461 10.4254 4.546C11.8237 4.6616 12.8696 5.226 13.5679 6.2409C10.6914 8.0089 11.3731 11.8849 14.0152 12.9729C13.4864 14.3924 12.808 15.7949 11.6707 16.8319L11.6724 16.82ZM7.03345 4.529C6.89877 2.421 8.5698 0.686998 10.4919 0.516998C10.7563 2.948 8.33037 4.767 7.03345 4.529Z" fill="white"/>
</g>
<defs>
<clipPath id="clip0_274_197">
<rect width="14" height="17" fill="white" transform="translate(0 0.5)"/>
</clipPath>
</defs>
</svg>
