<svg width="18" height="18" viewBox="0 0 18 18" fill="none" xmlns="http://www.w3.org/2000/svg">
<path fill-rule="evenodd" clip-rule="evenodd" d="M0 9C0 4.03111 4.03111 0 9 0C13.9689 0 18 4.03111 18 9C18 13.9689 13.9689 18 9 18C4.03111 18 0 13.9689 0 9Z" fill="#55EFC4"/>
<path fill-rule="evenodd" clip-rule="evenodd" d="M13.5991 5.00835C13.8919 5.25428 13.9298 5.69097 13.6839 5.98374L7.86853 12.9068C7.73965 13.0603 7.55061 13.1503 7.35025 13.1537C7.1499 13.1572 6.95789 13.0736 6.82384 12.9247L4.33153 10.1554C4.07575 9.87123 4.09879 9.43349 4.38299 9.17771C4.66719 8.92193 5.10493 8.94497 5.36071 9.22917L7.32041 11.4066L12.6237 5.09317C12.8696 4.8004 13.3063 4.76243 13.5991 5.00835Z" fill="#FFFEFB"/>
</svg>
