<svg width="1440" height="464" viewBox="0 0 1440 464" fill="none" xmlns="http://www.w3.org/2000/svg">
<mask id="path-1-outside-1_385_26065" maskUnits="userSpaceOnUse" x="7.08984" y="111.437" width="1462" height="257" fill="black">
<rect fill="white" x="7.08984" y="111.437" width="1462" height="257"/>
<path d="M110.41 367.1C127.183 367.1 142.88 364.267 157.5 358.6C172.12 352.933 183.907 344.433 192.86 333.1C201.927 321.767 206.46 307.657 206.46 290.77C206.46 278.643 204.193 268.613 199.66 260.68C195.24 252.633 189.517 246.173 182.49 241.3C175.577 236.427 168.38 232.63 160.9 229.91C153.533 227.19 146.847 225.037 140.84 223.45L96.9799 211.21C91.5398 209.737 86.0998 207.923 80.6598 205.77C75.2198 203.503 70.6865 200.5 67.0598 196.76C63.4332 192.907 61.6198 187.977 61.6198 181.97C61.6198 175.623 63.7165 170.07 67.9098 165.31C72.2165 160.55 77.8265 156.867 84.7398 154.26C91.7665 151.653 99.3598 150.463 107.52 150.69C120.1 151.03 131.433 154.713 141.52 161.74C151.607 168.767 157.953 178.74 160.56 191.66L204.59 184.01C199.15 161.343 187.987 143.833 171.1 131.48C154.213 119.013 133.19 112.667 108.03 112.44C91.4832 112.327 76.4098 114.99 62.8098 120.43C49.3232 125.757 38.5565 133.747 30.5098 144.4C22.5765 155.053 18.6098 168.257 18.6098 184.01C18.6098 194.777 20.3665 203.843 23.8798 211.21C27.5065 218.463 32.0965 224.413 37.6498 229.06C43.3165 233.707 49.2665 237.39 55.4998 240.11C61.8465 242.83 67.7398 244.983 73.1798 246.57L136.42 265.27C154.553 270.71 163.62 280.117 163.62 293.49C163.62 300.97 161.183 307.373 156.31 312.7C151.55 317.913 145.317 321.88 137.61 324.6C129.903 327.32 121.687 328.68 112.96 328.68C98.2265 328.68 85.1932 324.713 73.8598 316.78C62.6398 308.847 55.2165 297.627 51.5898 283.12L9.08984 289.58C11.6965 305.56 17.5898 319.387 26.7698 331.06C36.0632 342.62 47.8498 351.517 62.1298 357.75C76.5232 363.983 92.6165 367.1 110.41 367.1ZM308.877 362H349.847V155.62H429.067V117.2H229.657V155.62H308.877V362ZM463.048 362H621.148V323.58H504.018V254.39H600.748V215.97H504.018V155.62H621.148V117.2H463.048V362ZM672.135 362H821.225V323.58H713.105V117.2H672.135V362ZM860.224 362H1009.31V323.58H901.194V117.2H860.224V362ZM1027.91 362H1070.07L1086.73 308.96H1183.29L1200.12 362H1242.28L1165.1 117.2H1105.09L1027.91 362ZM1098.8 270.71L1134.67 156.81L1171.05 270.71H1098.8ZM1279.82 362H1320.79V276.49H1378.93L1420.41 362H1466.82L1421.6 269.18C1435.54 262.947 1445.91 253.483 1452.71 240.79C1459.51 228.097 1462.91 213.477 1462.91 196.93C1462.91 176.643 1457.81 159.36 1447.61 145.08C1437.52 130.687 1421.83 121.847 1400.52 118.56C1397.35 117.993 1393.89 117.653 1390.15 117.54C1386.41 117.313 1383.35 117.2 1380.97 117.2H1279.82V362ZM1320.79 238.24V155.62H1379.27C1381.54 155.62 1384.09 155.733 1386.92 155.96C1389.75 156.187 1392.36 156.583 1394.74 157.15C1401.54 158.85 1406.87 161.91 1410.72 166.33C1414.69 170.637 1417.46 175.51 1419.05 180.95C1420.75 186.39 1421.6 191.717 1421.6 196.93C1421.6 202.143 1420.75 207.47 1419.05 212.91C1417.46 218.35 1414.69 223.223 1410.72 227.53C1406.87 231.837 1401.54 234.84 1394.74 236.54C1392.36 237.22 1389.75 237.673 1386.92 237.9C1384.09 238.127 1381.54 238.24 1379.27 238.24H1320.79Z"/>
</mask>
<path d="M110.41 367.1C127.183 367.1 142.88 364.267 157.5 358.6C172.12 352.933 183.907 344.433 192.86 333.1C201.927 321.767 206.46 307.657 206.46 290.77C206.46 278.643 204.193 268.613 199.66 260.68C195.24 252.633 189.517 246.173 182.49 241.3C175.577 236.427 168.38 232.63 160.9 229.91C153.533 227.19 146.847 225.037 140.84 223.45L96.9799 211.21C91.5398 209.737 86.0998 207.923 80.6598 205.77C75.2198 203.503 70.6865 200.5 67.0598 196.76C63.4332 192.907 61.6198 187.977 61.6198 181.97C61.6198 175.623 63.7165 170.07 67.9098 165.31C72.2165 160.55 77.8265 156.867 84.7398 154.26C91.7665 151.653 99.3598 150.463 107.52 150.69C120.1 151.03 131.433 154.713 141.52 161.74C151.607 168.767 157.953 178.74 160.56 191.66L204.59 184.01C199.15 161.343 187.987 143.833 171.1 131.48C154.213 119.013 133.19 112.667 108.03 112.44C91.4832 112.327 76.4098 114.99 62.8098 120.43C49.3232 125.757 38.5565 133.747 30.5098 144.4C22.5765 155.053 18.6098 168.257 18.6098 184.01C18.6098 194.777 20.3665 203.843 23.8798 211.21C27.5065 218.463 32.0965 224.413 37.6498 229.06C43.3165 233.707 49.2665 237.39 55.4998 240.11C61.8465 242.83 67.7398 244.983 73.1798 246.57L136.42 265.27C154.553 270.71 163.62 280.117 163.62 293.49C163.62 300.97 161.183 307.373 156.31 312.7C151.55 317.913 145.317 321.88 137.61 324.6C129.903 327.32 121.687 328.68 112.96 328.68C98.2265 328.68 85.1932 324.713 73.8598 316.78C62.6398 308.847 55.2165 297.627 51.5898 283.12L9.08984 289.58C11.6965 305.56 17.5898 319.387 26.7698 331.06C36.0632 342.62 47.8498 351.517 62.1298 357.75C76.5232 363.983 92.6165 367.1 110.41 367.1ZM308.877 362H349.847V155.62H429.067V117.2H229.657V155.62H308.877V362ZM463.048 362H621.148V323.58H504.018V254.39H600.748V215.97H504.018V155.62H621.148V117.2H463.048V362ZM672.135 362H821.225V323.58H713.105V117.2H672.135V362ZM860.224 362H1009.31V323.58H901.194V117.2H860.224V362ZM1027.91 362H1070.07L1086.73 308.96H1183.29L1200.12 362H1242.28L1165.1 117.2H1105.09L1027.91 362ZM1098.8 270.71L1134.67 156.81L1171.05 270.71H1098.8ZM1279.82 362H1320.79V276.49H1378.93L1420.41 362H1466.82L1421.6 269.18C1435.54 262.947 1445.91 253.483 1452.71 240.79C1459.51 228.097 1462.91 213.477 1462.91 196.93C1462.91 176.643 1457.81 159.36 1447.61 145.08C1437.52 130.687 1421.83 121.847 1400.52 118.56C1397.35 117.993 1393.89 117.653 1390.15 117.54C1386.41 117.313 1383.35 117.2 1380.97 117.2H1279.82V362ZM1320.79 238.24V155.62H1379.27C1381.54 155.62 1384.09 155.733 1386.92 155.96C1389.75 156.187 1392.36 156.583 1394.74 157.15C1401.54 158.85 1406.87 161.91 1410.72 166.33C1414.69 170.637 1417.46 175.51 1419.05 180.95C1420.75 186.39 1421.6 191.717 1421.6 196.93C1421.6 202.143 1420.75 207.47 1419.05 212.91C1417.46 218.35 1414.69 223.223 1410.72 227.53C1406.87 231.837 1401.54 234.84 1394.74 236.54C1392.36 237.22 1389.75 237.673 1386.92 237.9C1384.09 238.127 1381.54 238.24 1379.27 238.24H1320.79Z" stroke="url(#paint0_linear_385_26065)" stroke-opacity="0.4" stroke-width="2" mask="url(#path-1-outside-1_385_26065)"/>
<defs>
<linearGradient id="paint0_linear_385_26065" x1="738.5" y1="7.32531e-06" x2="738.5" y2="464" gradientUnits="userSpaceOnUse">
<stop stop-color="white"/>
<stop offset="1" stop-color="white" stop-opacity="0"/>
</linearGradient>
</defs>
</svg>
