<svg width="1113" height="464" viewBox="0 0 1113 464" fill="none" xmlns="http://www.w3.org/2000/svg">
<path d="M23.3008 362V362.5H23.8008H64.7708H65.2708V362V276.99H124.951C127.232 276.99 130.247 276.876 133.991 276.649C137.855 276.422 141.382 276.081 144.572 275.625L144.578 275.624C165.76 272.321 181.533 263.483 191.827 249.071C202.21 234.581 207.391 217.193 207.391 196.93C207.391 176.557 202.268 159.169 192 144.792C181.819 130.265 165.988 121.37 144.583 118.067C141.386 117.496 137.909 117.155 134.153 117.04C130.412 116.814 127.343 116.7 124.951 116.7H23.8008H23.3008V117.2V362ZM154.324 166.659L154.324 166.659L154.333 166.669C158.249 170.921 160.986 175.726 162.551 181.09L162.554 181.099C164.24 186.495 165.081 191.772 165.081 196.93C165.081 202.088 164.24 207.365 162.553 212.761L162.551 212.77C160.986 218.133 158.249 222.939 154.333 227.191L154.328 227.197C150.555 231.414 145.323 234.374 138.6 236.055L138.591 236.057L138.583 236.059C136.24 236.729 133.666 237.177 130.861 237.402C128.038 237.627 125.501 237.74 123.251 237.74H65.2708V156.12H123.251C125.501 156.12 128.038 156.233 130.861 156.458C133.672 156.683 136.251 157.076 138.602 157.636C145.321 159.316 150.551 162.33 154.324 166.659ZM250.649 362V362.5H251.149H292.119H292.619V362V117.2V116.7H292.119H251.149H250.649V117.2V362ZM329.027 361.722L328.505 362.5H329.442H379.932H380.204L380.351 362.273L437.732 274.008L494.943 362.272L495.09 362.5H495.362H545.512H546.447L545.928 361.722L463.493 238.24L543.888 117.477L544.406 116.7H543.472H492.982H492.709L492.561 116.93L437.73 202.466L382.392 116.928L382.244 116.7H381.972H331.822H330.889L331.406 117.477L411.801 238.239L329.027 361.722ZM735.833 351.547L735.833 351.546C753.484 340.728 766.978 325.696 776.311 306.46C785.757 287.227 790.472 264.936 790.472 239.6C790.472 214.151 785.757 191.86 776.311 172.738C766.977 153.504 753.483 138.528 735.833 127.823C718.287 117 697.226 111.6 672.672 111.6C648.23 111.6 627.17 117.001 609.511 127.824C591.973 138.529 578.48 153.505 569.033 172.74L569.033 172.741C559.7 191.861 555.042 214.152 555.042 239.6C555.042 264.935 559.7 287.225 569.032 306.458L569.033 306.46C578.48 325.695 591.973 340.727 609.51 351.546L609.513 351.548C627.171 362.256 648.231 367.6 672.672 367.6C697.226 367.6 718.287 362.257 735.833 351.547ZM631.983 161.984L631.985 161.982C642.761 154.574 656.31 150.964 672.665 151.19C697.256 151.528 715.568 159.699 727.694 175.643L727.696 175.644C739.963 191.626 746.122 212.928 746.122 239.6C746.122 257.342 743.354 272.915 737.83 286.33L737.829 286.332C732.423 299.621 724.267 309.909 713.364 317.215L713.362 317.216C702.585 324.513 689.035 328.122 672.678 328.01C648.202 327.671 629.889 319.501 617.649 303.556C605.382 287.575 599.279 266.274 599.392 239.603C599.505 221.745 602.274 206.171 607.685 192.868C613.092 179.577 621.193 169.29 631.983 161.984ZM833.51 362V362.5H834.01H983.1H983.6V362V323.58V323.08H983.1H875.48V117.2V116.7H874.98H834.01H833.51V117.2V362ZM1018.2 362V362.5H1018.7H1096.73C1098.66 362.5 1102.69 362.443 1108.81 362.33C1115.06 362.216 1120.97 361.819 1126.54 361.136L1126.54 361.136C1146.12 358.632 1162.64 351.742 1176.1 340.453L1176.1 340.451C1189.54 329.061 1199.73 314.598 1206.67 297.074C1213.61 279.556 1217.08 260.396 1217.08 239.6C1217.08 218.804 1213.61 199.644 1206.67 182.126C1199.73 164.602 1189.54 150.139 1176.1 138.749C1162.65 127.345 1146.12 120.454 1126.54 118.064L1126.54 118.064C1120.85 117.381 1114.94 116.984 1108.81 116.87C1102.8 116.757 1098.77 116.7 1096.73 116.7H1018.7H1018.2V117.2V362ZM1096.73 322.91H1060.85V156.29H1096.73C1100.12 156.29 1104.42 156.403 1109.63 156.63L1109.64 156.63C1114.83 156.743 1119.5 157.25 1123.65 158.149L1123.67 158.151C1134.9 160.286 1144.1 165.28 1151.27 173.127C1158.47 180.998 1163.82 190.733 1167.31 202.344L1167.31 202.35C1170.92 213.856 1172.73 226.272 1172.73 239.6C1172.73 252.362 1171.04 264.555 1167.65 276.18C1164.27 287.789 1158.92 297.637 1151.61 305.735L1151.98 306.07L1151.61 305.735C1144.43 313.694 1135.13 318.802 1123.66 321.049C1119.5 321.837 1114.82 322.345 1109.63 322.57C1104.42 322.797 1100.12 322.91 1096.73 322.91Z" stroke="url(#paint0_linear_385_26068)" stroke-opacity="0.4"/>
<defs>
<linearGradient id="paint0_linear_385_26068" x1="616.5" y1="-3.64995e-06" x2="616.5" y2="464" gradientUnits="userSpaceOnUse">
<stop stop-color="white"/>
<stop offset="1" stop-color="white" stop-opacity="0"/>
</linearGradient>
</defs>
</svg>
