<svg width="18" height="18" viewBox="0 0 18 18" fill="none" xmlns="http://www.w3.org/2000/svg">
<path fill-rule="evenodd" clip-rule="evenodd" d="M0 9C0 13.9689 4.03111 18 9 18C13.9689 18 18 13.9689 18 9C18 4.03111 13.9689 0 9 0C4.03111 0 0 4.03111 0 9Z" fill="#D63031"/>
<path fill-rule="evenodd" clip-rule="evenodd" d="M6.72042 12.2588C6.45005 12.5291 6.01171 12.5291 5.74135 12.2588C5.47098 11.9884 5.47098 11.5501 5.74135 11.2797L8.02104 9.00001L5.74135 6.72031C5.47098 6.44995 5.47098 6.01161 5.74135 5.74124C6.01171 5.47088 6.45005 5.47088 6.72042 5.74124L9.00011 8.02094L11.2798 5.74124C11.5502 5.47088 11.9885 5.47088 12.2589 5.74124C12.5292 6.01161 12.5292 6.44995 12.2589 6.72031L9.97918 9.00001L12.2589 11.2797C12.5292 11.5501 12.5292 11.9884 12.2589 12.2588C11.9885 12.5291 11.5502 12.5291 11.2798 12.2588L9.00011 9.97908L6.72042 12.2588Z" fill="#FFFEFB"/>
</svg>
