<svg width="30" height="24" viewBox="0 0 30 24" fill="none" xmlns="http://www.w3.org/2000/svg">
<g clip-path="url(#clip0_1189_401)">
<g clip-path="url(#clip1_1189_401)">
<path d="M25.416 2.00999C23.4738 1.071 21.3971 0.388577 19.226 0C18.9594 0.498142 18.6479 1.16815 18.4331 1.70115C16.1251 1.34249 13.8384 1.34249 11.5729 1.70115C11.3582 1.16815 11.0396 0.498142 10.7705 0C8.59708 0.388577 6.518 1.07351 4.57581 2.01497C0.658385 8.13203 -0.403564 14.0972 0.127412 19.9776C2.72565 21.9826 5.24366 23.2005 7.71918 23.9975C8.3304 23.1283 8.87552 22.2042 9.34513 21.2304C8.45074 20.8792 7.5941 20.4459 6.78469 19.9427C6.99942 19.7784 7.20947 19.6065 7.4124 19.4296C12.3493 21.8157 17.7133 21.8157 22.5912 19.4296C22.7965 19.6065 23.0065 19.7784 23.2189 19.9427C22.4071 20.4483 21.5482 20.8817 20.6538 21.2329C21.1234 22.2042 21.6662 23.1308 22.2797 24C24.7576 23.203 27.278 21.9851 29.8762 19.9776C30.4992 13.1607 28.8119 7.25033 25.416 2.00999ZM10.0177 16.3612C8.53571 16.3612 7.32035 14.9315 7.32035 13.1906C7.32035 11.4496 8.50976 10.0175 10.0177 10.0175C11.5257 10.0175 12.741 11.4471 12.7151 13.1906C12.7174 14.9315 11.5257 16.3612 10.0177 16.3612ZM19.9859 16.3612C18.5039 16.3612 17.2885 14.9315 17.2885 13.1906C17.2885 11.4496 18.4779 10.0175 19.9859 10.0175C21.4939 10.0175 22.7092 11.4471 22.6833 13.1906C22.6833 14.9315 21.4939 16.3612 19.9859 16.3612Z" fill="#474E50"/>
</g>
</g>
<defs>
<clipPath id="clip0_1189_401">
<rect width="30" height="24" fill="white"/>
</clipPath>
<clipPath id="clip1_1189_401">
<rect width="120" height="24" fill="white"/>
</clipPath>
</defs>
</svg>
