<svg width="27" height="34" viewBox="0 0 27 34" fill="none" xmlns="http://www.w3.org/2000/svg">
<path d="M2.54206 21.9251C3.26407 22.3445 3.99109 22.728 4.72312 23.0758C5.45515 23.4134 6.20724 23.7151 6.97939 23.981C7.76156 24.2368 8.56379 24.4567 9.38607 24.6408C10.2184 24.8147 11.0958 24.9374 12.0184 25.009V18.9639C11.507 19.0253 11.0156 19.0764 10.5443 19.1173C10.073 19.1582 9.61671 19.1787 9.17549 19.1787C8.12256 19.1787 7.10975 19.0406 6.13705 18.7644C5.17437 18.4883 4.31699 18.074 3.5649 17.5217C2.82284 16.9693 2.2312 16.2789 1.78997 15.4504C1.34875 14.6218 1.12813 13.6552 1.12813 12.5505C1.12813 11.6095 1.31866 10.6838 1.69972 9.77347C2.09081 8.85289 2.71755 8.02948 3.57994 7.30325C4.45237 6.56679 5.5805 5.95818 6.96434 5.47744C8.34819 4.99669 10.0329 4.72052 12.0184 4.64892V0H15.5833V4.74097C17.2579 4.8944 18.8624 5.17569 20.3967 5.58484C21.9409 5.99398 23.3549 6.49007 24.6384 7.0731L22.5476 11.0009C21.5448 10.5611 20.4618 10.1724 19.2986 9.83484C18.1354 9.49729 16.8969 9.25181 15.5833 9.09838V13.9774C16.0646 13.9263 16.546 13.8854 17.0273 13.8547C17.5086 13.8138 17.9799 13.7933 18.4412 13.7933C19.8251 13.7933 21.0485 13.9519 22.1114 14.269C23.1844 14.586 24.0819 15.0412 24.8039 15.6345C25.5259 16.2175 26.0724 16.9284 26.4435 17.7671C26.8145 18.5957 27 19.5265 27 20.5596C27 21.8381 26.7292 22.994 26.1877 24.0271C25.6563 25.0499 24.8941 25.9347 23.9014 26.6814C22.9187 27.4281 21.7203 28.0265 20.3064 28.4765C18.9025 28.9266 17.3281 29.213 15.5833 29.3357V34H12.0184V29.3511C9.69192 29.2079 7.50585 28.8294 5.46017 28.2157C3.42451 27.5918 1.60446 26.8093 0 25.8682L2.54206 21.9251ZM6.12201 12.0903C6.12201 12.8063 6.43788 13.3944 7.06964 13.8547C7.70139 14.3048 8.66407 14.5298 9.95766 14.5298C10.2485 14.5298 10.5694 14.5196 10.9203 14.4991C11.2713 14.4684 11.6373 14.4326 12.0184 14.3917V8.96029C10.8852 9.0012 9.9376 9.12395 9.17549 9.32852C8.4234 9.53309 7.82173 9.78369 7.37047 10.0803C6.91922 10.377 6.59833 10.7043 6.4078 11.0623C6.21727 11.41 6.12201 11.7527 6.12201 12.0903ZM15.5833 25.0397C16.7265 24.9681 17.7042 24.8198 18.5164 24.5948C19.3287 24.3697 19.9905 24.0884 20.5019 23.7509C21.0234 23.4031 21.3994 23.0093 21.6301 22.5695C21.8708 22.1297 21.9911 21.6643 21.9911 21.1733C21.9911 20.3039 21.6351 19.6185 20.9231 19.1173C20.2111 18.6059 19.1131 18.3502 17.629 18.3502C17.3081 18.3502 16.9721 18.3655 16.6212 18.3962C16.2802 18.4167 15.9343 18.4474 15.5833 18.4883V25.0397Z" fill="#604AF7"/>
</svg>
