<svg width="100%" height="100%" viewBox="0 0 144 144" fill="none" xmlns="http://www.w3.org/2000/svg">
<path fill-rule="evenodd" clip-rule="evenodd" d="M144 72C144 32.2386 111.761 0 72 0C32.2386 0 0 32.2386 0 72C0 107.934 26.3257 137.722 60.7511 143.13V92.8175H42.4649V72H60.7511V56.1337C60.7511 38.0905 71.5039 28.1173 87.9471 28.1173C95.8243 28.1173 104.066 29.5246 104.066 29.5246V47.2439H94.9839C86.0437 47.2439 83.2489 52.7925 83.2489 58.4928V71.9994H103.215L100.026 92.8169H83.2483V143.129C117.674 137.732 143.999 107.944 143.999 71.9994L144 72Z" fill="white"/>
</svg>
