<svg width="37" height="31" viewBox="0 0 37 31" fill="none" xmlns="http://www.w3.org/2000/svg">
<path d="M30.9757 4.92787L33.8955 9.804C35.7693 12.9333 35.7907 16.8347 33.9513 19.9843L30.9589 25.1082C29.1662 28.178 25.8785 30.0652 22.3237 30.0652L15.6316 30.0652C12.0995 30.0652 8.8294 28.2019 7.02872 25.1632L3.99276 20.04C2.10981 16.8626 2.13163 12.9059 4.04951 9.7494L7.01264 4.87258C8.82631 1.88758 12.066 0.0651845 15.5588 0.0651846L22.3962 0.0651849C25.912 0.0651851 29.1696 1.91148 30.9757 4.92787Z" fill="#604AF7"/>
<path d="M11 14.0689C11 10.7172 13.8803 8 17.4332 8C19.1394 8 20.7757 8.63941 21.9822 9.77755C23.1887 10.9157 23.8665 12.4594 23.8665 14.0689C23.8665 17.4207 20.9862 20.1379 17.4332 20.1379C13.8803 20.1379 11 17.4207 11 14.0689Z" fill="white"/>
<path d="M23.76 18.958L25.676 20.4015H25.7093C26.0969 20.7672 26.0969 21.3601 25.7093 21.7257C25.3216 22.0914 24.6932 22.0914 24.3055 21.7257L22.7155 20.0249C22.5652 19.8836 22.4807 19.6917 22.4807 19.4915C22.4807 19.2913 22.5652 19.0993 22.7155 18.958C23.0054 18.6893 23.4701 18.6893 23.76 18.958Z" fill="white"/>
</svg>
