<svg width="48" height="48" viewBox="0 0 48 48" fill="none" xmlns="http://www.w3.org/2000/svg">
<path fill-rule="evenodd" clip-rule="evenodd" d="M24 5C24.7575 5 25.4501 5.428 25.7889 6.10557L30.9467 16.4212L42.2879 18.0708C43.0411 18.1804 43.6669 18.708 43.9021 19.432C44.1373 20.1559 43.9412 20.9506 43.3962 21.482L35.1419 29.5299L36.9987 40.877C37.1215 41.6269 36.8086 42.3816 36.1913 42.8248C35.5739 43.2679 34.7588 43.3229 34.0876 42.9667L24 37.6141L13.9124 42.9667C13.2412 43.3229 12.4261 43.2679 11.8087 42.8248C11.1914 42.3816 10.8785 41.6269 11.0012 40.877L12.8581 29.5299L4.6038 21.482C4.05879 20.9506 3.86266 20.1559 4.09788 19.432C4.33309 18.708 4.95886 18.1804 5.71212 18.0708L17.0533 16.4212L22.2111 6.10557C22.5499 5.428 23.2425 5 24 5ZM24 11.4721L20.1639 19.1444C19.8712 19.7298 19.3106 20.135 18.6629 20.2292L10.2968 21.4461L16.3962 27.393C16.8636 27.8487 17.0792 28.5038 16.9737 29.148L15.6 37.543L23.0626 33.5833C23.6488 33.2722 24.3512 33.2722 24.9374 33.5833L32.4 37.543L31.0262 29.148C30.9208 28.5038 31.1364 27.8487 31.6038 27.393L37.7032 21.4461L29.3371 20.2292C28.6894 20.135 28.1288 19.7298 27.8361 19.1444L24 11.4721Z" fill="#010010"/>
</svg>
