<svg width="18" height="18" viewBox="0 0 18 18" fill="none" xmlns="http://www.w3.org/2000/svg">
<g clip-path="url(#clip0_274_201)">
<path d="M18.0002 9.20669C18.0002 8.59489 17.9495 7.97979 17.8416 7.37791H9.18066V10.8437H14.1404C13.9346 11.9614 13.2733 12.9502 12.3049 13.5785V15.8273H15.2639C17.0015 14.2598 18.0002 11.9449 18.0002 9.20669Z" fill="white"/>
<path d="M9.18005 18C11.6565 18 13.745 17.203 15.2666 15.8273L12.3077 13.5786C11.4844 14.1275 10.4217 14.4384 9.18342 14.4384C6.78792 14.4384 4.7568 12.8543 4.02803 10.7246H0.974609V13.0428C2.53337 16.0819 5.70826 18 9.18005 18Z" fill="white"/>
<path d="M4.02485 10.7246C3.64022 9.60683 3.64022 8.39647 4.02485 7.2787V4.96049H0.974804C-0.327539 7.50358 -0.327539 10.4997 0.974804 13.0428L4.02485 10.7246Z" fill="white"/>
<path d="M9.18005 3.56163C10.4891 3.54179 11.7544 4.02461 12.7024 4.91089L15.324 2.34135C13.664 0.813518 11.4608 -0.0264599 9.18005 -3.85207e-06C5.70826 -3.85207e-06 2.53337 1.91806 0.974609 4.9605L4.02466 7.2787C4.75005 5.14569 6.78454 3.56163 9.18005 3.56163Z" fill="white"/>
</g>
<defs>
<clipPath id="clip0_274_201">
<rect width="18" height="18" fill="white"/>
</clipPath>
</defs>
</svg>
