<svg width="242" height="263" viewBox="0 0 242 263" fill="none" xmlns="http://www.w3.org/2000/svg">
<g filter="url(#filter0_d_287_8454)">
<path d="M117.317 46.0001L187.74 86.6589V167.976L117.317 208.635L46.8945 167.976L46.8945 86.6589L117.317 46.0001Z" fill="#FFEC40"/>
</g>
<path fill-rule="evenodd" clip-rule="evenodd" d="M118 108C118.758 108 119.45 108.428 119.789 109.106L124.947 119.421L136.288 121.071C137.041 121.18 137.667 121.708 137.902 122.432C138.137 123.156 137.941 123.951 137.396 124.482L129.142 132.53L130.999 143.877C131.121 144.627 130.809 145.382 130.191 145.825C129.574 146.268 128.759 146.323 128.088 145.967L118 140.614L107.912 145.967C107.241 146.323 106.426 146.268 105.809 145.825C105.191 145.382 104.879 144.627 105.001 143.877L106.858 132.53L98.6038 124.482C98.0588 123.951 97.8627 123.156 98.0979 122.432C98.3331 121.708 98.9589 121.18 99.7121 121.071L111.053 119.421L116.211 109.106C116.55 108.428 117.242 108 118 108ZM118 114.472L114.164 122.144C113.871 122.73 113.311 123.135 112.663 123.229L104.297 124.446L110.396 130.393C110.864 130.849 111.079 131.504 110.974 132.148L109.6 140.543L117.063 136.583C117.649 136.272 118.351 136.272 118.937 136.583L126.4 140.543L125.026 132.148C124.921 131.504 125.136 130.849 125.604 130.393L131.703 124.446L123.337 123.229C122.689 123.135 122.129 122.73 121.836 122.144L118 114.472Z" fill="#010010"/>
<defs>
<filter id="filter0_d_287_8454" x="0.89447" y="0.00012207" width="240.846" height="262.635" filterUnits="userSpaceOnUse" color-interpolation-filters="sRGB">
<feFlood flood-opacity="0" result="BackgroundImageFix"/>
<feColorMatrix in="SourceAlpha" type="matrix" values="0 0 0 0 0 0 0 0 0 0 0 0 0 0 0 0 0 0 127 0" result="hardAlpha"/>
<feOffset dx="4" dy="4"/>
<feGaussianBlur stdDeviation="25"/>
<feComposite in2="hardAlpha" operator="out"/>
<feColorMatrix type="matrix" values="0 0 0 0 1 0 0 0 0 0.92549 0 0 0 0 0.25098 0 0 0 1 0"/>
<feBlend mode="normal" in2="BackgroundImageFix" result="effect1_dropShadow_287_8454"/>
<feBlend mode="normal" in="SourceGraphic" in2="effect1_dropShadow_287_8454" result="shape"/>
</filter>
</defs>
</svg>
