<svg width="258" height="258" viewBox="0 0 258 258" fill="none" xmlns="http://www.w3.org/2000/svg">
<g filter="url(#filter0_d_287_8456)">
<path d="M182.501 67.5003L203.547 146.047L146.047 203.547L67.5003 182.501L46.4538 103.954L103.954 46.4537L182.501 67.5003Z" fill="#3DACFD"/>
</g>
<path fill-rule="evenodd" clip-rule="evenodd" d="M125 106C125.758 106 126.45 106.428 126.789 107.106L131.947 117.421L143.288 119.071C144.041 119.18 144.667 119.708 144.902 120.432C145.137 121.156 144.941 121.951 144.396 122.482L136.142 130.53L137.999 141.877C138.122 142.627 137.809 143.382 137.191 143.825C136.574 144.268 135.759 144.323 135.088 143.967L125 138.614L114.912 143.967C114.241 144.323 113.426 144.268 112.809 143.825C112.191 143.382 111.879 142.627 112.001 141.877L113.858 130.53L105.604 122.482C105.059 121.951 104.863 121.156 105.098 120.432C105.333 119.708 105.959 119.18 106.712 119.071L118.053 117.421L123.211 107.106C123.55 106.428 124.243 106 125 106ZM125 112.472L121.164 120.144C120.871 120.73 120.311 121.135 119.663 121.229L111.297 122.446L117.396 128.393C117.864 128.849 118.079 129.504 117.974 130.148L116.6 138.543L124.063 134.583C124.649 134.272 125.351 134.272 125.937 134.583L133.4 138.543L132.026 130.148C131.921 129.504 132.136 128.849 132.604 128.393L138.703 122.446L130.337 121.229C129.69 121.135 129.129 120.73 128.836 120.144L125 112.472Z" fill="#010010"/>
<defs>
<filter id="filter0_d_287_8456" x="0.453857" y="0.453735" width="257.093" height="257.093" filterUnits="userSpaceOnUse" color-interpolation-filters="sRGB">
<feFlood flood-opacity="0" result="BackgroundImageFix"/>
<feColorMatrix in="SourceAlpha" type="matrix" values="0 0 0 0 0 0 0 0 0 0 0 0 0 0 0 0 0 0 127 0" result="hardAlpha"/>
<feOffset dx="4" dy="4"/>
<feGaussianBlur stdDeviation="25"/>
<feComposite in2="hardAlpha" operator="out"/>
<feColorMatrix type="matrix" values="0 0 0 0 0.239216 0 0 0 0 0.67451 0 0 0 0 0.992157 0 0 0 1 0"/>
<feBlend mode="normal" in2="BackgroundImageFix" result="effect1_dropShadow_287_8456"/>
<feBlend mode="normal" in="SourceGraphic" in2="effect1_dropShadow_287_8456" result="shape"/>
</filter>
</defs>
</svg>
