<svg width="987" height="1313" viewBox="0 0 987 1313" fill="none" xmlns="http://www.w3.org/2000/svg">
<g filter="url(#filter0_d_145_2496)">
<path d="M549.457 681.872H548.238L547.628 680.754L548.238 679.738H549.457L550.067 680.754L549.457 681.872Z" fill="#ACA7E9"/>
<path d="M483.807 782.583H481.165L479.945 780.347L481.165 778.112H483.807L485.128 780.347L483.807 782.583Z" fill="#ACA7E9"/>
<path d="M459.518 786.445H452.405L448.848 780.348L452.405 774.25H459.518L463.075 780.348L459.518 786.445Z" fill="#ACA7E9"/>
<path d="M472.73 794.169H465.718L462.161 787.969L465.718 781.872H472.73L476.287 787.969L472.73 794.169Z" fill="#ACA7E9"/>
<path d="M486.043 801.791H478.929L475.474 795.693L478.929 789.494H486.043L489.6 795.693L486.043 801.791Z" fill="#ACA7E9"/>
<path d="M446.205 794.169H439.193L435.636 787.969L439.193 781.872H446.205L449.762 787.969L446.205 794.169Z" fill="#ACA7E9"/>
<path d="M459.518 801.791H452.405L448.848 795.693L452.405 789.494H459.518L463.075 795.693L459.518 801.791Z" fill="#ACA7E9"/>
<path d="M472.73 809.412H465.718L462.161 803.315L465.718 797.217H472.73L476.287 803.315L472.73 809.412Z" fill="#ACA7E9"/>
<path d="M485.738 816.73H479.234L475.88 810.937L479.234 805.246H485.738L489.091 810.937L485.738 816.73Z" fill="#ACA7E9"/>
<path d="M445.596 777.705H439.803L436.958 772.725L439.803 767.746H445.596L448.441 772.725L445.596 777.705Z" fill="#ACA7E9"/>
<path d="M432.994 801.791H425.881L422.324 795.693L425.881 789.494H432.994L436.551 795.693L432.994 801.791Z" fill="#ACA7E9"/>
<path d="M446.205 809.412H439.193L435.636 803.315L439.193 797.217H446.205L449.762 803.315L446.205 809.412Z" fill="#ACA7E9"/>
<path d="M459.518 817.136H452.405L448.848 810.937L452.405 804.839H459.518L463.075 810.937L459.518 817.136Z" fill="#ACA7E9"/>
<path d="M472.73 824.758H465.718L462.161 818.66L465.718 812.563H472.73L476.287 818.66L472.73 824.758Z" fill="#ACA7E9"/>
<path d="M431.571 768.762H427.303L425.169 765.002L427.303 761.344H431.571L433.705 765.002L431.571 768.762Z" fill="#ACA7E9"/>
<path d="M432.994 786.445H425.881L422.324 780.348L425.881 774.25H432.994L436.551 780.348L432.994 786.445Z" fill="#ACA7E9"/>
<path d="M419.681 809.412H412.669L409.112 803.315L412.669 797.217H419.681L423.238 803.315L419.681 809.412Z" fill="#ACA7E9"/>
<path d="M432.994 817.136H425.881L422.324 810.937L425.881 804.839H432.994L436.551 810.937L432.994 817.136Z" fill="#ACA7E9"/>
<path d="M446.205 824.758H439.193L435.636 818.66L439.193 812.563H446.205L449.762 818.66L446.205 824.758Z" fill="#ACA7E9"/>
<path d="M459.518 832.38H452.405L448.848 826.282L452.405 820.185H459.518L463.075 826.282L459.518 832.38Z" fill="#ACA7E9"/>
<path d="M472.12 838.986H466.328L463.38 834.006L466.328 828.925H472.12L475.067 834.006L472.12 838.986Z" fill="#ACA7E9"/>
<path d="M419.58 518.255H412.771L409.315 512.361L412.771 506.365H419.58L423.035 512.361L419.58 518.255Z" fill="#ACA7E9"/>
<path d="M418.462 745.998H413.889L411.551 742.035L413.889 738.071H418.462L420.799 742.035L418.462 745.998Z" fill="#ACA7E9"/>
<path d="M419.58 763.274H412.771L409.315 757.38L412.771 751.486H419.58L423.035 757.38L419.58 763.274Z" fill="#ACA7E9"/>
<path d="M419.681 778.823H412.669L409.112 772.726L412.669 766.526H419.681L423.238 772.726L419.681 778.823Z" fill="#ACA7E9"/>
<path d="M419.681 794.169H412.669L409.112 787.969L412.669 781.872H419.681L423.238 787.969L419.681 794.169Z" fill="#ACA7E9"/>
<path d="M406.47 817.136H399.356L395.799 810.937L399.356 804.839H406.47L410.027 810.937L406.47 817.136Z" fill="#ACA7E9"/>
<path d="M419.681 824.758H412.669L409.112 818.66L412.669 812.563H419.681L423.238 818.66L419.681 824.758Z" fill="#ACA7E9"/>
<path d="M432.994 832.38H425.881L422.324 826.282L425.881 820.185H432.994L436.551 826.282L432.994 832.38Z" fill="#ACA7E9"/>
<path d="M446.205 840.103H439.193L435.636 834.006L439.193 827.807H446.205L449.762 834.006L446.205 840.103Z" fill="#ACA7E9"/>
<path d="M459.518 847.725H452.405L448.848 841.628L452.405 835.53H459.518L463.075 841.628L459.518 847.725Z" fill="#ACA7E9"/>
<path d="M470.087 850.672H468.461L467.648 849.25L468.461 847.928H470.087L470.799 849.25L470.087 850.672Z" fill="#ACA7E9"/>
<path d="M406.064 494.779H399.763L396.612 489.393L399.763 483.906H406.064L409.214 489.393L406.064 494.779Z" fill="#ACA7E9"/>
<path d="M405.453 509.109H400.372L397.832 504.637L400.372 500.267H405.453L407.994 504.637L405.453 509.109Z" fill="#ACA7E9"/>
<path d="M404.844 737.665H400.982L399.153 734.413L400.982 731.161H404.844L406.673 734.413L404.844 737.665Z" fill="#ACA7E9"/>
<path d="M406.47 755.856H399.356L395.799 749.758L399.356 743.559H406.47L410.027 749.758L406.47 755.856Z" fill="#ACA7E9"/>
<path d="M406.47 771.201H399.356L395.799 765.002L399.356 758.905H406.47L410.027 765.002L406.47 771.201Z" fill="#ACA7E9"/>
<path d="M406.47 786.445H399.356L395.799 780.348L399.356 774.25H406.47L410.027 780.348L406.47 786.445Z" fill="#ACA7E9"/>
<path d="M406.47 801.791H399.356L395.799 795.693L399.356 789.494H406.47L410.027 795.693L406.47 801.791Z" fill="#ACA7E9"/>
<path d="M393.157 824.758H386.145L382.588 818.66L386.145 812.563H393.157L396.714 818.66L393.157 824.758Z" fill="#ACA7E9"/>
<path d="M406.47 832.38H399.356L395.799 826.282L399.356 820.185H406.47L410.027 826.282L406.47 832.38Z" fill="#ACA7E9"/>
<path d="M419.681 840.103H412.669L409.112 834.006L412.669 827.807H419.681L423.238 834.006L419.681 840.103Z" fill="#ACA7E9"/>
<path d="M432.994 847.725H425.881L422.324 841.628L425.881 835.53H432.994L436.551 841.628L432.994 847.725Z" fill="#ACA7E9"/>
<path d="M446.205 855.449H439.193L435.636 849.25L439.193 843.152H446.205L449.762 849.25L446.205 855.449Z" fill="#ACA7E9"/>
<path d="M459.518 863.071H452.405L448.848 856.973L452.405 850.774H459.518L463.075 856.973L459.518 863.071Z" fill="#ACA7E9"/>
<path d="M470.799 438.377H467.75L466.226 435.735L467.75 433.093H470.799L472.323 435.735L470.799 438.377Z" fill="#ACA7E9"/>
<path d="M405.25 478.215H400.575L398.136 474.048L400.575 469.881H405.25L407.689 474.048L405.25 478.215Z" fill="#ACA7E9"/>
<path d="M393.157 487.869H386.145L382.588 481.67L386.145 475.572H393.157L396.714 481.67L393.157 487.869Z" fill="#ACA7E9"/>
<path d="M391.633 500.47H387.669L385.738 497.015L387.669 493.56H391.633L393.563 497.015L391.633 500.47Z" fill="#ACA7E9"/>
<path d="M390.921 728.925H388.381L387.161 726.791L388.381 724.555H390.921L392.141 726.791L390.921 728.925Z" fill="#ACA7E9"/>
<path d="M393.157 748.234H386.145L382.588 742.035L386.145 735.937H393.157L396.714 742.035L393.157 748.234Z" fill="#ACA7E9"/>
<path d="M393.157 763.478H386.145L382.588 757.38L386.145 751.282H393.157L396.714 757.38L393.157 763.478Z" fill="#ACA7E9"/>
<path d="M393.157 778.823H386.145L382.588 772.726L386.145 766.526H393.157L396.714 772.726L393.157 778.823Z" fill="#ACA7E9"/>
<path d="M393.157 794.169H386.145L382.588 787.969L386.145 781.872H393.157L396.714 787.969L393.157 794.169Z" fill="#ACA7E9"/>
<path d="M393.157 809.412H386.145L382.588 803.315L386.145 797.217H393.157L396.714 803.315L393.157 809.412Z" fill="#ACA7E9"/>
<path d="M379.946 832.38H372.832L369.275 826.282L372.832 820.185H379.946L383.502 826.282L379.946 832.38Z" fill="#ACA7E9"/>
<path d="M393.157 840.103H386.145L382.588 834.006L386.145 827.807H393.157L396.714 834.006L393.157 840.103Z" fill="#ACA7E9"/>
<path d="M406.47 847.725H399.356L395.799 841.628L399.356 835.53H406.47L410.027 841.628L406.47 847.725Z" fill="#ACA7E9"/>
<path d="M419.681 855.449H412.669L409.112 849.25L412.669 843.152H419.681L423.238 849.25L419.681 855.449Z" fill="#ACA7E9"/>
<path d="M432.994 863.071H425.881L422.324 856.973L425.881 850.774H432.994L436.551 856.973L432.994 863.071Z" fill="#ACA7E9"/>
<path d="M446.205 870.693H439.193L435.636 864.595L439.193 858.498H446.205L449.762 864.595L446.205 870.693Z" fill="#ACA7E9"/>
<path d="M459.518 878.416H452.405L448.848 872.217L452.405 866.119H459.518L463.075 872.217L459.518 878.416Z" fill="#ACA7E9"/>
<path d="M483.299 414.19H481.673L480.961 412.768L481.673 411.446H483.299L484.112 412.768L483.299 414.19Z" fill="#ACA7E9"/>
<path d="M472.73 426.589H465.718L462.161 420.39L465.718 414.292H472.73L476.287 420.39L472.73 426.589Z" fill="#ACA7E9"/>
<path d="M459.112 433.499H452.811L449.661 428.113L452.811 422.625H459.112L462.262 428.113L459.112 433.499Z" fill="#ACA7E9"/>
<path d="M393.157 472.523H386.145L382.588 466.426L386.145 460.227H393.157L396.714 466.426L393.157 472.523Z" fill="#ACA7E9"/>
<path d="M379.946 480.145H372.832L369.275 474.048L372.832 467.95H379.946L383.502 474.048L379.946 480.145Z" fill="#ACA7E9"/>
<path d="M379.946 495.491H372.832L369.275 489.393L372.832 483.194H379.946L383.502 489.393L379.946 495.491Z" fill="#ACA7E9"/>
<path d="M379.844 510.735H372.933L369.376 504.637L372.933 498.641H379.844L383.401 504.637L379.844 510.735Z" fill="#ACA7E9"/>
<path d="M379.437 525.267H373.34L370.291 519.983L373.34 514.698H379.437L382.384 519.983L379.437 525.267Z" fill="#ACA7E9"/>
<path d="M379.742 724.86H373.035L369.681 719.067L373.035 713.275H379.742L383.096 719.067L379.742 724.86Z" fill="#ACA7E9"/>
<path d="M379.946 740.51H372.832L369.275 734.413L372.832 728.315H379.946L383.502 734.413L379.946 740.51Z" fill="#ACA7E9"/>
<path d="M379.946 755.856H372.832L369.275 749.758L372.832 743.559H379.946L383.502 749.758L379.946 755.856Z" fill="#ACA7E9"/>
<path d="M379.946 771.201H372.832L369.275 765.002L372.832 758.905H379.946L383.502 765.002L379.946 771.201Z" fill="#ACA7E9"/>
<path d="M379.946 786.445H372.832L369.275 780.348L372.832 774.25H379.946L383.502 780.348L379.946 786.445Z" fill="#392DCA"/>
<path d="M379.946 801.791H372.832L369.275 795.693L372.832 789.494H379.946L383.502 795.693L379.946 801.791Z" fill="#ACA7E9"/>
<path d="M379.946 817.136H372.832L369.275 810.937L372.832 804.839H379.946L383.502 810.937L379.946 817.136Z" fill="#ACA7E9"/>
<path d="M366.633 840.103H359.62L356.063 834.006L359.62 827.807H366.633L370.189 834.006L366.633 840.103Z" fill="#ACA7E9"/>
<path d="M379.946 847.725H372.832L369.275 841.628L372.832 835.53H379.946L383.502 841.628L379.946 847.725Z" fill="#ACA7E9"/>
<path d="M393.157 855.449H386.145L382.588 849.25L386.145 843.152H393.157L396.714 849.25L393.157 855.449Z" fill="#ACA7E9"/>
<path d="M406.47 863.071H399.356L395.799 856.973L399.356 850.774H406.47L410.027 856.973L406.47 863.071Z" fill="#ACA7E9"/>
<path d="M419.681 870.693H412.669L409.112 864.595L412.669 858.498H419.681L423.238 864.595L419.681 870.693Z" fill="#ACA7E9"/>
<path d="M432.994 878.416H425.881L422.324 872.217L425.881 866.119H432.994L436.551 872.217L432.994 878.416Z" fill="#ACA7E9"/>
<path d="M446.205 886.038H439.193L435.636 879.941L439.193 873.843H446.205L449.762 879.941L446.205 886.038Z" fill="#ACA7E9"/>
<path d="M563.38 353.723H560.839L559.518 351.487L560.839 349.252H563.38L564.599 351.487L563.38 353.723Z" fill="#ACA7E9"/>
<path d="M550.982 362.869H546.713L544.478 359.211L546.713 355.451H550.982L553.116 359.211L550.982 362.869Z" fill="#ACA7E9"/>
<path d="M539.091 372.93H532.079L528.522 366.833L532.079 360.735H539.091L542.547 366.833L539.091 372.93Z" fill="#ACA7E9"/>
<path d="M525.779 380.654H518.766L515.209 374.455L518.766 368.357H525.779L529.335 374.455L525.779 380.654Z" fill="#ACA7E9"/>
<path d="M512.567 388.276H505.453L501.998 382.178L505.453 376.081H512.567L516.022 382.178L512.567 388.276Z" fill="#ACA7E9"/>
<path d="M499.051 395.491H492.547L489.193 389.8L492.547 384.109H499.051L502.303 389.8L499.051 395.491Z" fill="#ACA7E9"/>
<path d="M485.636 402.91H479.335L476.185 397.422L479.335 391.934H485.636L488.888 397.422L485.636 402.91Z" fill="#ACA7E9"/>
<path d="M472.73 411.243H465.718L462.161 405.146L465.718 398.947H472.73L476.287 405.146L472.73 411.243Z" fill="#ACA7E9"/>
<path d="M459.518 418.865H452.405L448.848 412.768L452.405 406.67H459.518L463.075 412.768L459.518 418.865Z" fill="#ACA7E9"/>
<path d="M445.393 425.064H440.007L437.364 420.39L440.007 415.816H445.393L448.035 420.39L445.393 425.064Z" fill="#ACA7E9"/>
<path d="M393.055 456.975H386.246L382.791 451.08L386.246 445.186H393.055L396.51 451.08L393.055 456.975Z" fill="#ACA7E9"/>
<path d="M379.946 464.8H372.832L369.275 458.702L372.832 452.605H379.946L383.502 458.702L379.946 464.8Z" fill="#ACA7E9"/>
<path d="M366.633 472.523H359.62L356.063 466.426L359.62 460.227H366.633L370.189 466.426L366.633 472.523Z" fill="#ACA7E9"/>
<path d="M366.633 487.869H359.62L356.063 481.67L359.62 475.572H366.633L370.189 481.67L366.633 487.869Z" fill="#ACA7E9"/>
<path d="M366.633 503.113H359.62L356.063 497.015L359.62 490.918H366.633L370.189 497.015L366.633 503.113Z" fill="#ACA7E9"/>
<path d="M366.633 518.458H359.62L356.063 512.361L359.62 506.162H366.633L370.189 512.361L366.633 518.458Z" fill="#ACA7E9"/>
<path d="M365.413 531.568H360.84L358.604 527.605L360.84 523.743H365.413L367.649 527.605L365.413 531.568Z" fill="#ACA7E9"/>
<path d="M366.023 716.527H360.23L357.283 711.445L360.23 706.364H366.023L368.97 711.445L366.023 716.527Z" fill="#ACA7E9"/>
<path d="M366.633 732.888H359.62L356.063 726.791L359.62 720.592H366.633L370.189 726.791L366.633 732.888Z" fill="#ACA7E9"/>
<path d="M366.633 748.234H359.62L356.063 742.035L359.62 735.937H366.633L370.189 742.035L366.633 748.234Z" fill="#ACA7E9"/>
<path d="M366.633 763.478H359.62L356.063 757.38L359.62 751.282H366.633L370.189 757.38L366.633 763.478Z" fill="#ACA7E9"/>
<path d="M366.633 778.823H359.62L356.063 772.726L359.62 766.526H366.633L370.189 772.726L366.633 778.823Z" fill="#ACA7E9"/>
<path d="M366.633 794.169H359.62L356.063 787.969L359.62 781.872H366.633L370.189 787.969L366.633 794.169Z" fill="#ACA7E9"/>
<path d="M366.633 809.412H359.62L356.063 803.315L359.62 797.217H366.633L370.189 803.315L366.633 809.412Z" fill="#ACA7E9"/>
<path d="M366.633 824.758H359.62L356.063 818.66L359.62 812.563H366.633L370.189 818.66L366.633 824.758Z" fill="#ACA7E9"/>
<path d="M353.421 847.725H346.307L342.75 841.628L346.307 835.53H353.421L356.978 841.628L353.421 847.725Z" fill="#ACA7E9"/>
<path d="M366.633 855.449H359.62L356.063 849.25L359.62 843.152H366.633L370.189 849.25L366.633 855.449Z" fill="#ACA7E9"/>
<path d="M379.946 863.071H372.832L369.275 856.973L372.832 850.774H379.946L383.502 856.973L379.946 863.071Z" fill="#ACA7E9"/>
<path d="M393.157 870.693H386.145L382.588 864.595L386.145 858.498H393.157L396.714 864.595L393.157 870.693Z" fill="#ACA7E9"/>
<path d="M406.47 878.416H399.356L395.799 872.217L399.356 866.119H406.47L410.027 872.217L406.47 878.416Z" fill="#ACA7E9"/>
<path d="M419.681 886.038H412.669L409.112 879.94L412.669 873.741H419.681L423.238 879.94L419.681 886.038Z" fill="#ACA7E9"/>
<path d="M432.994 893.66H425.881L422.324 887.563L425.881 881.465H432.994L436.551 887.563L432.994 893.66Z" fill="#ACA7E9"/>
<path d="M565.514 342.138H558.705L555.25 336.244L558.705 330.248H565.514L568.868 336.244L565.514 342.138Z" fill="#ACA7E9"/>
<path d="M551.185 347.93H546.51L544.173 343.865L546.51 339.8H551.185L553.522 343.865L551.185 347.93Z" fill="#ACA7E9"/>
<path d="M538.279 356.264H532.791L530.047 351.487L532.791 346.711H538.279L541.124 351.487L538.279 356.264Z" fill="#ACA7E9"/>
<path d="M525.779 365.308H518.766L515.209 359.211L518.766 353.012H525.779L529.335 359.211L525.779 365.308Z" fill="#ACA7E9"/>
<path d="M512.567 372.93H505.453L501.998 366.833L505.453 360.735H512.567L516.124 366.833L512.567 372.93Z" fill="#ACA7E9"/>
<path d="M499.254 380.654H492.242L488.685 374.455L492.242 368.357H499.254L502.811 374.455L499.254 380.654Z" fill="#ACA7E9"/>
<path d="M486.043 388.276H478.929L475.474 382.178L478.929 375.979H486.043L489.6 382.178L486.043 388.276Z" fill="#ACA7E9"/>
<path d="M472.73 395.898H465.718L462.161 389.8L465.718 383.703H472.73L476.287 389.8L472.73 395.898Z" fill="#ACA7E9"/>
<path d="M459.518 403.621H452.405L448.848 397.422L452.405 391.325H459.518L463.075 397.422L459.518 403.621Z" fill="#ACA7E9"/>
<path d="M445.596 410.125H439.803L436.958 405.146L439.803 400.166H445.596L448.441 405.146L445.596 410.125Z" fill="#ACA7E9"/>
<path d="M390.21 436.751H389.092L388.482 435.735L389.092 434.719H390.21L390.819 435.735L390.21 436.751Z" fill="#ACA7E9"/>
<path d="M379.437 448.641H373.34L370.291 443.357L373.34 438.174H379.437L382.384 443.357L379.437 448.641Z" fill="#ACA7E9"/>
<path d="M366.633 457.178H359.62L356.063 451.08L359.62 444.983H366.633L370.189 451.08L366.633 457.178Z" fill="#ACA7E9"/>
<path d="M353.421 464.8H346.307L342.75 458.702L346.307 452.605H353.421L356.978 458.702L353.421 464.8Z" fill="#ACA7E9"/>
<path d="M353.421 480.145H346.307L342.75 474.048L346.307 467.95H353.421L356.978 474.048L353.421 480.145Z" fill="#ACA7E9"/>
<path d="M353.421 495.491H346.307L342.75 489.393L346.307 483.194H353.421L356.978 489.393L353.421 495.491Z" fill="#ACA7E9"/>
<path d="M353.421 510.836H346.307L342.75 504.637L346.307 498.54H353.421L356.978 504.637L353.421 510.836Z" fill="#ACA7E9"/>
<path d="M353.421 526.08H346.307L342.75 519.983L346.307 513.885H353.421L356.978 519.983L353.421 526.08Z" fill="#ACA7E9"/>
<path d="M351.49 538.174H348.238L346.511 535.328L348.238 532.381H351.49L353.218 535.328L351.49 538.174Z" fill="#ACA7E9"/>
<path d="M350.576 551.791H349.153L348.441 550.572L349.153 549.454H350.576L351.287 550.572L350.576 551.791Z" fill="#ACA7E9"/>
<path d="M351.897 676.689H347.832L345.799 673.132L347.832 669.576H351.897L353.929 673.132L351.897 676.689Z" fill="#ACA7E9"/>
<path d="M350.881 705.449H348.848L347.934 703.823L348.848 702.096H350.881L351.795 703.823L350.881 705.449Z" fill="#ACA7E9"/>
<path d="M353.421 725.266H346.307L342.75 719.067L346.307 712.97H353.421L356.978 719.067L353.421 725.266Z" fill="#ACA7E9"/>
<path d="M353.421 740.51H346.307L342.75 734.413L346.307 728.315H353.421L356.978 734.413L353.421 740.51Z" fill="#ACA7E9"/>
<path d="M353.421 755.856H346.307L342.75 749.758L346.307 743.559H353.421L356.978 749.758L353.421 755.856Z" fill="#ACA7E9"/>
<path d="M353.421 771.201H346.307L342.75 765.002L346.307 758.905H353.421L356.978 765.002L353.421 771.201Z" fill="#ACA7E9"/>
<path d="M353.421 786.445H346.307L342.75 780.348L346.307 774.25H353.421L356.978 780.348L353.421 786.445Z" fill="#ACA7E9"/>
<path d="M353.421 801.791H346.307L342.75 795.693L346.307 789.494H353.421L356.978 795.693L353.421 801.791Z" fill="#ACA7E9"/>
<path d="M353.421 817.136H346.307L342.75 810.937L346.307 804.839H353.421L356.978 810.937L353.421 817.136Z" fill="#ACA7E9"/>
<path d="M353.421 832.38H346.307L342.75 826.282L346.307 820.185H353.421L356.978 826.282L353.421 832.38Z" fill="#ACA7E9"/>
<path d="M340.108 855.449H333.096L329.539 849.25L333.096 843.152H340.108L343.665 849.25L340.108 855.449Z" fill="#ACA7E9"/>
<path d="M353.421 863.071H346.307L342.75 856.973L346.307 850.774H353.421L356.978 856.973L353.421 863.071Z" fill="#ACA7E9"/>
<path d="M366.633 870.693H359.62L356.063 864.595L359.62 858.498H366.633L370.189 864.595L366.633 870.693Z" fill="#ACA7E9"/>
<path d="M379.946 878.416H372.832L369.275 872.217L372.832 866.119H379.946L383.502 872.217L379.946 878.416Z" fill="#ACA7E9"/>
<path d="M393.157 886.038H386.145L382.588 879.94L386.145 873.741H393.157L396.714 879.94L393.157 886.038Z" fill="#ACA7E9"/>
<path d="M406.47 893.66H399.356L395.799 887.563L399.356 881.465H406.47L410.027 887.563L406.47 893.66Z" fill="#ACA7E9"/>
<path d="M419.681 901.384H412.669L409.112 895.184L412.669 889.087H419.681L423.238 895.184L419.681 901.384Z" fill="#ACA7E9"/>
<path d="M432.994 909.005H425.881L422.324 902.908L425.881 896.709H432.994L436.551 902.908L432.994 909.005Z" fill="#ACA7E9"/>
<path d="M576.083 314.496H574.559L573.847 313.175L574.559 311.853H576.083L576.896 313.175L576.083 314.496Z" fill="#ACA7E9"/>
<path d="M565.615 326.894H558.603L555.046 320.898L558.603 314.801H565.615L569.071 320.898L565.615 326.894Z" fill="#ACA7E9"/>
<path d="M552.405 334.618H545.291L541.734 328.52L545.291 322.422H552.405L555.86 328.52L552.405 334.618Z" fill="#ACA7E9"/>
<path d="M539.091 342.341H531.978L528.522 336.244L531.978 330.044H539.091L542.648 336.244L539.091 342.341Z" fill="#ACA7E9"/>
<path d="M525.779 349.963H518.766L515.209 343.865L518.766 337.768H525.779L529.335 343.865L525.779 349.963Z" fill="#ACA7E9"/>
<path d="M512.567 357.687H505.453L501.998 351.487L505.453 345.39H512.567L516.124 351.487L512.567 357.687Z" fill="#ACA7E9"/>
<path d="M499.254 365.308H492.242L488.685 359.211L492.242 353.012H499.254L502.811 359.211L499.254 365.308Z" fill="#ACA7E9"/>
<path d="M486.043 372.93H478.929L475.474 366.833L478.929 360.735H486.043L489.6 366.833L486.043 372.93Z" fill="#ACA7E9"/>
<path d="M472.73 380.654H465.718L462.161 374.455L465.718 368.357H472.73L476.287 374.455L472.73 380.654Z" fill="#ACA7E9"/>
<path d="M459.518 388.276H452.405L448.848 382.178L452.405 375.979H459.518L463.075 382.178L459.518 388.276Z" fill="#ACA7E9"/>
<path d="M446.205 395.898H439.193L435.636 389.8L439.193 383.703H446.205L449.762 389.8L446.205 395.898Z" fill="#ACA7E9"/>
<path d="M366.226 441.02H360.027L356.978 435.735L360.027 430.451H366.226L369.275 435.735L366.226 441.02Z" fill="#ACA7E9"/>
<path d="M353.421 449.556H346.307L342.75 443.357L346.307 437.259H353.421L356.978 443.357L353.421 449.556Z" fill="#ACA7E9"/>
<path d="M340.108 457.178H333.096L329.539 451.08L333.096 444.983H340.108L343.665 451.08L340.108 457.178Z" fill="#ACA7E9"/>
<path d="M340.108 472.523H333.096L329.539 466.426L333.096 460.227H340.108L343.665 466.426L340.108 472.523Z" fill="#ACA7E9"/>
<path d="M340.108 487.869H333.096L329.539 481.67L333.096 475.572H340.108L343.665 481.67L340.108 487.869Z" fill="#ACA7E9"/>
<path d="M340.108 503.113H333.096L329.539 497.015L333.096 490.918H340.108L343.665 497.015L340.108 503.113Z" fill="#ACA7E9"/>
<path d="M340.108 518.458H333.096L329.539 512.361L333.096 506.162H340.108L343.665 512.361L340.108 518.458Z" fill="#ACA7E9"/>
<path d="M340.108 533.804H333.096L329.539 527.604L333.096 521.507H340.108L343.665 527.604L340.108 533.804Z" fill="#ACA7E9"/>
<path d="M340.108 549.048H333.096L329.539 542.95L333.096 536.853H340.108L343.665 542.95L340.108 549.048Z" fill="#ACA7E9"/>
<path d="M337.669 651.994H335.535L334.519 650.165L335.535 648.336H337.669L338.685 650.165L337.669 651.994Z" fill="#ACA7E9"/>
<path d="M339.702 670.897H333.503L330.353 665.511L333.503 660.023H339.702L342.852 665.511L339.702 670.897Z" fill="#ACA7E9"/>
<path d="M340.108 717.543H333.096L329.539 711.445L333.096 705.348H340.108L343.665 711.445L340.108 717.543Z" fill="#ACA7E9"/>
<path d="M340.108 732.888H333.096L329.539 726.791L333.096 720.592H340.108L343.665 726.791L340.108 732.888Z" fill="#ACA7E9"/>
<path d="M340.108 748.234H333.096L329.539 742.035L333.096 735.937H340.108L343.665 742.035L340.108 748.234Z" fill="#ACA7E9"/>
<path d="M340.108 763.478H333.096L329.539 757.38L333.096 751.282H340.108L343.665 757.38L340.108 763.478Z" fill="#ACA7E9"/>
<path d="M340.108 778.823H333.096L329.539 772.726L333.096 766.526H340.108L343.665 772.726L340.108 778.823Z" fill="#ACA7E9"/>
<path d="M340.108 794.169H333.096L329.539 787.969L333.096 781.872H340.108L343.665 787.969L340.108 794.169Z" fill="#ACA7E9"/>
<path d="M340.108 809.412H333.096L329.539 803.315L333.096 797.217H340.108L343.665 803.315L340.108 809.412Z" fill="#ACA7E9"/>
<path d="M340.108 824.758H333.096L329.539 818.66L333.096 812.563H340.108L343.665 818.66L340.108 824.758Z" fill="#ACA7E9"/>
<path d="M340.108 840.103H333.096L329.539 834.006L333.096 827.807H340.108L343.665 834.006L340.108 840.103Z" fill="#ACA7E9"/>
<path d="M339.702 869.88H333.502L330.454 864.595L333.502 859.311H339.702L342.75 864.595L339.702 869.88Z" fill="#ACA7E9"/>
<path d="M353.421 878.416H346.307L342.75 872.217L346.307 866.119H353.421L356.978 872.217L353.421 878.416Z" fill="#ACA7E9"/>
<path d="M366.633 886.038H359.62L356.063 879.94L359.62 873.741H366.633L370.189 879.94L366.633 886.038Z" fill="#ACA7E9"/>
<path d="M379.946 893.66H372.832L369.275 887.563L372.832 881.465H379.946L383.502 887.563L379.946 893.66Z" fill="#ACA7E9"/>
<path d="M393.157 901.384H386.145L382.588 895.184L386.145 889.087H393.157L396.714 895.184L393.157 901.384Z" fill="#ACA7E9"/>
<path d="M406.47 909.005H399.356L395.799 902.908L399.356 896.709H406.47L410.027 902.908L406.47 909.005Z" fill="#ACA7E9"/>
<path d="M419.681 916.627H412.669L409.112 910.53L412.669 904.432H419.681L423.238 910.53L419.681 916.627Z" fill="#ACA7E9"/>
<path d="M430.962 920.794H427.913L426.389 918.152L427.913 915.51H430.962L432.486 918.152L430.962 920.794Z" fill="#ACA7E9"/>
<path d="M735.33 268.663H733.704L732.891 267.24L733.704 265.817H735.33L736.143 267.24L735.33 268.663Z" fill="#ACA7E9"/>
<path d="M576.388 299.76H574.254L573.238 297.931L574.254 296.101H576.388L577.506 297.931L576.388 299.76Z" fill="#ACA7E9"/>
<path d="M565.615 311.65H558.502L555.046 305.553L558.502 299.455H565.615L569.172 305.553L565.615 311.65Z" fill="#ACA7E9"/>
<path d="M552.405 319.374H545.291L541.734 313.175L545.291 307.077H552.405L555.86 313.175L552.405 319.374Z" fill="#ACA7E9"/>
<path d="M539.091 326.996H531.978L528.522 320.898L531.978 314.801H539.091L542.648 320.898L539.091 326.996Z" fill="#ACA7E9"/>
<path d="M525.779 334.618H518.766L515.209 328.52L518.766 322.422H525.779L529.335 328.52L525.779 334.618Z" fill="#ACA7E9"/>
<path d="M512.567 342.341H505.453L501.998 336.244L505.453 330.044H512.567L516.124 336.244L512.567 342.341Z" fill="#ACA7E9"/>
<path d="M499.254 349.963H492.242L488.685 343.865L492.242 337.768H499.254L502.811 343.865L499.254 349.963Z" fill="#ACA7E9"/>
<path d="M486.043 357.687H478.929L475.474 351.487L478.929 345.39H486.043L489.6 351.487L486.043 357.687Z" fill="#ACA7E9"/>
<path d="M472.73 365.308H465.718L462.161 359.211L465.718 353.012H472.73L476.287 359.211L472.73 365.308Z" fill="#ACA7E9"/>
<path d="M459.518 372.93H452.405L448.848 366.833L452.405 360.735H459.518L463.075 366.833L459.518 372.93Z" fill="#ACA7E9"/>
<path d="M444.884 378.317H440.514L438.278 374.455L440.514 370.695H444.884L447.12 374.455L444.884 378.317Z" fill="#ACA7E9"/>
<path d="M390.514 406.568H388.787L387.974 405.146L388.787 403.723H390.514L391.327 405.146L390.514 406.568Z" fill="#ACA7E9"/>
<path d="M379.946 418.865H372.832L369.275 412.768L372.832 406.67H379.946L383.502 412.768L379.946 418.865Z" fill="#ACA7E9"/>
<path d="M364.498 422.727H361.754L360.433 420.39L361.754 418.154H364.498L365.819 420.39L364.498 422.727Z" fill="#ACA7E9"/>
<path d="M353.421 434.211H346.307L342.75 428.113L346.307 421.914H353.421L356.978 428.113L353.421 434.211Z" fill="#ACA7E9"/>
<path d="M340.108 441.833H333.096L329.539 435.735L333.096 429.637H340.108L343.665 435.735L340.108 441.833Z" fill="#ACA7E9"/>
<path d="M325.779 462.971H320.901L318.36 458.702L320.901 454.434H325.779L328.32 458.702L325.779 462.971Z" fill="#ACA7E9"/>
<path d="M326.694 479.841H319.986L316.633 474.048L319.986 468.255H326.694L330.047 474.048L326.694 479.841Z" fill="#ACA7E9"/>
<path d="M326.897 495.491H319.783L316.226 489.393L319.783 483.194H326.897L330.454 489.393L326.897 495.491Z" fill="#ACA7E9"/>
<path d="M326.897 510.836H319.783L316.226 504.637L319.783 498.54H326.897L330.454 504.637L326.897 510.836Z" fill="#ACA7E9"/>
<path d="M326.897 526.08H319.783L316.226 519.983L319.783 513.885H326.897L330.454 519.983L326.897 526.08Z" fill="#ACA7E9"/>
<path d="M326.897 541.426H319.783L316.226 535.328L319.783 529.129H326.897L330.454 535.328L326.897 541.426Z" fill="#ACA7E9"/>
<path d="M326.897 556.771H319.783L316.226 550.572L319.783 544.474H326.897L330.454 550.572L326.897 556.771Z" fill="#ACA7E9"/>
<path d="M326.796 571.913H319.885L316.43 565.917L319.885 560.023H326.796L330.149 565.917L326.796 571.913Z" fill="#ACA7E9"/>
<path d="M323.95 582.279H322.73L322.121 581.263L322.73 580.247H323.95L324.56 581.263L323.95 582.279Z" fill="#ACA7E9"/>
<path d="M324.662 644.779H322.019L320.698 642.543L322.019 640.206H324.662L325.983 642.543L324.662 644.779Z" fill="#ACA7E9"/>
<path d="M324.255 659.515H322.324L321.409 657.787L322.324 656.161H324.255L325.271 657.787L324.255 659.515Z" fill="#ACA7E9"/>
<path d="M325.271 676.588H321.409L319.376 673.132L321.409 669.779H325.271L327.303 673.132L325.271 676.588Z" fill="#ACA7E9"/>
<path d="M326.694 709.616H319.986L316.633 703.823L319.986 697.929H326.694L330.047 703.823L326.694 709.616Z" fill="#ACA7E9"/>
<path d="M326.897 725.266H319.783L316.226 719.067L319.783 712.97H326.897L330.454 719.067L326.897 725.266Z" fill="#ACA7E9"/>
<path d="M326.897 740.51H319.783L316.226 734.413L319.783 728.315H326.897L330.454 734.413L326.897 740.51Z" fill="#ACA7E9"/>
<path d="M326.897 755.856H319.783L316.226 749.758L319.783 743.559H326.897L330.454 749.758L326.897 755.856Z" fill="#ACA7E9"/>
<path d="M326.897 771.201H319.783L316.226 765.002L319.783 758.905H326.897L330.454 765.002L326.897 771.201Z" fill="#ACA7E9"/>
<path d="M326.897 786.445H319.783L316.226 780.348L319.783 774.25H326.897L330.454 780.348L326.897 786.445Z" fill="#ACA7E9"/>
<path d="M326.897 801.791H319.783L316.226 795.693L319.783 789.494H326.897L330.454 795.693L326.897 801.791Z" fill="#ACA7E9"/>
<path d="M326.897 817.136H319.783L316.226 810.937L319.783 804.839H326.897L330.454 810.937L326.897 817.136Z" fill="#ACA7E9"/>
<path d="M326.897 832.38H319.783L316.226 826.282L319.783 820.185H326.897L330.454 826.282L326.897 832.38Z" fill="#392DCA"/>
<path d="M326.897 847.725H319.783L316.226 841.628L319.783 835.53H326.897L330.454 841.628L326.897 847.725Z" fill="#ACA7E9"/>
<path d="M339.499 884.92H333.706L330.86 879.941L333.706 874.961H339.499L342.344 879.941L339.499 884.92Z" fill="#ACA7E9"/>
<path d="M353.421 893.66H346.307L342.75 887.563L346.307 881.465H353.421L356.978 887.563L353.421 893.66Z" fill="#ACA7E9"/>
<path d="M366.633 901.384H359.62L356.063 895.184L359.62 889.087H366.633L370.189 895.184L366.633 901.384Z" fill="#ACA7E9"/>
<path d="M379.946 909.005H372.832L369.275 902.908L372.832 896.709H379.946L383.502 902.908L379.946 909.005Z" fill="#ACA7E9"/>
<path d="M393.157 916.627H386.145L382.588 910.53L386.145 904.432H393.157L396.714 910.53L393.157 916.627Z" fill="#ACA7E9"/>
<path d="M406.47 924.351H399.356L395.799 918.152L399.356 912.054H406.47L410.027 918.152L406.47 924.351Z" fill="#ACA7E9"/>
<path d="M419.681 931.871H412.669L409.213 925.875L412.669 919.778H419.681L423.136 925.875L419.681 931.871Z" fill="#ACA7E9"/>
<path d="M591.937 280.756H585.23L581.876 274.963L585.23 269.069H591.937L595.392 274.963L591.937 280.756Z" fill="#ACA7E9"/>
<path d="M578.624 288.378H572.018L568.665 282.585L572.018 276.793H578.624L581.977 282.585L578.624 288.378Z" fill="#ACA7E9"/>
<path d="M565.615 296.406H558.502L555.046 290.207L558.502 284.11H565.615L569.172 290.207L565.615 296.406Z" fill="#ACA7E9"/>
<path d="M552.405 304.028H545.291L541.734 297.931L545.291 291.732H552.405L555.86 297.931L552.405 304.028Z" fill="#ACA7E9"/>
<path d="M539.091 311.65H531.978L528.522 305.553L531.978 299.455H539.091L542.648 305.553L539.091 311.65Z" fill="#ACA7E9"/>
<path d="M525.779 319.374H518.766L515.209 313.175L518.766 307.077H525.779L529.335 313.175L525.779 319.374Z" fill="#ACA7E9"/>
<path d="M512.567 326.996H505.453L501.998 320.898L505.453 314.801H512.567L516.124 320.898L512.567 326.996Z" fill="#ACA7E9"/>
<path d="M499.254 334.618H492.242L488.685 328.52L492.242 322.422H499.254L502.811 328.52L499.254 334.618Z" fill="#ACA7E9"/>
<path d="M486.043 342.341H478.929L475.474 336.244L478.929 330.044H486.043L489.6 336.244L486.043 342.341Z" fill="#ACA7E9"/>
<path d="M472.73 349.963H465.718L462.161 343.865L465.718 337.768H472.73L476.287 343.865L472.73 349.963Z" fill="#ACA7E9"/>
<path d="M459.518 357.687H452.405L448.848 351.487L452.405 345.39H459.518L463.075 351.487L459.518 357.687Z" fill="#ACA7E9"/>
<path d="M445.9 364.699H439.498L436.348 359.211L439.498 353.622H445.9L449.051 359.211L445.9 364.699Z" fill="#ACA7E9"/>
<path d="M404.946 385.532H400.881L398.95 382.178L400.881 378.723H404.946L406.876 382.178L404.946 385.532Z" fill="#ACA7E9"/>
<path d="M393.157 395.898H386.145L382.588 389.8L386.145 383.703H393.157L396.714 389.8L393.157 395.898Z" fill="#ACA7E9"/>
<path d="M379.946 403.621H372.832L369.275 397.422L372.832 391.325H379.946L383.502 397.422L379.946 403.621Z" fill="#ACA7E9"/>
<path d="M366.633 411.243H359.62L356.063 405.146L359.62 399.048H366.633L370.189 405.146L366.633 411.243Z" fill="#ACA7E9"/>
<path d="M340.108 426.487H333.096L329.641 420.39L333.096 414.394H340.108L343.563 420.39L340.108 426.487Z" fill="#ACA7E9"/>
<path d="M312.365 470.389H307.791L305.454 466.426L307.791 462.361H312.365L314.702 466.426L312.365 470.389Z" fill="#ACA7E9"/>
<path d="M313.482 487.564H306.673L303.32 481.67L306.673 475.877H313.482L316.836 481.67L313.482 487.564Z" fill="#ACA7E9"/>
<path d="M313.584 503.113H306.572L303.015 497.015L306.572 490.918H313.584L317.141 497.015L313.584 503.113Z" fill="#ACA7E9"/>
<path d="M313.584 518.458H306.572L303.015 512.361L306.572 506.162H313.584L317.141 512.361L313.584 518.458Z" fill="#ACA7E9"/>
<path d="M313.584 533.804H306.572L303.015 527.604L306.572 521.507H313.584L317.141 527.604L313.584 533.804Z" fill="#ACA7E9"/>
<path d="M313.584 549.048H306.572L303.015 542.95L306.572 536.853H313.584L317.141 542.95L313.584 549.048Z" fill="#ACA7E9"/>
<path d="M313.584 564.393H306.572L303.015 558.295L306.572 552.198H313.584L317.141 558.295L313.584 564.393Z" fill="#ACA7E9"/>
<path d="M313.584 579.738H306.572L303.015 573.641L306.572 567.442H313.584L317.141 573.641L313.584 579.738Z" fill="#ACA7E9"/>
<path d="M312.975 593.864H307.182L304.336 588.885L307.182 583.905H312.975L315.82 588.885L312.975 593.864Z" fill="#ACA7E9"/>
<path d="M311.552 652.706H308.604L307.182 650.165L308.604 647.624H311.552L312.974 650.165L311.552 652.706Z" fill="#ACA7E9"/>
<path d="M311.348 667.645H308.807L307.588 665.51L308.807 663.275H311.348L312.568 665.51L311.348 667.645Z" fill="#ACA7E9"/>
<path d="M312.873 716.323H307.283L304.438 711.445L307.283 706.567H312.873L315.718 711.445L312.873 716.323Z" fill="#ACA7E9"/>
<path d="M313.584 732.888H306.572L303.015 726.791L306.572 720.592H313.584L317.141 726.791L313.584 732.888Z" fill="#ACA7E9"/>
<path d="M313.584 748.234H306.572L303.015 742.035L306.572 735.937H313.584L317.141 742.035L313.584 748.234Z" fill="#ACA7E9"/>
<path d="M313.584 763.478H306.572L303.015 757.38L306.572 751.282H313.584L317.141 757.38L313.584 763.478Z" fill="#ACA7E9"/>
<path d="M313.584 778.823H306.572L303.015 772.726L306.572 766.526H313.584L317.141 772.726L313.584 778.823Z" fill="#ACA7E9"/>
<path d="M313.584 794.169H306.572L303.015 787.969L306.572 781.872H313.584L317.141 787.969L313.584 794.169Z" fill="#ACA7E9"/>
<path d="M313.584 809.412H306.572L303.015 803.315L306.572 797.217H313.584L317.141 803.315L313.584 809.412Z" fill="#ACA7E9"/>
<path d="M313.584 824.656H306.572L303.117 818.66L306.572 812.563H313.584L317.039 818.66L313.584 824.656Z" fill="#ACA7E9"/>
<path d="M312.161 837.563H307.994L305.86 834.006L307.994 830.347H312.161L314.194 834.006L312.161 837.563Z" fill="#ACA7E9"/>
<path d="M339.194 899.758H333.909L331.369 895.184L333.909 890.611H339.194L341.836 895.184L339.194 899.758Z" fill="#ACA7E9"/>
<path d="M353.421 909.005H346.307L342.75 902.908L346.307 896.709H353.421L356.978 902.908L353.421 909.005Z" fill="#ACA7E9"/>
<path d="M366.633 916.627H359.62L356.063 910.53L359.62 904.432H366.633L370.189 910.53L366.633 916.627Z" fill="#ACA7E9"/>
<path d="M379.946 924.351H372.832L369.275 918.152L372.832 912.054H379.946L383.502 918.152L379.946 924.351Z" fill="#ACA7E9"/>
<path d="M393.157 931.973H386.145L382.588 925.875L386.145 919.778H393.157L396.714 925.875L393.157 931.973Z" fill="#E23A45"/>
<path d="M406.47 939.595H399.356L395.901 933.497L399.356 927.4H406.47L409.925 933.497L406.47 939.595Z" fill="#ACA7E9"/>
<path d="M577.709 271.406H573.034L570.595 267.24L573.034 263.175H577.709L580.046 267.24L577.709 271.406Z" fill="#ACA7E9"/>
<path d="M565.615 281.061H558.502L555.046 274.963L558.502 268.764H565.615L569.172 274.963L565.615 281.061Z" fill="#ACA7E9"/>
<path d="M552.405 288.683H545.291L541.734 282.585L545.291 276.488H552.405L555.86 282.585L552.405 288.683Z" fill="#ACA7E9"/>
<path d="M539.091 296.406H531.978L528.522 290.207L531.978 284.11H539.091L542.648 290.207L539.091 296.406Z" fill="#ACA7E9"/>
<path d="M525.779 304.028H518.766L515.209 297.931L518.766 291.732H525.779L529.335 297.931L525.779 304.028Z" fill="#392DCA"/>
<path d="M512.567 311.65H505.453L501.998 305.553L505.453 299.455H512.567L516.124 305.553L512.567 311.65Z" fill="#ACA7E9"/>
<path d="M499.254 319.374H492.242L488.685 313.175L492.242 307.077H499.254L502.811 313.175L499.254 319.374Z" fill="#ACA7E9"/>
<path d="M486.043 326.996H478.929L475.474 320.898L478.929 314.801H486.043L489.6 320.898L486.043 326.996Z" fill="#ACA7E9"/>
<path d="M472.73 334.618H465.718L462.161 328.52L465.718 322.422H472.73L476.287 328.52L472.73 334.618Z" fill="#ACA7E9"/>
<path d="M459.518 342.341H452.405L448.848 336.244L452.405 330.044H459.518L463.075 336.244L459.518 342.341Z" fill="#ACA7E9"/>
<path d="M446.205 349.861H439.193L435.738 343.865L439.193 337.768H446.205L449.661 343.865L446.205 349.861Z" fill="#ACA7E9"/>
<path d="M430.25 352.809H428.624L427.913 351.487L428.624 350.166H430.25L430.962 351.487L430.25 352.809Z" fill="#ACA7E9"/>
<path d="M391.836 378.215H387.466L385.332 374.455L387.466 370.695H391.836L393.97 374.455L391.836 378.215Z" fill="#ACA7E9"/>
<path d="M379.946 388.276H372.832L369.275 382.178L372.832 375.979H379.946L383.502 382.178L379.946 388.276Z" fill="#ACA7E9"/>
<path d="M366.633 395.898H359.62L356.063 389.8L359.62 383.703H366.633L370.189 389.8L366.633 395.898Z" fill="#ACA7E9"/>
<path d="M353.319 403.52H346.307L342.852 397.422L346.307 391.426H353.319L356.876 397.422L353.319 403.52Z" fill="#ACA7E9"/>
<path d="M337.364 406.467H335.84L335.027 405.146L335.84 403.723H337.364L338.177 405.146L337.364 406.467Z" fill="#ACA7E9"/>
<path d="M324.966 415.613H321.714L320.088 412.768L321.714 409.922H324.966L326.592 412.768L324.966 415.613Z" fill="#ACA7E9"/>
<path d="M297.832 460.532H295.698L294.682 458.702L295.698 456.873H297.832L298.95 458.702L297.832 460.532Z" fill="#ACA7E9"/>
<path d="M300.373 480.145H293.259L289.702 474.048L293.259 467.95H300.373L303.828 474.048L300.373 480.145Z" fill="#ACA7E9"/>
<path d="M300.373 495.491H293.259L289.702 489.393L293.259 483.194H300.373L303.828 489.393L300.373 495.491Z" fill="#ACA7E9"/>
<path d="M300.373 510.836H293.259L289.702 504.637L293.259 498.54H300.373L303.828 504.637L300.373 510.836Z" fill="#ACA7E9"/>
<path d="M300.373 526.08H293.259L289.702 519.983L293.259 513.885H300.373L303.828 519.983L300.373 526.08Z" fill="#ACA7E9"/>
<path d="M300.373 541.426H293.259L289.702 535.328L293.259 529.129H300.373L303.828 535.328L300.373 541.426Z" fill="#ACA7E9"/>
<path d="M300.373 556.771H293.259L289.702 550.572L293.259 544.474H300.373L303.828 550.572L300.373 556.771Z" fill="#ACA7E9"/>
<path d="M300.373 572.015H293.259L289.702 565.917L293.259 559.82H300.373L303.828 565.917L300.373 572.015Z" fill="#ACA7E9"/>
<path d="M300.373 587.36H293.259L289.702 581.263L293.259 575.165H300.373L303.828 581.263L300.373 587.36Z" fill="#ACA7E9"/>
<path d="M300.271 602.503H293.361L289.905 596.608L293.361 590.612H300.271L303.726 596.608L300.271 602.503Z" fill="#ACA7E9"/>
<path d="M297.934 613.885H295.698L294.479 611.852L295.698 609.921H297.934L299.052 611.852L297.934 613.885Z" fill="#ACA7E9"/>
<path d="M299.763 632.381H293.869L290.82 627.198L293.869 622.015H299.763L302.71 627.198L299.763 632.381Z" fill="#ACA7E9"/>
<path d="M297.73 659.413H295.901L294.885 657.787L295.901 656.161H297.73L298.645 657.787L297.73 659.413Z" fill="#ACA7E9"/>
<path d="M300.169 724.961H293.462L290.108 719.067L293.462 713.275H300.169L303.523 719.067L300.169 724.961Z" fill="#ACA7E9"/>
<path d="M297.832 736.14H295.8L294.784 734.413L295.8 732.685H297.832L298.849 734.413L297.832 736.14Z" fill="#ACA7E9"/>
<path d="M298.95 753.417H294.682L292.547 749.758L294.682 745.998H298.95L301.084 749.758L298.95 753.417Z" fill="#ACA7E9"/>
<path d="M300.373 771.201H293.259L289.702 765.002L293.259 758.905H300.373L303.828 765.002L300.373 771.201Z" fill="#ACA7E9"/>
<path d="M300.271 786.445H293.259L289.803 780.348L293.259 774.25H300.271L303.828 780.348L300.271 786.445Z" fill="#ACA7E9"/>
<path d="M298.238 798.03H295.393L294.072 795.693L295.393 793.254H298.238L299.56 795.693L298.238 798.03Z" fill="#ACA7E9"/>
<path d="M299.865 816.323H293.665L290.617 810.937L293.665 805.652H299.865L303.015 810.937L299.865 816.323Z" fill="#ACA7E9"/>
<path d="M338.584 913.985H334.62L332.588 910.53L334.62 907.075H338.584L340.616 910.53L338.584 913.985Z" fill="#ACA7E9"/>
<path d="M353.421 924.351H346.307L342.75 918.152L346.307 912.054H353.421L356.978 918.152L353.421 924.351Z" fill="#ACA7E9"/>
<path d="M366.633 931.973H359.62L356.063 925.875L359.62 919.778H366.633L370.189 925.875L366.633 931.973Z" fill="#ACA7E9"/>
<path d="M379.946 939.595H372.832L369.275 933.497L372.832 927.4H379.946L383.502 933.497L379.946 939.595Z" fill="#ACA7E9"/>
<path d="M393.157 947.318H386.145L382.588 941.119L386.145 935.022H393.157L396.714 941.119L393.157 947.318Z" fill="#ACA7E9"/>
<path d="M404.742 951.993H401.084L399.254 948.843L401.084 945.692H404.742L406.571 948.843L404.742 951.993Z" fill="#ACA7E9"/>
<path d="M577.709 256.163H572.933L570.494 251.996L572.933 247.728H577.709L580.148 251.996L577.709 256.163Z" fill="#ACA7E9"/>
<path d="M565.311 265.207H558.908L555.656 259.618L558.908 254.028H565.311L568.461 259.618L565.311 265.207Z" fill="#ACA7E9"/>
<path d="M550.372 269.984H547.222L545.697 267.24L547.222 264.496H550.372L551.998 267.24L550.372 269.984Z" fill="#ACA7E9"/>
<path d="M539.091 281.061H531.978L528.522 274.963L531.978 268.764H539.091L542.648 274.963L539.091 281.061Z" fill="#ACA7E9"/>
<path d="M525.779 288.683H518.766L515.209 282.585L518.766 276.488H525.779L529.335 282.585L525.779 288.683Z" fill="#ACA7E9"/>
<path d="M512.567 296.406H505.453L501.998 290.207L505.453 284.11H512.567L516.124 290.207L512.567 296.406Z" fill="#ACA7E9"/>
<path d="M499.254 304.028H492.242L488.685 297.931L492.242 291.732H499.254L502.811 297.931L499.254 304.028Z" fill="#ACA7E9"/>
<path d="M486.043 311.65H478.929L475.474 305.553L478.929 299.455H486.043L489.6 305.553L486.043 311.65Z" fill="#ACA7E9"/>
<path d="M472.73 319.374H465.718L462.161 313.175L465.718 307.077H472.73L476.287 313.175L472.73 319.374Z" fill="#ACA7E9"/>
<path d="M459.518 326.996H452.405L448.848 320.898L452.405 314.801H459.518L463.075 320.898L459.518 326.996Z" fill="#ACA7E9"/>
<path d="M446.205 334.618H439.193L435.636 328.52L439.193 322.422H446.205L449.762 328.52L446.205 334.618Z" fill="#ACA7E9"/>
<path d="M430.758 338.479H428.116L426.795 336.244L428.116 333.906H430.758L432.079 336.244L430.758 338.479Z" fill="#ACA7E9"/>
<path d="M379.946 372.93H372.832L369.275 366.833L372.832 360.735H379.946L383.502 366.833L379.946 372.93Z" fill="#ACA7E9"/>
<path d="M366.429 380.247H359.823L356.47 374.455L359.823 368.662H366.429L369.783 374.455L366.429 380.247Z" fill="#ACA7E9"/>
<path d="M312.771 409.821H307.385L304.641 405.146L307.385 400.471H312.771L315.515 405.146L312.771 409.821Z" fill="#ACA7E9"/>
<path d="M285.027 423.032H282.08L280.556 420.39L282.08 417.849H285.027L286.552 420.39L285.027 423.032Z" fill="#ACA7E9"/>
<path d="M284.621 452.91H282.487L281.369 451.08L282.487 449.15H284.621L285.739 451.08L284.621 452.91Z" fill="#ACA7E9"/>
<path d="M287.06 472.523H280.048L276.491 466.426L280.048 460.227H287.06L290.617 466.426L287.06 472.523Z" fill="#ACA7E9"/>
<path d="M287.06 487.869H280.048L276.491 481.67L280.048 475.572H287.06L290.617 481.67L287.06 487.869Z" fill="#ACA7E9"/>
<path d="M287.06 503.113H280.048L276.491 497.015L280.048 490.918H287.06L290.617 497.015L287.06 503.113Z" fill="#ACA7E9"/>
<path d="M287.06 518.458H280.048L276.491 512.361L280.048 506.162H287.06L290.617 512.361L287.06 518.458Z" fill="#ACA7E9"/>
<path d="M287.06 533.804H280.048L276.491 527.604L280.048 521.507H287.06L290.617 527.604L287.06 533.804Z" fill="#ACA7E9"/>
<path d="M287.06 549.048H280.048L276.491 542.95L280.048 536.853H287.06L290.617 542.95L287.06 549.048Z" fill="#ACA7E9"/>
<path d="M287.06 564.393H280.048L276.491 558.295L280.048 552.198H287.06L290.617 558.295L287.06 564.393Z" fill="#ACA7E9"/>
<path d="M287.06 579.738H280.048L276.491 573.641L280.048 567.442H287.06L290.617 573.641L287.06 579.738Z" fill="#ACA7E9"/>
<path d="M287.06 594.982H280.048L276.491 588.885L280.048 582.787H287.06L290.617 588.885L287.06 594.982Z" fill="#ACA7E9"/>
<path d="M287.06 610.328H280.048L276.491 604.23L280.048 598.133H287.06L290.617 604.23L287.06 610.328Z" fill="#ACA7E9"/>
<path d="M284.824 621.811H282.181L280.86 619.576L282.181 617.238H284.824L286.246 619.576L284.824 621.811Z" fill="#ACA7E9"/>
<path d="M286.653 655.551H280.454L277.405 650.165L280.454 644.88H286.653L289.702 650.165L286.653 655.551Z" fill="#ACA7E9"/>
<path d="M284.316 697.523H282.69L281.877 696.1L282.69 694.677H284.316L285.129 696.1L284.316 697.523Z" fill="#ACA7E9"/>
<path d="M284.621 713.275H282.487L281.369 711.445L282.487 709.514H284.621L285.739 711.445L284.621 713.275Z" fill="#ACA7E9"/>
<path d="M285.027 729.23H282.08L280.657 726.791L282.08 724.25H285.027L286.45 726.791L285.027 729.23Z" fill="#ACA7E9"/>
<path d="M339.702 931.261H333.401L330.251 925.875L333.401 920.387H339.702L342.853 925.875L339.702 931.261Z" fill="#ACA7E9"/>
<path d="M353.421 939.595H346.307L342.75 933.497L346.307 927.4H353.421L356.978 933.497L353.421 939.595Z" fill="#ACA7E9"/>
<path d="M366.633 947.318H359.62L356.063 941.119L359.62 935.022H366.633L370.189 941.119L366.633 947.318Z" fill="#ACA7E9"/>
<path d="M379.946 954.94H372.832L369.275 948.843L372.832 942.745H379.946L383.502 948.843L379.946 954.94Z" fill="#ACA7E9"/>
<path d="M393.157 962.562H386.145L382.588 956.465L386.145 950.367H393.157L396.714 956.465L393.157 962.562Z" fill="#ACA7E9"/>
<path d="M552.201 257.89H545.392L541.937 251.996L545.392 246H552.201L555.656 251.996L552.201 257.89Z" fill="#ACA7E9"/>
<path d="M538.888 265.411H532.181L528.827 259.618L532.181 253.825H538.888L542.242 259.618L538.888 265.411Z" fill="#ACA7E9"/>
<path d="M525.779 273.439H518.766L515.209 267.24L518.766 261.142H525.779L529.335 267.24L525.779 273.439Z" fill="#ACA7E9"/>
<path d="M512.567 281.061H505.453L501.998 274.963L505.453 268.764H512.567L516.124 274.963L512.567 281.061Z" fill="#ACA7E9"/>
<path d="M499.254 288.683H492.242L488.685 282.585L492.242 276.488H499.254L502.811 282.585L499.254 288.683Z" fill="#ACA7E9"/>
<path d="M486.043 296.406H478.929L475.474 290.207L478.929 284.11H486.043L489.6 290.207L486.043 296.406Z" fill="#ACA7E9"/>
<path d="M472.73 304.028H465.718L462.161 297.931L465.718 291.732H472.73L476.287 297.931L472.73 304.028Z" fill="#ACA7E9"/>
<path d="M459.518 311.65H452.405L448.848 305.553L452.405 299.455H459.518L463.075 305.553L459.518 311.65Z" fill="#ACA7E9"/>
<path d="M446.205 319.374H439.193L435.636 313.175L439.193 307.077H446.205L449.762 313.175L446.205 319.374Z" fill="#ACA7E9"/>
<path d="M432.893 326.792H425.982L422.628 320.898L425.982 314.902H432.893L436.246 320.898L432.893 326.792Z" fill="#ACA7E9"/>
<path d="M378.421 355.044H374.356L372.222 351.487L374.356 347.93H378.421L380.555 351.487L378.421 355.044Z" fill="#ACA7E9"/>
<path d="M366.633 365.308H359.62L356.063 359.211L359.62 353.012H366.633L370.189 359.211L366.633 365.308Z" fill="#ACA7E9"/>
<path d="M352.507 371.406H347.222L344.58 366.833L347.222 362.26H352.507L355.149 366.833L352.507 371.406Z" fill="#ACA7E9"/>
<path d="M326.897 388.276H319.783L316.226 382.178L319.783 375.979H326.897L330.454 382.178L326.897 388.276Z" fill="#ACA7E9"/>
<path d="M313.482 395.593H306.673L303.32 389.8L306.673 384.008H313.482L316.836 389.8L313.482 395.593Z" fill="#ACA7E9"/>
<path d="M300.373 403.621H293.259L289.702 397.422L293.259 391.325H300.373L303.828 397.422L300.373 403.621Z" fill="#ACA7E9"/>
<path d="M287.06 411.243H280.048L276.491 405.146L280.048 398.947H287.06L290.617 405.146L287.06 411.243Z" fill="#ACA7E9"/>
<path d="M273.848 418.865H266.735L263.178 412.768L266.735 406.67H273.848L277.304 412.768L273.848 418.865Z" fill="#ACA7E9"/>
<path d="M273.645 434.007H266.836L263.482 428.113L266.836 422.219H273.645L277.1 428.113L273.645 434.007Z" fill="#ACA7E9"/>
<path d="M273.442 448.845H267.141L263.991 443.357L267.141 437.971H273.442L276.491 443.357L273.442 448.845Z" fill="#ACA7E9"/>
<path d="M273.848 464.8H266.735L263.178 458.702L266.735 452.605H273.848L277.304 458.702L273.848 464.8Z" fill="#ACA7E9"/>
<path d="M273.848 480.145H266.735L263.178 474.048L266.735 467.95H273.848L277.304 474.048L273.848 480.145Z" fill="#ACA7E9"/>
<path d="M273.848 495.491H266.735L263.178 489.393L266.735 483.194H273.848L277.304 489.393L273.848 495.491Z" fill="#ACA7E9"/>
<path d="M273.848 510.836H266.735L263.178 504.637L266.735 498.54H273.848L277.304 504.637L273.848 510.836Z" fill="#ACA7E9"/>
<path d="M273.848 526.08H266.735L263.178 519.983L266.735 513.885H273.848L277.304 519.983L273.848 526.08Z" fill="#ACA7E9"/>
<path d="M273.848 541.426H266.735L263.178 535.328L266.735 529.129H273.848L277.304 535.328L273.848 541.426Z" fill="#ACA7E9"/>
<path d="M273.848 556.771H266.735L263.178 550.572L266.735 544.474H273.848L277.304 550.572L273.848 556.771Z" fill="#ACA7E9"/>
<path d="M273.848 572.015H266.735L263.178 565.917L266.735 559.82H273.848L277.304 565.917L273.848 572.015Z" fill="#ACA7E9"/>
<path d="M273.848 587.36H266.735L263.178 581.263L266.735 575.165H273.848L277.304 581.263L273.848 587.36Z" fill="#ACA7E9"/>
<path d="M273.848 602.706H266.735L263.178 596.608L266.735 590.409H273.848L277.304 596.608L273.848 602.706Z" fill="#ACA7E9"/>
<path d="M273.645 617.746H266.836L263.482 611.852L266.836 605.958H273.645L277.1 611.852L273.645 617.746Z" fill="#ACA7E9"/>
<path d="M273.848 694.575H266.735L263.178 688.478L266.735 682.38H273.848L277.304 688.478L273.848 694.575Z" fill="#ACA7E9"/>
<path d="M273.848 709.921H266.735L263.178 703.823L266.735 697.624H273.848L277.304 703.823L273.848 709.921Z" fill="#ACA7E9"/>
<path d="M270.8 720.083H269.682L269.174 719.067L269.682 718.153H270.8L271.41 719.067L270.8 720.083Z" fill="#ACA7E9"/>
<path d="M340.108 947.318H333.096L329.539 941.119L333.096 935.022H340.108L343.665 941.119L340.108 947.318Z" fill="#ACA7E9"/>
<path d="M353.421 954.94H346.307L342.75 948.843L346.307 942.745H353.421L356.978 948.843L353.421 954.94Z" fill="#ACA7E9"/>
<path d="M366.633 962.562H359.62L356.063 956.465L359.62 950.367H366.633L370.189 956.465L366.633 962.562Z" fill="#ACA7E9"/>
<path d="M379.946 970.184H372.832L369.376 964.188L372.832 958.091H379.946L383.401 964.188L379.946 970.184Z" fill="#ACA7E9"/>
<path d="M525.778 257.89H518.867L515.412 251.996L518.867 246H525.778L529.132 251.996L525.778 257.89Z" fill="#ACA7E9"/>
<path d="M512.567 265.715H505.453L501.998 259.618L505.453 253.52H512.567L516.124 259.618L512.567 265.715Z" fill="#ACA7E9"/>
<path d="M499.254 273.439H492.242L488.685 267.24L492.242 261.142H499.254L502.811 267.24L499.254 273.439Z" fill="#ACA7E9"/>
<path d="M486.043 281.061H478.929L475.474 274.963L478.929 268.764H486.043L489.6 274.963L486.043 281.061Z" fill="#ACA7E9"/>
<path d="M472.73 288.683H465.718L462.161 282.585L465.718 276.488H472.73L476.287 282.585L472.73 288.683Z" fill="#ACA7E9"/>
<path d="M459.518 296.406H452.405L448.848 290.207L452.405 284.11H459.518L463.075 290.207L459.518 296.406Z" fill="#ACA7E9"/>
<path d="M446.205 304.028H439.193L435.636 297.931L439.193 291.732H446.205L449.762 297.931L446.205 304.028Z" fill="#ACA7E9"/>
<path d="M432.994 311.65H425.881L422.324 305.553L425.881 299.455H432.994L436.551 305.553L432.994 311.65Z" fill="#ACA7E9"/>
<path d="M419.681 319.374H412.669L409.112 313.175L412.669 307.077H419.681L423.238 313.175L419.681 319.374Z" fill="#ACA7E9"/>
<path d="M404.234 323.236H401.592L400.271 320.898L401.592 318.561H404.234L405.555 320.898L404.234 323.236Z" fill="#ACA7E9"/>
<path d="M363.787 344.983H362.466L361.755 343.865L362.466 342.646H363.787L364.499 343.865L363.787 344.983Z" fill="#ACA7E9"/>
<path d="M353.421 357.687H346.307L342.75 351.487L346.307 345.39H353.421L356.978 351.487L353.421 357.687Z" fill="#ACA7E9"/>
<path d="M340.108 365.308H333.096L329.539 359.211L333.096 353.012H340.108L343.665 359.211L340.108 365.308Z" fill="#ACA7E9"/>
<path d="M326.084 371.609H320.596L317.75 366.833L320.596 362.056H326.084L328.929 366.833L326.084 371.609Z" fill="#392DCA"/>
<path d="M312.06 378.012H307.995L305.962 374.455L307.995 371H312.06L314.194 374.455L312.06 378.012Z" fill="#ACA7E9"/>
<path d="M300.373 388.276H293.259L289.702 382.178L293.259 375.979H300.373L303.828 382.178L300.373 388.276Z" fill="#ACA7E9"/>
<path d="M287.06 395.898H280.048L276.491 389.8L280.048 383.703H287.06L290.617 389.8L287.06 395.898Z" fill="#ACA7E9"/>
<path d="M273.848 403.621H266.735L263.178 397.422L266.735 391.325H273.848L277.304 397.422L273.848 403.621Z" fill="#ACA7E9"/>
<path d="M260.535 411.243H253.523L249.966 405.146L253.523 398.947H260.535L264.092 405.146L260.535 411.243Z" fill="#ACA7E9"/>
<path d="M260.535 426.589H253.523L249.966 420.39L253.523 414.292H260.535L264.092 420.39L260.535 426.589Z" fill="#ACA7E9"/>
<path d="M260.535 441.833H253.523L249.966 435.735L253.523 429.637H260.535L264.092 435.735L260.535 441.833Z" fill="#ACA7E9"/>
<path d="M260.535 457.178H253.523L249.966 451.08L253.523 444.983H260.535L264.092 451.08L260.535 457.178Z" fill="#ACA7E9"/>
<path d="M260.535 472.523H253.523L249.966 466.426L253.523 460.227H260.535L264.092 466.426L260.535 472.523Z" fill="#ACA7E9"/>
<path d="M260.535 487.869H253.523L249.966 481.67L253.523 475.572H260.535L264.092 481.67L260.535 487.869Z" fill="#ACA7E9"/>
<path d="M260.535 503.113H253.523L249.966 497.015L253.523 490.918H260.535L264.092 497.015L260.535 503.113Z" fill="#ACA7E9"/>
<path d="M260.535 518.458H253.523L249.966 512.361L253.523 506.162H260.535L264.092 512.361L260.535 518.458Z" fill="#ACA7E9"/>
<path d="M260.535 533.804H253.523L249.966 527.604L253.523 521.507H260.535L264.092 527.604L260.535 533.804Z" fill="#ACA7E9"/>
<path d="M260.535 549.048H253.523L249.966 542.95L253.523 536.853H260.535L264.092 542.95L260.535 549.048Z" fill="#ACA7E9"/>
<path d="M260.535 564.393H253.523L249.966 558.295L253.523 552.198H260.535L264.092 558.295L260.535 564.393Z" fill="#ACA7E9"/>
<path d="M260.535 579.738H253.523L249.966 573.641L253.523 567.442H260.535L264.092 573.641L260.535 579.738Z" fill="#FF881B"/>
<path d="M260.535 594.982H253.523L249.966 588.885L253.523 582.787H260.535L264.092 588.885L260.535 594.982Z" fill="#ACA7E9"/>
<path d="M260.535 610.328H253.523L249.966 604.23L253.523 598.133H260.535L264.092 604.23L260.535 610.328Z" fill="#ACA7E9"/>
<path d="M259.418 623.641H254.641L252.202 619.576L254.641 615.409H259.418L261.755 619.576L259.418 623.641Z" fill="#ACA7E9"/>
<path d="M260.535 671.608H253.523L249.966 665.511L253.523 659.311H260.535L264.092 665.511L260.535 671.608Z" fill="#ACA7E9"/>
<path d="M260.231 686.344H253.828L250.576 680.754L253.828 675.267H260.231L263.381 680.754L260.231 686.344Z" fill="#ACA7E9"/>
<path d="M260.535 702.197H253.523L249.966 696.1L253.523 690.002H260.535L264.092 696.1L260.535 702.197Z" fill="#ACA7E9"/>
<path d="M340.007 962.359H333.198L329.844 956.465L333.198 950.57H340.007L343.36 956.465L340.007 962.359Z" fill="#ACA7E9"/>
<path d="M353.421 970.286H346.307L342.75 964.188L346.307 957.989H353.421L356.978 964.188L353.421 970.286Z" fill="#ACA7E9"/>
<path d="M366.633 977.908H359.62L356.063 971.81L359.62 965.713H366.633L370.189 971.81L366.633 977.908Z" fill="#ACA7E9"/>
<path d="M377.405 981.16H375.372L374.356 979.432L375.372 977.704H377.405L378.421 979.432L377.405 981.16Z" fill="#ACA7E9"/>
<path d="M498.644 256.874H492.953L490.107 251.996L492.953 247.016H498.644L501.489 251.996L498.644 256.874Z" fill="#ACA7E9"/>
<path d="M485.331 264.496H479.742L476.896 259.618L479.742 254.74H485.331L488.075 259.618L485.331 264.496Z" fill="#ACA7E9"/>
<path d="M471.917 272.016H466.531L463.787 267.24L466.531 262.565H471.917L474.661 267.24L471.917 272.016Z" fill="#ACA7E9"/>
<path d="M459.518 281.061H452.405L448.848 274.963L452.405 268.764H459.518L463.075 274.963L459.518 281.061Z" fill="#ACA7E9"/>
<path d="M446.205 288.683H439.193L435.636 282.585L439.193 276.488H446.205L449.762 282.585L446.205 288.683Z" fill="#ACA7E9"/>
<path d="M432.994 296.406H425.881L422.324 290.207L425.881 284.11H432.994L436.551 290.207L432.994 296.406Z" fill="#ACA7E9"/>
<path d="M419.681 304.028H412.669L409.112 297.931L412.669 291.732H419.681L423.238 297.931L419.681 304.028Z" fill="#ACA7E9"/>
<path d="M404.539 308.398H401.287L399.661 305.553L401.287 302.809H404.539L406.165 305.553L404.539 308.398Z" fill="#ACA7E9"/>
<path d="M392.953 318.967H386.348L382.994 313.175L386.348 307.484H392.953L396.307 313.175L392.953 318.967Z" fill="#ACA7E9"/>
<path d="M340.007 349.76H333.198L329.844 343.865L333.198 337.971H340.007L343.36 343.865L340.007 349.76Z" fill="#ACA7E9"/>
<path d="M326.897 357.687H319.783L316.226 351.487L319.783 345.39H326.897L330.454 351.487L326.897 357.687Z" fill="#ACA7E9"/>
<path d="M313.584 365.308H306.572L303.015 359.211L306.572 353.012H313.584L317.141 359.211L313.584 365.308Z" fill="#ACA7E9"/>
<path d="M300.372 372.93H293.259L289.803 366.833L293.259 360.735H300.372L303.828 366.833L300.372 372.93Z" fill="#ACA7E9"/>
<path d="M286.755 379.943H280.353L277.202 374.455L280.353 368.967H286.755L289.905 374.455L286.755 379.943Z" fill="#ACA7E9"/>
<path d="M273.848 388.276H266.735L263.178 382.178L266.735 375.979H273.848L277.304 382.178L273.848 388.276Z" fill="#ACA7E9"/>
<path d="M260.535 395.898H253.523L249.966 389.8L253.523 383.703H260.535L264.092 389.8L260.535 395.898Z" fill="#ACA7E9"/>
<path d="M247.324 403.621H240.21L236.653 397.422L240.21 391.325H247.324L250.779 397.422L247.324 403.621Z" fill="#ACA7E9"/>
<path d="M247.324 418.865H240.21L236.653 412.768L240.21 406.67H247.324L250.779 412.768L247.324 418.865Z" fill="#ACA7E9"/>
<path d="M247.324 434.211H240.21L236.653 428.113L240.21 421.914H247.324L250.779 428.113L247.324 434.211Z" fill="#ACA7E9"/>
<path d="M247.324 449.556H240.21L236.653 443.357L240.21 437.259H247.324L250.779 443.357L247.324 449.556Z" fill="#ACA7E9"/>
<path d="M247.324 464.8H240.21L236.653 458.702L240.21 452.605H247.324L250.779 458.702L247.324 464.8Z" fill="#ACA7E9"/>
<path d="M247.324 480.145H240.21L236.653 474.048L240.21 467.95H247.324L250.779 474.048L247.324 480.145Z" fill="#ACA7E9"/>
<path d="M247.324 495.491H240.21L236.653 489.393L240.21 483.194H247.324L250.779 489.393L247.324 495.491Z" fill="#ACA7E9"/>
<path d="M247.324 510.836H240.21L236.653 504.637L240.21 498.54H247.324L250.779 504.637L247.324 510.836Z" fill="#ACA7E9"/>
<path d="M247.324 526.08H240.21L236.653 519.983L240.21 513.885H247.324L250.779 519.983L247.324 526.08Z" fill="#ACA7E9"/>
<path d="M247.324 541.426H240.21L236.653 535.328L240.21 529.129H247.324L250.779 535.328L247.324 541.426Z" fill="#ACA7E9"/>
<path d="M247.324 556.771H240.21L236.653 550.572L240.21 544.474H247.324L250.779 550.572L247.324 556.771Z" fill="#ACA7E9"/>
<path d="M247.324 572.015H240.21L236.653 565.917L240.21 559.82H247.324L250.779 565.917L247.324 572.015Z" fill="#ACA7E9"/>
<path d="M247.324 587.36H240.21L236.653 581.263L240.21 575.165H247.324L250.779 581.263L247.324 587.36Z" fill="#ACA7E9"/>
<path d="M247.324 602.706H240.21L236.653 596.608L240.21 590.409H247.324L250.779 596.608L247.324 602.706Z" fill="#ACA7E9"/>
<path d="M247.121 617.746H240.312L236.958 611.852L240.312 605.958H247.121L250.576 611.852L247.121 617.746Z" fill="#ACA7E9"/>
<path d="M244.682 659.413H242.853L241.938 657.787L242.853 656.263H244.682L245.596 657.787L244.682 659.413Z" fill="#ACA7E9"/>
<path d="M247.223 679.23H240.211L236.755 673.132L240.211 667.035H247.223L250.78 673.132L247.223 679.23Z" fill="#ACA7E9"/>
<path d="M247.222 694.575H240.21L236.653 688.478L240.21 682.38H247.222L250.779 688.478L247.222 694.575Z" fill="#ACA7E9"/>
<path d="M339.803 977.4H333.401L330.149 971.81L333.401 966.221H339.803L342.954 971.81L339.803 977.4Z" fill="#ACA7E9"/>
<path d="M353.421 985.631H346.307L342.75 979.432L346.307 973.334H353.421L356.978 979.432L353.421 985.631Z" fill="#ACA7E9"/>
<path d="M366.633 993.253H359.62L356.063 987.155L359.62 980.956H366.633L370.189 987.155L366.633 993.253Z" fill="#ACA7E9"/>
<path d="M445.291 271.711H440.21L437.669 267.24L440.21 262.87H445.291L447.832 267.24L445.291 271.711Z" fill="#ACA7E9"/>
<path d="M432.791 280.756H426.084L422.73 274.963L426.084 269.171H432.791L436.145 274.963L432.791 280.756Z" fill="#ACA7E9"/>
<path d="M419.681 288.683H412.669L409.112 282.585L412.669 276.488H419.681L423.238 282.585L419.681 288.683Z" fill="#ACA7E9"/>
<path d="M404.031 292.24H401.795L400.677 290.207L401.795 288.276H404.031L405.149 290.207L404.031 292.24Z" fill="#ACA7E9"/>
<path d="M392.141 302.301H387.161L384.621 297.931L387.161 293.561H392.141L394.682 297.931L392.141 302.301Z" fill="#ACA7E9"/>
<path d="M352.608 325.573H347.12L344.376 320.898L347.12 316.122H352.608L355.25 320.898L352.608 325.573Z" fill="#ACA7E9"/>
<path d="M339.702 333.805H333.502L330.454 328.52L333.502 323.235H339.702L342.75 328.52L339.702 333.805Z" fill="#ACA7E9"/>
<path d="M325.474 340.004H321.104L318.97 336.244L321.104 332.382H325.474L327.71 336.244L325.474 340.004Z" fill="#ACA7E9"/>
<path d="M313.482 349.76H306.674L303.218 343.865L306.674 337.971H313.482L316.938 343.865L313.482 349.76Z" fill="#ACA7E9"/>
<path d="M286.958 365.105H280.149L276.694 359.211L280.149 353.317H286.958L290.312 359.211L286.958 365.105Z" fill="#ACA7E9"/>
<path d="M258.097 376.284H255.963L254.946 374.455L255.963 372.727H258.097L259.113 374.455L258.097 376.284Z" fill="#ACA7E9"/>
<path d="M247.324 388.276H240.21L236.653 382.178L240.21 375.979H247.324L250.779 382.178L247.324 388.276Z" fill="#ACA7E9"/>
<path d="M234.011 395.898H226.897L223.442 389.8L226.897 383.703H234.011L237.568 389.8L234.011 395.898Z" fill="#ACA7E9"/>
<path d="M234.011 411.243H226.897L223.442 405.146L226.897 398.947H234.011L237.568 405.146L234.011 411.243Z" fill="#ACA7E9"/>
<path d="M234.011 426.589H226.897L223.442 420.39L226.897 414.292H234.011L237.568 420.39L234.011 426.589Z" fill="#ACA7E9"/>
<path d="M234.011 441.833H226.897L223.442 435.735L226.897 429.637H234.011L237.568 435.735L234.011 441.833Z" fill="#ACA7E9"/>
<path d="M234.011 457.178H226.897L223.442 451.08L226.897 444.983H234.011L237.568 451.08L234.011 457.178Z" fill="#ACA7E9"/>
<path d="M234.011 472.523H226.897L223.442 466.426L226.897 460.227H234.011L237.568 466.426L234.011 472.523Z" fill="#ACA7E9"/>
<path d="M234.011 487.869H226.897L223.442 481.67L226.897 475.572H234.011L237.568 481.67L234.011 487.869Z" fill="#FF881B"/>
<path d="M234.011 503.113H226.897L223.442 497.015L226.897 490.918H234.011L237.568 497.015L234.011 503.113Z" fill="#ACA7E9"/>
<path d="M234.011 518.458H226.897L223.442 512.361L226.897 506.162H234.011L237.568 512.361L234.011 518.458Z" fill="#ACA7E9"/>
<path d="M234.011 533.804H226.897L223.442 527.604L226.897 521.507H234.011L237.568 527.604L234.011 533.804Z" fill="#ACA7E9"/>
<path d="M234.011 549.048H226.897L223.442 542.95L226.897 536.853H234.011L237.568 542.95L234.011 549.048Z" fill="#ACA7E9"/>
<path d="M234.011 564.393H226.897L223.442 558.295L226.897 552.198H234.011L237.568 558.295L234.011 564.393Z" fill="#ACA7E9"/>
<path d="M234.011 579.738H226.897L223.442 573.641L226.897 567.442H234.011L237.568 573.641L234.011 579.738Z" fill="#ACA7E9"/>
<path d="M234.011 594.982H226.897L223.442 588.885L226.897 582.787H234.011L237.568 588.885L234.011 594.982Z" fill="#ACA7E9"/>
<path d="M234.011 610.328H226.897L223.442 604.23L226.897 598.133H234.011L237.568 604.23L234.011 610.328Z" fill="#ACA7E9"/>
<path d="M233.097 624.149H227.812L225.17 619.576L227.812 614.901H233.097L235.739 619.576L233.097 624.149Z" fill="#ACA7E9"/>
<path d="M231.369 667.035H229.642L228.727 665.51L229.642 663.986H231.369L232.182 665.51L231.369 667.035Z" fill="#ACA7E9"/>
<path d="M234.011 686.852H226.999L223.442 680.754L226.999 674.758H234.011L237.466 680.754L234.011 686.852Z" fill="#ACA7E9"/>
<path d="M340.108 993.253H333.096L329.539 987.155L333.096 980.956H340.108L343.665 987.155L340.108 993.253Z" fill="#ACA7E9"/>
<path d="M353.421 1000.88H346.307L342.75 994.777L346.307 988.68H353.421L356.978 994.777L353.421 1000.88Z" fill="#392DCA"/>
<path d="M366.633 1008.5H359.62L356.063 1002.4L359.62 996.302H366.633L370.189 1002.4L366.633 1008.5Z" fill="#ACA7E9"/>
<path d="M418.665 271.508H413.787L411.246 267.24L413.787 263.073H418.665L421.104 267.24L418.665 271.508Z" fill="#ACA7E9"/>
<path d="M404.843 278.317H400.982L399.051 274.963L400.982 271.508H404.843L406.876 274.963L404.843 278.317Z" fill="#ACA7E9"/>
<path d="M392.75 287.971H386.551L383.401 282.585L386.551 277.199H392.75L395.901 282.585L392.75 287.971Z" fill="#ACA7E9"/>
<path d="M378.522 293.866H374.254L372.222 290.207L374.254 286.65H378.522L380.555 290.207L378.522 293.866Z" fill="#ACA7E9"/>
<path d="M366.531 303.723H359.722L356.368 297.931L359.722 292.036H366.531L369.884 297.931L366.531 303.723Z" fill="#ACA7E9"/>
<path d="M353.421 311.65H346.307L342.75 305.553L346.307 299.455H353.421L356.978 305.553L353.421 311.65Z" fill="#ACA7E9"/>
<path d="M340.108 319.374H333.096L329.539 313.175L333.096 307.077H340.108L343.665 313.175L340.108 319.374Z" fill="#ACA7E9"/>
<path d="M324.865 323.439H321.816L320.393 320.898L321.816 318.357H324.865L326.287 320.898L324.865 323.439Z" fill="#ACA7E9"/>
<path d="M311.755 331.467H308.299L306.673 328.52L308.299 325.573H311.755L313.482 328.52L311.755 331.467Z" fill="#ACA7E9"/>
<path d="M271.917 354.435H268.564L266.938 351.487L268.564 348.642H271.917L273.645 351.487L271.917 354.435Z" fill="#ACA7E9"/>
<path d="M259.112 362.869H254.844L252.71 359.211L254.844 355.451H259.112L261.247 359.211L259.112 362.869Z" fill="#ACA7E9"/>
<path d="M245.901 370.593H241.532L239.397 366.833L241.532 363.073H245.901L248.137 366.833L245.901 370.593Z" fill="#ACA7E9"/>
<path d="M231.471 376.182H229.438L228.523 374.455L229.438 372.727H231.471L232.487 374.455L231.471 376.182Z" fill="#ACA7E9"/>
<path d="M220.8 388.276H213.686L210.129 382.178L213.686 375.979H220.8L224.255 382.178L220.8 388.276Z" fill="#ACA7E9"/>
<path d="M220.8 403.621H213.686L210.129 397.422L213.686 391.325H220.8L224.255 397.422L220.8 403.621Z" fill="#ACA7E9"/>
<path d="M220.8 418.865H213.686L210.129 412.768L213.686 406.67H220.8L224.255 412.768L220.8 418.865Z" fill="#E23A45"/>
<path d="M220.8 434.211H213.686L210.129 428.113L213.686 421.914H220.8L224.255 428.113L220.8 434.211Z" fill="#ACA7E9"/>
<path d="M220.8 449.556H213.686L210.129 443.357L213.686 437.259H220.8L224.255 443.357L220.8 449.556Z" fill="#ACA7E9"/>
<path d="M220.8 464.8H213.686L210.129 458.702L213.686 452.605H220.8L224.255 458.702L220.8 464.8Z" fill="#ACA7E9"/>
<path d="M220.8 480.145H213.686L210.129 474.048L213.686 467.95H220.8L224.255 474.048L220.8 480.145Z" fill="#ACA7E9"/>
<path d="M220.8 495.491H213.686L210.129 489.393L213.686 483.194H220.8L224.255 489.393L220.8 495.491Z" fill="#ACA7E9"/>
<path d="M220.8 510.836H213.686L210.129 504.637L213.686 498.54H220.8L224.255 504.637L220.8 510.836Z" fill="#ACA7E9"/>
<path d="M220.8 526.08H213.686L210.129 519.983L213.686 513.885H220.8L224.255 519.983L220.8 526.08Z" fill="#ACA7E9"/>
<path d="M220.8 541.426H213.686L210.129 535.328L213.686 529.129H220.8L224.255 535.328L220.8 541.426Z" fill="#ACA7E9"/>
<path d="M220.8 556.771H213.686L210.129 550.572L213.686 544.474H220.8L224.255 550.572L220.8 556.771Z" fill="#ACA7E9"/>
<path d="M220.8 572.015H213.686L210.129 565.917L213.686 559.82H220.8L224.255 565.917L220.8 572.015Z" fill="#ACA7E9"/>
<path d="M220.8 587.36H213.686L210.129 581.263L213.686 575.165H220.8L224.255 581.263L220.8 587.36Z" fill="#ACA7E9"/>
<path d="M220.8 602.706H213.686L210.129 596.608L213.686 590.409H220.8L224.255 596.608L220.8 602.706Z" fill="#ACA7E9"/>
<path d="M220.8 618.051H213.686L210.129 611.852L213.686 605.755H220.8L224.255 611.852L220.8 618.051Z" fill="#ACA7E9"/>
<path d="M220.8 633.295H213.686L210.129 627.198L213.686 621.1H220.8L224.255 627.198L220.8 633.295Z" fill="#ACA7E9"/>
<path d="M220.8 648.641H213.686L210.129 642.543L213.686 636.344H220.8L224.255 642.543L220.8 648.641Z" fill="#ACA7E9"/>
<path d="M220.8 663.986H213.686L210.129 657.787L213.686 651.689H220.8L224.255 657.787L220.8 663.986Z" fill="#ACA7E9"/>
<path d="M220.8 679.23H213.686L210.129 673.132L213.686 667.035H220.8L224.255 673.132L220.8 679.23Z" fill="#ACA7E9"/>
<path d="M217.954 689.799H216.43L215.718 688.478L216.43 687.157H217.954L218.767 688.478L217.954 689.799Z" fill="#ACA7E9"/>
<path d="M340.108 1008.5H333.096L329.539 1002.4L333.096 996.302H340.108L343.665 1002.4L340.108 1008.5Z" fill="#ACA7E9"/>
<path d="M353.421 1016.22H346.307L342.75 1010.12L346.307 1003.92H353.421L356.978 1010.12L353.421 1016.22Z" fill="#ACA7E9"/>
<path d="M366.632 1023.74H359.62L356.165 1017.74L359.62 1011.75H366.632L370.088 1017.74L366.632 1023.74Z" fill="#ACA7E9"/>
<path d="M405.352 263.886H400.474L397.934 259.618L400.474 255.35H405.352L407.893 259.618L405.352 263.886Z" fill="#ACA7E9"/>
<path d="M393.157 273.439H386.145L382.588 267.24L386.145 261.142H393.157L396.714 267.24L393.157 273.439Z" fill="#ACA7E9"/>
<path d="M379.946 281.061H372.832L369.275 274.963L372.832 268.764H379.946L383.502 274.963L379.946 281.061Z" fill="#392DCA"/>
<path d="M366.633 288.683H359.62L356.063 282.585L359.62 276.488H366.633L370.189 282.585L366.633 288.683Z" fill="#ACA7E9"/>
<path d="M353.421 296.406H346.307L342.75 290.207L346.307 284.11H353.421L356.978 290.207L353.421 296.406Z" fill="#ACA7E9"/>
<path d="M340.108 304.028H333.096L329.539 297.931L333.096 291.732H340.108L343.665 297.931L340.108 304.028Z" fill="#ACA7E9"/>
<path d="M326.388 310.837H320.291L317.242 305.553L320.291 300.268H326.388L329.437 305.553L326.388 310.837Z" fill="#ACA7E9"/>
<path d="M312.873 318.154H307.283L304.438 313.175L307.283 308.297H312.873L315.718 313.175L312.873 318.154Z" fill="#ACA7E9"/>
<path d="M297.73 322.422H295.901L294.986 320.898L295.901 319.374H297.73L298.543 320.898L297.73 322.422Z" fill="#ACA7E9"/>
<path d="M273.848 342.341H266.735L263.178 336.244L266.735 330.044H273.848L277.304 336.244L273.848 342.341Z" fill="#ACA7E9"/>
<path d="M258.198 345.796H255.861L254.743 343.865L255.861 341.833H258.198L259.316 343.865L258.198 345.796Z" fill="#ACA7E9"/>
<path d="M247.324 357.687H240.21L236.653 351.487L240.21 345.39H247.324L250.779 351.487L247.324 357.687Z" fill="#ACA7E9"/>
<path d="M234.011 365.308H226.897L223.442 359.211L226.897 353.012H234.011L237.568 359.211L234.011 365.308Z" fill="#ACA7E9"/>
<path d="M220.292 372.016H214.194L211.146 366.833L214.194 361.548H220.292L223.239 366.833L220.292 372.016Z" fill="#ACA7E9"/>
<path d="M207.182 380.044H200.779L197.527 374.455L200.779 368.865H207.182L210.434 374.455L207.182 380.044Z" fill="#ACA7E9"/>
<path d="M207.487 395.898H200.373L196.917 389.8L200.373 383.703H207.487L211.043 389.8L207.487 395.898Z" fill="#ACA7E9"/>
<path d="M207.487 411.243H200.373L196.917 405.146L200.373 398.947H207.487L211.043 405.146L207.487 411.243Z" fill="#ACA7E9"/>
<path d="M207.487 426.589H200.373L196.917 420.39L200.373 414.292H207.487L211.043 420.39L207.487 426.589Z" fill="#ACA7E9"/>
<path d="M207.487 441.833H200.373L196.917 435.735L200.373 429.637H207.487L211.043 435.735L207.487 441.833Z" fill="#ACA7E9"/>
<path d="M207.487 457.178H200.373L196.917 451.08L200.373 444.983H207.487L211.043 451.08L207.487 457.178Z" fill="#ACA7E9"/>
<path d="M207.487 472.523H200.373L196.917 466.426L200.373 460.227H207.487L211.043 466.426L207.487 472.523Z" fill="#ACA7E9"/>
<path d="M207.487 487.869H200.373L196.917 481.67L200.373 475.572H207.487L211.043 481.67L207.487 487.869Z" fill="#ACA7E9"/>
<path d="M207.487 503.113H200.373L196.917 497.015L200.373 490.918H207.487L211.043 497.015L207.487 503.113Z" fill="#ACA7E9"/>
<path d="M207.487 518.458H200.373L196.917 512.361L200.373 506.162H207.487L211.043 512.361L207.487 518.458Z" fill="#ACA7E9"/>
<path d="M207.487 533.804H200.373L196.917 527.604L200.373 521.507H207.487L211.043 527.604L207.487 533.804Z" fill="#ACA7E9"/>
<path d="M207.487 549.048H200.373L196.917 542.95L200.373 536.853H207.487L211.043 542.95L207.487 549.048Z" fill="#392DCA"/>
<path d="M207.487 564.393H200.373L196.917 558.295L200.373 552.198H207.487L211.043 558.295L207.487 564.393Z" fill="#ACA7E9"/>
<path d="M207.487 579.738H200.373L196.917 573.641L200.373 567.442H207.487L211.043 573.641L207.487 579.738Z" fill="#ACA7E9"/>
<path d="M207.487 594.982H200.373L196.917 588.885L200.373 582.787H207.487L211.043 588.885L207.487 594.982Z" fill="#ACA7E9"/>
<path d="M207.487 610.328H200.373L196.917 604.23L200.373 598.133H207.487L211.043 604.23L207.487 610.328Z" fill="#ACA7E9"/>
<path d="M207.487 625.673H200.373L196.917 619.576L200.373 613.377H207.487L211.043 619.576L207.487 625.673Z" fill="#ACA7E9"/>
<path d="M207.487 641.019H200.373L196.917 634.82L200.373 628.722H207.487L211.043 634.82L207.487 641.019Z" fill="#ACA7E9"/>
<path d="M207.487 656.263H200.373L196.917 650.165L200.373 644.068H207.487L211.043 650.165L207.487 656.263Z" fill="#ACA7E9"/>
<path d="M207.487 671.608H200.373L196.917 665.511L200.373 659.311H207.487L211.043 665.511L207.487 671.608Z" fill="#ACA7E9"/>
<path d="M205.657 683.701H202.304L200.576 680.754L202.304 677.909H205.657L207.283 680.754L205.657 683.701Z" fill="#ACA7E9"/>
<path d="M339.702 1023.03H333.502L330.454 1017.74L333.502 1012.46H339.702L342.75 1017.74L339.702 1023.03Z" fill="#ACA7E9"/>
<path d="M353.421 1031.57H346.307L342.75 1025.37L346.307 1019.27H353.421L356.978 1025.37L353.421 1031.57Z" fill="#ACA7E9"/>
<path d="M364.193 1034.82H362.059L361.043 1033.09L362.059 1031.26H364.193L365.21 1033.09L364.193 1034.82Z" fill="#ACA7E9"/>
<path d="M379.133 264.394H373.645L370.799 259.618L373.645 254.841H379.133L381.978 259.618L379.133 264.394Z" fill="#ACA7E9"/>
<path d="M366.633 273.439H359.62L356.063 267.24L359.62 261.142H366.633L370.189 267.24L366.633 273.439Z" fill="#ACA7E9"/>
<path d="M353.421 281.061H346.307L342.75 274.963L346.307 268.764H353.421L356.978 274.963L353.421 281.061Z" fill="#ACA7E9"/>
<path d="M340.108 288.683H333.096L329.539 282.585L333.096 276.488H340.108L343.665 282.585L340.108 288.683Z" fill="#ACA7E9"/>
<path d="M325.475 293.866H321.206L319.174 290.207L321.206 286.65H325.475L327.507 290.207L325.475 293.866Z" fill="#ACA7E9"/>
<path d="M312.873 302.809H307.283L304.438 297.931L307.283 293.053H312.873L315.718 297.931L312.873 302.809Z" fill="#ACA7E9"/>
<path d="M284.519 314.902H282.588L281.673 313.175L282.588 311.549H284.519L285.433 313.175L284.519 314.902Z" fill="#ACA7E9"/>
<path d="M273.239 325.979H267.345L264.296 320.898L267.345 315.715H273.239L276.186 320.898L273.239 325.979Z" fill="#ACA7E9"/>
<path d="M258.503 331.061H255.556L254.032 328.52L255.556 325.979H258.503L260.028 328.52L258.503 331.061Z" fill="#ACA7E9"/>
<path d="M246.715 341.426H240.719L237.771 336.244L240.719 330.959H246.715L249.763 336.244L246.715 341.426Z" fill="#ACA7E9"/>
<path d="M234.011 349.963H226.999L223.442 343.865L226.999 337.768H234.011L237.466 343.865L234.011 349.963Z" fill="#ACA7E9"/>
<path d="M220.8 357.687H213.686L210.129 351.487L213.686 345.39H220.8L224.255 351.487L220.8 357.687Z" fill="#ACA7E9"/>
<path d="M207.081 364.597H200.78L197.731 359.211L200.78 353.723H207.081L210.231 359.211L207.081 364.597Z" fill="#ACA7E9"/>
<path d="M191.532 368.256H189.906L189.093 366.833L189.906 365.41H191.532L192.345 366.833L191.532 368.256Z" fill="#ACA7E9"/>
<path d="M194.275 388.276H187.161L183.604 382.178L187.161 375.979H194.275L197.73 382.178L194.275 388.276Z" fill="#ACA7E9"/>
<path d="M194.275 403.621H187.161L183.604 397.422L187.161 391.325H194.275L197.73 397.422L194.275 403.621Z" fill="#ACA7E9"/>
<path d="M194.275 418.865H187.161L183.604 412.768L187.161 406.67H194.275L197.73 412.768L194.275 418.865Z" fill="#ACA7E9"/>
<path d="M194.275 434.211H187.161L183.604 428.113L187.161 421.914H194.275L197.73 428.113L194.275 434.211Z" fill="#392DCA"/>
<path d="M194.275 449.556H187.161L183.604 443.357L187.161 437.259H194.275L197.73 443.357L194.275 449.556Z" fill="#ACA7E9"/>
<path d="M194.275 464.8H187.161L183.604 458.702L187.161 452.605H194.275L197.73 458.702L194.275 464.8Z" fill="#ACA7E9"/>
<path d="M194.275 480.145H187.161L183.604 474.048L187.161 467.95H194.275L197.73 474.048L194.275 480.145Z" fill="#ACA7E9"/>
<path d="M194.275 495.491H187.161L183.604 489.393L187.161 483.194H194.275L197.73 489.393L194.275 495.491Z" fill="#ACA7E9"/>
<path d="M194.275 510.836H187.161L183.604 504.637L187.161 498.54H194.275L197.73 504.637L194.275 510.836Z" fill="#ACA7E9"/>
<path d="M194.275 526.08H187.161L183.604 519.983L187.161 513.885H194.275L197.73 519.983L194.275 526.08Z" fill="#ACA7E9"/>
<path d="M194.275 541.426H187.161L183.604 535.328L187.161 529.129H194.275L197.73 535.328L194.275 541.426Z" fill="#ACA7E9"/>
<path d="M194.275 556.771H187.161L183.604 550.572L187.161 544.474H194.275L197.73 550.572L194.275 556.771Z" fill="#ACA7E9"/>
<path d="M194.275 572.015H187.161L183.604 565.917L187.161 559.82H194.275L197.73 565.917L194.275 572.015Z" fill="#ACA7E9"/>
<path d="M194.275 587.36H187.161L183.604 581.263L187.161 575.165H194.275L197.73 581.263L194.275 587.36Z" fill="#ACA7E9"/>
<path d="M194.275 602.706H187.161L183.604 596.608L187.161 590.409H194.275L197.73 596.608L194.275 602.706Z" fill="#ACA7E9"/>
<path d="M194.275 618.051H187.161L183.604 611.852L187.161 605.755H194.275L197.73 611.852L194.275 618.051Z" fill="#ACA7E9"/>
<path d="M194.275 633.295H187.161L183.604 627.198L187.161 621.1H194.275L197.73 627.198L194.275 633.295Z" fill="#ACA7E9"/>
<path d="M194.275 648.641H187.161L183.604 642.543L187.161 636.344H194.275L197.73 642.543L194.275 648.641Z" fill="#ACA7E9"/>
<path d="M194.174 663.884H187.162L183.707 657.787L187.162 651.791H194.174L197.629 657.787L194.174 663.884Z" fill="#ACA7E9"/>
<path d="M192.141 675.673H189.296L187.771 673.132L189.296 670.693H192.141L193.564 673.132L192.141 675.673Z" fill="#ACA7E9"/>
<path d="M338.482 1036.44H334.62L332.689 1033.09L334.62 1029.74H338.482L340.413 1033.09L338.482 1036.44Z" fill="#ACA7E9"/>
<path d="M353.421 1046.81H346.307L342.75 1040.71L346.307 1034.61H353.421L356.978 1040.71L353.421 1046.81Z" fill="#ACA7E9"/>
<path d="M366.429 1054.03H359.824L356.572 1048.33L359.824 1042.64H366.429L369.681 1048.33L366.429 1054.03Z" fill="#ACA7E9"/>
<path d="M377.913 1058.7H374.864L373.238 1056.06L374.864 1053.31H377.913L379.539 1056.06L377.913 1058.7Z" fill="#ACA7E9"/>
<path d="M351.999 263.276H347.73L345.596 259.618L347.73 255.959H351.999L354.133 259.618L351.999 263.276Z" fill="#ACA7E9"/>
<path d="M340.108 273.439H333.096L329.539 267.24L333.096 261.142H340.108L343.665 267.24L340.108 273.439Z" fill="#ACA7E9"/>
<path d="M325.881 279.333H320.799L318.157 274.963L320.799 270.492H325.881L328.421 274.963L325.881 279.333Z" fill="#ACA7E9"/>
<path d="M313.584 288.683H306.572L303.015 282.585L306.572 276.488H313.584L317.141 282.585L313.584 288.683Z" fill="#ACA7E9"/>
<path d="M258.096 315.207H255.861L254.743 313.175L255.861 311.244H258.096L259.214 313.175L258.096 315.207Z" fill="#ACA7E9"/>
<path d="M247.121 326.691H240.414L237.06 320.898L240.414 315.105H247.121L250.373 320.898L247.121 326.691Z" fill="#ACA7E9"/>
<path d="M232.995 332.788H228.015L225.576 328.52L228.015 324.252H232.995L235.434 328.52L232.995 332.788Z" fill="#ACA7E9"/>
<path d="M220.698 342.341H213.686L210.129 336.244L213.686 330.044H220.698L224.255 336.244L220.698 342.341Z" fill="#ACA7E9"/>
<path d="M207.487 349.963H200.373L196.917 343.865L200.373 337.768H207.487L211.043 343.865L207.487 349.963Z" fill="#ACA7E9"/>
<path d="M191.531 353.012H189.804L188.889 351.487L189.804 349.963H191.531L192.446 351.487L191.531 353.012Z" fill="#ACA7E9"/>
<path d="M180.963 380.654H173.849L170.394 374.455L173.849 368.357H180.963L184.52 374.455L180.963 380.654Z" fill="#ACA7E9"/>
<path d="M180.963 395.898H173.849L170.394 389.8L173.849 383.703H180.963L184.52 389.8L180.963 395.898Z" fill="#ACA7E9"/>
<path d="M180.963 411.243H173.849L170.394 405.146L173.849 398.947H180.963L184.52 405.146L180.963 411.243Z" fill="#ACA7E9"/>
<path d="M180.963 426.589H173.849L170.394 420.39L173.849 414.292H180.963L184.52 420.39L180.963 426.589Z" fill="#ACA7E9"/>
<path d="M180.963 441.833H173.849L170.394 435.735L173.849 429.637H180.963L184.52 435.735L180.963 441.833Z" fill="#ACA7E9"/>
<path d="M180.963 457.178H173.849L170.394 451.08L173.849 444.983H180.963L184.52 451.08L180.963 457.178Z" fill="#ACA7E9"/>
<path d="M180.963 472.523H173.849L170.394 466.426L173.849 460.227H180.963L184.52 466.426L180.963 472.523Z" fill="#ACA7E9"/>
<path d="M180.963 487.869H173.849L170.394 481.67L173.849 475.572H180.963L184.52 481.67L180.963 487.869Z" fill="#ACA7E9"/>
<path d="M180.963 503.113H173.849L170.394 497.015L173.849 490.918H180.963L184.52 497.015L180.963 503.113Z" fill="#ACA7E9"/>
<path d="M180.963 518.458H173.849L170.394 512.361L173.849 506.162H180.963L184.52 512.361L180.963 518.458Z" fill="#ACA7E9"/>
<path d="M180.963 533.804H173.849L170.394 527.604L173.849 521.507H180.963L184.52 527.604L180.963 533.804Z" fill="#ACA7E9"/>
<path d="M180.963 549.048H173.849L170.394 542.95L173.849 536.853H180.963L184.52 542.95L180.963 549.048Z" fill="#ACA7E9"/>
<path d="M180.963 564.393H173.849L170.394 558.295L173.849 552.198H180.963L184.52 558.295L180.963 564.393Z" fill="#ACA7E9"/>
<path d="M180.963 579.738H173.849L170.394 573.641L173.849 567.442H180.963L184.52 573.641L180.963 579.738Z" fill="#ACA7E9"/>
<path d="M180.963 594.982H173.849L170.394 588.885L173.849 582.787H180.963L184.52 588.885L180.963 594.982Z" fill="#ACA7E9"/>
<path d="M180.963 610.328H173.849L170.394 604.23L173.849 598.133H180.963L184.52 604.23L180.963 610.328Z" fill="#ACA7E9"/>
<path d="M180.963 625.673H173.849L170.394 619.576L173.849 613.377H180.963L184.52 619.576L180.963 625.673Z" fill="#ACA7E9"/>
<path d="M180.76 640.612H174.154L170.8 634.82L174.154 629.129H180.76L184.012 634.82L180.76 640.612Z" fill="#ACA7E9"/>
<path d="M323.95 260.634H322.73L322.121 259.618L322.73 258.602H323.95L324.56 259.618L323.95 260.634Z" fill="#ACA7E9"/>
<path d="M310.637 268.358H309.519L308.909 267.24L309.519 266.224H310.637L311.247 267.24L310.637 268.358Z" fill="#ACA7E9"/>
<path d="M245.088 307.89H242.446L241.023 305.553L242.446 303.215H245.088L246.409 305.553L245.088 307.89Z" fill="#ACA7E9"/>
<path d="M231.369 314.699H229.642L228.727 313.175L229.642 311.752H231.369L232.182 313.175L231.369 314.699Z" fill="#ACA7E9"/>
<path d="M218.767 323.54H215.718L214.092 320.898L215.718 318.256H218.767L220.291 320.898L218.767 323.54Z" fill="#ACA7E9"/>
<path d="M207.385 334.414H200.576L197.223 328.52L200.576 322.626H207.385L210.739 328.52L207.385 334.414Z" fill="#ACA7E9"/>
<path d="M194.275 342.341H187.161L183.604 336.244L187.161 330.044H194.275L197.73 336.244L194.275 342.341Z" fill="#ACA7E9"/>
<path d="M180.963 349.963H173.849L170.394 343.865L173.849 337.768H180.963L184.52 343.865L180.963 349.963Z" fill="#ACA7E9"/>
<path d="M166.227 370.39H162.162L160.028 366.833L162.162 363.276H166.227L168.259 366.833L166.227 370.39Z" fill="#ACA7E9"/>
<path d="M167.751 388.276H160.637L157.081 382.178L160.637 375.979H167.751L171.207 382.178L167.751 388.276Z" fill="#ACA7E9"/>
<path d="M167.751 403.621H160.637L157.081 397.422L160.637 391.325H167.751L171.207 397.422L167.751 403.621Z" fill="#ACA7E9"/>
<path d="M167.751 418.865H160.637L157.081 412.768L160.637 406.67H167.751L171.207 412.768L167.751 418.865Z" fill="#ACA7E9"/>
<path d="M167.751 434.211H160.637L157.081 428.113L160.637 421.914H167.751L171.207 428.113L167.751 434.211Z" fill="#ACA7E9"/>
<path d="M167.751 449.556H160.637L157.081 443.357L160.637 437.259H167.751L171.207 443.357L167.751 449.556Z" fill="#ACA7E9"/>
<path d="M167.751 464.8H160.637L157.081 458.702L160.637 452.605H167.751L171.207 458.702L167.751 464.8Z" fill="#ACA7E9"/>
<path d="M167.751 480.145H160.637L157.081 474.048L160.637 467.95H167.751L171.207 474.048L167.751 480.145Z" fill="#ACA7E9"/>
<path d="M167.751 495.491H160.637L157.081 489.393L160.637 483.194H167.751L171.207 489.393L167.751 495.491Z" fill="#ACA7E9"/>
<path d="M167.751 510.836H160.637L157.081 504.637L160.637 498.54H167.751L171.207 504.637L167.751 510.836Z" fill="#ACA7E9"/>
<path d="M167.751 526.08H160.637L157.081 519.983L160.637 513.885H167.751L171.207 519.983L167.751 526.08Z" fill="#ACA7E9"/>
<path d="M167.751 541.426H160.637L157.081 535.328L160.637 529.129H167.751L171.207 535.328L167.751 541.426Z" fill="#ACA7E9"/>
<path d="M167.751 556.771H160.637L157.081 550.572L160.637 544.474H167.751L171.207 550.572L167.751 556.771Z" fill="#ACA7E9"/>
<path d="M167.751 572.015H160.637L157.081 565.917L160.637 559.82H167.751L171.207 565.917L167.751 572.015Z" fill="#FF881B"/>
<path d="M167.751 587.36H160.637L157.081 581.263L160.637 575.165H167.751L171.207 581.263L167.751 587.36Z" fill="#ACA7E9"/>
<path d="M167.751 602.706H160.637L157.081 596.608L160.637 590.409H167.751L171.207 596.608L167.751 602.706Z" fill="#ACA7E9"/>
<path d="M167.65 617.848H160.739L157.284 611.852L160.739 605.856H167.65L171.105 611.852L167.65 617.848Z" fill="#ACA7E9"/>
<path d="M167.243 632.482H161.146L158.097 627.198L161.146 621.913H167.243L170.191 627.198L167.243 632.482Z" fill="#ACA7E9"/>
<path d="M166.735 647.015H161.552L158.91 642.543L161.552 637.97H166.735L169.377 642.543L166.735 647.015Z" fill="#ACA7E9"/>
<path d="M191.938 323.032H189.397L188.178 320.898L189.397 318.662H191.938L193.259 320.898L191.938 323.032Z" fill="#ACA7E9"/>
<path d="M179.235 331.569H175.678L173.849 328.52L175.678 325.471H179.235L180.963 328.52L179.235 331.569Z" fill="#ACA7E9"/>
<path d="M154.439 380.654H147.325L143.87 374.455L147.325 368.357H154.439L157.996 374.455L154.439 380.654Z" fill="#ACA7E9"/>
<path d="M154.439 395.898H147.325L143.87 389.8L147.325 383.703H154.439L157.996 389.8L154.439 395.898Z" fill="#ACA7E9"/>
<path d="M154.439 411.243H147.325L143.87 405.146L147.325 398.947H154.439L157.996 405.146L154.439 411.243Z" fill="#ACA7E9"/>
<path d="M154.439 426.589H147.325L143.87 420.39L147.325 414.292H154.439L157.996 420.39L154.439 426.589Z" fill="#ACA7E9"/>
<path d="M154.439 441.833H147.325L143.87 435.735L147.325 429.637H154.439L157.996 435.735L154.439 441.833Z" fill="#ACA7E9"/>
<path d="M154.439 457.178H147.325L143.87 451.08L147.325 444.983H154.439L157.996 451.08L154.439 457.178Z" fill="#ACA7E9"/>
<path d="M154.439 472.523H147.325L143.87 466.426L147.325 460.227H154.439L157.996 466.426L154.439 472.523Z" fill="#ACA7E9"/>
<path d="M154.439 487.869H147.325L143.87 481.67L147.325 475.572H154.439L157.996 481.67L154.439 487.869Z" fill="#ACA7E9"/>
<path d="M154.439 503.113H147.325L143.87 497.015L147.325 490.918H154.439L157.996 497.015L154.439 503.113Z" fill="#ACA7E9"/>
<path d="M154.439 518.458H147.325L143.87 512.361L147.325 506.162H154.439L157.996 512.361L154.439 518.458Z" fill="#ACA7E9"/>
<path d="M154.439 533.804H147.325L143.87 527.604L147.325 521.507H154.439L157.996 527.604L154.439 533.804Z" fill="#ACA7E9"/>
<path d="M154.439 549.048H147.325L143.87 542.95L147.325 536.853H154.439L157.996 542.95L154.439 549.048Z" fill="#ACA7E9"/>
<path d="M154.439 564.393H147.325L143.87 558.295L147.325 552.198H154.439L157.996 558.295L154.439 564.393Z" fill="#ACA7E9"/>
<path d="M154.439 579.738H147.325L143.87 573.641L147.325 567.442H154.439L157.996 573.641L154.439 579.738Z" fill="#ACA7E9"/>
<path d="M154.439 594.982H147.325L143.87 588.885L147.325 582.787H154.439L157.996 588.885L154.439 594.982Z" fill="#ACA7E9"/>
<path d="M154.439 610.328H147.325L143.87 604.23L147.325 598.133H154.439L157.996 604.23L154.439 610.328Z" fill="#ACA7E9"/>
<path d="M154.235 625.267H147.63L144.276 619.576L147.63 613.783H154.235L157.487 619.576L154.235 625.267Z" fill="#ACA7E9"/>
<path d="M139.906 370.796H135.333L133.097 366.833L135.333 362.869H139.906L142.243 366.833L139.906 370.796Z" fill="#ACA7E9"/>
<path d="M141.126 388.276H134.114L130.557 382.178L134.114 375.979H141.126L144.683 382.178L141.126 388.276Z" fill="#ACA7E9"/>
<path d="M141.126 403.621H134.114L130.557 397.422L134.114 391.325H141.126L144.683 397.422L141.126 403.621Z" fill="#ACA7E9"/>
<path d="M141.126 418.865H134.114L130.557 412.768L134.114 406.67H141.126L144.683 412.768L141.126 418.865Z" fill="#ACA7E9"/>
<path d="M141.126 434.211H134.114L130.557 428.113L134.114 421.914H141.126L144.683 428.113L141.126 434.211Z" fill="#ACA7E9"/>
<path d="M141.126 449.556H134.114L130.557 443.357L134.114 437.259H141.126L144.683 443.357L141.126 449.556Z" fill="#ACA7E9"/>
<path d="M141.126 464.8H134.114L130.557 458.702L134.114 452.605H141.126L144.683 458.702L141.126 464.8Z" fill="#ACA7E9"/>
<path d="M141.126 480.145H134.114L130.557 474.048L134.114 467.95H141.126L144.683 474.048L141.126 480.145Z" fill="#ACA7E9"/>
<path d="M141.126 495.491H134.114L130.557 489.393L134.114 483.194H141.126L144.683 489.393L141.126 495.491Z" fill="#ACA7E9"/>
<path d="M141.126 510.836H134.114L130.557 504.637L134.114 498.54H141.126L144.683 504.637L141.126 510.836Z" fill="#ACA7E9"/>
<path d="M141.126 526.08H134.114L130.557 519.983L134.114 513.885H141.126L144.683 519.983L141.126 526.08Z" fill="#ACA7E9"/>
<path d="M141.126 541.426H134.114L130.557 535.328L134.114 529.129H141.126L144.683 535.328L141.126 541.426Z" fill="#ACA7E9"/>
<path d="M141.126 556.771H134.114L130.557 550.572L134.114 544.474H141.126L144.683 550.572L141.126 556.771Z" fill="#ACA7E9"/>
<path d="M141.126 572.015H134.114L130.557 565.917L134.114 559.82H141.126L144.683 565.917L141.126 572.015Z" fill="#ACA7E9"/>
<path d="M141.126 587.36H134.114L130.557 581.263L134.114 575.165H141.126L144.683 581.263L141.126 587.36Z" fill="#ACA7E9"/>
<path d="M138.686 598.438H136.552L135.434 596.608L136.552 594.677H138.686L139.804 596.608L138.686 598.438Z" fill="#ACA7E9"/>
<path d="M127.914 380.654H120.8L117.345 374.455L120.8 368.357H127.914L131.471 374.455L127.914 380.654Z" fill="#ACA7E9"/>
<path d="M127.914 395.898H120.8L117.345 389.8L120.8 383.703H127.914L131.471 389.8L127.914 395.898Z" fill="#ACA7E9"/>
<path d="M127.914 411.243H120.8L117.345 405.146L120.8 398.947H127.914L131.471 405.146L127.914 411.243Z" fill="#ACA7E9"/>
<path d="M127.914 426.589H120.8L117.345 420.39L120.8 414.292H127.914L131.471 420.39L127.914 426.589Z" fill="#ACA7E9"/>
<path d="M127.914 441.833H120.8L117.345 435.735L120.8 429.637H127.914L131.471 435.735L127.914 441.833Z" fill="#ACA7E9"/>
<path d="M127.914 457.178H120.8L117.345 451.08L120.8 444.983H127.914L131.471 451.08L127.914 457.178Z" fill="#ACA7E9"/>
<path d="M127.711 472.219H121.004L117.65 466.426L121.004 460.532H127.711L131.064 466.426L127.711 472.219Z" fill="#ACA7E9"/>
<path d="M127 486.141H121.817L119.174 481.67L121.817 477.198H127L129.54 481.67L127 486.141Z" fill="#ACA7E9"/>
<path d="M125.678 499.251H123.138L121.816 497.015L123.138 494.779H125.678L126.898 497.015L125.678 499.251Z" fill="#ACA7E9"/>
<path d="M125.17 513.682H123.646L122.833 512.361L123.646 511.04H125.17L125.881 512.361L125.17 513.682Z" fill="#ACA7E9"/>
<path d="M125.475 529.637H123.24L122.02 527.605L123.24 525.674H125.475L126.695 527.605L125.475 529.637Z" fill="#ACA7E9"/>
<path d="M125.678 545.186H123.138L121.816 542.95L123.138 540.714H125.678L126.898 542.95L125.678 545.186Z" fill="#ACA7E9"/>
<path d="M126.898 562.767H121.817L119.276 558.295L121.817 553.824H126.898L129.54 558.295L126.898 562.767Z" fill="#ACA7E9"/>
<path d="M125.678 575.775H123.138L121.816 573.641L123.138 571.405H125.678L126.898 573.641L125.678 575.775Z" fill="#ACA7E9"/>
<path d="M113.686 371.203H108.605L106.064 366.833L108.605 362.463H113.686L116.227 366.833L113.686 371.203Z" fill="#ACA7E9"/>
<path d="M114.601 388.276H107.589L104.032 382.178L107.589 375.979H114.601L118.158 382.178L114.601 388.276Z" fill="#ACA7E9"/>
<path d="M114.601 403.621H107.589L104.032 397.422L107.589 391.325H114.601L118.158 397.422L114.601 403.621Z" fill="#ACA7E9"/>
<path d="M114.601 418.865H107.589L104.032 412.768L107.589 406.67H114.601L118.158 412.768L114.601 418.865Z" fill="#ACA7E9"/>
<path d="M114.601 434.211H107.589L104.032 428.113L107.589 421.914H114.601L118.158 428.113L114.601 434.211Z" fill="#ACA7E9"/>
<path d="M114.601 449.556H107.589L104.032 443.357L107.589 437.259H114.601L118.158 443.357L114.601 449.556Z" fill="#ACA7E9"/>
<path d="M113.89 463.479H108.301L105.557 458.702L108.301 453.926H113.89L116.634 458.702L113.89 463.479Z" fill="#ACA7E9"/>
<path d="M98.5442 360.329H97.2231L96.5117 359.211L97.2231 357.991H98.5442L99.154 359.211L98.5442 360.329Z" fill="#ACA7E9"/>
<path d="M101.39 380.654H94.2761L90.8208 374.455L94.2761 368.357H101.39L104.947 374.455L101.39 380.654Z" fill="#ACA7E9"/>
<path d="M101.39 395.898H94.2761L90.8208 389.8L94.2761 383.703H101.39L104.947 389.8L101.39 395.898Z" fill="#ACA7E9"/>
<path d="M101.39 411.243H94.2761L90.8208 405.146L94.2761 398.947H101.39L104.947 405.146L101.39 411.243Z" fill="#ACA7E9"/>
<path d="M101.39 426.589H94.2761L90.8208 420.39L94.2761 414.292H101.39L104.947 420.39L101.39 426.589Z" fill="#392DCA"/>
<path d="M101.39 441.833H94.2761L90.8208 435.735L94.2761 429.637H101.39L104.947 435.735L101.39 441.833Z" fill="#ACA7E9"/>
<path d="M100.373 455.45H95.2921L92.7515 451.08L95.2921 446.711H100.373L102.914 451.08L100.373 455.45Z" fill="#ACA7E9"/>
<path d="M88.0769 372.93H81.0647L77.5078 366.833L81.0647 360.735H88.0769L91.6338 366.833L88.0769 372.93Z" fill="#ACA7E9"/>
<path d="M88.0769 388.276H81.0647L77.5078 382.178L81.0647 375.979H88.0769L91.6338 382.178L88.0769 388.276Z" fill="#ACA7E9"/>
<path d="M88.0769 403.621H81.0647L77.5078 397.422L81.0647 391.325H88.0769L91.6338 397.422L88.0769 403.621Z" fill="#ACA7E9"/>
<path d="M88.0769 418.865H81.0647L77.5078 412.768L81.0647 406.67H88.0769L91.6338 412.768L88.0769 418.865Z" fill="#ACA7E9"/>
<path d="M88.0769 434.211H81.0647L77.5078 428.113L81.0647 421.914H88.0769L91.6338 428.113L88.0769 434.211Z" fill="#ACA7E9"/>
<path d="M85.5364 444.983H83.7071L82.7925 443.357L83.7071 441.833H85.5364L86.451 443.357L85.5364 444.983Z" fill="#ACA7E9"/>
<path d="M73.1382 362.361H69.4797L67.6504 359.211L69.4797 355.959H73.1382L75.0691 359.211L73.1382 362.361Z" fill="#ACA7E9"/>
<path d="M74.865 380.654H67.7512L64.1943 374.455L67.7512 368.357H74.865L78.4219 374.455L74.865 380.654Z" fill="#ACA7E9"/>
<path d="M74.865 395.898H67.7512L64.1943 389.8L67.7512 383.703H74.865L78.4219 389.8L74.865 395.898Z" fill="#ACA7E9"/>
<path d="M74.865 411.243H67.7512L64.1943 405.146L67.7512 398.947H74.865L78.4219 405.146L74.865 411.243Z" fill="#ACA7E9"/>
<path d="M74.865 426.589H67.7512L64.1943 420.39L67.7512 414.292H74.865L78.4219 420.39L74.865 426.589Z" fill="#ACA7E9"/>
<path d="M74.865 441.833H67.7512L64.1943 435.735L67.7512 429.637H74.865L78.4219 435.735L74.865 441.833Z" fill="#ACA7E9"/>
<path d="M58.9103 352.91H57.2843L56.3696 351.487L57.2843 350.065H58.9103L59.7233 351.487L58.9103 352.91Z" fill="#ACA7E9"/>
<path d="M61.5525 372.93H54.5403L50.9834 366.833L54.5403 360.735H61.5525L65.1094 366.833L61.5525 372.93Z" fill="#ACA7E9"/>
<path d="M61.5525 388.276H54.5403L50.9834 382.178L54.5403 375.979H61.5525L65.1094 382.178L61.5525 388.276Z" fill="#ACA7E9"/>
<path d="M61.5525 403.621H54.5403L50.9834 397.422L54.5403 391.325H61.5525L65.1094 397.422L61.5525 403.621Z" fill="#ACA7E9"/>
<path d="M61.5525 418.865H54.5403L50.9834 412.768L54.5403 406.67H61.5525L65.1094 412.768L61.5525 418.865Z" fill="#ACA7E9"/>
<path d="M61.5525 434.211H54.5403L50.9834 428.113L54.5403 421.914H61.5525L65.1094 428.113L61.5525 434.211Z" fill="#ACA7E9"/>
<path d="M61.5525 449.556H54.5403L50.9834 443.357L54.5403 437.259H61.5525L65.1094 443.357L61.5525 449.556Z" fill="#ACA7E9"/>
<path d="M61.5525 464.8H54.5403L50.9834 458.702L54.5403 452.605H61.5525L65.1094 458.702L61.5525 464.8Z" fill="#ACA7E9"/>
<path d="M47.8328 364.394H41.7352L38.7881 359.211L41.7352 353.926H47.8328L50.7799 359.211L47.8328 364.394Z" fill="#ACA7E9"/>
<path d="M48.3416 380.654H41.2278L37.6709 374.455L41.2278 368.357H48.3416L51.8985 374.455L48.3416 380.654Z" fill="#ACA7E9"/>
<path d="M48.3416 395.898H41.2278L37.6709 389.8L41.2278 383.703H48.3416L51.8985 389.8L48.3416 395.898Z" fill="#ACA7E9"/>
<path d="M48.3416 411.243H41.2278L37.6709 405.146L41.2278 398.947H48.3416L51.8985 405.146L48.3416 411.243Z" fill="#ACA7E9"/>
<path d="M48.3416 426.589H41.2278L37.6709 420.39L41.2278 414.292H48.3416L51.8985 420.39L48.3416 426.589Z" fill="#ACA7E9"/>
<path d="M48.3416 441.833H41.2278L37.6709 435.735L41.2278 429.637H48.3416L51.8985 435.735L48.3416 441.833Z" fill="#ACA7E9"/>
<path d="M48.2394 457.076H41.3289L37.772 451.08L41.3289 444.983H48.2394L51.7963 451.08L48.2394 457.076Z" fill="#ACA7E9"/>
<path d="M48.0363 472.015H41.5323L38.2803 466.426L41.5323 460.735H48.0363L51.2884 466.426L48.0363 472.015Z" fill="#ACA7E9"/>
<path d="M35.0285 372.93H28.0164L24.4595 366.833L28.0164 360.735H35.0285L38.5854 366.833L35.0285 372.93Z" fill="#ACA7E9"/>
<path d="M34.6215 387.564H28.4224L25.272 382.178L28.4224 376.792H34.6215L37.7719 382.178L34.6215 387.564Z" fill="#ACA7E9"/>
<path d="M35.0285 403.621H28.0164L24.4595 397.422L28.0164 391.325H35.0285L38.5854 397.422L35.0285 403.621Z" fill="#ACA7E9"/>
<path d="M35.0285 418.865H28.0164L24.4595 412.768L28.0164 406.67H35.0285L38.5854 412.768L35.0285 418.865Z" fill="#ACA7E9"/>
<path d="M35.0285 434.211H28.0164L24.4595 428.113L28.0164 421.914H35.0285L38.5854 428.113L35.0285 434.211Z" fill="#ACA7E9"/>
<path d="M35.0285 449.556H28.0164L24.4595 443.357L28.0164 437.259H35.0285L38.5854 443.357L35.0285 449.556Z" fill="#ACA7E9"/>
<path d="M35.0285 464.8H28.0164L24.4595 458.702L28.0164 452.605H35.0285L38.5854 458.702L35.0285 464.8Z" fill="#ACA7E9"/>
<path d="M18.8698 360.227H17.6503L17.0405 359.211L17.6503 358.093H18.8698L19.4795 359.211L18.8698 360.227Z" fill="#ACA7E9"/>
<path d="M19.8858 377.3H16.6338L15.0078 374.455L16.6338 371.609H19.8858L21.6135 374.455L19.8858 377.3Z" fill="#ACA7E9"/>
<path d="M21.7149 395.796H14.8044L11.3491 389.8L14.8044 383.804H21.7149L25.2718 389.8L21.7149 395.796Z" fill="#ACA7E9"/>
<path d="M21.0042 409.922H15.5164L12.6709 405.146L15.5164 400.268H21.0042L23.8497 405.146L21.0042 409.922Z" fill="#ACA7E9"/>
<path d="M21.8172 426.589H14.7034L11.1465 420.39L14.7034 414.292H21.8172L25.3741 420.39L21.8172 426.589Z" fill="#ACA7E9"/>
<path d="M21.8172 441.833H14.7034L11.1465 435.735L14.7034 429.637H21.8172L25.3741 435.735L21.8172 441.833Z" fill="#ACA7E9"/>
<path d="M21.8172 457.178H14.7034L11.1465 451.08L14.7034 444.983H21.8172L25.3741 451.08L21.8172 457.178Z" fill="#ACA7E9"/>
<path d="M21.8171 472.523H14.7033L11.248 466.426L14.7033 460.227H21.8171L25.2724 466.426L21.8171 472.523Z" fill="#ACA7E9"/>
<path d="M6.16621 384.109H3.82882L2.71094 382.178L3.82882 380.146H6.16621L7.28409 382.178L6.16621 384.109Z" fill="#ACA7E9"/>
<path d="M8.50412 403.621H1.49195L-2.06494 397.422L1.49195 391.325H8.50412L12.061 397.422L8.50412 403.621Z" fill="#ACA7E9"/>
<path d="M5.55674 413.784H4.43886L3.8291 412.768L4.43886 411.751H5.55674L6.16649 412.768L5.55674 413.784Z" fill="#ACA7E9"/>
<path d="M8.50412 434.211H1.49195L-2.06494 428.113L1.49195 421.914H8.50412L12.061 428.113L8.50412 434.211Z" fill="#ACA7E9"/>
<path d="M8.50412 449.556H1.49195L-2.06494 443.357L1.49195 437.259H8.50412L12.061 443.357L8.50412 449.556Z" fill="#ACA7E9"/>
<path d="M6.57279 461.446H3.4224L1.79639 458.702L3.4224 455.958H6.57279L8.1988 458.702L6.57279 461.446Z" fill="#ACA7E9"/>
<path d="M6.97973 477.401H3.01634L1.08545 474.048L3.01634 470.694H6.97973L8.91062 474.048L6.97973 477.401Z" fill="#ACA7E9"/>
<path d="M7.79235 494.271H2.20294L-0.642578 489.393L2.20294 484.515H7.79235L10.6379 489.393L7.79235 494.271Z" fill="#ACA7E9"/>
</g>
<defs>
<filter id="filter0_d_145_2496" x="-273" y="0" width="1259.14" height="1312.7" filterUnits="userSpaceOnUse" color-interpolation-filters="sRGB">
<feFlood flood-opacity="0" />
<feColorMatrix in="SourceAlpha" type="matrix" values="0 0 0 0 0 0 0 0 0 0 0 0 0 0 0 0 0 0 127 0" result="hardAlpha"/>
<feOffset dy="4"/>
<feGaussianBlur stdDeviation="125"/>
<feComposite in2="hardAlpha" operator="out"/>
<feColorMatrix type="matrix" values="0 0 0 0 0.224174 0 0 0 0 0.174826 0 0 0 0 0.791667 0 0 0 0.6 0"/>
<feBlend mode="normal" in2="BackgroundImageFix" result="effect1_dropShadow_145_2496"/>
<feBlend mode="normal" in="SourceGraphic" in2="effect1_dropShadow_145_2496" result="shape"/>
</filter>
</defs>
</svg>
