<svg width="760" height="813" viewBox="0 0 760 813" fill="none" xmlns="http://www.w3.org/2000/svg">
<path d="M572.457 435.872H571.238L570.628 434.754L571.238 433.738H572.457L573.067 434.754L572.457 435.872Z" fill="#ACA7E9"/>
<path d="M506.807 536.583H504.165L502.945 534.347L504.165 532.112H506.807L508.128 534.347L506.807 536.583Z" fill="#ACA7E9"/>
<path d="M482.518 540.445H475.405L471.848 534.348L475.405 528.25H482.518L486.075 534.348L482.518 540.445Z" fill="#ACA7E9"/>
<path d="M495.73 548.169H488.718L485.161 541.969L488.718 535.872H495.73L499.287 541.969L495.73 548.169Z" fill="#ACA7E9"/>
<path d="M509.043 555.791H501.929L498.474 549.693L501.929 543.494H509.043L512.6 549.693L509.043 555.791Z" fill="#ACA7E9"/>
<path d="M469.205 548.169H462.193L458.636 541.969L462.193 535.872H469.205L472.762 541.969L469.205 548.169Z" fill="#ACA7E9"/>
<path d="M482.518 555.791H475.405L471.848 549.693L475.405 543.494H482.518L486.075 549.693L482.518 555.791Z" fill="#ACA7E9"/>
<path d="M495.73 563.412H488.718L485.161 557.315L488.718 551.217H495.73L499.287 557.315L495.73 563.412Z" fill="#ACA7E9"/>
<path d="M508.738 570.73H502.234L498.88 564.937L502.234 559.246H508.738L512.091 564.937L508.738 570.73Z" fill="#ACA7E9"/>
<path d="M468.596 531.705H462.803L459.958 526.725L462.803 521.746H468.596L471.441 526.725L468.596 531.705Z" fill="#ACA7E9"/>
<path d="M455.994 555.791H448.881L445.324 549.693L448.881 543.494H455.994L459.551 549.693L455.994 555.791Z" fill="#ACA7E9"/>
<path d="M469.205 563.412H462.193L458.636 557.315L462.193 551.217H469.205L472.762 557.315L469.205 563.412Z" fill="#ACA7E9"/>
<path d="M482.518 571.136H475.405L471.848 564.937L475.405 558.839H482.518L486.075 564.937L482.518 571.136Z" fill="#ACA7E9"/>
<path d="M495.73 578.758H488.718L485.161 572.66L488.718 566.563H495.73L499.287 572.66L495.73 578.758Z" fill="#ACA7E9"/>
<path d="M454.571 522.762H450.303L448.169 519.002L450.303 515.344H454.571L456.705 519.002L454.571 522.762Z" fill="#ACA7E9"/>
<path d="M455.994 540.445H448.881L445.324 534.348L448.881 528.25H455.994L459.551 534.348L455.994 540.445Z" fill="#ACA7E9"/>
<path d="M442.681 563.412H435.669L432.112 557.315L435.669 551.217H442.681L446.238 557.315L442.681 563.412Z" fill="#ACA7E9"/>
<path d="M455.994 571.136H448.881L445.324 564.937L448.881 558.839H455.994L459.551 564.937L455.994 571.136Z" fill="#ACA7E9"/>
<path d="M469.205 578.758H462.193L458.636 572.66L462.193 566.563H469.205L472.762 572.66L469.205 578.758Z" fill="#ACA7E9"/>
<path d="M482.518 586.38H475.405L471.848 580.282L475.405 574.185H482.518L486.075 580.282L482.518 586.38Z" fill="#ACA7E9"/>
<path d="M495.12 592.986H489.328L486.38 588.006L489.328 582.925H495.12L498.067 588.006L495.12 592.986Z" fill="#ACA7E9"/>
<path d="M442.58 272.255H435.771L432.315 266.361L435.771 260.365H442.58L446.035 266.361L442.58 272.255Z" fill="#ACA7E9"/>
<path d="M441.462 499.998H436.889L434.551 496.035L436.889 492.071H441.462L443.799 496.035L441.462 499.998Z" fill="#ACA7E9"/>
<path d="M442.58 517.274H435.771L432.315 511.38L435.771 505.486H442.58L446.035 511.38L442.58 517.274Z" fill="#ACA7E9"/>
<path d="M442.681 532.823H435.669L432.112 526.726L435.669 520.526H442.681L446.238 526.726L442.681 532.823Z" fill="#ACA7E9"/>
<path d="M442.681 548.169H435.669L432.112 541.969L435.669 535.872H442.681L446.238 541.969L442.681 548.169Z" fill="#ACA7E9"/>
<path d="M429.47 571.136H422.356L418.799 564.937L422.356 558.839H429.47L433.027 564.937L429.47 571.136Z" fill="#ACA7E9"/>
<path d="M442.681 578.758H435.669L432.112 572.66L435.669 566.563H442.681L446.238 572.66L442.681 578.758Z" fill="#ACA7E9"/>
<path d="M455.994 586.38H448.881L445.324 580.282L448.881 574.185H455.994L459.551 580.282L455.994 586.38Z" fill="#ACA7E9"/>
<path d="M469.205 594.103H462.193L458.636 588.006L462.193 581.807H469.205L472.762 588.006L469.205 594.103Z" fill="#ACA7E9"/>
<path d="M482.518 601.725H475.405L471.848 595.628L475.405 589.53H482.518L486.075 595.628L482.518 601.725Z" fill="#ACA7E9"/>
<path d="M493.087 604.672H491.461L490.648 603.25L491.461 601.928H493.087L493.799 603.25L493.087 604.672Z" fill="#ACA7E9"/>
<path d="M429.064 248.779H422.763L419.612 243.393L422.763 237.906H429.064L432.214 243.393L429.064 248.779Z" fill="#ACA7E9"/>
<path d="M428.453 263.109H423.372L420.832 258.637L423.372 254.267H428.453L430.994 258.637L428.453 263.109Z" fill="#ACA7E9"/>
<path d="M427.844 491.665H423.982L422.153 488.413L423.982 485.161H427.844L429.673 488.413L427.844 491.665Z" fill="#ACA7E9"/>
<path d="M429.47 509.856H422.356L418.799 503.758L422.356 497.559H429.47L433.027 503.758L429.47 509.856Z" fill="#ACA7E9"/>
<path d="M429.47 525.201H422.356L418.799 519.002L422.356 512.905H429.47L433.027 519.002L429.47 525.201Z" fill="#ACA7E9"/>
<path d="M429.47 540.445H422.356L418.799 534.348L422.356 528.25H429.47L433.027 534.348L429.47 540.445Z" fill="#ACA7E9"/>
<path d="M429.47 555.791H422.356L418.799 549.693L422.356 543.494H429.47L433.027 549.693L429.47 555.791Z" fill="#ACA7E9"/>
<path d="M416.157 578.758H409.145L405.588 572.66L409.145 566.563H416.157L419.714 572.66L416.157 578.758Z" fill="#ACA7E9"/>
<path d="M429.47 586.38H422.356L418.799 580.282L422.356 574.185H429.47L433.027 580.282L429.47 586.38Z" fill="#ACA7E9"/>
<path d="M442.681 594.103H435.669L432.112 588.006L435.669 581.807H442.681L446.238 588.006L442.681 594.103Z" fill="#ACA7E9"/>
<path d="M455.994 601.725H448.881L445.324 595.628L448.881 589.53H455.994L459.551 595.628L455.994 601.725Z" fill="#ACA7E9"/>
<path d="M469.205 609.449H462.193L458.636 603.25L462.193 597.152H469.205L472.762 603.25L469.205 609.449Z" fill="#ACA7E9"/>
<path d="M482.518 617.071H475.405L471.848 610.973L475.405 604.774H482.518L486.075 610.973L482.518 617.071Z" fill="#ACA7E9"/>
<path d="M493.799 192.377H490.75L489.226 189.735L490.75 187.093H493.799L495.323 189.735L493.799 192.377Z" fill="#ACA7E9"/>
<path d="M428.25 232.215H423.575L421.136 228.048L423.575 223.881H428.25L430.689 228.048L428.25 232.215Z" fill="#ACA7E9"/>
<path d="M416.157 241.869H409.145L405.588 235.67L409.145 229.572H416.157L419.714 235.67L416.157 241.869Z" fill="#ACA7E9"/>
<path d="M414.633 254.47H410.669L408.738 251.015L410.669 247.56H414.633L416.563 251.015L414.633 254.47Z" fill="#ACA7E9"/>
<path d="M413.921 482.925H411.381L410.161 480.791L411.381 478.555H413.921L415.141 480.791L413.921 482.925Z" fill="#ACA7E9"/>
<path d="M416.157 502.234H409.145L405.588 496.035L409.145 489.937H416.157L419.714 496.035L416.157 502.234Z" fill="#ACA7E9"/>
<path d="M416.157 517.478H409.145L405.588 511.38L409.145 505.282H416.157L419.714 511.38L416.157 517.478Z" fill="#ACA7E9"/>
<path d="M416.157 532.823H409.145L405.588 526.726L409.145 520.526H416.157L419.714 526.726L416.157 532.823Z" fill="#ACA7E9"/>
<path d="M416.157 548.169H409.145L405.588 541.969L409.145 535.872H416.157L419.714 541.969L416.157 548.169Z" fill="#ACA7E9"/>
<path d="M416.157 563.412H409.145L405.588 557.315L409.145 551.217H416.157L419.714 557.315L416.157 563.412Z" fill="#ACA7E9"/>
<path d="M402.946 586.38H395.832L392.275 580.282L395.832 574.185H402.946L406.502 580.282L402.946 586.38Z" fill="#ACA7E9"/>
<path d="M416.157 594.103H409.145L405.588 588.006L409.145 581.807H416.157L419.714 588.006L416.157 594.103Z" fill="#ACA7E9"/>
<path d="M429.47 601.725H422.356L418.799 595.628L422.356 589.53H429.47L433.027 595.628L429.47 601.725Z" fill="#ACA7E9"/>
<path d="M442.681 609.449H435.669L432.112 603.25L435.669 597.152H442.681L446.238 603.25L442.681 609.449Z" fill="#ACA7E9"/>
<path d="M455.994 617.071H448.881L445.324 610.973L448.881 604.774H455.994L459.551 610.973L455.994 617.071Z" fill="#ACA7E9"/>
<path d="M469.205 624.693H462.193L458.636 618.595L462.193 612.498H469.205L472.762 618.595L469.205 624.693Z" fill="#ACA7E9"/>
<path d="M482.518 632.416H475.405L471.848 626.217L475.405 620.119H482.518L486.075 626.217L482.518 632.416Z" fill="#ACA7E9"/>
<path d="M506.299 168.19H504.673L503.961 166.768L504.673 165.446H506.299L507.112 166.768L506.299 168.19Z" fill="#ACA7E9"/>
<path d="M495.73 180.589H488.718L485.161 174.39L488.718 168.292H495.73L499.287 174.39L495.73 180.589Z" fill="#ACA7E9"/>
<path d="M482.112 187.499H475.811L472.661 182.113L475.811 176.625H482.112L485.262 182.113L482.112 187.499Z" fill="#ACA7E9"/>
<path d="M416.157 226.523H409.145L405.588 220.426L409.145 214.227H416.157L419.714 220.426L416.157 226.523Z" fill="#ACA7E9"/>
<path d="M402.946 234.145H395.832L392.275 228.048L395.832 221.95H402.946L406.502 228.048L402.946 234.145Z" fill="#ACA7E9"/>
<path d="M402.946 249.491H395.832L392.275 243.393L395.832 237.194H402.946L406.502 243.393L402.946 249.491Z" fill="#ACA7E9"/>
<path d="M402.844 264.735H395.933L392.376 258.637L395.933 252.641H402.844L406.401 258.637L402.844 264.735Z" fill="#ACA7E9"/>
<path d="M402.437 279.267H396.34L393.291 273.983L396.34 268.698H402.437L405.384 273.983L402.437 279.267Z" fill="#ACA7E9"/>
<path d="M402.742 478.86H396.035L392.681 473.067L396.035 467.275H402.742L406.096 473.067L402.742 478.86Z" fill="#ACA7E9"/>
<path d="M402.946 494.51H395.832L392.275 488.413L395.832 482.315H402.946L406.502 488.413L402.946 494.51Z" fill="#ACA7E9"/>
<path d="M402.946 509.856H395.832L392.275 503.758L395.832 497.559H402.946L406.502 503.758L402.946 509.856Z" fill="#ACA7E9"/>
<path d="M402.946 525.201H395.832L392.275 519.002L395.832 512.905H402.946L406.502 519.002L402.946 525.201Z" fill="#ACA7E9"/>
<path d="M402.946 540.445H395.832L392.275 534.348L395.832 528.25H402.946L406.502 534.348L402.946 540.445Z" fill="#392DCA"/>
<path d="M402.946 555.791H395.832L392.275 549.693L395.832 543.494H402.946L406.502 549.693L402.946 555.791Z" fill="#ACA7E9"/>
<path d="M402.946 571.136H395.832L392.275 564.937L395.832 558.839H402.946L406.502 564.937L402.946 571.136Z" fill="#ACA7E9"/>
<path d="M389.633 594.103H382.62L379.063 588.006L382.62 581.807H389.633L393.189 588.006L389.633 594.103Z" fill="#ACA7E9"/>
<path d="M402.946 601.725H395.832L392.275 595.628L395.832 589.53H402.946L406.502 595.628L402.946 601.725Z" fill="#ACA7E9"/>
<path d="M416.157 609.449H409.145L405.588 603.25L409.145 597.152H416.157L419.714 603.25L416.157 609.449Z" fill="#ACA7E9"/>
<path d="M429.47 617.071H422.356L418.799 610.973L422.356 604.774H429.47L433.027 610.973L429.47 617.071Z" fill="#ACA7E9"/>
<path d="M442.681 624.693H435.669L432.112 618.595L435.669 612.498H442.681L446.238 618.595L442.681 624.693Z" fill="#ACA7E9"/>
<path d="M455.994 632.416H448.881L445.324 626.217L448.881 620.119H455.994L459.551 626.217L455.994 632.416Z" fill="#ACA7E9"/>
<path d="M469.205 640.038H462.193L458.636 633.941L462.193 627.843H469.205L472.762 633.941L469.205 640.038Z" fill="#ACA7E9"/>
<path d="M586.38 107.723H583.839L582.518 105.487L583.839 103.252H586.38L587.599 105.487L586.38 107.723Z" fill="#ACA7E9"/>
<path d="M573.982 116.869H569.713L567.478 113.211L569.713 109.451H573.982L576.116 113.211L573.982 116.869Z" fill="#ACA7E9"/>
<path d="M562.091 126.93H555.079L551.522 120.833L555.079 114.735H562.091L565.547 120.833L562.091 126.93Z" fill="#ACA7E9"/>
<path d="M548.779 134.654H541.766L538.209 128.455L541.766 122.357H548.779L552.335 128.455L548.779 134.654Z" fill="#ACA7E9"/>
<path d="M535.567 142.276H528.453L524.998 136.178L528.453 130.081H535.567L539.022 136.178L535.567 142.276Z" fill="#ACA7E9"/>
<path d="M522.051 149.491H515.547L512.193 143.8L515.547 138.109H522.051L525.303 143.8L522.051 149.491Z" fill="#ACA7E9"/>
<path d="M508.636 156.91H502.335L499.185 151.422L502.335 145.934H508.636L511.888 151.422L508.636 156.91Z" fill="#ACA7E9"/>
<path d="M495.73 165.243H488.718L485.161 159.146L488.718 152.947H495.73L499.287 159.146L495.73 165.243Z" fill="#ACA7E9"/>
<path d="M482.518 172.865H475.405L471.848 166.768L475.405 160.67H482.518L486.075 166.768L482.518 172.865Z" fill="#ACA7E9"/>
<path d="M468.393 179.064H463.007L460.364 174.39L463.007 169.816H468.393L471.035 174.39L468.393 179.064Z" fill="#ACA7E9"/>
<path d="M416.055 210.975H409.246L405.791 205.08L409.246 199.186H416.055L419.51 205.08L416.055 210.975Z" fill="#ACA7E9"/>
<path d="M402.946 218.8H395.832L392.275 212.702L395.832 206.605H402.946L406.502 212.702L402.946 218.8Z" fill="#ACA7E9"/>
<path d="M389.633 226.523H382.62L379.063 220.426L382.62 214.227H389.633L393.189 220.426L389.633 226.523Z" fill="#ACA7E9"/>
<path d="M389.633 241.869H382.62L379.063 235.67L382.62 229.572H389.633L393.189 235.67L389.633 241.869Z" fill="#ACA7E9"/>
<path d="M389.633 257.113H382.62L379.063 251.015L382.62 244.918H389.633L393.189 251.015L389.633 257.113Z" fill="#ACA7E9"/>
<path d="M389.633 272.458H382.62L379.063 266.361L382.62 260.162H389.633L393.189 266.361L389.633 272.458Z" fill="#ACA7E9"/>
<path d="M388.413 285.568H383.84L381.604 281.605L383.84 277.743H388.413L390.649 281.605L388.413 285.568Z" fill="#ACA7E9"/>
<path d="M389.023 470.527H383.23L380.283 465.445L383.23 460.364H389.023L391.97 465.445L389.023 470.527Z" fill="#ACA7E9"/>
<path d="M389.633 486.888H382.62L379.063 480.791L382.62 474.592H389.633L393.189 480.791L389.633 486.888Z" fill="#ACA7E9"/>
<path d="M389.633 502.234H382.62L379.063 496.035L382.62 489.937H389.633L393.189 496.035L389.633 502.234Z" fill="#ACA7E9"/>
<path d="M389.633 517.478H382.62L379.063 511.38L382.62 505.282H389.633L393.189 511.38L389.633 517.478Z" fill="#ACA7E9"/>
<path d="M389.633 532.823H382.62L379.063 526.726L382.62 520.526H389.633L393.189 526.726L389.633 532.823Z" fill="#ACA7E9"/>
<path d="M389.633 548.169H382.62L379.063 541.969L382.62 535.872H389.633L393.189 541.969L389.633 548.169Z" fill="#ACA7E9"/>
<path d="M389.633 563.412H382.62L379.063 557.315L382.62 551.217H389.633L393.189 557.315L389.633 563.412Z" fill="#ACA7E9"/>
<path d="M389.633 578.758H382.62L379.063 572.66L382.62 566.563H389.633L393.189 572.66L389.633 578.758Z" fill="#ACA7E9"/>
<path d="M376.421 601.725H369.307L365.75 595.628L369.307 589.53H376.421L379.978 595.628L376.421 601.725Z" fill="#ACA7E9"/>
<path d="M389.633 609.449H382.62L379.063 603.25L382.62 597.152H389.633L393.189 603.25L389.633 609.449Z" fill="#ACA7E9"/>
<path d="M402.946 617.071H395.832L392.275 610.973L395.832 604.774H402.946L406.502 610.973L402.946 617.071Z" fill="#ACA7E9"/>
<path d="M416.157 624.693H409.145L405.588 618.595L409.145 612.498H416.157L419.714 618.595L416.157 624.693Z" fill="#ACA7E9"/>
<path d="M429.47 632.416H422.356L418.799 626.217L422.356 620.119H429.47L433.027 626.217L429.47 632.416Z" fill="#ACA7E9"/>
<path d="M442.681 640.038H435.669L432.112 633.94L435.669 627.741H442.681L446.238 633.94L442.681 640.038Z" fill="#ACA7E9"/>
<path d="M455.994 647.66H448.881L445.324 641.563L448.881 635.465H455.994L459.551 641.563L455.994 647.66Z" fill="#ACA7E9"/>
<path d="M588.514 96.1379H581.705L578.25 90.2436L581.705 84.2477H588.514L591.868 90.2436L588.514 96.1379Z" fill="#ACA7E9"/>
<path d="M574.185 101.93H569.51L567.173 97.8654L569.51 93.8004H574.185L576.522 97.8654L574.185 101.93Z" fill="#ACA7E9"/>
<path d="M561.279 110.264H555.791L553.047 105.487L555.791 100.711H561.279L564.124 105.487L561.279 110.264Z" fill="#ACA7E9"/>
<path d="M548.779 119.308H541.766L538.209 113.211L541.766 107.012H548.779L552.335 113.211L548.779 119.308Z" fill="#ACA7E9"/>
<path d="M535.567 126.93H528.453L524.998 120.833L528.453 114.735H535.567L539.124 120.833L535.567 126.93Z" fill="#ACA7E9"/>
<path d="M522.254 134.654H515.242L511.685 128.455L515.242 122.357H522.254L525.811 128.455L522.254 134.654Z" fill="#ACA7E9"/>
<path d="M509.043 142.276H501.929L498.474 136.178L501.929 129.979H509.043L512.6 136.178L509.043 142.276Z" fill="#ACA7E9"/>
<path d="M495.73 149.898H488.718L485.161 143.8L488.718 137.703H495.73L499.287 143.8L495.73 149.898Z" fill="#ACA7E9"/>
<path d="M482.518 157.621H475.405L471.848 151.422L475.405 145.325H482.518L486.075 151.422L482.518 157.621Z" fill="#ACA7E9"/>
<path d="M468.596 164.125H462.803L459.958 159.146L462.803 154.166H468.596L471.441 159.146L468.596 164.125Z" fill="#ACA7E9"/>
<path d="M413.21 190.751H412.092L411.482 189.735L412.092 188.719H413.21L413.819 189.735L413.21 190.751Z" fill="#ACA7E9"/>
<path d="M402.437 202.641H396.34L393.291 197.357L396.34 192.174H402.437L405.384 197.357L402.437 202.641Z" fill="#ACA7E9"/>
<path d="M389.633 211.178H382.62L379.063 205.08L382.62 198.983H389.633L393.189 205.08L389.633 211.178Z" fill="#ACA7E9"/>
<path d="M376.421 218.8H369.307L365.75 212.702L369.307 206.605H376.421L379.978 212.702L376.421 218.8Z" fill="#ACA7E9"/>
<path d="M376.421 234.145H369.307L365.75 228.048L369.307 221.95H376.421L379.978 228.048L376.421 234.145Z" fill="#ACA7E9"/>
<path d="M376.421 249.491H369.307L365.75 243.393L369.307 237.194H376.421L379.978 243.393L376.421 249.491Z" fill="#ACA7E9"/>
<path d="M376.421 264.836H369.307L365.75 258.637L369.307 252.54H376.421L379.978 258.637L376.421 264.836Z" fill="#ACA7E9"/>
<path d="M376.421 280.08H369.307L365.75 273.983L369.307 267.885H376.421L379.978 273.983L376.421 280.08Z" fill="#ACA7E9"/>
<path d="M374.49 292.174H371.238L369.511 289.328L371.238 286.381H374.49L376.218 289.328L374.49 292.174Z" fill="#ACA7E9"/>
<path d="M373.576 305.791H372.153L371.441 304.572L372.153 303.454H373.576L374.287 304.572L373.576 305.791Z" fill="#ACA7E9"/>
<path d="M374.897 430.689H370.832L368.799 427.132L370.832 423.576H374.897L376.929 427.132L374.897 430.689Z" fill="#ACA7E9"/>
<path d="M373.881 459.449H371.848L370.934 457.823L371.848 456.096H373.881L374.795 457.823L373.881 459.449Z" fill="#ACA7E9"/>
<path d="M376.421 479.266H369.307L365.75 473.067L369.307 466.97H376.421L379.978 473.067L376.421 479.266Z" fill="#ACA7E9"/>
<path d="M376.421 494.51H369.307L365.75 488.413L369.307 482.315H376.421L379.978 488.413L376.421 494.51Z" fill="#ACA7E9"/>
<path d="M376.421 509.856H369.307L365.75 503.758L369.307 497.559H376.421L379.978 503.758L376.421 509.856Z" fill="#ACA7E9"/>
<path d="M376.421 525.201H369.307L365.75 519.002L369.307 512.905H376.421L379.978 519.002L376.421 525.201Z" fill="#ACA7E9"/>
<path d="M376.421 540.445H369.307L365.75 534.348L369.307 528.25H376.421L379.978 534.348L376.421 540.445Z" fill="#ACA7E9"/>
<path d="M376.421 555.791H369.307L365.75 549.693L369.307 543.494H376.421L379.978 549.693L376.421 555.791Z" fill="#ACA7E9"/>
<path d="M376.421 571.136H369.307L365.75 564.937L369.307 558.839H376.421L379.978 564.937L376.421 571.136Z" fill="#ACA7E9"/>
<path d="M376.421 586.38H369.307L365.75 580.282L369.307 574.185H376.421L379.978 580.282L376.421 586.38Z" fill="#ACA7E9"/>
<path d="M363.108 609.449H356.096L352.539 603.25L356.096 597.152H363.108L366.665 603.25L363.108 609.449Z" fill="#ACA7E9"/>
<path d="M376.421 617.071H369.307L365.75 610.973L369.307 604.774H376.421L379.978 610.973L376.421 617.071Z" fill="#ACA7E9"/>
<path d="M389.633 624.693H382.62L379.063 618.595L382.62 612.498H389.633L393.189 618.595L389.633 624.693Z" fill="#ACA7E9"/>
<path d="M402.946 632.416H395.832L392.275 626.217L395.832 620.119H402.946L406.502 626.217L402.946 632.416Z" fill="#ACA7E9"/>
<path d="M416.157 640.038H409.145L405.588 633.94L409.145 627.741H416.157L419.714 633.94L416.157 640.038Z" fill="#ACA7E9"/>
<path d="M429.47 647.66H422.356L418.799 641.563L422.356 635.465H429.47L433.027 641.563L429.47 647.66Z" fill="#ACA7E9"/>
<path d="M442.681 655.384H435.669L432.112 649.184L435.669 643.087H442.681L446.238 649.184L442.681 655.384Z" fill="#ACA7E9"/>
<path d="M455.994 663.005H448.881L445.324 656.908L448.881 650.709H455.994L459.551 656.908L455.994 663.005Z" fill="#ACA7E9"/>
<path d="M599.083 68.4957H597.559L596.847 67.1745L597.559 65.8534H599.083L599.896 67.1745L599.083 68.4957Z" fill="#ACA7E9"/>
<path d="M588.615 80.894H581.603L578.046 74.8981L581.603 68.8005H588.615L592.071 74.8981L588.615 80.894Z" fill="#ACA7E9"/>
<path d="M575.405 88.6176H568.291L564.734 82.52L568.291 76.4225H575.405L578.86 82.52L575.405 88.6176Z" fill="#ACA7E9"/>
<path d="M562.091 96.3411H554.978L551.522 90.2435L554.978 84.0444H562.091L565.648 90.2435L562.091 96.3411Z" fill="#ACA7E9"/>
<path d="M548.779 103.963H541.766L538.209 97.8655L541.766 91.7679H548.779L552.335 97.8655L548.779 103.963Z" fill="#ACA7E9"/>
<path d="M535.567 111.687H528.453L524.998 105.487L528.453 99.3898H535.567L539.124 105.487L535.567 111.687Z" fill="#ACA7E9"/>
<path d="M522.254 119.308H515.242L511.685 113.211L515.242 107.012H522.254L525.811 113.211L522.254 119.308Z" fill="#ACA7E9"/>
<path d="M509.043 126.93H501.929L498.474 120.833L501.929 114.735H509.043L512.6 120.833L509.043 126.93Z" fill="#ACA7E9"/>
<path d="M495.73 134.654H488.718L485.161 128.455L488.718 122.357H495.73L499.287 128.455L495.73 134.654Z" fill="#ACA7E9"/>
<path d="M482.518 142.276H475.405L471.848 136.178L475.405 129.979H482.518L486.075 136.178L482.518 142.276Z" fill="#ACA7E9"/>
<path d="M469.205 149.898H462.193L458.636 143.8L462.193 137.703H469.205L472.762 143.8L469.205 149.898Z" fill="#ACA7E9"/>
<path d="M389.226 195.02H383.027L379.978 189.735L383.027 184.451H389.226L392.275 189.735L389.226 195.02Z" fill="#ACA7E9"/>
<path d="M376.421 203.556H369.307L365.75 197.357L369.307 191.259H376.421L379.978 197.357L376.421 203.556Z" fill="#ACA7E9"/>
<path d="M363.108 211.178H356.096L352.539 205.08L356.096 198.983H363.108L366.665 205.08L363.108 211.178Z" fill="#ACA7E9"/>
<path d="M363.108 226.523H356.096L352.539 220.426L356.096 214.227H363.108L366.665 220.426L363.108 226.523Z" fill="#ACA7E9"/>
<path d="M363.108 241.869H356.096L352.539 235.67L356.096 229.572H363.108L366.665 235.67L363.108 241.869Z" fill="#ACA7E9"/>
<path d="M363.108 257.113H356.096L352.539 251.015L356.096 244.918H363.108L366.665 251.015L363.108 257.113Z" fill="#ACA7E9"/>
<path d="M363.108 272.458H356.096L352.539 266.361L356.096 260.162H363.108L366.665 266.361L363.108 272.458Z" fill="#ACA7E9"/>
<path d="M363.108 287.804H356.096L352.539 281.604L356.096 275.507H363.108L366.665 281.604L363.108 287.804Z" fill="#ACA7E9"/>
<path d="M363.108 303.048H356.096L352.539 296.95L356.096 290.853H363.108L366.665 296.95L363.108 303.048Z" fill="#ACA7E9"/>
<path d="M360.669 405.994H358.535L357.519 404.165L358.535 402.336H360.669L361.685 404.165L360.669 405.994Z" fill="#ACA7E9"/>
<path d="M362.702 424.897H356.503L353.353 419.511L356.503 414.023H362.702L365.852 419.511L362.702 424.897Z" fill="#ACA7E9"/>
<path d="M363.108 471.543H356.096L352.539 465.445L356.096 459.348H363.108L366.665 465.445L363.108 471.543Z" fill="#ACA7E9"/>
<path d="M363.108 486.888H356.096L352.539 480.791L356.096 474.592H363.108L366.665 480.791L363.108 486.888Z" fill="#ACA7E9"/>
<path d="M363.108 502.234H356.096L352.539 496.035L356.096 489.937H363.108L366.665 496.035L363.108 502.234Z" fill="#ACA7E9"/>
<path d="M363.108 517.478H356.096L352.539 511.38L356.096 505.282H363.108L366.665 511.38L363.108 517.478Z" fill="#ACA7E9"/>
<path d="M363.108 532.823H356.096L352.539 526.726L356.096 520.526H363.108L366.665 526.726L363.108 532.823Z" fill="#ACA7E9"/>
<path d="M363.108 548.169H356.096L352.539 541.969L356.096 535.872H363.108L366.665 541.969L363.108 548.169Z" fill="#ACA7E9"/>
<path d="M363.108 563.412H356.096L352.539 557.315L356.096 551.217H363.108L366.665 557.315L363.108 563.412Z" fill="#ACA7E9"/>
<path d="M363.108 578.758H356.096L352.539 572.66L356.096 566.563H363.108L366.665 572.66L363.108 578.758Z" fill="#ACA7E9"/>
<path d="M363.108 594.103H356.096L352.539 588.006L356.096 581.807H363.108L366.665 588.006L363.108 594.103Z" fill="#ACA7E9"/>
<path d="M362.702 623.88H356.502L353.454 618.595L356.502 613.311H362.702L365.75 618.595L362.702 623.88Z" fill="#ACA7E9"/>
<path d="M376.421 632.416H369.307L365.75 626.217L369.307 620.119H376.421L379.978 626.217L376.421 632.416Z" fill="#ACA7E9"/>
<path d="M389.633 640.038H382.62L379.063 633.94L382.62 627.741H389.633L393.189 633.94L389.633 640.038Z" fill="#ACA7E9"/>
<path d="M402.946 647.66H395.832L392.275 641.563L395.832 635.465H402.946L406.502 641.563L402.946 647.66Z" fill="#ACA7E9"/>
<path d="M416.157 655.384H409.145L405.588 649.184L409.145 643.087H416.157L419.714 649.184L416.157 655.384Z" fill="#ACA7E9"/>
<path d="M429.47 663.005H422.356L418.799 656.908L422.356 650.709H429.47L433.027 656.908L429.47 663.005Z" fill="#ACA7E9"/>
<path d="M442.681 670.627H435.669L432.112 664.53L435.669 658.432H442.681L446.238 664.53L442.681 670.627Z" fill="#ACA7E9"/>
<path d="M453.962 674.794H450.913L449.389 672.152L450.913 669.51H453.962L455.486 672.152L453.962 674.794Z" fill="#ACA7E9"/>
<path d="M758.33 22.6625H756.704L755.891 21.2398L756.704 19.817H758.33L759.143 21.2398L758.33 22.6625Z" fill="#ACA7E9"/>
<path d="M599.388 53.76H597.254L596.238 51.9307L597.254 50.1014H599.388L600.506 51.9307L599.388 53.76Z" fill="#ACA7E9"/>
<path d="M588.615 65.6502H581.502L578.046 59.5526L581.502 53.4551H588.615L592.172 59.5526L588.615 65.6502Z" fill="#ACA7E9"/>
<path d="M575.405 73.3737H568.291L564.734 67.1745L568.291 61.077H575.405L578.86 67.1745L575.405 73.3737Z" fill="#ACA7E9"/>
<path d="M562.091 80.9956H554.978L551.522 74.8981L554.978 68.8005H562.091L565.648 74.8981L562.091 80.9956Z" fill="#ACA7E9"/>
<path d="M548.779 88.6176H541.766L538.209 82.52L541.766 76.4225H548.779L552.335 82.52L548.779 88.6176Z" fill="#ACA7E9"/>
<path d="M535.567 96.3411H528.453L524.998 90.2435L528.453 84.0444H535.567L539.124 90.2435L535.567 96.3411Z" fill="#ACA7E9"/>
<path d="M522.254 103.963H515.242L511.685 97.8655L515.242 91.7679H522.254L525.811 97.8655L522.254 103.963Z" fill="#ACA7E9"/>
<path d="M509.043 111.687H501.929L498.474 105.487L501.929 99.3898H509.043L512.6 105.487L509.043 111.687Z" fill="#ACA7E9"/>
<path d="M495.73 119.308H488.718L485.161 113.211L488.718 107.012H495.73L499.287 113.211L495.73 119.308Z" fill="#ACA7E9"/>
<path d="M482.518 126.93H475.405L471.848 120.833L475.405 114.735H482.518L486.075 120.833L482.518 126.93Z" fill="#ACA7E9"/>
<path d="M467.884 132.317H463.514L461.278 128.455L463.514 124.695H467.884L470.12 128.455L467.884 132.317Z" fill="#ACA7E9"/>
<path d="M413.514 160.568H411.787L410.974 159.146L411.787 157.723H413.514L414.327 159.146L413.514 160.568Z" fill="#ACA7E9"/>
<path d="M402.946 172.865H395.832L392.275 166.768L395.832 160.67H402.946L406.502 166.768L402.946 172.865Z" fill="#ACA7E9"/>
<path d="M387.498 176.727H384.754L383.433 174.39L384.754 172.154H387.498L388.819 174.39L387.498 176.727Z" fill="#ACA7E9"/>
<path d="M376.421 188.211H369.307L365.75 182.113L369.307 175.914H376.421L379.978 182.113L376.421 188.211Z" fill="#ACA7E9"/>
<path d="M363.108 195.833H356.096L352.539 189.735L356.096 183.637H363.108L366.665 189.735L363.108 195.833Z" fill="#ACA7E9"/>
<path d="M348.779 216.971H343.901L341.36 212.702L343.901 208.434H348.779L351.32 212.702L348.779 216.971Z" fill="#ACA7E9"/>
<path d="M349.694 233.841H342.986L339.633 228.048L342.986 222.255H349.694L353.047 228.048L349.694 233.841Z" fill="#ACA7E9"/>
<path d="M349.897 249.491H342.783L339.226 243.393L342.783 237.194H349.897L353.454 243.393L349.897 249.491Z" fill="#ACA7E9"/>
<path d="M349.897 264.836H342.783L339.226 258.637L342.783 252.54H349.897L353.454 258.637L349.897 264.836Z" fill="#ACA7E9"/>
<path d="M349.897 280.08H342.783L339.226 273.983L342.783 267.885H349.897L353.454 273.983L349.897 280.08Z" fill="#ACA7E9"/>
<path d="M349.897 295.426H342.783L339.226 289.328L342.783 283.129H349.897L353.454 289.328L349.897 295.426Z" fill="#ACA7E9"/>
<path d="M349.897 310.771H342.783L339.226 304.572L342.783 298.474H349.897L353.454 304.572L349.897 310.771Z" fill="#ACA7E9"/>
<path d="M349.796 325.913H342.885L339.43 319.917L342.885 314.023H349.796L353.149 319.917L349.796 325.913Z" fill="#ACA7E9"/>
<path d="M346.95 336.279H345.73L345.121 335.263L345.73 334.247H346.95L347.56 335.263L346.95 336.279Z" fill="#ACA7E9"/>
<path d="M347.662 398.779H345.019L343.698 396.543L345.019 394.206H347.662L348.983 396.543L347.662 398.779Z" fill="#ACA7E9"/>
<path d="M347.255 413.515H345.324L344.409 411.787L345.324 410.161H347.255L348.271 411.787L347.255 413.515Z" fill="#ACA7E9"/>
<path d="M348.271 430.588H344.409L342.376 427.132L344.409 423.779H348.271L350.303 427.132L348.271 430.588Z" fill="#ACA7E9"/>
<path d="M349.694 463.616H342.986L339.633 457.823L342.986 451.929H349.694L353.047 457.823L349.694 463.616Z" fill="#ACA7E9"/>
<path d="M349.897 479.266H342.783L339.226 473.067L342.783 466.97H349.897L353.454 473.067L349.897 479.266Z" fill="#ACA7E9"/>
<path d="M349.897 494.51H342.783L339.226 488.413L342.783 482.315H349.897L353.454 488.413L349.897 494.51Z" fill="#ACA7E9"/>
<path d="M349.897 509.856H342.783L339.226 503.758L342.783 497.559H349.897L353.454 503.758L349.897 509.856Z" fill="#ACA7E9"/>
<path d="M349.897 525.201H342.783L339.226 519.002L342.783 512.905H349.897L353.454 519.002L349.897 525.201Z" fill="#ACA7E9"/>
<path d="M349.897 540.445H342.783L339.226 534.348L342.783 528.25H349.897L353.454 534.348L349.897 540.445Z" fill="#ACA7E9"/>
<path d="M349.897 555.791H342.783L339.226 549.693L342.783 543.494H349.897L353.454 549.693L349.897 555.791Z" fill="#ACA7E9"/>
<path d="M349.897 571.136H342.783L339.226 564.937L342.783 558.839H349.897L353.454 564.937L349.897 571.136Z" fill="#ACA7E9"/>
<path d="M349.897 586.38H342.783L339.226 580.282L342.783 574.185H349.897L353.454 580.282L349.897 586.38Z" fill="#392DCA"/>
<path d="M349.897 601.725H342.783L339.226 595.628L342.783 589.53H349.897L353.454 595.628L349.897 601.725Z" fill="#ACA7E9"/>
<path d="M362.499 638.92H356.706L353.86 633.941L356.706 628.961H362.499L365.344 633.941L362.499 638.92Z" fill="#ACA7E9"/>
<path d="M376.421 647.66H369.307L365.75 641.563L369.307 635.465H376.421L379.978 641.563L376.421 647.66Z" fill="#ACA7E9"/>
<path d="M389.633 655.384H382.62L379.063 649.184L382.62 643.087H389.633L393.189 649.184L389.633 655.384Z" fill="#ACA7E9"/>
<path d="M402.946 663.005H395.832L392.275 656.908L395.832 650.709H402.946L406.502 656.908L402.946 663.005Z" fill="#ACA7E9"/>
<path d="M416.157 670.627H409.145L405.588 664.53L409.145 658.432H416.157L419.714 664.53L416.157 670.627Z" fill="#ACA7E9"/>
<path d="M429.47 678.351H422.356L418.799 672.152L422.356 666.054H429.47L433.027 672.152L429.47 678.351Z" fill="#ACA7E9"/>
<path d="M442.681 685.871H435.669L432.213 679.875L435.669 673.778H442.681L446.136 679.875L442.681 685.871Z" fill="#ACA7E9"/>
<path d="M614.937 34.756H608.23L604.876 28.9633L608.23 23.069H614.937L618.392 28.9633L614.937 34.756Z" fill="#ACA7E9"/>
<path d="M601.624 42.3779H595.018L591.665 36.5852L595.018 30.7925H601.624L604.977 36.5852L601.624 42.3779Z" fill="#ACA7E9"/>
<path d="M588.615 50.4063H581.502L578.046 44.2072L581.502 38.1096H588.615L592.172 44.2072L588.615 50.4063Z" fill="#ACA7E9"/>
<path d="M575.405 58.0282H568.291L564.734 51.9307L568.291 45.7315H575.405L578.86 51.9307L575.405 58.0282Z" fill="#ACA7E9"/>
<path d="M562.091 65.6502H554.978L551.522 59.5526L554.978 53.4551H562.091L565.648 59.5526L562.091 65.6502Z" fill="#ACA7E9"/>
<path d="M548.779 73.3737H541.766L538.209 67.1745L541.766 61.077H548.779L552.335 67.1745L548.779 73.3737Z" fill="#ACA7E9"/>
<path d="M535.567 80.9956H528.453L524.998 74.8981L528.453 68.8005H535.567L539.124 74.8981L535.567 80.9956Z" fill="#ACA7E9"/>
<path d="M522.254 88.6176H515.242L511.685 82.52L515.242 76.4225H522.254L525.811 82.52L522.254 88.6176Z" fill="#ACA7E9"/>
<path d="M509.043 96.3411H501.929L498.474 90.2435L501.929 84.0444H509.043L512.6 90.2435L509.043 96.3411Z" fill="#ACA7E9"/>
<path d="M495.73 103.963H488.718L485.161 97.8655L488.718 91.7679H495.73L499.287 97.8655L495.73 103.963Z" fill="#ACA7E9"/>
<path d="M482.518 111.687H475.405L471.848 105.487L475.405 99.3898H482.518L486.075 105.487L482.518 111.687Z" fill="#ACA7E9"/>
<path d="M468.9 118.699H462.498L459.348 113.211L462.498 107.622H468.9L472.051 113.211L468.9 118.699Z" fill="#ACA7E9"/>
<path d="M427.946 139.532H423.881L421.95 136.178L423.881 132.723H427.946L429.876 136.178L427.946 139.532Z" fill="#ACA7E9"/>
<path d="M416.157 149.898H409.145L405.588 143.8L409.145 137.703H416.157L419.714 143.8L416.157 149.898Z" fill="#ACA7E9"/>
<path d="M402.946 157.621H395.832L392.275 151.422L395.832 145.325H402.946L406.502 151.422L402.946 157.621Z" fill="#ACA7E9"/>
<path d="M389.633 165.243H382.62L379.063 159.146L382.62 153.048H389.633L393.189 159.146L389.633 165.243Z" fill="#ACA7E9"/>
<path d="M363.108 180.487H356.096L352.641 174.39L356.096 168.394H363.108L366.563 174.39L363.108 180.487Z" fill="#ACA7E9"/>
<path d="M335.365 224.389H330.791L328.454 220.426L330.791 216.361H335.365L337.702 220.426L335.365 224.389Z" fill="#ACA7E9"/>
<path d="M336.482 241.564H329.673L326.32 235.67L329.673 229.877H336.482L339.836 235.67L336.482 241.564Z" fill="#ACA7E9"/>
<path d="M336.584 257.113H329.572L326.015 251.015L329.572 244.918H336.584L340.141 251.015L336.584 257.113Z" fill="#ACA7E9"/>
<path d="M336.584 272.458H329.572L326.015 266.361L329.572 260.162H336.584L340.141 266.361L336.584 272.458Z" fill="#ACA7E9"/>
<path d="M336.584 287.804H329.572L326.015 281.604L329.572 275.507H336.584L340.141 281.604L336.584 287.804Z" fill="#ACA7E9"/>
<path d="M336.584 303.048H329.572L326.015 296.95L329.572 290.853H336.584L340.141 296.95L336.584 303.048Z" fill="#ACA7E9"/>
<path d="M336.584 318.393H329.572L326.015 312.295L329.572 306.198H336.584L340.141 312.295L336.584 318.393Z" fill="#ACA7E9"/>
<path d="M336.584 333.738H329.572L326.015 327.641L329.572 321.442H336.584L340.141 327.641L336.584 333.738Z" fill="#ACA7E9"/>
<path d="M335.975 347.864H330.182L327.336 342.885L330.182 337.905H335.975L338.82 342.885L335.975 347.864Z" fill="#ACA7E9"/>
<path d="M334.552 406.706H331.604L330.182 404.165L331.604 401.624H334.552L335.974 404.165L334.552 406.706Z" fill="#ACA7E9"/>
<path d="M334.348 421.645H331.807L330.588 419.51L331.807 417.275H334.348L335.568 419.51L334.348 421.645Z" fill="#ACA7E9"/>
<path d="M335.873 470.323H330.283L327.438 465.445L330.283 460.567H335.873L338.718 465.445L335.873 470.323Z" fill="#ACA7E9"/>
<path d="M336.584 486.888H329.572L326.015 480.791L329.572 474.592H336.584L340.141 480.791L336.584 486.888Z" fill="#ACA7E9"/>
<path d="M336.584 502.234H329.572L326.015 496.035L329.572 489.937H336.584L340.141 496.035L336.584 502.234Z" fill="#ACA7E9"/>
<path d="M336.584 517.478H329.572L326.015 511.38L329.572 505.282H336.584L340.141 511.38L336.584 517.478Z" fill="#ACA7E9"/>
<path d="M336.584 532.823H329.572L326.015 526.726L329.572 520.526H336.584L340.141 526.726L336.584 532.823Z" fill="#ACA7E9"/>
<path d="M336.584 548.169H329.572L326.015 541.969L329.572 535.872H336.584L340.141 541.969L336.584 548.169Z" fill="#ACA7E9"/>
<path d="M336.584 563.412H329.572L326.015 557.315L329.572 551.217H336.584L340.141 557.315L336.584 563.412Z" fill="#ACA7E9"/>
<path d="M336.584 578.656H329.572L326.117 572.66L329.572 566.563H336.584L340.039 572.66L336.584 578.656Z" fill="#ACA7E9"/>
<path d="M335.161 591.563H330.994L328.86 588.006L330.994 584.347H335.161L337.194 588.006L335.161 591.563Z" fill="#ACA7E9"/>
<path d="M362.194 653.758H356.909L354.369 649.184L356.909 644.611H362.194L364.836 649.184L362.194 653.758Z" fill="#ACA7E9"/>
<path d="M376.421 663.005H369.307L365.75 656.908L369.307 650.709H376.421L379.978 656.908L376.421 663.005Z" fill="#ACA7E9"/>
<path d="M389.633 670.627H382.62L379.063 664.53L382.62 658.432H389.633L393.189 664.53L389.633 670.627Z" fill="#ACA7E9"/>
<path d="M402.946 678.351H395.832L392.275 672.152L395.832 666.054H402.946L406.502 672.152L402.946 678.351Z" fill="#ACA7E9"/>
<path d="M416.157 685.973H409.145L405.588 679.875L409.145 673.778H416.157L419.714 679.875L416.157 685.973Z" fill="#E23A45"/>
<path d="M429.47 693.595H422.356L418.901 687.497L422.356 681.4H429.47L432.925 687.497L429.47 693.595Z" fill="#ACA7E9"/>
<path d="M600.709 25.4064H596.034L593.595 21.2398L596.034 17.1747H600.709L603.046 21.2398L600.709 25.4064Z" fill="#ACA7E9"/>
<path d="M588.615 35.0609H581.502L578.046 28.9633L581.502 22.7642H588.615L592.172 28.9633L588.615 35.0609Z" fill="#ACA7E9"/>
<path d="M575.405 42.6827H568.291L564.734 36.5852L568.291 30.4877H575.405L578.86 36.5852L575.405 42.6827Z" fill="#ACA7E9"/>
<path d="M562.091 50.4063H554.978L551.522 44.2072L554.978 38.1096H562.091L565.648 44.2072L562.091 50.4063Z" fill="#ACA7E9"/>
<path d="M548.779 58.0282H541.766L538.209 51.9307L541.766 45.7315H548.779L552.335 51.9307L548.779 58.0282Z" fill="#392DCA"/>
<path d="M535.567 65.6502H528.453L524.998 59.5526L528.453 53.4551H535.567L539.124 59.5526L535.567 65.6502Z" fill="#ACA7E9"/>
<path d="M522.254 73.3737H515.242L511.685 67.1745L515.242 61.077H522.254L525.811 67.1745L522.254 73.3737Z" fill="#ACA7E9"/>
<path d="M509.043 80.9956H501.929L498.474 74.8981L501.929 68.8005H509.043L512.6 74.8981L509.043 80.9956Z" fill="#ACA7E9"/>
<path d="M495.73 88.6176H488.718L485.161 82.52L488.718 76.4225H495.73L499.287 82.52L495.73 88.6176Z" fill="#ACA7E9"/>
<path d="M482.518 96.3411H475.405L471.848 90.2435L475.405 84.0444H482.518L486.075 90.2435L482.518 96.3411Z" fill="#ACA7E9"/>
<path d="M469.205 103.861H462.193L458.738 97.8655L462.193 91.7679H469.205L472.661 97.8655L469.205 103.861Z" fill="#ACA7E9"/>
<path d="M453.25 106.809H451.624L450.913 105.487L451.624 104.166H453.25L453.962 105.487L453.25 106.809Z" fill="#ACA7E9"/>
<path d="M414.836 132.215H410.466L408.332 128.455L410.466 124.695H414.836L416.97 128.455L414.836 132.215Z" fill="#ACA7E9"/>
<path d="M402.946 142.276H395.832L392.275 136.178L395.832 129.979H402.946L406.502 136.178L402.946 142.276Z" fill="#ACA7E9"/>
<path d="M389.633 149.898H382.62L379.063 143.8L382.62 137.703H389.633L393.189 143.8L389.633 149.898Z" fill="#ACA7E9"/>
<path d="M376.319 157.52H369.307L365.852 151.422L369.307 145.426H376.319L379.876 151.422L376.319 157.52Z" fill="#ACA7E9"/>
<path d="M360.364 160.467H358.84L358.027 159.146L358.84 157.723H360.364L361.177 159.146L360.364 160.467Z" fill="#ACA7E9"/>
<path d="M347.966 169.613H344.714L343.088 166.768L344.714 163.922H347.966L349.592 166.768L347.966 169.613Z" fill="#ACA7E9"/>
<path d="M320.832 214.532H318.698L317.682 212.702L318.698 210.873H320.832L321.95 212.702L320.832 214.532Z" fill="#ACA7E9"/>
<path d="M323.373 234.145H316.259L312.702 228.048L316.259 221.95H323.373L326.828 228.048L323.373 234.145Z" fill="#ACA7E9"/>
<path d="M323.373 249.491H316.259L312.702 243.393L316.259 237.194H323.373L326.828 243.393L323.373 249.491Z" fill="#ACA7E9"/>
<path d="M323.373 264.836H316.259L312.702 258.637L316.259 252.54H323.373L326.828 258.637L323.373 264.836Z" fill="#ACA7E9"/>
<path d="M323.373 280.08H316.259L312.702 273.983L316.259 267.885H323.373L326.828 273.983L323.373 280.08Z" fill="#ACA7E9"/>
<path d="M323.373 295.426H316.259L312.702 289.328L316.259 283.129H323.373L326.828 289.328L323.373 295.426Z" fill="#ACA7E9"/>
<path d="M323.373 310.771H316.259L312.702 304.572L316.259 298.474H323.373L326.828 304.572L323.373 310.771Z" fill="#ACA7E9"/>
<path d="M323.373 326.015H316.259L312.702 319.917L316.259 313.82H323.373L326.828 319.917L323.373 326.015Z" fill="#ACA7E9"/>
<path d="M323.373 341.36H316.259L312.702 335.263L316.259 329.165H323.373L326.828 335.263L323.373 341.36Z" fill="#ACA7E9"/>
<path d="M323.271 356.503H316.361L312.905 350.608L316.361 344.612H323.271L326.726 350.608L323.271 356.503Z" fill="#ACA7E9"/>
<path d="M320.934 367.885H318.698L317.479 365.852L318.698 363.921H320.934L322.052 365.852L320.934 367.885Z" fill="#ACA7E9"/>
<path d="M322.763 386.381H316.869L313.82 381.198L316.869 376.015H322.763L325.71 381.198L322.763 386.381Z" fill="#ACA7E9"/>
<path d="M320.73 413.413H318.901L317.885 411.787L318.901 410.161H320.73L321.645 411.787L320.73 413.413Z" fill="#ACA7E9"/>
<path d="M323.169 478.961H316.462L313.108 473.067L316.462 467.275H323.169L326.523 473.067L323.169 478.961Z" fill="#ACA7E9"/>
<path d="M320.832 490.14H318.8L317.784 488.413L318.8 486.685H320.832L321.849 488.413L320.832 490.14Z" fill="#ACA7E9"/>
<path d="M321.95 507.417H317.682L315.547 503.758L317.682 499.998H321.95L324.084 503.758L321.95 507.417Z" fill="#ACA7E9"/>
<path d="M323.373 525.201H316.259L312.702 519.002L316.259 512.905H323.373L326.828 519.002L323.373 525.201Z" fill="#ACA7E9"/>
<path d="M323.271 540.445H316.259L312.803 534.348L316.259 528.25H323.271L326.828 534.348L323.271 540.445Z" fill="#ACA7E9"/>
<path d="M321.238 552.03H318.393L317.072 549.693L318.393 547.254H321.238L322.56 549.693L321.238 552.03Z" fill="#ACA7E9"/>
<path d="M322.865 570.323H316.665L313.617 564.937L316.665 559.652H322.865L326.015 564.937L322.865 570.323Z" fill="#ACA7E9"/>
<path d="M361.584 667.985H357.62L355.588 664.53L357.62 661.075H361.584L363.616 664.53L361.584 667.985Z" fill="#ACA7E9"/>
<path d="M376.421 678.351H369.307L365.75 672.152L369.307 666.054H376.421L379.978 672.152L376.421 678.351Z" fill="#ACA7E9"/>
<path d="M389.633 685.973H382.62L379.063 679.875L382.62 673.778H389.633L393.189 679.875L389.633 685.973Z" fill="#ACA7E9"/>
<path d="M402.946 693.595H395.832L392.275 687.497L395.832 681.4H402.946L406.502 687.497L402.946 693.595Z" fill="#ACA7E9"/>
<path d="M416.157 701.318H409.145L405.588 695.119L409.145 689.022H416.157L419.714 695.119L416.157 701.318Z" fill="#ACA7E9"/>
<path d="M427.742 705.993H424.084L422.254 702.843L424.084 699.692H427.742L429.571 702.843L427.742 705.993Z" fill="#ACA7E9"/>
<path d="M600.709 10.1626H595.933L593.494 5.99594L595.933 1.72766H600.709L603.148 5.99594L600.709 10.1626Z" fill="#ACA7E9"/>
<path d="M588.311 19.2073H581.908L578.656 13.6179L581.908 8.02844H588.311L591.461 13.6179L588.311 19.2073Z" fill="#ACA7E9"/>
<path d="M573.372 23.9836H570.222L568.697 21.2397L570.222 18.4958H573.372L574.998 21.2397L573.372 23.9836Z" fill="#ACA7E9"/>
<path d="M562.091 35.0609H554.978L551.522 28.9633L554.978 22.7642H562.091L565.648 28.9633L562.091 35.0609Z" fill="#ACA7E9"/>
<path d="M548.779 42.6827H541.766L538.209 36.5852L541.766 30.4877H548.779L552.335 36.5852L548.779 42.6827Z" fill="#ACA7E9"/>
<path d="M535.567 50.4063H528.453L524.998 44.2072L528.453 38.1096H535.567L539.124 44.2072L535.567 50.4063Z" fill="#ACA7E9"/>
<path d="M522.254 58.0282H515.242L511.685 51.9307L515.242 45.7315H522.254L525.811 51.9307L522.254 58.0282Z" fill="#ACA7E9"/>
<path d="M509.043 65.6502H501.929L498.474 59.5526L501.929 53.4551H509.043L512.6 59.5526L509.043 65.6502Z" fill="#ACA7E9"/>
<path d="M495.73 73.3737H488.718L485.161 67.1745L488.718 61.077H495.73L499.287 67.1745L495.73 73.3737Z" fill="#ACA7E9"/>
<path d="M482.518 80.9956H475.405L471.848 74.8981L475.405 68.8005H482.518L486.075 74.8981L482.518 80.9956Z" fill="#ACA7E9"/>
<path d="M469.205 88.6176H462.193L458.636 82.52L462.193 76.4225H469.205L472.762 82.52L469.205 88.6176Z" fill="#ACA7E9"/>
<path d="M453.758 92.4793H451.116L449.795 90.2435L451.116 87.9061H453.758L455.079 90.2435L453.758 92.4793Z" fill="#ACA7E9"/>
<path d="M402.946 126.93H395.832L392.275 120.833L395.832 114.735H402.946L406.502 120.833L402.946 126.93Z" fill="#ACA7E9"/>
<path d="M389.429 134.247H382.823L379.47 128.455L382.823 122.662H389.429L392.783 128.455L389.429 134.247Z" fill="#ACA7E9"/>
<path d="M335.771 163.821H330.385L327.641 159.146L330.385 154.471H335.771L338.515 159.146L335.771 163.821Z" fill="#ACA7E9"/>
<path d="M308.027 177.032H305.08L303.556 174.39L305.08 171.849H308.027L309.552 174.39L308.027 177.032Z" fill="#ACA7E9"/>
<path d="M307.621 206.91H305.487L304.369 205.08L305.487 203.15H307.621L308.739 205.08L307.621 206.91Z" fill="#ACA7E9"/>
<path d="M310.06 226.523H303.048L299.491 220.426L303.048 214.227H310.06L313.617 220.426L310.06 226.523Z" fill="#ACA7E9"/>
<path d="M310.06 241.869H303.048L299.491 235.67L303.048 229.572H310.06L313.617 235.67L310.06 241.869Z" fill="#ACA7E9"/>
<path d="M310.06 257.113H303.048L299.491 251.015L303.048 244.918H310.06L313.617 251.015L310.06 257.113Z" fill="#ACA7E9"/>
<path d="M310.06 272.458H303.048L299.491 266.361L303.048 260.162H310.06L313.617 266.361L310.06 272.458Z" fill="#ACA7E9"/>
<path d="M310.06 287.804H303.048L299.491 281.604L303.048 275.507H310.06L313.617 281.604L310.06 287.804Z" fill="#ACA7E9"/>
<path d="M310.06 303.048H303.048L299.491 296.95L303.048 290.853H310.06L313.617 296.95L310.06 303.048Z" fill="#ACA7E9"/>
<path d="M310.06 318.393H303.048L299.491 312.295L303.048 306.198H310.06L313.617 312.295L310.06 318.393Z" fill="#ACA7E9"/>
<path d="M310.06 333.738H303.048L299.491 327.641L303.048 321.442H310.06L313.617 327.641L310.06 333.738Z" fill="#ACA7E9"/>
<path d="M310.06 348.982H303.048L299.491 342.885L303.048 336.787H310.06L313.617 342.885L310.06 348.982Z" fill="#ACA7E9"/>
<path d="M310.06 364.328H303.048L299.491 358.23L303.048 352.133H310.06L313.617 358.23L310.06 364.328Z" fill="#ACA7E9"/>
<path d="M307.824 375.811H305.181L303.86 373.576L305.181 371.238H307.824L309.246 373.576L307.824 375.811Z" fill="#ACA7E9"/>
<path d="M309.653 409.551H303.454L300.405 404.165L303.454 398.88H309.653L312.702 404.165L309.653 409.551Z" fill="#ACA7E9"/>
<path d="M307.316 451.523H305.69L304.877 450.1L305.69 448.677H307.316L308.129 450.1L307.316 451.523Z" fill="#ACA7E9"/>
<path d="M307.621 467.275H305.487L304.369 465.445L305.487 463.514H307.621L308.739 465.445L307.621 467.275Z" fill="#ACA7E9"/>
<path d="M308.027 483.23H305.08L303.657 480.791L305.08 478.25H308.027L309.45 480.791L308.027 483.23Z" fill="#ACA7E9"/>
<path d="M362.702 685.261H356.401L353.251 679.875L356.401 674.387H362.702L365.853 679.875L362.702 685.261Z" fill="#ACA7E9"/>
<path d="M376.421 693.595H369.307L365.75 687.497L369.307 681.4H376.421L379.978 687.497L376.421 693.595Z" fill="#ACA7E9"/>
<path d="M389.633 701.318H382.62L379.063 695.119L382.62 689.022H389.633L393.189 695.119L389.633 701.318Z" fill="#ACA7E9"/>
<path d="M402.946 708.94H395.832L392.275 702.843L395.832 696.745H402.946L406.502 702.843L402.946 708.94Z" fill="#ACA7E9"/>
<path d="M416.157 716.562H409.145L405.588 710.465L409.145 704.367H416.157L419.714 710.465L416.157 716.562Z" fill="#ACA7E9"/>
<path d="M575.201 11.8902H568.392L564.937 5.99591L568.392 0H575.201L578.656 5.99591L575.201 11.8902Z" fill="#ACA7E9"/>
<path d="M561.888 19.4105H555.181L551.827 13.6179L555.181 7.8252H561.888L565.242 13.6179L561.888 19.4105Z" fill="#ACA7E9"/>
<path d="M548.779 27.4389H541.766L538.209 21.2397L541.766 15.1422H548.779L552.335 21.2397L548.779 27.4389Z" fill="#ACA7E9"/>
<path d="M535.567 35.0609H528.453L524.998 28.9633L528.453 22.7642H535.567L539.124 28.9633L535.567 35.0609Z" fill="#ACA7E9"/>
<path d="M522.254 42.6827H515.242L511.685 36.5852L515.242 30.4877H522.254L525.811 36.5852L522.254 42.6827Z" fill="#ACA7E9"/>
<path d="M509.043 50.4063H501.929L498.474 44.2072L501.929 38.1096H509.043L512.6 44.2072L509.043 50.4063Z" fill="#ACA7E9"/>
<path d="M495.73 58.0282H488.718L485.161 51.9307L488.718 45.7315H495.73L499.287 51.9307L495.73 58.0282Z" fill="#ACA7E9"/>
<path d="M482.518 65.6502H475.405L471.848 59.5526L475.405 53.4551H482.518L486.075 59.5526L482.518 65.6502Z" fill="#ACA7E9"/>
<path d="M469.205 73.3737H462.193L458.636 67.1745L462.193 61.077H469.205L472.762 67.1745L469.205 73.3737Z" fill="#ACA7E9"/>
<path d="M455.893 80.7924H448.982L445.628 74.8981L448.982 68.9022H455.893L459.246 74.8981L455.893 80.7924Z" fill="#ACA7E9"/>
<path d="M401.421 109.044H397.356L395.222 105.487L397.356 101.93H401.421L403.555 105.487L401.421 109.044Z" fill="#ACA7E9"/>
<path d="M389.633 119.308H382.62L379.063 113.211L382.62 107.012H389.633L393.189 113.211L389.633 119.308Z" fill="#ACA7E9"/>
<path d="M375.507 125.406H370.222L367.58 120.833L370.222 116.26H375.507L378.149 120.833L375.507 125.406Z" fill="#ACA7E9"/>
<path d="M349.897 142.276H342.783L339.226 136.178L342.783 129.979H349.897L353.454 136.178L349.897 142.276Z" fill="#ACA7E9"/>
<path d="M336.482 149.593H329.673L326.32 143.8L329.673 138.008H336.482L339.836 143.8L336.482 149.593Z" fill="#ACA7E9"/>
<path d="M323.373 157.621H316.259L312.702 151.422L316.259 145.325H323.373L326.828 151.422L323.373 157.621Z" fill="#ACA7E9"/>
<path d="M310.06 165.243H303.048L299.491 159.146L303.048 152.947H310.06L313.617 159.146L310.06 165.243Z" fill="#ACA7E9"/>
<path d="M296.848 172.865H289.735L286.178 166.768L289.735 160.67H296.848L300.304 166.768L296.848 172.865Z" fill="#ACA7E9"/>
<path d="M296.645 188.007H289.836L286.482 182.113L289.836 176.219H296.645L300.1 182.113L296.645 188.007Z" fill="#ACA7E9"/>
<path d="M296.442 202.845H290.141L286.991 197.357L290.141 191.971H296.442L299.491 197.357L296.442 202.845Z" fill="#ACA7E9"/>
<path d="M296.848 218.8H289.735L286.178 212.702L289.735 206.605H296.848L300.304 212.702L296.848 218.8Z" fill="#ACA7E9"/>
<path d="M296.848 234.145H289.735L286.178 228.048L289.735 221.95H296.848L300.304 228.048L296.848 234.145Z" fill="#ACA7E9"/>
<path d="M296.848 249.491H289.735L286.178 243.393L289.735 237.194H296.848L300.304 243.393L296.848 249.491Z" fill="#ACA7E9"/>
<path d="M296.848 264.836H289.735L286.178 258.637L289.735 252.54H296.848L300.304 258.637L296.848 264.836Z" fill="#ACA7E9"/>
<path d="M296.848 280.08H289.735L286.178 273.983L289.735 267.885H296.848L300.304 273.983L296.848 280.08Z" fill="#ACA7E9"/>
<path d="M296.848 295.426H289.735L286.178 289.328L289.735 283.129H296.848L300.304 289.328L296.848 295.426Z" fill="#ACA7E9"/>
<path d="M296.848 310.771H289.735L286.178 304.572L289.735 298.474H296.848L300.304 304.572L296.848 310.771Z" fill="#ACA7E9"/>
<path d="M296.848 326.015H289.735L286.178 319.917L289.735 313.82H296.848L300.304 319.917L296.848 326.015Z" fill="#ACA7E9"/>
<path d="M296.848 341.36H289.735L286.178 335.263L289.735 329.165H296.848L300.304 335.263L296.848 341.36Z" fill="#ACA7E9"/>
<path d="M296.848 356.706H289.735L286.178 350.608L289.735 344.409H296.848L300.304 350.608L296.848 356.706Z" fill="#ACA7E9"/>
<path d="M296.645 371.746H289.836L286.482 365.852L289.836 359.958H296.645L300.1 365.852L296.645 371.746Z" fill="#ACA7E9"/>
<path d="M296.848 448.575H289.735L286.178 442.478L289.735 436.38H296.848L300.304 442.478L296.848 448.575Z" fill="#ACA7E9"/>
<path d="M296.848 463.921H289.735L286.178 457.823L289.735 451.624H296.848L300.304 457.823L296.848 463.921Z" fill="#ACA7E9"/>
<path d="M293.8 474.083H292.682L292.174 473.067L292.682 472.153H293.8L294.41 473.067L293.8 474.083Z" fill="#ACA7E9"/>
<path d="M363.108 701.318H356.096L352.539 695.119L356.096 689.022H363.108L366.665 695.119L363.108 701.318Z" fill="#ACA7E9"/>
<path d="M376.421 708.94H369.307L365.75 702.843L369.307 696.745H376.421L379.978 702.843L376.421 708.94Z" fill="#ACA7E9"/>
<path d="M389.633 716.562H382.62L379.063 710.465L382.62 704.367H389.633L393.189 710.465L389.633 716.562Z" fill="#ACA7E9"/>
<path d="M402.946 724.184H395.832L392.376 718.188L395.832 712.091H402.946L406.401 718.188L402.946 724.184Z" fill="#ACA7E9"/>
<path d="M548.778 11.8902H541.867L538.412 5.99591L541.867 0H548.778L552.132 5.99591L548.778 11.8902Z" fill="#ACA7E9"/>
<path d="M535.567 19.7154H528.453L524.998 13.6179L528.453 7.52032H535.567L539.124 13.6179L535.567 19.7154Z" fill="#ACA7E9"/>
<path d="M522.254 27.4389H515.242L511.685 21.2397L515.242 15.1422H522.254L525.811 21.2397L522.254 27.4389Z" fill="#ACA7E9"/>
<path d="M509.043 35.0609H501.929L498.474 28.9633L501.929 22.7642H509.043L512.6 28.9633L509.043 35.0609Z" fill="#ACA7E9"/>
<path d="M495.73 42.6827H488.718L485.161 36.5852L488.718 30.4877H495.73L499.287 36.5852L495.73 42.6827Z" fill="#ACA7E9"/>
<path d="M482.518 50.4063H475.405L471.848 44.2072L475.405 38.1096H482.518L486.075 44.2072L482.518 50.4063Z" fill="#ACA7E9"/>
<path d="M469.205 58.0282H462.193L458.636 51.9307L462.193 45.7315H469.205L472.762 51.9307L469.205 58.0282Z" fill="#ACA7E9"/>
<path d="M455.994 65.6502H448.881L445.324 59.5526L448.881 53.4551H455.994L459.551 59.5526L455.994 65.6502Z" fill="#ACA7E9"/>
<path d="M442.681 73.3737H435.669L432.112 67.1745L435.669 61.077H442.681L446.238 67.1745L442.681 73.3737Z" fill="#ACA7E9"/>
<path d="M427.234 77.2355H424.592L423.271 74.8981L424.592 72.5607H427.234L428.555 74.8981L427.234 77.2355Z" fill="#ACA7E9"/>
<path d="M386.787 98.9833H385.466L384.755 97.8654L385.466 96.6459H386.787L387.499 97.8654L386.787 98.9833Z" fill="#ACA7E9"/>
<path d="M376.421 111.687H369.307L365.75 105.487L369.307 99.3898H376.421L379.978 105.487L376.421 111.687Z" fill="#ACA7E9"/>
<path d="M363.108 119.308H356.096L352.539 113.211L356.096 107.012H363.108L366.665 113.211L363.108 119.308Z" fill="#ACA7E9"/>
<path d="M349.084 125.609H343.596L340.75 120.833L343.596 116.056H349.084L351.929 120.833L349.084 125.609Z" fill="#392DCA"/>
<path d="M335.06 132.012H330.995L328.962 128.455L330.995 125H335.06L337.194 128.455L335.06 132.012Z" fill="#ACA7E9"/>
<path d="M323.373 142.276H316.259L312.702 136.178L316.259 129.979H323.373L326.828 136.178L323.373 142.276Z" fill="#ACA7E9"/>
<path d="M310.06 149.898H303.048L299.491 143.8L303.048 137.703H310.06L313.617 143.8L310.06 149.898Z" fill="#ACA7E9"/>
<path d="M296.848 157.621H289.735L286.178 151.422L289.735 145.325H296.848L300.304 151.422L296.848 157.621Z" fill="#ACA7E9"/>
<path d="M283.535 165.243H276.523L272.966 159.146L276.523 152.947H283.535L287.092 159.146L283.535 165.243Z" fill="#ACA7E9"/>
<path d="M283.535 180.589H276.523L272.966 174.39L276.523 168.292H283.535L287.092 174.39L283.535 180.589Z" fill="#ACA7E9"/>
<path d="M283.535 195.833H276.523L272.966 189.735L276.523 183.637H283.535L287.092 189.735L283.535 195.833Z" fill="#ACA7E9"/>
<path d="M283.535 211.178H276.523L272.966 205.08L276.523 198.983H283.535L287.092 205.08L283.535 211.178Z" fill="#ACA7E9"/>
<path d="M283.535 226.523H276.523L272.966 220.426L276.523 214.227H283.535L287.092 220.426L283.535 226.523Z" fill="#ACA7E9"/>
<path d="M283.535 241.869H276.523L272.966 235.67L276.523 229.572H283.535L287.092 235.67L283.535 241.869Z" fill="#ACA7E9"/>
<path d="M283.535 257.113H276.523L272.966 251.015L276.523 244.918H283.535L287.092 251.015L283.535 257.113Z" fill="#ACA7E9"/>
<path d="M283.535 272.458H276.523L272.966 266.361L276.523 260.162H283.535L287.092 266.361L283.535 272.458Z" fill="#ACA7E9"/>
<path d="M283.535 287.804H276.523L272.966 281.604L276.523 275.507H283.535L287.092 281.604L283.535 287.804Z" fill="#ACA7E9"/>
<path d="M283.535 303.048H276.523L272.966 296.95L276.523 290.853H283.535L287.092 296.95L283.535 303.048Z" fill="#ACA7E9"/>
<path d="M283.535 318.393H276.523L272.966 312.295L276.523 306.198H283.535L287.092 312.295L283.535 318.393Z" fill="#ACA7E9"/>
<path d="M283.535 333.738H276.523L272.966 327.641L276.523 321.442H283.535L287.092 327.641L283.535 333.738Z" fill="#FF881B"/>
<path d="M283.535 348.982H276.523L272.966 342.885L276.523 336.787H283.535L287.092 342.885L283.535 348.982Z" fill="#ACA7E9"/>
<path d="M283.535 364.328H276.523L272.966 358.23L276.523 352.133H283.535L287.092 358.23L283.535 364.328Z" fill="#ACA7E9"/>
<path d="M282.418 377.641H277.641L275.202 373.576L277.641 369.409H282.418L284.755 373.576L282.418 377.641Z" fill="#ACA7E9"/>
<path d="M283.535 425.608H276.523L272.966 419.511L276.523 413.311H283.535L287.092 419.511L283.535 425.608Z" fill="#ACA7E9"/>
<path d="M283.231 440.344H276.828L273.576 434.754L276.828 429.267H283.231L286.381 434.754L283.231 440.344Z" fill="#ACA7E9"/>
<path d="M283.535 456.197H276.523L272.966 450.1L276.523 444.002H283.535L287.092 450.1L283.535 456.197Z" fill="#ACA7E9"/>
<path d="M363.007 716.359H356.198L352.844 710.465L356.198 704.57H363.007L366.36 710.465L363.007 716.359Z" fill="#ACA7E9"/>
<path d="M376.421 724.286H369.307L365.75 718.188L369.307 711.989H376.421L379.978 718.188L376.421 724.286Z" fill="#ACA7E9"/>
<path d="M389.633 731.908H382.62L379.063 725.81L382.62 719.713H389.633L393.189 725.81L389.633 731.908Z" fill="#ACA7E9"/>
<path d="M400.405 735.16H398.372L397.356 733.432L398.372 731.704H400.405L401.421 733.432L400.405 735.16Z" fill="#ACA7E9"/>
<path d="M521.644 10.8739H515.953L513.107 5.99589L515.953 1.01624H521.644L524.489 5.99589L521.644 10.8739Z" fill="#ACA7E9"/>
<path d="M508.331 18.4958H502.742L499.896 13.6178L502.742 8.73975H508.331L511.075 13.6178L508.331 18.4958Z" fill="#ACA7E9"/>
<path d="M494.917 26.0161H489.531L486.787 21.2397L489.531 16.5649H494.917L497.661 21.2397L494.917 26.0161Z" fill="#ACA7E9"/>
<path d="M482.518 35.0609H475.405L471.848 28.9633L475.405 22.7642H482.518L486.075 28.9633L482.518 35.0609Z" fill="#ACA7E9"/>
<path d="M469.205 42.6827H462.193L458.636 36.5852L462.193 30.4877H469.205L472.762 36.5852L469.205 42.6827Z" fill="#ACA7E9"/>
<path d="M455.994 50.4063H448.881L445.324 44.2072L448.881 38.1096H455.994L459.551 44.2072L455.994 50.4063Z" fill="#ACA7E9"/>
<path d="M442.681 58.0282H435.669L432.112 51.9307L435.669 45.7315H442.681L446.238 51.9307L442.681 58.0282Z" fill="#ACA7E9"/>
<path d="M427.539 62.3981H424.287L422.661 59.5526L424.287 56.8087H427.539L429.165 59.5526L427.539 62.3981Z" fill="#ACA7E9"/>
<path d="M415.953 72.9672H409.348L405.994 67.1746L409.348 61.4835H415.953L419.307 67.1746L415.953 72.9672Z" fill="#ACA7E9"/>
<path d="M363.007 103.76H356.198L352.844 97.8655L356.198 91.9712H363.007L366.36 97.8655L363.007 103.76Z" fill="#ACA7E9"/>
<path d="M349.897 111.687H342.783L339.226 105.487L342.783 99.3898H349.897L353.454 105.487L349.897 111.687Z" fill="#ACA7E9"/>
<path d="M336.584 119.308H329.572L326.015 113.211L329.572 107.012H336.584L340.141 113.211L336.584 119.308Z" fill="#ACA7E9"/>
<path d="M323.372 126.93H316.259L312.803 120.833L316.259 114.735H323.372L326.828 120.833L323.372 126.93Z" fill="#ACA7E9"/>
<path d="M309.755 133.943H303.353L300.202 128.455L303.353 122.967H309.755L312.905 128.455L309.755 133.943Z" fill="#ACA7E9"/>
<path d="M296.848 142.276H289.735L286.178 136.178L289.735 129.979H296.848L300.304 136.178L296.848 142.276Z" fill="#ACA7E9"/>
<path d="M283.535 149.898H276.523L272.966 143.8L276.523 137.703H283.535L287.092 143.8L283.535 149.898Z" fill="#ACA7E9"/>
<path d="M270.324 157.621H263.21L259.653 151.422L263.21 145.325H270.324L273.779 151.422L270.324 157.621Z" fill="#ACA7E9"/>
<path d="M270.324 172.865H263.21L259.653 166.768L263.21 160.67H270.324L273.779 166.768L270.324 172.865Z" fill="#ACA7E9"/>
<path d="M270.324 188.211H263.21L259.653 182.113L263.21 175.914H270.324L273.779 182.113L270.324 188.211Z" fill="#ACA7E9"/>
<path d="M270.324 203.556H263.21L259.653 197.357L263.21 191.259H270.324L273.779 197.357L270.324 203.556Z" fill="#ACA7E9"/>
<path d="M270.324 218.8H263.21L259.653 212.702L263.21 206.605H270.324L273.779 212.702L270.324 218.8Z" fill="#ACA7E9"/>
<path d="M270.324 234.145H263.21L259.653 228.048L263.21 221.95H270.324L273.779 228.048L270.324 234.145Z" fill="#ACA7E9"/>
<path d="M270.324 249.491H263.21L259.653 243.393L263.21 237.194H270.324L273.779 243.393L270.324 249.491Z" fill="#ACA7E9"/>
<path d="M270.324 264.836H263.21L259.653 258.637L263.21 252.54H270.324L273.779 258.637L270.324 264.836Z" fill="#ACA7E9"/>
<path d="M270.324 280.08H263.21L259.653 273.983L263.21 267.885H270.324L273.779 273.983L270.324 280.08Z" fill="#ACA7E9"/>
<path d="M270.324 295.426H263.21L259.653 289.328L263.21 283.129H270.324L273.779 289.328L270.324 295.426Z" fill="#ACA7E9"/>
<path d="M270.324 310.771H263.21L259.653 304.572L263.21 298.474H270.324L273.779 304.572L270.324 310.771Z" fill="#ACA7E9"/>
<path d="M270.324 326.015H263.21L259.653 319.917L263.21 313.82H270.324L273.779 319.917L270.324 326.015Z" fill="#ACA7E9"/>
<path d="M270.324 341.36H263.21L259.653 335.263L263.21 329.165H270.324L273.779 335.263L270.324 341.36Z" fill="#ACA7E9"/>
<path d="M270.324 356.706H263.21L259.653 350.608L263.21 344.409H270.324L273.779 350.608L270.324 356.706Z" fill="#ACA7E9"/>
<path d="M270.121 371.746H263.312L259.958 365.852L263.312 359.958H270.121L273.576 365.852L270.121 371.746Z" fill="#ACA7E9"/>
<path d="M267.682 413.413H265.853L264.938 411.787L265.853 410.263H267.682L268.596 411.787L267.682 413.413Z" fill="#ACA7E9"/>
<path d="M270.223 433.23H263.211L259.755 427.132L263.211 421.035H270.223L273.78 427.132L270.223 433.23Z" fill="#ACA7E9"/>
<path d="M270.222 448.575H263.21L259.653 442.478L263.21 436.38H270.222L273.779 442.478L270.222 448.575Z" fill="#ACA7E9"/>
<path d="M362.803 731.4H356.401L353.149 725.81L356.401 720.221H362.803L365.954 725.81L362.803 731.4Z" fill="#ACA7E9"/>
<path d="M376.421 739.631H369.307L365.75 733.432L369.307 727.334H376.421L379.978 733.432L376.421 739.631Z" fill="#ACA7E9"/>
<path d="M389.633 747.253H382.62L379.063 741.155L382.62 734.956H389.633L393.189 741.155L389.633 747.253Z" fill="#ACA7E9"/>
<path d="M468.291 25.7112H463.21L460.669 21.2397L463.21 16.8698H468.291L470.832 21.2397L468.291 25.7112Z" fill="#ACA7E9"/>
<path d="M455.791 34.756H449.084L445.73 28.9633L449.084 23.1707H455.791L459.145 28.9633L455.791 34.756Z" fill="#ACA7E9"/>
<path d="M442.681 42.6827H435.669L432.112 36.5852L435.669 30.4877H442.681L446.238 36.5852L442.681 42.6827Z" fill="#ACA7E9"/>
<path d="M427.031 46.2396H424.795L423.677 44.2071L424.795 42.2762H427.031L428.149 44.2071L427.031 46.2396Z" fill="#ACA7E9"/>
<path d="M415.141 56.3006H410.161L407.621 51.9307L410.161 47.5608H415.141L417.682 51.9307L415.141 56.3006Z" fill="#ACA7E9"/>
<path d="M375.608 79.5729H370.12L367.376 74.8981L370.12 70.1217H375.608L378.25 74.8981L375.608 79.5729Z" fill="#ACA7E9"/>
<path d="M362.702 87.8045H356.502L353.454 82.52L356.502 77.2355H362.702L365.75 82.52L362.702 87.8045Z" fill="#ACA7E9"/>
<path d="M348.474 94.0037H344.104L341.97 90.2436L344.104 86.3818H348.474L350.71 90.2436L348.474 94.0037Z" fill="#ACA7E9"/>
<path d="M336.482 103.76H329.674L326.218 97.8655L329.674 91.9712H336.482L339.938 97.8655L336.482 103.76Z" fill="#ACA7E9"/>
<path d="M309.958 119.105H303.149L299.694 113.211L303.149 107.317H309.958L313.312 113.211L309.958 119.105Z" fill="#ACA7E9"/>
<path d="M281.097 130.284H278.963L277.946 128.455L278.963 126.727H281.097L282.113 128.455L281.097 130.284Z" fill="#ACA7E9"/>
<path d="M270.324 142.276H263.21L259.653 136.178L263.21 129.979H270.324L273.779 136.178L270.324 142.276Z" fill="#ACA7E9"/>
<path d="M257.011 149.898H249.897L246.442 143.8L249.897 137.703H257.011L260.568 143.8L257.011 149.898Z" fill="#ACA7E9"/>
<path d="M257.011 165.243H249.897L246.442 159.146L249.897 152.947H257.011L260.568 159.146L257.011 165.243Z" fill="#ACA7E9"/>
<path d="M257.011 180.589H249.897L246.442 174.39L249.897 168.292H257.011L260.568 174.39L257.011 180.589Z" fill="#ACA7E9"/>
<path d="M257.011 195.833H249.897L246.442 189.735L249.897 183.637H257.011L260.568 189.735L257.011 195.833Z" fill="#ACA7E9"/>
<path d="M257.011 211.178H249.897L246.442 205.08L249.897 198.983H257.011L260.568 205.08L257.011 211.178Z" fill="#ACA7E9"/>
<path d="M257.011 226.523H249.897L246.442 220.426L249.897 214.227H257.011L260.568 220.426L257.011 226.523Z" fill="#ACA7E9"/>
<path d="M257.011 241.869H249.897L246.442 235.67L249.897 229.572H257.011L260.568 235.67L257.011 241.869Z" fill="#FF881B"/>
<path d="M257.011 257.113H249.897L246.442 251.015L249.897 244.918H257.011L260.568 251.015L257.011 257.113Z" fill="#ACA7E9"/>
<path d="M257.011 272.458H249.897L246.442 266.361L249.897 260.162H257.011L260.568 266.361L257.011 272.458Z" fill="#ACA7E9"/>
<path d="M257.011 287.804H249.897L246.442 281.604L249.897 275.507H257.011L260.568 281.604L257.011 287.804Z" fill="#ACA7E9"/>
<path d="M257.011 303.048H249.897L246.442 296.95L249.897 290.853H257.011L260.568 296.95L257.011 303.048Z" fill="#ACA7E9"/>
<path d="M257.011 318.393H249.897L246.442 312.295L249.897 306.198H257.011L260.568 312.295L257.011 318.393Z" fill="#ACA7E9"/>
<path d="M257.011 333.738H249.897L246.442 327.641L249.897 321.442H257.011L260.568 327.641L257.011 333.738Z" fill="#ACA7E9"/>
<path d="M257.011 348.982H249.897L246.442 342.885L249.897 336.787H257.011L260.568 342.885L257.011 348.982Z" fill="#ACA7E9"/>
<path d="M257.011 364.328H249.897L246.442 358.23L249.897 352.133H257.011L260.568 358.23L257.011 364.328Z" fill="#ACA7E9"/>
<path d="M256.097 378.149H250.812L248.17 373.576L250.812 368.901H256.097L258.739 373.576L256.097 378.149Z" fill="#ACA7E9"/>
<path d="M254.369 421.035H252.642L251.727 419.51L252.642 417.986H254.369L255.182 419.51L254.369 421.035Z" fill="#ACA7E9"/>
<path d="M257.011 440.852H249.999L246.442 434.754L249.999 428.758H257.011L260.466 434.754L257.011 440.852Z" fill="#ACA7E9"/>
<path d="M363.108 747.253H356.096L352.539 741.155L356.096 734.956H363.108L366.665 741.155L363.108 747.253Z" fill="#ACA7E9"/>
<path d="M376.421 754.875H369.307L365.75 748.777L369.307 742.68H376.421L379.978 748.777L376.421 754.875Z" fill="#392DCA"/>
<path d="M389.633 762.497H382.62L379.063 756.4L382.62 750.302H389.633L393.189 756.4L389.633 762.497Z" fill="#ACA7E9"/>
<path d="M441.665 25.508H436.787L434.246 21.2398L436.787 17.0731H441.665L444.104 21.2398L441.665 25.508Z" fill="#ACA7E9"/>
<path d="M427.843 32.3169H423.982L422.051 28.9633L423.982 25.508H427.843L429.876 28.9633L427.843 32.3169Z" fill="#ACA7E9"/>
<path d="M415.75 41.9714H409.551L406.401 36.5853L409.551 31.1991H415.75L418.901 36.5853L415.75 41.9714Z" fill="#ACA7E9"/>
<path d="M401.522 47.8657H397.254L395.222 44.2072L397.254 40.6503H401.522L403.555 44.2072L401.522 47.8657Z" fill="#ACA7E9"/>
<path d="M389.531 57.7233H382.722L379.368 51.9307L382.722 46.0364H389.531L392.884 51.9307L389.531 57.7233Z" fill="#ACA7E9"/>
<path d="M376.421 65.6502H369.307L365.75 59.5526L369.307 53.4551H376.421L379.978 59.5526L376.421 65.6502Z" fill="#ACA7E9"/>
<path d="M363.108 73.3737H356.096L352.539 67.1745L356.096 61.077H363.108L366.665 67.1745L363.108 73.3737Z" fill="#ACA7E9"/>
<path d="M347.865 77.4387H344.816L343.393 74.8981L344.816 72.3574H347.865L349.287 74.8981L347.865 77.4387Z" fill="#ACA7E9"/>
<path d="M334.755 85.4671H331.299L329.673 82.52L331.299 79.5728H334.755L336.482 82.52L334.755 85.4671Z" fill="#ACA7E9"/>
<path d="M294.917 108.435H291.564L289.938 105.487L291.564 102.642H294.917L296.645 105.487L294.917 108.435Z" fill="#ACA7E9"/>
<path d="M282.112 116.869H277.844L275.71 113.211L277.844 109.451H282.112L284.247 113.211L282.112 116.869Z" fill="#ACA7E9"/>
<path d="M268.901 124.593H264.532L262.397 120.833L264.532 117.073H268.901L271.137 120.833L268.901 124.593Z" fill="#ACA7E9"/>
<path d="M254.471 130.182H252.438L251.523 128.455L252.438 126.727H254.471L255.487 128.455L254.471 130.182Z" fill="#ACA7E9"/>
<path d="M243.8 142.276H236.686L233.129 136.178L236.686 129.979H243.8L247.255 136.178L243.8 142.276Z" fill="#ACA7E9"/>
<path d="M243.8 157.621H236.686L233.129 151.422L236.686 145.325H243.8L247.255 151.422L243.8 157.621Z" fill="#ACA7E9"/>
<path d="M243.8 172.865H236.686L233.129 166.768L236.686 160.67H243.8L247.255 166.768L243.8 172.865Z" fill="#E23A45"/>
<path d="M243.8 188.211H236.686L233.129 182.113L236.686 175.914H243.8L247.255 182.113L243.8 188.211Z" fill="#ACA7E9"/>
<path d="M243.8 203.556H236.686L233.129 197.357L236.686 191.259H243.8L247.255 197.357L243.8 203.556Z" fill="#ACA7E9"/>
<path d="M243.8 218.8H236.686L233.129 212.702L236.686 206.605H243.8L247.255 212.702L243.8 218.8Z" fill="#ACA7E9"/>
<path d="M243.8 234.145H236.686L233.129 228.048L236.686 221.95H243.8L247.255 228.048L243.8 234.145Z" fill="#ACA7E9"/>
<path d="M243.8 249.491H236.686L233.129 243.393L236.686 237.194H243.8L247.255 243.393L243.8 249.491Z" fill="#ACA7E9"/>
<path d="M243.8 264.836H236.686L233.129 258.637L236.686 252.54H243.8L247.255 258.637L243.8 264.836Z" fill="#ACA7E9"/>
<path d="M243.8 280.08H236.686L233.129 273.983L236.686 267.885H243.8L247.255 273.983L243.8 280.08Z" fill="#ACA7E9"/>
<path d="M243.8 295.426H236.686L233.129 289.328L236.686 283.129H243.8L247.255 289.328L243.8 295.426Z" fill="#ACA7E9"/>
<path d="M243.8 310.771H236.686L233.129 304.572L236.686 298.474H243.8L247.255 304.572L243.8 310.771Z" fill="#ACA7E9"/>
<path d="M243.8 326.015H236.686L233.129 319.917L236.686 313.82H243.8L247.255 319.917L243.8 326.015Z" fill="#ACA7E9"/>
<path d="M243.8 341.36H236.686L233.129 335.263L236.686 329.165H243.8L247.255 335.263L243.8 341.36Z" fill="#ACA7E9"/>
<path d="M243.8 356.706H236.686L233.129 350.608L236.686 344.409H243.8L247.255 350.608L243.8 356.706Z" fill="#ACA7E9"/>
<path d="M243.8 372.051H236.686L233.129 365.852L236.686 359.755H243.8L247.255 365.852L243.8 372.051Z" fill="#ACA7E9"/>
<path d="M243.8 387.295H236.686L233.129 381.198L236.686 375.1H243.8L247.255 381.198L243.8 387.295Z" fill="#ACA7E9"/>
<path d="M243.8 402.641H236.686L233.129 396.543L236.686 390.344H243.8L247.255 396.543L243.8 402.641Z" fill="#ACA7E9"/>
<path d="M243.8 417.986H236.686L233.129 411.787L236.686 405.689H243.8L247.255 411.787L243.8 417.986Z" fill="#ACA7E9"/>
<path d="M243.8 433.23H236.686L233.129 427.132L236.686 421.035H243.8L247.255 427.132L243.8 433.23Z" fill="#ACA7E9"/>
<path d="M240.954 443.799H239.43L238.718 442.478L239.43 441.157H240.954L241.767 442.478L240.954 443.799Z" fill="#ACA7E9"/>
<path d="M363.108 762.497H356.096L352.539 756.4L356.096 750.302H363.108L366.665 756.4L363.108 762.497Z" fill="#ACA7E9"/>
<path d="M376.421 770.221H369.307L365.75 764.123L369.307 757.924H376.421L379.978 764.123L376.421 770.221Z" fill="#ACA7E9"/>
<path d="M389.632 777.741H382.62L379.165 771.745L382.62 765.749H389.632L393.088 771.745L389.632 777.741Z" fill="#ACA7E9"/>
<path d="M428.352 17.8861H423.474L420.934 13.6178L423.474 9.34955H428.352L430.893 13.6178L428.352 17.8861Z" fill="#ACA7E9"/>
<path d="M416.157 27.4389H409.145L405.588 21.2397L409.145 15.1422H416.157L419.714 21.2397L416.157 27.4389Z" fill="#ACA7E9"/>
<path d="M402.946 35.0609H395.832L392.275 28.9633L395.832 22.7642H402.946L406.502 28.9633L402.946 35.0609Z" fill="#392DCA"/>
<path d="M389.633 42.6827H382.62L379.063 36.5852L382.62 30.4877H389.633L393.189 36.5852L389.633 42.6827Z" fill="#ACA7E9"/>
<path d="M376.421 50.4063H369.307L365.75 44.2072L369.307 38.1096H376.421L379.978 44.2072L376.421 50.4063Z" fill="#ACA7E9"/>
<path d="M363.108 58.0282H356.096L352.539 51.9307L356.096 45.7315H363.108L366.665 51.9307L363.108 58.0282Z" fill="#ACA7E9"/>
<path d="M349.388 64.8372H343.291L340.242 59.5527L343.291 54.2681H349.388L352.437 59.5527L349.388 64.8372Z" fill="#ACA7E9"/>
<path d="M335.873 72.1542H330.283L327.438 67.1745L330.283 62.2965H335.873L338.718 67.1745L335.873 72.1542Z" fill="#ACA7E9"/>
<path d="M320.73 76.4225H318.901L317.986 74.8981L318.901 73.3737H320.73L321.543 74.8981L320.73 76.4225Z" fill="#ACA7E9"/>
<path d="M296.848 96.3411H289.735L286.178 90.2435L289.735 84.0444H296.848L300.304 90.2435L296.848 96.3411Z" fill="#ACA7E9"/>
<path d="M281.198 99.7963H278.861L277.743 97.8655L278.861 95.8329H281.198L282.316 97.8655L281.198 99.7963Z" fill="#ACA7E9"/>
<path d="M270.324 111.687H263.21L259.653 105.487L263.21 99.3898H270.324L273.779 105.487L270.324 111.687Z" fill="#ACA7E9"/>
<path d="M257.011 119.308H249.897L246.442 113.211L249.897 107.012H257.011L260.568 113.211L257.011 119.308Z" fill="#ACA7E9"/>
<path d="M243.292 126.016H237.194L234.146 120.833L237.194 115.548H243.292L246.239 120.833L243.292 126.016Z" fill="#ACA7E9"/>
<path d="M230.182 134.044H223.779L220.527 128.455L223.779 122.865H230.182L233.434 128.455L230.182 134.044Z" fill="#ACA7E9"/>
<path d="M230.487 149.898H223.373L219.917 143.8L223.373 137.703H230.487L234.043 143.8L230.487 149.898Z" fill="#ACA7E9"/>
<path d="M230.487 165.243H223.373L219.917 159.146L223.373 152.947H230.487L234.043 159.146L230.487 165.243Z" fill="#ACA7E9"/>
<path d="M230.487 180.589H223.373L219.917 174.39L223.373 168.292H230.487L234.043 174.39L230.487 180.589Z" fill="#ACA7E9"/>
<path d="M230.487 195.833H223.373L219.917 189.735L223.373 183.637H230.487L234.043 189.735L230.487 195.833Z" fill="#ACA7E9"/>
<path d="M230.487 211.178H223.373L219.917 205.08L223.373 198.983H230.487L234.043 205.08L230.487 211.178Z" fill="#ACA7E9"/>
<path d="M230.487 226.523H223.373L219.917 220.426L223.373 214.227H230.487L234.043 220.426L230.487 226.523Z" fill="#ACA7E9"/>
<path d="M230.487 241.869H223.373L219.917 235.67L223.373 229.572H230.487L234.043 235.67L230.487 241.869Z" fill="#ACA7E9"/>
<path d="M230.487 257.113H223.373L219.917 251.015L223.373 244.918H230.487L234.043 251.015L230.487 257.113Z" fill="#ACA7E9"/>
<path d="M230.487 272.458H223.373L219.917 266.361L223.373 260.162H230.487L234.043 266.361L230.487 272.458Z" fill="#ACA7E9"/>
<path d="M230.487 287.804H223.373L219.917 281.604L223.373 275.507H230.487L234.043 281.604L230.487 287.804Z" fill="#ACA7E9"/>
<path d="M230.487 303.048H223.373L219.917 296.95L223.373 290.853H230.487L234.043 296.95L230.487 303.048Z" fill="#392DCA"/>
<path d="M230.487 318.393H223.373L219.917 312.295L223.373 306.198H230.487L234.043 312.295L230.487 318.393Z" fill="#ACA7E9"/>
<path d="M230.487 333.738H223.373L219.917 327.641L223.373 321.442H230.487L234.043 327.641L230.487 333.738Z" fill="#ACA7E9"/>
<path d="M230.487 348.982H223.373L219.917 342.885L223.373 336.787H230.487L234.043 342.885L230.487 348.982Z" fill="#ACA7E9"/>
<path d="M230.487 364.328H223.373L219.917 358.23L223.373 352.133H230.487L234.043 358.23L230.487 364.328Z" fill="#ACA7E9"/>
<path d="M230.487 379.673H223.373L219.917 373.576L223.373 367.377H230.487L234.043 373.576L230.487 379.673Z" fill="#ACA7E9"/>
<path d="M230.487 395.019H223.373L219.917 388.82L223.373 382.722H230.487L234.043 388.82L230.487 395.019Z" fill="#ACA7E9"/>
<path d="M230.487 410.263H223.373L219.917 404.165L223.373 398.068H230.487L234.043 404.165L230.487 410.263Z" fill="#ACA7E9"/>
<path d="M230.487 425.608H223.373L219.917 419.511L223.373 413.311H230.487L234.043 419.511L230.487 425.608Z" fill="#ACA7E9"/>
<path d="M228.657 437.701H225.304L223.576 434.754L225.304 431.909H228.657L230.283 434.754L228.657 437.701Z" fill="#ACA7E9"/>
<path d="M362.702 777.029H356.502L353.454 771.745L356.502 766.46H362.702L365.75 771.745L362.702 777.029Z" fill="#ACA7E9"/>
<path d="M376.421 785.566H369.307L365.75 779.367L369.307 773.269H376.421L379.978 779.367L376.421 785.566Z" fill="#ACA7E9"/>
<path d="M387.193 788.818H385.059L384.043 787.09L385.059 785.261H387.193L388.21 787.09L387.193 788.818Z" fill="#ACA7E9"/>
<path d="M402.133 18.3942H396.645L393.799 13.6178L396.645 8.84143H402.133L404.978 13.6178L402.133 18.3942Z" fill="#ACA7E9"/>
<path d="M389.633 27.4389H382.62L379.063 21.2397L382.62 15.1422H389.633L393.189 21.2397L389.633 27.4389Z" fill="#ACA7E9"/>
<path d="M376.421 35.0609H369.307L365.75 28.9633L369.307 22.7642H376.421L379.978 28.9633L376.421 35.0609Z" fill="#ACA7E9"/>
<path d="M363.108 42.6827H356.096L352.539 36.5852L356.096 30.4877H363.108L366.665 36.5852L363.108 42.6827Z" fill="#ACA7E9"/>
<path d="M348.475 47.8657H344.206L342.174 44.2072L344.206 40.6503H348.475L350.507 44.2072L348.475 47.8657Z" fill="#ACA7E9"/>
<path d="M335.873 56.8087H330.283L327.438 51.9307L330.283 47.0527H335.873L338.718 51.9307L335.873 56.8087Z" fill="#ACA7E9"/>
<path d="M307.519 68.9022H305.588L304.673 67.1745L305.588 65.5485H307.519L308.433 67.1745L307.519 68.9022Z" fill="#ACA7E9"/>
<path d="M296.239 79.9793H290.345L287.296 74.8981L290.345 69.7151H296.239L299.186 74.8981L296.239 79.9793Z" fill="#ACA7E9"/>
<path d="M281.503 85.0607H278.556L277.032 82.52L278.556 79.9794H281.503L283.028 82.52L281.503 85.0607Z" fill="#ACA7E9"/>
<path d="M269.715 95.4264H263.719L260.771 90.2435L263.719 84.959H269.715L272.763 90.2435L269.715 95.4264Z" fill="#ACA7E9"/>
<path d="M257.011 103.963H249.999L246.442 97.8655L249.999 91.7679H257.011L260.466 97.8655L257.011 103.963Z" fill="#ACA7E9"/>
<path d="M243.8 111.687H236.686L233.129 105.487L236.686 99.3898H243.8L247.255 105.487L243.8 111.687Z" fill="#ACA7E9"/>
<path d="M230.081 118.597H223.78L220.731 113.211L223.78 107.723H230.081L233.231 113.211L230.081 118.597Z" fill="#ACA7E9"/>
<path d="M214.532 122.256H212.906L212.093 120.833L212.906 119.41H214.532L215.345 120.833L214.532 122.256Z" fill="#ACA7E9"/>
<path d="M217.275 142.276H210.161L206.604 136.178L210.161 129.979H217.275L220.73 136.178L217.275 142.276Z" fill="#ACA7E9"/>
<path d="M217.275 157.621H210.161L206.604 151.422L210.161 145.325H217.275L220.73 151.422L217.275 157.621Z" fill="#ACA7E9"/>
<path d="M217.275 172.865H210.161L206.604 166.768L210.161 160.67H217.275L220.73 166.768L217.275 172.865Z" fill="#ACA7E9"/>
<path d="M217.275 188.211H210.161L206.604 182.113L210.161 175.914H217.275L220.73 182.113L217.275 188.211Z" fill="#392DCA"/>
<path d="M217.275 203.556H210.161L206.604 197.357L210.161 191.259H217.275L220.73 197.357L217.275 203.556Z" fill="#ACA7E9"/>
<path d="M217.275 218.8H210.161L206.604 212.702L210.161 206.605H217.275L220.73 212.702L217.275 218.8Z" fill="#ACA7E9"/>
<path d="M217.275 234.145H210.161L206.604 228.048L210.161 221.95H217.275L220.73 228.048L217.275 234.145Z" fill="#ACA7E9"/>
<path d="M217.275 249.491H210.161L206.604 243.393L210.161 237.194H217.275L220.73 243.393L217.275 249.491Z" fill="#ACA7E9"/>
<path d="M217.275 264.836H210.161L206.604 258.637L210.161 252.54H217.275L220.73 258.637L217.275 264.836Z" fill="#ACA7E9"/>
<path d="M217.275 280.08H210.161L206.604 273.983L210.161 267.885H217.275L220.73 273.983L217.275 280.08Z" fill="#ACA7E9"/>
<path d="M217.275 295.426H210.161L206.604 289.328L210.161 283.129H217.275L220.73 289.328L217.275 295.426Z" fill="#ACA7E9"/>
<path d="M217.275 310.771H210.161L206.604 304.572L210.161 298.474H217.275L220.73 304.572L217.275 310.771Z" fill="#ACA7E9"/>
<path d="M217.275 326.015H210.161L206.604 319.917L210.161 313.82H217.275L220.73 319.917L217.275 326.015Z" fill="#ACA7E9"/>
<path d="M217.275 341.36H210.161L206.604 335.263L210.161 329.165H217.275L220.73 335.263L217.275 341.36Z" fill="#ACA7E9"/>
<path d="M217.275 356.706H210.161L206.604 350.608L210.161 344.409H217.275L220.73 350.608L217.275 356.706Z" fill="#ACA7E9"/>
<path d="M217.275 372.051H210.161L206.604 365.852L210.161 359.755H217.275L220.73 365.852L217.275 372.051Z" fill="#ACA7E9"/>
<path d="M217.275 387.295H210.161L206.604 381.198L210.161 375.1H217.275L220.73 381.198L217.275 387.295Z" fill="#ACA7E9"/>
<path d="M217.275 402.641H210.161L206.604 396.543L210.161 390.344H217.275L220.73 396.543L217.275 402.641Z" fill="#ACA7E9"/>
<path d="M217.174 417.884H210.162L206.707 411.787L210.162 405.791H217.174L220.629 411.787L217.174 417.884Z" fill="#ACA7E9"/>
<path d="M215.141 429.673H212.296L210.771 427.132L212.296 424.693H215.141L216.564 427.132L215.141 429.673Z" fill="#ACA7E9"/>
<path d="M361.482 790.444H357.62L355.689 787.09L357.62 783.737H361.482L363.413 787.09L361.482 790.444Z" fill="#ACA7E9"/>
<path d="M376.421 800.81H369.307L365.75 794.712L369.307 788.615H376.421L379.978 794.712L376.421 800.81Z" fill="#ACA7E9"/>
<path d="M389.429 808.025H382.824L379.572 802.334L382.824 796.643H389.429L392.681 802.334L389.429 808.025Z" fill="#ACA7E9"/>
<path d="M400.913 812.7H397.864L396.238 810.058L397.864 807.314H400.913L402.539 810.058L400.913 812.7Z" fill="#ACA7E9"/>
<path d="M374.999 17.2763H370.73L368.596 13.6178L370.73 9.95929H374.999L377.133 13.6178L374.999 17.2763Z" fill="#ACA7E9"/>
<path d="M363.108 27.4389H356.096L352.539 21.2397L356.096 15.1422H363.108L366.665 21.2397L363.108 27.4389Z" fill="#ACA7E9"/>
<path d="M348.881 33.3332H343.799L341.157 28.9633L343.799 24.4918H348.881L351.421 28.9633L348.881 33.3332Z" fill="#ACA7E9"/>
<path d="M336.584 42.6827H329.572L326.015 36.5852L329.572 30.4877H336.584L340.141 36.5852L336.584 42.6827Z" fill="#ACA7E9"/>
<path d="M281.096 69.2071H278.861L277.743 67.1745L278.861 65.2437H281.096L282.214 67.1745L281.096 69.2071Z" fill="#ACA7E9"/>
<path d="M270.121 80.6907H263.414L260.06 74.8981L263.414 69.1054H270.121L273.373 74.8981L270.121 80.6907Z" fill="#ACA7E9"/>
<path d="M255.995 86.7883H251.015L248.576 82.52L251.015 78.2517H255.995L258.434 82.52L255.995 86.7883Z" fill="#ACA7E9"/>
<path d="M243.698 96.3411H236.686L233.129 90.2435L236.686 84.0444H243.698L247.255 90.2435L243.698 96.3411Z" fill="#ACA7E9"/>
<path d="M230.487 103.963H223.373L219.917 97.8655L223.373 91.7679H230.487L234.043 97.8655L230.487 103.963Z" fill="#ACA7E9"/>
<path d="M214.531 107.012H212.804L211.889 105.487L212.804 103.963H214.531L215.446 105.487L214.531 107.012Z" fill="#ACA7E9"/>
<path d="M203.963 134.654H196.849L193.394 128.455L196.849 122.357H203.963L207.52 128.455L203.963 134.654Z" fill="#ACA7E9"/>
<path d="M203.963 149.898H196.849L193.394 143.8L196.849 137.703H203.963L207.52 143.8L203.963 149.898Z" fill="#ACA7E9"/>
<path d="M203.963 165.243H196.849L193.394 159.146L196.849 152.947H203.963L207.52 159.146L203.963 165.243Z" fill="#ACA7E9"/>
<path d="M203.963 180.589H196.849L193.394 174.39L196.849 168.292H203.963L207.52 174.39L203.963 180.589Z" fill="#ACA7E9"/>
<path d="M203.963 195.833H196.849L193.394 189.735L196.849 183.637H203.963L207.52 189.735L203.963 195.833Z" fill="#ACA7E9"/>
<path d="M203.963 211.178H196.849L193.394 205.08L196.849 198.983H203.963L207.52 205.08L203.963 211.178Z" fill="#ACA7E9"/>
<path d="M203.963 226.523H196.849L193.394 220.426L196.849 214.227H203.963L207.52 220.426L203.963 226.523Z" fill="#ACA7E9"/>
<path d="M203.963 241.869H196.849L193.394 235.67L196.849 229.572H203.963L207.52 235.67L203.963 241.869Z" fill="#ACA7E9"/>
<path d="M203.963 257.113H196.849L193.394 251.015L196.849 244.918H203.963L207.52 251.015L203.963 257.113Z" fill="#ACA7E9"/>
<path d="M203.963 272.458H196.849L193.394 266.361L196.849 260.162H203.963L207.52 266.361L203.963 272.458Z" fill="#ACA7E9"/>
<path d="M203.963 287.804H196.849L193.394 281.604L196.849 275.507H203.963L207.52 281.604L203.963 287.804Z" fill="#ACA7E9"/>
<path d="M203.963 303.048H196.849L193.394 296.95L196.849 290.853H203.963L207.52 296.95L203.963 303.048Z" fill="#ACA7E9"/>
<path d="M203.963 318.393H196.849L193.394 312.295L196.849 306.198H203.963L207.52 312.295L203.963 318.393Z" fill="#ACA7E9"/>
<path d="M203.963 333.738H196.849L193.394 327.641L196.849 321.442H203.963L207.52 327.641L203.963 333.738Z" fill="#ACA7E9"/>
<path d="M203.963 348.982H196.849L193.394 342.885L196.849 336.787H203.963L207.52 342.885L203.963 348.982Z" fill="#ACA7E9"/>
<path d="M203.963 364.328H196.849L193.394 358.23L196.849 352.133H203.963L207.52 358.23L203.963 364.328Z" fill="#ACA7E9"/>
<path d="M203.963 379.673H196.849L193.394 373.576L196.849 367.377H203.963L207.52 373.576L203.963 379.673Z" fill="#ACA7E9"/>
<path d="M203.76 394.612H197.154L193.8 388.82L197.154 383.129H203.76L207.012 388.82L203.76 394.612Z" fill="#ACA7E9"/>
<path d="M346.95 14.6341H345.73L345.121 13.6179L345.73 12.6016H346.95L347.56 13.6179L346.95 14.6341Z" fill="#ACA7E9"/>
<path d="M333.637 22.3576H332.519L331.909 21.2398L332.519 20.2235H333.637L334.247 21.2398L333.637 22.3576Z" fill="#ACA7E9"/>
<path d="M268.088 61.89H265.446L264.023 59.5526L265.446 57.2152H268.088L269.409 59.5526L268.088 61.89Z" fill="#ACA7E9"/>
<path d="M254.369 68.6989H252.642L251.727 67.1745L252.642 65.7518H254.369L255.182 67.1745L254.369 68.6989Z" fill="#ACA7E9"/>
<path d="M241.767 77.5403H238.718L237.092 74.8981L238.718 72.2558H241.767L243.291 74.8981L241.767 77.5403Z" fill="#ACA7E9"/>
<path d="M230.385 88.4143H223.576L220.223 82.52L223.576 76.6257H230.385L233.739 82.52L230.385 88.4143Z" fill="#ACA7E9"/>
<path d="M217.275 96.3411H210.161L206.604 90.2435L210.161 84.0444H217.275L220.73 90.2435L217.275 96.3411Z" fill="#ACA7E9"/>
<path d="M203.963 103.963H196.849L193.394 97.8655L196.849 91.7679H203.963L207.52 97.8655L203.963 103.963Z" fill="#ACA7E9"/>
<path d="M189.227 124.39H185.162L183.028 120.833L185.162 117.276H189.227L191.259 120.833L189.227 124.39Z" fill="#ACA7E9"/>
<path d="M190.751 142.276H183.637L180.081 136.178L183.637 129.979H190.751L194.207 136.178L190.751 142.276Z" fill="#ACA7E9"/>
<path d="M190.751 157.621H183.637L180.081 151.422L183.637 145.325H190.751L194.207 151.422L190.751 157.621Z" fill="#ACA7E9"/>
<path d="M190.751 172.865H183.637L180.081 166.768L183.637 160.67H190.751L194.207 166.768L190.751 172.865Z" fill="#ACA7E9"/>
<path d="M190.751 188.211H183.637L180.081 182.113L183.637 175.914H190.751L194.207 182.113L190.751 188.211Z" fill="#ACA7E9"/>
<path d="M190.751 203.556H183.637L180.081 197.357L183.637 191.259H190.751L194.207 197.357L190.751 203.556Z" fill="#ACA7E9"/>
<path d="M190.751 218.8H183.637L180.081 212.702L183.637 206.605H190.751L194.207 212.702L190.751 218.8Z" fill="#ACA7E9"/>
<path d="M190.751 234.145H183.637L180.081 228.048L183.637 221.95H190.751L194.207 228.048L190.751 234.145Z" fill="#ACA7E9"/>
<path d="M190.751 249.491H183.637L180.081 243.393L183.637 237.194H190.751L194.207 243.393L190.751 249.491Z" fill="#ACA7E9"/>
<path d="M190.751 264.836H183.637L180.081 258.637L183.637 252.54H190.751L194.207 258.637L190.751 264.836Z" fill="#ACA7E9"/>
<path d="M190.751 280.08H183.637L180.081 273.983L183.637 267.885H190.751L194.207 273.983L190.751 280.08Z" fill="#ACA7E9"/>
<path d="M190.751 295.426H183.637L180.081 289.328L183.637 283.129H190.751L194.207 289.328L190.751 295.426Z" fill="#ACA7E9"/>
<path d="M190.751 310.771H183.637L180.081 304.572L183.637 298.474H190.751L194.207 304.572L190.751 310.771Z" fill="#ACA7E9"/>
<path d="M190.751 326.015H183.637L180.081 319.917L183.637 313.82H190.751L194.207 319.917L190.751 326.015Z" fill="#FF881B"/>
<path d="M190.751 341.36H183.637L180.081 335.263L183.637 329.165H190.751L194.207 335.263L190.751 341.36Z" fill="#ACA7E9"/>
<path d="M190.751 356.706H183.637L180.081 350.608L183.637 344.409H190.751L194.207 350.608L190.751 356.706Z" fill="#ACA7E9"/>
<path d="M190.65 371.848H183.739L180.284 365.852L183.739 359.856H190.65L194.105 365.852L190.65 371.848Z" fill="#ACA7E9"/>
<path d="M190.243 386.482H184.146L181.097 381.198L184.146 375.913H190.243L193.191 381.198L190.243 386.482Z" fill="#ACA7E9"/>
<path d="M189.735 401.015H184.552L181.91 396.543L184.552 391.97H189.735L192.377 396.543L189.735 401.015Z" fill="#ACA7E9"/>
<path d="M214.938 77.0322H212.397L211.178 74.8981L212.397 72.6623H214.938L216.259 74.8981L214.938 77.0322Z" fill="#ACA7E9"/>
<path d="M202.235 85.5688H198.678L196.849 82.52L198.678 79.4713H202.235L203.963 82.52L202.235 85.5688Z" fill="#ACA7E9"/>
<path d="M177.439 134.654H170.325L166.87 128.455L170.325 122.357H177.439L180.996 128.455L177.439 134.654Z" fill="#ACA7E9"/>
<path d="M177.439 149.898H170.325L166.87 143.8L170.325 137.703H177.439L180.996 143.8L177.439 149.898Z" fill="#ACA7E9"/>
<path d="M177.439 165.243H170.325L166.87 159.146L170.325 152.947H177.439L180.996 159.146L177.439 165.243Z" fill="#ACA7E9"/>
<path d="M177.439 180.589H170.325L166.87 174.39L170.325 168.292H177.439L180.996 174.39L177.439 180.589Z" fill="#ACA7E9"/>
<path d="M177.439 195.833H170.325L166.87 189.735L170.325 183.637H177.439L180.996 189.735L177.439 195.833Z" fill="#ACA7E9"/>
<path d="M177.439 211.178H170.325L166.87 205.08L170.325 198.983H177.439L180.996 205.08L177.439 211.178Z" fill="#ACA7E9"/>
<path d="M177.439 226.523H170.325L166.87 220.426L170.325 214.227H177.439L180.996 220.426L177.439 226.523Z" fill="#ACA7E9"/>
<path d="M177.439 241.869H170.325L166.87 235.67L170.325 229.572H177.439L180.996 235.67L177.439 241.869Z" fill="#ACA7E9"/>
<path d="M177.439 257.113H170.325L166.87 251.015L170.325 244.918H177.439L180.996 251.015L177.439 257.113Z" fill="#ACA7E9"/>
<path d="M177.439 272.458H170.325L166.87 266.361L170.325 260.162H177.439L180.996 266.361L177.439 272.458Z" fill="#ACA7E9"/>
<path d="M177.439 287.804H170.325L166.87 281.604L170.325 275.507H177.439L180.996 281.604L177.439 287.804Z" fill="#ACA7E9"/>
<path d="M177.439 303.048H170.325L166.87 296.95L170.325 290.853H177.439L180.996 296.95L177.439 303.048Z" fill="#ACA7E9"/>
<path d="M177.439 318.393H170.325L166.87 312.295L170.325 306.198H177.439L180.996 312.295L177.439 318.393Z" fill="#ACA7E9"/>
<path d="M177.439 333.738H170.325L166.87 327.641L170.325 321.442H177.439L180.996 327.641L177.439 333.738Z" fill="#ACA7E9"/>
<path d="M177.439 348.982H170.325L166.87 342.885L170.325 336.787H177.439L180.996 342.885L177.439 348.982Z" fill="#ACA7E9"/>
<path d="M177.439 364.328H170.325L166.87 358.23L170.325 352.133H177.439L180.996 358.23L177.439 364.328Z" fill="#ACA7E9"/>
<path d="M177.235 379.267H170.63L167.276 373.576L170.63 367.783H177.235L180.487 373.576L177.235 379.267Z" fill="#ACA7E9"/>
<path d="M162.906 124.796H158.333L156.097 120.833L158.333 116.869H162.906L165.243 120.833L162.906 124.796Z" fill="#ACA7E9"/>
<path d="M164.126 142.276H157.114L153.557 136.178L157.114 129.979H164.126L167.683 136.178L164.126 142.276Z" fill="#ACA7E9"/>
<path d="M164.126 157.621H157.114L153.557 151.422L157.114 145.325H164.126L167.683 151.422L164.126 157.621Z" fill="#ACA7E9"/>
<path d="M164.126 172.865H157.114L153.557 166.768L157.114 160.67H164.126L167.683 166.768L164.126 172.865Z" fill="#ACA7E9"/>
<path d="M164.126 188.211H157.114L153.557 182.113L157.114 175.914H164.126L167.683 182.113L164.126 188.211Z" fill="#ACA7E9"/>
<path d="M164.126 203.556H157.114L153.557 197.357L157.114 191.259H164.126L167.683 197.357L164.126 203.556Z" fill="#ACA7E9"/>
<path d="M164.126 218.8H157.114L153.557 212.702L157.114 206.605H164.126L167.683 212.702L164.126 218.8Z" fill="#ACA7E9"/>
<path d="M164.126 234.145H157.114L153.557 228.048L157.114 221.95H164.126L167.683 228.048L164.126 234.145Z" fill="#ACA7E9"/>
<path d="M164.126 249.491H157.114L153.557 243.393L157.114 237.194H164.126L167.683 243.393L164.126 249.491Z" fill="#ACA7E9"/>
<path d="M164.126 264.836H157.114L153.557 258.637L157.114 252.54H164.126L167.683 258.637L164.126 264.836Z" fill="#ACA7E9"/>
<path d="M164.126 280.08H157.114L153.557 273.983L157.114 267.885H164.126L167.683 273.983L164.126 280.08Z" fill="#ACA7E9"/>
<path d="M164.126 295.426H157.114L153.557 289.328L157.114 283.129H164.126L167.683 289.328L164.126 295.426Z" fill="#ACA7E9"/>
<path d="M164.126 310.771H157.114L153.557 304.572L157.114 298.474H164.126L167.683 304.572L164.126 310.771Z" fill="#ACA7E9"/>
<path d="M164.126 326.015H157.114L153.557 319.917L157.114 313.82H164.126L167.683 319.917L164.126 326.015Z" fill="#ACA7E9"/>
<path d="M164.126 341.36H157.114L153.557 335.263L157.114 329.165H164.126L167.683 335.263L164.126 341.36Z" fill="#ACA7E9"/>
<path d="M161.686 352.438H159.552L158.434 350.608L159.552 348.677H161.686L162.804 350.608L161.686 352.438Z" fill="#ACA7E9"/>
<path d="M150.914 134.654H143.8L140.345 128.455L143.8 122.357H150.914L154.471 128.455L150.914 134.654Z" fill="#ACA7E9"/>
<path d="M150.914 149.898H143.8L140.345 143.8L143.8 137.703H150.914L154.471 143.8L150.914 149.898Z" fill="#ACA7E9"/>
<path d="M150.914 165.243H143.8L140.345 159.146L143.8 152.947H150.914L154.471 159.146L150.914 165.243Z" fill="#ACA7E9"/>
<path d="M150.914 180.589H143.8L140.345 174.39L143.8 168.292H150.914L154.471 174.39L150.914 180.589Z" fill="#ACA7E9"/>
<path d="M150.914 195.833H143.8L140.345 189.735L143.8 183.637H150.914L154.471 189.735L150.914 195.833Z" fill="#ACA7E9"/>
<path d="M150.914 211.178H143.8L140.345 205.08L143.8 198.983H150.914L154.471 205.08L150.914 211.178Z" fill="#ACA7E9"/>
<path d="M150.711 226.219H144.004L140.65 220.426L144.004 214.532H150.711L154.064 220.426L150.711 226.219Z" fill="#ACA7E9"/>
<path d="M150 240.141H144.817L142.174 235.67L144.817 231.198H150L152.54 235.67L150 240.141Z" fill="#ACA7E9"/>
<path d="M148.678 253.251H146.138L144.816 251.015L146.138 248.779H148.678L149.898 251.015L148.678 253.251Z" fill="#ACA7E9"/>
<path d="M148.17 267.682H146.646L145.833 266.361L146.646 265.04H148.17L148.881 266.361L148.17 267.682Z" fill="#ACA7E9"/>
<path d="M148.475 283.637H146.24L145.02 281.605L146.24 279.674H148.475L149.695 281.605L148.475 283.637Z" fill="#ACA7E9"/>
<path d="M148.678 299.186H146.138L144.816 296.95L146.138 294.714H148.678L149.898 296.95L148.678 299.186Z" fill="#ACA7E9"/>
<path d="M149.898 316.767H144.817L142.276 312.295L144.817 307.824H149.898L152.54 312.295L149.898 316.767Z" fill="#ACA7E9"/>
<path d="M148.678 329.775H146.138L144.816 327.641L146.138 325.405H148.678L149.898 327.641L148.678 329.775Z" fill="#ACA7E9"/>
<path d="M136.686 125.203H131.605L129.064 120.833L131.605 116.463H136.686L139.227 120.833L136.686 125.203Z" fill="#ACA7E9"/>
<path d="M137.601 142.276H130.589L127.032 136.178L130.589 129.979H137.601L141.158 136.178L137.601 142.276Z" fill="#ACA7E9"/>
<path d="M137.601 157.621H130.589L127.032 151.422L130.589 145.325H137.601L141.158 151.422L137.601 157.621Z" fill="#ACA7E9"/>
<path d="M137.601 172.865H130.589L127.032 166.768L130.589 160.67H137.601L141.158 166.768L137.601 172.865Z" fill="#ACA7E9"/>
<path d="M137.601 188.211H130.589L127.032 182.113L130.589 175.914H137.601L141.158 182.113L137.601 188.211Z" fill="#ACA7E9"/>
<path d="M137.601 203.556H130.589L127.032 197.357L130.589 191.259H137.601L141.158 197.357L137.601 203.556Z" fill="#ACA7E9"/>
<path d="M136.89 217.479H131.301L128.557 212.702L131.301 207.926H136.89L139.634 212.702L136.89 217.479Z" fill="#ACA7E9"/>
<path d="M121.544 114.329H120.223L119.512 113.211L120.223 111.991H121.544L122.154 113.211L121.544 114.329Z" fill="#ACA7E9"/>
<path d="M124.39 134.654H117.276L113.821 128.455L117.276 122.357H124.39L127.947 128.455L124.39 134.654Z" fill="#ACA7E9"/>
<path d="M124.39 149.898H117.276L113.821 143.8L117.276 137.703H124.39L127.947 143.8L124.39 149.898Z" fill="#ACA7E9"/>
<path d="M124.39 165.243H117.276L113.821 159.146L117.276 152.947H124.39L127.947 159.146L124.39 165.243Z" fill="#ACA7E9"/>
<path d="M124.39 180.589H117.276L113.821 174.39L117.276 168.292H124.39L127.947 174.39L124.39 180.589Z" fill="#392DCA"/>
<path d="M124.39 195.833H117.276L113.821 189.735L117.276 183.637H124.39L127.947 189.735L124.39 195.833Z" fill="#ACA7E9"/>
<path d="M123.373 209.45H118.292L115.751 205.08L118.292 200.711H123.373L125.914 205.08L123.373 209.45Z" fill="#ACA7E9"/>
<path d="M111.077 126.93H104.065L100.508 120.833L104.065 114.735H111.077L114.634 120.833L111.077 126.93Z" fill="#ACA7E9"/>
<path d="M111.077 142.276H104.065L100.508 136.178L104.065 129.979H111.077L114.634 136.178L111.077 142.276Z" fill="#ACA7E9"/>
<path d="M111.077 157.621H104.065L100.508 151.422L104.065 145.325H111.077L114.634 151.422L111.077 157.621Z" fill="#ACA7E9"/>
<path d="M111.077 172.865H104.065L100.508 166.768L104.065 160.67H111.077L114.634 166.768L111.077 172.865Z" fill="#ACA7E9"/>
<path d="M111.077 188.211H104.065L100.508 182.113L104.065 175.914H111.077L114.634 182.113L111.077 188.211Z" fill="#ACA7E9"/>
<path d="M108.536 198.983H106.707L105.792 197.357L106.707 195.833H108.536L109.451 197.357L108.536 198.983Z" fill="#ACA7E9"/>
<path d="M96.1382 116.361H92.4797L90.6504 113.211L92.4797 109.959H96.1382L98.0691 113.211L96.1382 116.361Z" fill="#ACA7E9"/>
<path d="M97.865 134.654H90.7512L87.1943 128.455L90.7512 122.357H97.865L101.422 128.455L97.865 134.654Z" fill="#ACA7E9"/>
<path d="M97.865 149.898H90.7512L87.1943 143.8L90.7512 137.703H97.865L101.422 143.8L97.865 149.898Z" fill="#ACA7E9"/>
<path d="M97.865 165.243H90.7512L87.1943 159.146L90.7512 152.947H97.865L101.422 159.146L97.865 165.243Z" fill="#ACA7E9"/>
<path d="M97.865 180.589H90.7512L87.1943 174.39L90.7512 168.292H97.865L101.422 174.39L97.865 180.589Z" fill="#ACA7E9"/>
<path d="M97.865 195.833H90.7512L87.1943 189.735L90.7512 183.637H97.865L101.422 189.735L97.865 195.833Z" fill="#ACA7E9"/>
<path d="M81.9103 106.91H80.2843L79.3696 105.487L80.2843 104.065H81.9103L82.7233 105.487L81.9103 106.91Z" fill="#ACA7E9"/>
<path d="M84.5525 126.93H77.5403L73.9834 120.833L77.5403 114.735H84.5525L88.1094 120.833L84.5525 126.93Z" fill="#ACA7E9"/>
<path d="M84.5525 142.276H77.5403L73.9834 136.178L77.5403 129.979H84.5525L88.1094 136.178L84.5525 142.276Z" fill="#ACA7E9"/>
<path d="M84.5525 157.621H77.5403L73.9834 151.422L77.5403 145.325H84.5525L88.1094 151.422L84.5525 157.621Z" fill="#ACA7E9"/>
<path d="M84.5525 172.865H77.5403L73.9834 166.768L77.5403 160.67H84.5525L88.1094 166.768L84.5525 172.865Z" fill="#ACA7E9"/>
<path d="M84.5525 188.211H77.5403L73.9834 182.113L77.5403 175.914H84.5525L88.1094 182.113L84.5525 188.211Z" fill="#ACA7E9"/>
<path d="M84.5525 203.556H77.5403L73.9834 197.357L77.5403 191.259H84.5525L88.1094 197.357L84.5525 203.556Z" fill="#ACA7E9"/>
<path d="M84.5525 218.8H77.5403L73.9834 212.702L77.5403 206.605H84.5525L88.1094 212.702L84.5525 218.8Z" fill="#ACA7E9"/>
<path d="M70.8328 118.394H64.7352L61.7881 113.211L64.7352 107.926H70.8328L73.7799 113.211L70.8328 118.394Z" fill="#ACA7E9"/>
<path d="M71.3416 134.654H64.2278L60.6709 128.455L64.2278 122.357H71.3416L74.8985 128.455L71.3416 134.654Z" fill="#ACA7E9"/>
<path d="M71.3416 149.898H64.2278L60.6709 143.8L64.2278 137.703H71.3416L74.8985 143.8L71.3416 149.898Z" fill="#ACA7E9"/>
<path d="M71.3416 165.243H64.2278L60.6709 159.146L64.2278 152.947H71.3416L74.8985 159.146L71.3416 165.243Z" fill="#ACA7E9"/>
<path d="M71.3416 180.589H64.2278L60.6709 174.39L64.2278 168.292H71.3416L74.8985 174.39L71.3416 180.589Z" fill="#ACA7E9"/>
<path d="M71.3416 195.833H64.2278L60.6709 189.735L64.2278 183.637H71.3416L74.8985 189.735L71.3416 195.833Z" fill="#ACA7E9"/>
<path d="M71.2394 211.076H64.3289L60.772 205.08L64.3289 198.983H71.2394L74.7963 205.08L71.2394 211.076Z" fill="#ACA7E9"/>
<path d="M71.0363 226.015H64.5323L61.2803 220.426L64.5323 214.735H71.0363L74.2884 220.426L71.0363 226.015Z" fill="#ACA7E9"/>
<path d="M58.0285 126.93H51.0164L47.4595 120.833L51.0164 114.735H58.0285L61.5854 120.833L58.0285 126.93Z" fill="#ACA7E9"/>
<path d="M57.6215 141.564H51.4224L48.272 136.178L51.4224 130.792H57.6215L60.7719 136.178L57.6215 141.564Z" fill="#ACA7E9"/>
<path d="M58.0285 157.621H51.0164L47.4595 151.422L51.0164 145.325H58.0285L61.5854 151.422L58.0285 157.621Z" fill="#ACA7E9"/>
<path d="M58.0285 172.865H51.0164L47.4595 166.768L51.0164 160.67H58.0285L61.5854 166.768L58.0285 172.865Z" fill="#ACA7E9"/>
<path d="M58.0285 188.211H51.0164L47.4595 182.113L51.0164 175.914H58.0285L61.5854 182.113L58.0285 188.211Z" fill="#ACA7E9"/>
<path d="M58.0285 203.556H51.0164L47.4595 197.357L51.0164 191.259H58.0285L61.5854 197.357L58.0285 203.556Z" fill="#ACA7E9"/>
<path d="M58.0285 218.8H51.0164L47.4595 212.702L51.0164 206.605H58.0285L61.5854 212.702L58.0285 218.8Z" fill="#ACA7E9"/>
<path d="M41.8698 114.227H40.6503L40.0405 113.211L40.6503 112.093H41.8698L42.4795 113.211L41.8698 114.227Z" fill="#ACA7E9"/>
<path d="M42.8858 131.3H39.6338L38.0078 128.455L39.6338 125.609H42.8858L44.6135 128.455L42.8858 131.3Z" fill="#ACA7E9"/>
<path d="M44.7149 149.796H37.8044L34.3491 143.8L37.8044 137.804H44.7149L48.2718 143.8L44.7149 149.796Z" fill="#ACA7E9"/>
<path d="M44.0042 163.922H38.5164L35.6709 159.146L38.5164 154.268H44.0042L46.8497 159.146L44.0042 163.922Z" fill="#ACA7E9"/>
<path d="M44.8172 180.589H37.7034L34.1465 174.39L37.7034 168.292H44.8172L48.3741 174.39L44.8172 180.589Z" fill="#ACA7E9"/>
<path d="M44.8172 195.833H37.7034L34.1465 189.735L37.7034 183.637H44.8172L48.3741 189.735L44.8172 195.833Z" fill="#ACA7E9"/>
<path d="M44.8172 211.178H37.7034L34.1465 205.08L37.7034 198.983H44.8172L48.3741 205.08L44.8172 211.178Z" fill="#ACA7E9"/>
<path d="M44.8171 226.523H37.7033L34.248 220.426L37.7033 214.227H44.8171L48.2724 220.426L44.8171 226.523Z" fill="#ACA7E9"/>
<path d="M29.1662 138.109H26.8288L25.7109 136.178L26.8288 134.146H29.1662L30.2841 136.178L29.1662 138.109Z" fill="#ACA7E9"/>
<path d="M31.5041 157.621H24.492L20.9351 151.422L24.492 145.325H31.5041L35.061 151.422L31.5041 157.621Z" fill="#ACA7E9"/>
<path d="M28.5567 167.784H27.4389L26.8291 166.768L27.4389 165.751H28.5567L29.1665 166.768L28.5567 167.784Z" fill="#ACA7E9"/>
<path d="M31.5041 188.211H24.492L20.9351 182.113L24.492 175.914H31.5041L35.061 182.113L31.5041 188.211Z" fill="#ACA7E9"/>
<path d="M31.5041 203.556H24.492L20.9351 197.357L24.492 191.259H31.5041L35.061 197.357L31.5041 203.556Z" fill="#ACA7E9"/>
<path d="M29.5728 215.446H26.4224L24.7964 212.702L26.4224 209.958H29.5728L31.1988 212.702L29.5728 215.446Z" fill="#ACA7E9"/>
<path d="M29.9797 231.401H26.0163L24.0854 228.048L26.0163 224.694H29.9797L31.9106 228.048L29.9797 231.401Z" fill="#ACA7E9"/>
<path d="M30.7923 248.271H25.2029L22.3574 243.393L25.2029 238.515H30.7923L33.6379 243.393L30.7923 248.271Z" fill="#ACA7E9"/>
<path d="M16.9715 147.662H12.4999L10.2642 143.8L12.4999 139.938H16.9715L19.2072 143.8L16.9715 147.662Z" fill="#ACA7E9"/>
<path d="M17.4798 179.268H11.992L9.14648 174.39L11.992 169.613H17.4798L20.3253 174.39L17.4798 179.268Z" fill="#ACA7E9"/>
<path d="M18.2928 195.833H11.179L7.62207 189.735L11.179 183.637H18.2928L21.8497 189.735L18.2928 195.833Z" fill="#ACA7E9"/>
<path d="M17.4798 209.857H11.992L9.14648 205.08L11.992 200.304H17.4798L20.3253 205.08L17.4798 209.857Z" fill="#ACA7E9"/>
<path d="M15.5484 237.093H13.9224L13.1094 235.67L13.9224 234.349H15.5484L16.3614 235.67L15.5484 237.093Z" fill="#ACA7E9"/>
<path d="M16.8697 254.674H12.6014L10.4673 251.015L12.6014 247.357H16.8697L19.0038 251.015L16.8697 254.674Z" fill="#ACA7E9"/>
<path d="M2.23576 183.333H0.711379L0 182.113L0.711379 180.792H2.23576L2.94714 182.113L2.23576 183.333Z" fill="#EBECF7"/>
<path d="M2.23576 244.613H0.711379L0 243.393L0.711379 242.072H2.23576L2.94714 243.393L2.23576 244.613Z" fill="#EBECF7"/>
<path d="M2.13407 259.857H0.812942L0.101562 258.637L0.812942 257.519H2.13407L2.84545 258.637L2.13407 259.857Z" fill="#EBECF7"/>
</svg>
