<svg width="24" height="24" viewBox="0 0 24 24" fill="none" xmlns="http://www.w3.org/2000/svg">
<path d="M12.0105 5.88533C11.7995 5.88533 11.5907 5.8961 11.3851 5.91716C11.1794 5.93823 10.9766 5.96945 10.7772 6.01043C10.5778 6.05141 10.382 6.10215 10.1901 6.16205L9.62682 6.36887L9.09054 6.62783L8.58447 6.93576L8.11162 7.28943L7.67528 7.68578L7.27855 8.12173L6.92449 8.59405L6.61617 9.09965L6.35706 9.63532C6.27918 9.81854 6.2099 10.0064 6.14993 10.1981C6.08996 10.3899 6.03921 10.5856 5.99816 10.7848C5.9571 10.9839 5.92588 11.1865 5.90474 11.392C5.8836 11.5975 5.87299 11.8061 5.87299 12.0169C5.87299 12.2277 5.88375 12.4362 5.90474 12.6417C5.92561 12.8456 5.95679 13.0483 5.99816 13.2491C6.03921 13.449 6.08996 13.644 6.14993 13.8357C6.2099 14.0275 6.2791 14.2152 6.35706 14.3985L6.61617 14.9342L6.92449 15.4397L7.27855 15.9121L7.67528 16.3481L8.11162 16.7444L8.58447 17.0981L9.09054 17.406L9.62682 17.665L10.1901 17.8718L10.7772 18.0234C10.9781 18.0648 11.181 18.0959 11.3851 18.1168C11.5929 18.138 11.8016 18.1486 12.0105 18.1485C12.2216 18.1485 12.4303 18.1378 12.6359 18.1168C12.84 18.0959 13.0429 18.0648 13.2438 18.0234L13.831 17.8718L14.3943 17.665L14.9305 17.406L15.4366 17.0981L15.9095 16.7444L16.3459 16.3481L16.7426 15.9121L17.0967 15.4397L17.405 14.9342L17.6641 14.3985L17.8712 13.8357C17.9312 13.644 17.9819 13.4482 18.023 13.2491L18.1164 12.6417C18.1375 12.4361 18.1482 12.2276 18.1482 12.0168C18.1482 11.806 18.1375 11.5975 18.1164 11.392C18.0955 11.1881 18.0644 10.9854 18.023 10.7847C17.9819 10.5848 17.9312 10.3899 17.8712 10.1981L17.6641 9.63524L17.405 9.09958L17.0967 8.59397L16.7426 8.12166L16.3459 7.68571L15.9095 7.28936L15.4366 6.93568L14.9305 6.62775L14.3943 6.36879L13.831 6.16197L13.2438 6.01035L12.6359 5.91709C12.4281 5.89586 12.2194 5.88524 12.0105 5.88525V5.88533ZM12.0105 8.00171C12.1501 8.00171 12.2878 8.00863 12.4234 8.02232L12.8232 8.08283L13.2094 8.18124L13.5793 8.31556L13.9309 8.48394L14.2615 8.68424L14.5706 8.91466L14.8555 9.17316L15.1142 9.45779L15.3449 9.76657L15.5454 10.0976L15.7138 10.449C15.7644 10.5693 15.8093 10.6925 15.8483 10.8185C15.8874 10.9445 15.9202 11.0733 15.9467 11.2045C15.9733 11.3357 15.9929 11.4691 16.0073 11.6047L16.0279 12.0173C16.0279 12.1567 16.0209 12.2943 16.0073 12.4299C15.9936 12.5655 15.9734 12.699 15.9467 12.8301C15.9201 12.9612 15.8872 13.09 15.8483 13.2161L15.7138 13.5856L15.5454 13.937L15.3449 14.268L15.1142 14.5768L14.8555 14.8615L14.5706 15.12L14.2615 15.3504L13.9309 15.5507L13.5793 15.7191L13.2094 15.8534L12.8232 15.9518L12.4234 16.0122C12.2862 16.026 12.1484 16.0329 12.0105 16.0328C11.8725 16.0329 11.7347 16.026 11.5974 16.0122L11.1976 15.9518C11.0664 15.9252 10.9375 15.8923 10.8113 15.8534L10.4415 15.7191L10.0899 15.5507L9.7593 15.3504L9.45021 15.12L9.16527 14.8615L8.90655 14.5768L8.67589 14.268L8.47537 13.937L8.30699 13.5856L8.17243 13.2161L8.07402 12.8301L8.01351 12.4299C7.99975 12.2928 7.99287 12.1551 7.9929 12.0173C7.99287 11.8795 7.99975 11.7418 8.01351 11.6047C8.02712 11.4691 8.04734 11.3356 8.07402 11.2045C8.10043 11.0743 8.1333 10.9455 8.17251 10.8186L8.30706 10.4491L8.47544 10.0977L8.67596 9.76665L8.90662 9.45787L9.16535 9.17323L9.45029 8.91474L9.75937 8.68431L10.09 8.48402L10.4416 8.31564C10.5626 8.26482 10.6861 8.21999 10.8115 8.18132L11.1978 8.0829C11.329 8.0563 11.4626 8.036 11.5976 8.02239C11.7348 8.00864 11.8727 8.00177 12.0106 8.00179L12.0105 8.00171Z" fill="#474E50"/>
<path d="M18.397 4.14111C18.3483 4.14112 18.2996 4.14359 18.2511 4.14849C18.2026 4.15339 18.1544 4.16073 18.1066 4.17048C18.0589 4.18022 18.0116 4.19236 17.9651 4.20685C17.9185 4.22135 17.8727 4.23818 17.8278 4.25729C17.783 4.27642 17.7391 4.29779 17.6963 4.32134C17.6535 4.34483 17.612 4.37047 17.5717 4.39815C17.5315 4.42585 17.4927 4.45557 17.4554 4.48718C17.4181 4.51876 17.3825 4.5522 17.3485 4.58736C17.3146 4.62255 17.2824 4.65943 17.2521 4.69785C17.2218 4.73628 17.1935 4.77621 17.1672 4.81749C17.1408 4.85873 17.1166 4.90128 17.0945 4.94496C17.0724 4.98868 17.0524 5.03348 17.0348 5.07921C17.0171 5.12492 17.0017 5.1715 16.9887 5.21876C16.9757 5.26601 16.965 5.3139 16.9567 5.36223C16.9484 5.41055 16.9426 5.45925 16.9391 5.50816C16.9367 5.5428 16.9354 5.57753 16.9354 5.61226C16.9354 5.66133 16.9379 5.71037 16.9427 5.75919C16.9476 5.80799 16.9549 5.85652 16.9646 5.90459C16.9742 5.95265 16.9863 6.0002 17.0007 6.04706C17.0151 6.09392 17.0318 6.14004 17.0508 6.18522C17.0698 6.23042 17.091 6.27463 17.1144 6.3177C17.1378 6.36075 17.1633 6.40261 17.1908 6.4431C17.2183 6.48357 17.2478 6.52262 17.2792 6.56012C17.3106 6.59765 17.3438 6.63358 17.3788 6.66776C17.4137 6.70193 17.4504 6.73431 17.4885 6.76479C17.5267 6.7953 17.5664 6.82386 17.6074 6.85037C17.6484 6.87688 17.6908 6.90131 17.7342 6.92356C17.7776 6.94583 17.8221 6.9659 17.8675 6.98369C17.9129 7.00146 17.9592 7.01693 18.0061 7.03005C18.0531 7.04315 18.1007 7.05388 18.1487 7.06219C18.1967 7.07054 18.2451 7.07647 18.2937 7.07995C18.3281 7.08241 18.3626 7.08364 18.3971 7.08364C18.4458 7.08366 18.4946 7.08122 18.543 7.07634C18.5915 7.07144 18.6397 7.0641 18.6875 7.05435C18.7353 7.04461 18.7825 7.03247 18.8291 7.01798C18.8756 7.00348 18.9214 6.98665 18.9663 6.96754C19.0112 6.94844 19.0551 6.92709 19.0979 6.90357C19.1406 6.88005 19.1822 6.85439 19.2224 6.82669C19.2626 6.79901 19.3015 6.76932 19.3387 6.73773C19.376 6.70612 19.4117 6.67266 19.4456 6.63747C19.4796 6.60228 19.5117 6.56541 19.542 6.52698C19.5723 6.48856 19.6007 6.44863 19.627 6.40735C19.6533 6.36608 19.6776 6.3235 19.6996 6.27979C19.7218 6.23607 19.7417 6.19127 19.7594 6.14555C19.777 6.09983 19.7924 6.05326 19.8054 6.006C19.8185 5.95874 19.8291 5.91086 19.8374 5.86253C19.8457 5.81421 19.8516 5.76551 19.855 5.7166C19.8575 5.68195 19.8587 5.64723 19.8587 5.61249C19.8587 5.56345 19.8563 5.51444 19.8514 5.46564C19.8466 5.41684 19.8393 5.36831 19.8296 5.32025C19.8199 5.27218 19.8078 5.22463 19.7934 5.17778C19.779 5.13091 19.7623 5.0848 19.7433 5.03961C19.7243 4.99441 19.7031 4.9502 19.6797 4.90713C19.6564 4.86408 19.6309 4.82223 19.6034 4.78173C19.5758 4.74124 19.5463 4.70216 19.5149 4.66464C19.4835 4.62711 19.4503 4.59118 19.4154 4.55699C19.3804 4.52283 19.3438 4.49044 19.3056 4.45996C19.2674 4.42949 19.2277 4.40095 19.1867 4.37446C19.1457 4.34795 19.1034 4.32352 19.0599 4.30127C19.0165 4.279 18.972 4.25893 18.9266 4.24114C18.8812 4.22337 18.835 4.2079 18.788 4.19478C18.7411 4.18166 18.6935 4.17091 18.6455 4.16257C18.5974 4.15424 18.549 4.14834 18.5004 4.14488C18.466 4.14242 18.4315 4.14119 18.397 4.14119V4.14111Z" fill="#474E50"/>
<path d="M10.8467 0.021708C10.1791 0.0206316 9.58341 0.0233991 9.04828 0.030934L7.61358 0.0693773C7.18855 0.0878301 6.81303 0.111894 6.47596 0.143033C6.30742 0.158564 6.14842 0.175941 5.99773 0.195085C5.85432 0.21316 5.71131 0.234207 5.56878 0.25821C5.43307 0.281276 5.30429 0.306186 5.18081 0.33325C5.05733 0.360314 4.93938 0.389532 4.82559 0.420902C4.71435 0.451577 4.60397 0.485318 4.49459 0.522086C4.38741 0.558222 4.28285 0.596512 4.17959 0.637416C3.97307 0.719223 3.77163 0.811024 3.56419 0.913898C3.40457 0.993091 3.2571 1.07328 3.11701 1.15817C2.97693 1.24305 2.84422 1.3327 2.71428 1.43035C2.58047 1.5314 2.45149 1.63869 2.32777 1.75189C2.19845 1.86968 2.06636 1.99923 1.92912 2.14401C1.75666 2.32492 1.60681 2.49361 1.47379 2.65915C1.40729 2.74188 1.34501 2.82369 1.28634 2.90595C1.22833 2.98703 1.17286 3.0699 1.12004 3.15445C1.06775 3.23826 1.01824 3.3236 0.970877 3.41141C0.922776 3.50072 0.877317 3.59144 0.834557 3.68343C0.74706 3.87134 0.665406 4.07371 0.583907 4.2996C0.523444 4.4666 0.469303 4.63582 0.421599 4.8069C0.37293 4.98174 0.329642 5.16465 0.291045 5.36248C0.252448 5.56031 0.218772 5.77306 0.18917 6.00833C0.157272 6.26623 0.131789 6.52487 0.112745 6.78404C0.0912168 7.06898 0.0733791 7.38252 0.0587707 7.73151L0.0241718 8.89188L0.00556515 10.3064L0.000183105 12.0161L0.0159449 14.5024L0.0651523 16.3861L0.103057 17.1219L0.15042 17.7316C0.165602 17.896 0.184598 18.0599 0.207393 18.2234C0.228152 18.3685 0.250449 18.4956 0.274438 18.6055C0.323112 18.829 0.380669 19.0505 0.446971 19.2695C0.510455 19.4791 0.583053 19.6859 0.664561 19.8892C0.744676 20.0883 0.832327 20.2804 0.927667 20.4652C1.02301 20.6501 1.12603 20.8277 1.23675 20.9983C1.34747 21.1689 1.46587 21.3325 1.59227 21.4891C1.71853 21.6458 1.85283 21.7957 1.99462 21.9385C2.13663 22.0815 2.28641 22.2176 2.44426 22.3469C2.60397 22.4777 2.76999 22.6006 2.94171 22.7152C3.1011 22.8217 3.25879 22.9193 3.41764 23.0089C3.57649 23.0985 3.73672 23.1797 3.90141 23.2536C4.0661 23.3275 4.23495 23.394 4.41132 23.4538C4.5877 23.5136 4.77146 23.5668 4.96568 23.6141C5.15989 23.6613 5.36549 23.7027 5.58308 23.7388C5.80066 23.775 6.03325 23.806 6.28174 23.8326C6.53024 23.8593 6.79535 23.8814 7.08021 23.8998C7.36508 23.9183 7.66955 23.9331 7.9967 23.9449C8.50208 23.9632 9.2671 23.9739 10.1493 23.978L13.0052 23.9722L15.7097 23.9343L16.7379 23.9054L17.4079 23.8709C17.5516 23.8592 17.6923 23.8454 17.8281 23.8292C17.9639 23.813 18.0978 23.7944 18.2282 23.7734C18.3586 23.7523 18.4861 23.7288 18.6114 23.7026C18.7352 23.6768 18.8583 23.6481 18.9807 23.6163C19.1019 23.5855 19.2214 23.5505 19.3396 23.5134C19.4579 23.4763 19.5749 23.4361 19.6912 23.3931C19.8082 23.3497 19.9242 23.3036 20.0389 23.2546C20.1545 23.2054 20.2699 23.1528 20.3857 23.097C20.5635 23.0113 20.7067 22.9399 20.8324 22.8702C20.9506 22.8053 21.0645 22.7328 21.1733 22.653C21.2806 22.574 21.3874 22.4841 21.5104 22.3707C21.6334 22.2574 21.7728 22.1208 21.9454 21.9482C22.0971 21.7965 22.225 21.6647 22.3354 21.5449C22.4457 21.425 22.5387 21.3171 22.6202 21.2132C22.6979 21.1146 22.7702 21.0118 22.837 20.9055C22.9021 20.8017 22.9621 20.6939 23.0232 20.5743C23.1152 20.3944 23.197 20.2278 23.2702 20.067C23.3414 19.9121 23.4064 19.7544 23.4651 19.5943C23.5229 19.4355 23.5729 19.274 23.6151 19.1103C23.6584 18.942 23.6958 18.7642 23.7281 18.5692C23.7604 18.3742 23.7877 18.162 23.8114 17.9251C23.835 17.6881 23.8552 17.4262 23.8729 17.132L23.9198 16.1442L23.9601 14.9158L23.9888 13.5472L23.9999 12.1162L23.9742 9.30561L23.9398 8.04675L23.8929 6.96587L23.8345 6.1232C23.8133 5.88869 23.7904 5.70401 23.7661 5.57915C23.7392 5.44118 23.7091 5.30385 23.676 5.16727C23.6437 5.03436 23.6082 4.90226 23.5695 4.77107C23.5318 4.64326 23.4908 4.51643 23.4466 4.39071C23.4029 4.26654 23.3567 4.14498 23.3082 4.02604C23.2598 3.90709 23.2073 3.79092 23.1528 3.6772C23.0982 3.56349 23.041 3.45254 22.9809 3.34413C22.9209 3.23572 22.8583 3.13 22.7928 3.0269C22.7274 2.92379 22.6593 2.8233 22.5883 2.7255C22.5178 2.62801 22.4442 2.53276 22.3677 2.43987C22.2915 2.34749 22.2125 2.25754 22.1307 2.17015C22.049 2.08287 21.9646 1.9982 21.8775 1.91627C21.7904 1.83431 21.7007 1.75496 21.6081 1.67823C21.5152 1.60124 21.4199 1.52717 21.3224 1.4561C21.2238 1.38432 21.1231 1.31555 21.0204 1.24989C20.9162 1.18331 20.8101 1.11982 20.7022 1.05952C20.5924 0.998213 20.4809 0.940062 20.3678 0.885143C20.18 0.793879 20.0064 0.712918 19.8359 0.641106C19.6684 0.569837 19.4976 0.506539 19.324 0.451426C19.1495 0.396452 18.9678 0.349321 18.7679 0.308648C18.568 0.267975 18.35 0.234068 18.1033 0.205236C17.8566 0.176403 17.5811 0.153107 17.266 0.133732C16.9509 0.114356 16.5965 0.0991316 16.1919 0.0868298L14.8167 0.0560756L13.0762 0.035547L10.8474 0.0218605L10.8467 0.021708ZM12.0042 2.13624L15.2183 2.15454L16.4308 2.17792C16.7647 2.1873 17.0195 2.19829 17.1689 2.21098C17.3634 2.22735 17.5487 2.24788 17.7259 2.27249C17.896 2.29597 18.0653 2.32518 18.2334 2.36006C18.3948 2.39389 18.5489 2.43233 18.6962 2.4757C18.8436 2.51906 18.9844 2.56765 19.1195 2.6214C19.2546 2.67514 19.3838 2.73427 19.5081 2.79901C19.6314 2.86326 19.7513 2.93396 19.8672 3.01083C19.9825 3.08733 20.0937 3.16975 20.2016 3.25856C20.3096 3.34736 20.4142 3.44254 20.5164 3.54434C20.6243 3.65175 20.7237 3.76116 20.8155 3.87403C20.9069 3.9862 20.9914 4.10377 21.0687 4.2261C21.1468 4.35017 21.2172 4.47894 21.2795 4.61168C21.3431 4.747 21.4003 4.89001 21.4517 5.04202C21.5031 5.19402 21.5488 5.35556 21.5893 5.52817C21.6318 5.71117 21.6673 5.8957 21.6959 6.08137C21.7267 6.2782 21.753 6.4881 21.7752 6.71284C21.7975 6.93758 21.816 7.17724 21.8312 7.43365C21.8434 7.63932 21.854 7.91073 21.863 8.23127L21.8855 9.32422L21.9027 12.0014L21.8831 14.6761L21.8596 15.7659L21.8272 16.5585C21.8048 16.9296 21.7811 17.2416 21.7528 17.5132C21.7386 17.649 21.7232 17.7746 21.7061 17.8925C21.6901 18.0038 21.6712 18.1147 21.6493 18.2251C21.6293 18.3257 21.6061 18.4257 21.5797 18.5249C21.5545 18.6196 21.526 18.7134 21.4945 18.8061C21.4627 18.8993 21.4281 18.9915 21.3907 19.0826C21.3513 19.1788 21.3096 19.2741 21.2658 19.3684C21.2268 19.4526 21.1858 19.5345 21.1425 19.6142C21.0996 19.6931 21.0541 19.7705 21.0059 19.8464C20.9583 19.9215 20.9083 19.9945 20.856 20.0651C20.804 20.1355 20.7495 20.2041 20.6925 20.2706C20.6358 20.3368 20.5766 20.4009 20.5152 20.4628C20.4536 20.5247 20.3898 20.5844 20.3237 20.6421C20.2576 20.6997 20.189 20.7551 20.118 20.8085C20.0471 20.8618 19.9736 20.913 19.8978 20.9621C19.8219 21.0111 19.7436 21.0582 19.6628 21.1031C19.582 21.148 19.4986 21.1909 19.4129 21.2317C19.3257 21.2732 19.2373 21.312 19.1477 21.3481C19.0552 21.3855 18.9616 21.4202 18.8671 21.4523C18.6749 21.5178 18.4721 21.5753 18.2587 21.6249C18.0362 21.6763 17.8117 21.7183 17.5858 21.7509C17.4989 21.7635 17.2992 21.7755 17.0132 21.7865L15.9233 21.8168L12.8332 21.857L9.59887 21.862L8.3287 21.8485L7.50394 21.8228L6.89576 21.7801C6.70693 21.7642 6.53132 21.7465 6.36678 21.7264C6.20224 21.7063 6.04901 21.684 5.90485 21.6588C5.76823 21.6351 5.63245 21.6069 5.49773 21.5742C5.37489 21.5443 5.25331 21.5095 5.13329 21.4698C5.01757 21.4313 4.90693 21.389 4.79929 21.3425C4.69165 21.296 4.58709 21.245 4.48352 21.1894C4.37995 21.1337 4.27746 21.0733 4.17382 21.0074C4.09563 20.9577 4.02005 20.9074 3.94731 20.8541C3.87458 20.8008 3.8043 20.7477 3.73664 20.6921C3.66898 20.6364 3.60401 20.579 3.54135 20.52C3.4791 20.4612 3.41899 20.4002 3.36113 20.3371C3.30346 20.2743 3.24834 20.2095 3.19544 20.1425C3.14233 20.0752 3.09173 20.0059 3.04374 19.9349C2.99503 19.8628 2.94895 19.7889 2.90558 19.7134C2.86175 19.6373 2.82008 19.5586 2.78048 19.4774C2.74022 19.3947 2.70265 19.3106 2.66784 19.2254C2.63247 19.1387 2.59895 19.0492 2.56743 18.9568C2.50438 18.7719 2.44902 18.5751 2.40089 18.3652C2.35276 18.1553 2.3117 17.9323 2.27695 17.6947C2.2422 17.4571 2.21421 17.2052 2.19191 16.9375C2.17546 16.7403 2.16239 16.4332 2.15239 16.0456L2.13148 14.6675L2.13917 11.1541L2.19968 7.79694L2.24581 6.61412L2.27195 6.22315C2.28103 6.11874 2.29041 6.04139 2.30002 5.99495C2.33169 5.84218 2.3636 5.70001 2.39659 5.56692C2.4274 5.44137 2.46168 5.31668 2.49938 5.19302C2.53521 5.07631 2.57296 4.96698 2.61333 4.86341C2.65225 4.76308 2.69563 4.66455 2.74334 4.56809C2.78994 4.47429 2.83999 4.38448 2.89435 4.29706C2.94871 4.20964 3.00737 4.12484 3.07134 4.04049C3.13531 3.95615 3.2042 3.87288 3.27917 3.78846C3.35413 3.70404 3.43509 3.61877 3.5229 3.53089C3.62523 3.42797 3.73178 3.32935 3.84229 3.23526C3.94662 3.14649 4.05543 3.06311 4.16828 2.98545C4.27923 2.90857 4.39302 2.84014 4.51151 2.77725C4.62999 2.71435 4.75316 2.65753 4.88272 2.6064C5.01227 2.55527 5.14836 2.50953 5.29252 2.46801C5.44397 2.42552 5.59711 2.38928 5.75153 2.35937C5.91392 2.32754 6.08638 2.29978 6.27052 2.27556C6.45466 2.25134 6.65057 2.23043 6.86001 2.21228C7.00609 2.19967 7.25782 2.18845 7.58928 2.17899L8.79563 2.15516L12.0047 2.13555L12.0042 2.13624Z" fill="#474E50"/>
</svg>
