<svg width="47" height="55" viewBox="0 0 47 55" fill="none" xmlns="http://www.w3.org/2000/svg">
<path d="M5.02286 10.4344L18.2907 2.82072C21.3399 1.07097 25.0839 1.05089 28.1517 2.76784L41.8838 10.4533C45.0431 12.2215 47 15.5592 47 19.1796V34.7165C47 38.3145 45.067 41.6353 41.9382 43.4121L28.2068 51.2102C25.1108 52.9684 21.3135 52.9479 18.2367 51.1563L4.96809 43.4303C1.89208 41.6392 0 38.348 0 34.7886V19.1078C0 15.5257 1.91597 12.2172 5.02286 10.4344Z" fill="#604AF7"/>
<path d="M34.6625 24.415C34.6625 25.9492 34.318 27.33 33.6291 28.5574C32.9401 29.7568 31.948 30.6913 30.6527 31.3608C29.3575 32.0024 27.828 32.3231 26.0642 32.3231H20.1942H18.8H15.275V16.8417H25.8575C28.6961 16.8417 30.8732 17.5111 32.3889 18.8501C33.9047 20.1611 34.6625 22.0161 34.6625 24.415ZM29.702 24.4987C29.702 21.9882 28.2414 20.733 25.3201 20.733H20.1942V28.4737H25.4442C26.7945 28.4737 27.8418 28.139 28.5858 27.4695C29.3299 26.7721 29.702 25.7819 29.702 24.4987Z" fill="url(#paint0_linear_112_311)"/>
<path d="M15.275 17.0375H20.1709V52.0917L15.275 49.4479V17.0375Z" fill="#E5E5E5"/>
<defs>
<linearGradient id="paint0_linear_112_311" x1="15.275" y1="24.675" x2="34.6625" y2="24.675" gradientUnits="userSpaceOnUse">
<stop stop-color="#E5E5E5"/>
<stop offset="0.380208" stop-color="#E5E5E5"/>
<stop offset="1" stop-color="#E5E5E5" stop-opacity="0.6"/>
</linearGradient>
</defs>
</svg>
