<svg width="34" height="34" viewBox="0 0 34 34" fill="none" xmlns="http://www.w3.org/2000/svg">
<circle cx="16.95" cy="16.95" r="16.95" fill="#604AF7"/>
<path d="M26.4632 9.73174V11.3543L7.68164 20.9247V19.3013L8.36422 18.9533C8.61827 18.8238 8.82837 18.6221 8.96806 18.3736C9.10776 18.125 9.17081 17.8407 9.1493 17.5563C9.13394 17.3556 9.12625 17.154 9.12625 16.9516C9.1261 15.4864 9.53107 14.0497 10.2964 12.8003C11.0617 11.5508 12.1576 10.5373 13.4629 9.87177C14.7682 9.2062 16.2321 8.9145 17.6928 9.0289C19.1536 9.1433 20.5542 9.65934 21.74 10.52L20.2525 11.2781C19.263 10.7254 18.1463 10.4409 17.0129 10.4526C15.8796 10.4644 14.7691 10.772 13.7912 11.345C12.8134 11.918 12.0022 12.7366 11.438 13.7196C10.8739 14.7026 10.5763 15.8159 10.5748 16.9492C10.575 17.2333 10.5935 17.517 10.6305 17.7987L26.4632 9.73174Z" fill="#010010"/>
<path d="M11.6372 20.5274L26.4632 12.9786V14.5964L25.7798 14.9445C25.526 15.0741 25.3161 15.2759 25.1766 15.5244C25.037 15.773 24.9741 16.0572 24.9955 16.3414C25.0106 16.5432 25.0186 16.7475 25.0186 16.9517C25.0181 18.4167 24.6127 19.853 23.847 21.102C23.0814 22.351 21.9853 23.364 20.68 24.0291C19.3747 24.6942 17.9109 24.9856 16.4504 24.8709C14.9899 24.7562 13.5896 24.24 12.404 23.3793L13.8073 22.6642L13.8868 22.6221C14.8765 23.177 15.9942 23.4634 17.1288 23.4529C18.2634 23.4424 19.3756 23.1352 20.3548 22.562C21.3341 21.9888 22.1464 21.1695 22.7111 20.1853C23.2758 19.2011 23.5733 18.0863 23.574 16.9517C23.5739 16.6658 23.5553 16.3802 23.5184 16.0967L7.68164 24.166V22.5442L11.6372 20.5274Z" fill="#010010"/>
</svg>
