<svg width="45" height="45" viewBox="0 0 45 45" fill="none" xmlns="http://www.w3.org/2000/svg">
<circle cx="22.5" cy="22.5" r="22.5" fill="#F178B6"/>
<path d="M35.1266 12.9183V15.0722L10.1953 27.7762V25.6213L11.1014 25.1593C11.4386 24.9874 11.7175 24.7197 11.903 24.3897C12.0884 24.0598 12.1721 23.6823 12.1435 23.3049C12.1231 23.0384 12.1129 22.7709 12.1129 22.5022C12.1127 20.5573 12.6503 18.6501 13.6662 16.9916C14.6821 15.333 16.1368 13.9877 17.8695 13.1042C19.6022 12.2207 21.5455 11.8335 23.4845 11.9853C25.4235 12.1372 27.2828 12.8222 28.8569 13.9647L26.8823 14.9709C25.5688 14.2374 24.0864 13.8597 22.582 13.8752C21.0776 13.8908 19.6034 14.2992 18.3054 15.0598C17.0074 15.8205 15.9306 16.907 15.1817 18.2119C14.4328 19.5167 14.0378 20.9946 14.0358 22.4991C14.036 22.8761 14.0607 23.2528 14.1097 23.6266L35.1266 12.9183Z" fill="#010010"/>
<path d="M15.4461 27.2489L35.1266 17.2283V19.3758L34.2195 19.8379C33.8825 20.0099 33.6039 20.2778 33.4187 20.6077C33.2335 20.9376 33.1499 21.3149 33.1784 21.6922C33.1984 21.9601 33.209 22.2312 33.209 22.5023C33.2083 24.447 32.6701 26.3536 31.6538 28.0116C30.6374 29.6695 29.1825 31.0142 27.4498 31.8971C25.7171 32.78 23.774 33.1667 21.8353 33.0145C19.8966 32.8623 18.0377 32.1771 16.464 31.0346L18.3268 30.0852L18.4323 30.0293C19.746 30.766 21.2297 31.1462 22.7358 31.1322C24.242 31.1182 25.7183 30.7106 27.0181 29.9497C28.318 29.1888 29.3963 28.1011 30.1459 26.7947C30.8955 25.4883 31.2904 24.0085 31.2913 22.5023C31.2912 22.1228 31.2666 21.7436 31.2175 21.3673L10.1953 32.0788V29.926L15.4461 27.2489Z" fill="#010010"/>
</svg>
