<svg width="45" height="45" viewBox="0 0 45 45" fill="none" xmlns="http://www.w3.org/2000/svg">
<circle cx="22.5" cy="22.5" r="22.5" fill="white"/>
<path d="M35 28.6667C35 30.1393 33.806 31.3333 32.3333 31.3333H13.6667C12.194 31.3333 11 30.1393 11 28.6667V16.6667C11 15.194 12.194 14 13.6667 14H32.3333C33.806 14 35 15.194 35 16.6667V28.6667Z" fill="#01000D"/>
<path d="M18.9668 22.424L11.4248 29.966C11.4068 29.9847 11.4001 30.008 11.3848 30.0267C11.6114 30.4067 11.9274 30.722 12.3074 30.9493C12.3268 30.934 12.3494 30.9273 12.3674 30.9093L19.9101 23.3667C20.1701 23.106 20.1701 22.6847 19.9101 22.424C19.6488 22.1633 19.2274 22.1633 18.9668 22.424ZM34.6154 30.0267C34.6014 30.008 34.5934 29.9847 34.5754 29.9667L27.0341 22.424C26.7728 22.1633 26.3514 22.1633 26.0908 22.424C25.8301 22.6847 25.8301 23.106 26.0908 23.3667L33.6328 30.9093C33.6501 30.9267 33.6741 30.934 33.6928 30.9493C34.0734 30.7227 34.3888 30.4067 34.6154 30.0267Z" fill="white"/>
<path d="M32.3333 14H13.6667C12.194 14 11 15.194 11 16.6667V17.3533L20.6853 27.0173C21.948 28.2793 24.0107 28.2793 25.2747 27.0173L35 17.3393V16.6667C35 15.194 33.806 14 32.3333 14Z" fill="white"/>
<path d="M32.3329 14H13.6662C12.6075 14 11.7002 14.6227 11.2695 15.5167L21.1135 25.3613C22.1549 26.4027 23.8442 26.4027 24.8849 25.3613L34.7295 15.5167C34.2989 14.6227 33.3922 14 32.3329 14Z" fill="#01000D"/>
</svg>
