<svg width="24" height="18" viewBox="0 0 24 18" fill="none" xmlns="http://www.w3.org/2000/svg">
<path d="M24 14.6667C24 16.1393 22.806 17.3333 21.3333 17.3333H2.66667C1.194 17.3333 0 16.1393 0 14.6667V2.66667C0 1.194 1.194 0 2.66667 0H21.3333C22.806 0 24 1.194 24 2.66667V14.6667Z" fill="#01000D"/>
<path d="M7.96658 8.42402L0.424583 15.966C0.406583 15.9847 0.399916 16.008 0.384583 16.0267C0.611249 16.4067 0.927249 16.722 1.30725 16.9493C1.32658 16.934 1.34925 16.9273 1.36725 16.9093L8.90991 9.36668C9.16991 9.10601 9.16991 8.68468 8.90991 8.42402C8.64858 8.16335 8.22725 8.16335 7.96658 8.42402ZM23.6152 16.0267C23.6012 16.008 23.5932 15.9847 23.5752 15.9667L16.0339 8.42402C15.7726 8.16335 15.3512 8.16335 15.0906 8.42402C14.8299 8.68468 14.8299 9.10601 15.0906 9.36668L22.6326 16.9093C22.6499 16.9267 22.6739 16.934 22.6926 16.9493C23.0732 16.7227 23.3886 16.4067 23.6152 16.0267Z" fill="white"/>
<path d="M21.3333 0H2.66667C1.194 0 0 1.194 0 2.66667V3.35333L9.68533 13.0173C10.948 14.2793 13.0107 14.2793 14.2747 13.0173L24 3.33933V2.66667C24 1.194 22.806 0 21.3333 0Z" fill="white"/>
<path d="M21.3336 0H2.66693C1.60826 0 0.70093 0.622666 0.270264 1.51667L10.1143 11.3613C11.1556 12.4027 12.8449 12.4027 13.8856 11.3613L23.7303 1.51667C23.2996 0.622666 22.3929 0 21.3336 0Z" fill="#01000D"/>
</svg>
