<svg width="934" height="934" viewBox="0 0 934 934" fill="none" xmlns="http://www.w3.org/2000/svg">
<path fill-rule="evenodd" clip-rule="evenodd" d="M4.97446 476.962C2.17104 476.962 -0.0869402 479.288 0.00257173 482.09C8.01584 732.929 213.882 933.816 466.668 933.816C724.534 933.816 933.576 724.774 933.576 466.908C933.576 209.042 724.534 0 466.668 0C270.881 0 103.24 120.507 33.8711 291.395C32.5428 294.667 34.9674 298.221 38.499 298.221V298.221C40.5574 298.221 42.4069 296.96 43.1816 295.053C111.09 127.878 275.113 10 466.668 10C719.011 10 923.576 214.565 923.576 466.908C923.576 719.251 719.011 923.816 466.668 923.816C219.333 923.816 17.8996 727.291 10.0009 481.876C9.91344 479.157 7.69447 476.962 4.97446 476.962V476.962ZM180.496 476.962C177.666 476.962 175.396 479.325 175.542 482.15C183.47 636.066 310.78 758.426 466.668 758.426C627.668 758.426 758.185 627.909 758.185 466.908C758.185 305.907 627.668 175.39 466.668 175.39C372.059 175.39 287.978 220.458 234.719 290.296C232.218 293.577 234.599 298.221 238.725 298.221V298.221C240.324 298.221 241.828 297.465 242.798 296.194C294.236 228.843 375.377 185.39 466.668 185.39C622.146 185.39 748.185 311.43 748.185 466.908C748.185 622.386 622.146 748.426 466.668 748.426C316.187 748.426 193.282 630.357 185.537 481.805C185.397 479.113 183.19 476.962 180.496 476.962V476.962Z" fill="#F178B6"/>
<path fill-rule="evenodd" clip-rule="evenodd" d="M466.5 605C542.439 605 604 543.439 604 467.5C604 391.561 542.439 330 466.5 330C390.561 330 329 391.561 329 467.5C329 543.439 390.561 605 466.5 605ZM456.071 409.514L421.143 429.298C414.875 432.849 411 439.496 411 446.701V486.927C411 494.086 414.827 500.699 421.034 504.267L455.963 524.343C462.068 527.851 469.567 527.892 475.709 524.449L511.78 504.229C518.091 500.691 522 494.019 522 486.783V446.844C522 439.563 518.044 432.858 511.671 429.337L475.599 409.41C469.514 406.048 462.12 406.088 456.071 409.514Z" fill="#F178B6"/>
</svg>
