<svg width="44" height="44" viewBox="0 0 44 44" fill="none" xmlns="http://www.w3.org/2000/svg">
<path fill-rule="evenodd" clip-rule="evenodd" d="M22 44C34.1502 44 44 34.1502 44 22C44 9.84973 34.1502 0 22 0C9.84973 0 0 9.84973 0 22C0 34.1502 9.84973 44 22 44ZM20.3314 12.7223L14.7429 15.8877C13.7399 16.4558 13.12 17.5194 13.12 18.6722V25.1083C13.12 26.2538 13.7323 27.3118 14.7254 27.8827L20.3141 31.0949C21.2909 31.6562 22.4907 31.6627 23.4734 31.1118L29.2448 27.8766C30.2546 27.3106 30.88 26.243 30.88 25.0853V18.695C30.88 17.5301 30.247 16.4573 29.2274 15.894L23.4558 12.7056C22.4822 12.1678 21.2992 12.1741 20.3314 12.7223Z" fill="#F178B6"/>
</svg>
