<svg width="625" height="557" viewBox="0 0 625 557" fill="none" xmlns="http://www.w3.org/2000/svg">
<rect width="372" height="51" rx="11" fill="#604AF7" fill-opacity="0.4"/>
<rect y="73" width="372" height="51" rx="11" fill="#604AF7" fill-opacity="0.35"/>
<rect y="146" width="372" height="51" rx="11" fill="#604AF7" fill-opacity="0.3"/>
<rect y="219" width="372" height="51" rx="11" fill="#604AF7" fill-opacity="0.25"/>
<rect y="292" width="372" height="51" rx="11" fill="#604AF7" fill-opacity="0.2"/>
<rect y="365" width="372" height="51" rx="11" fill="#604AF7" fill-opacity="0.15"/>
<rect y="438" width="372" height="51" rx="11" fill="#604AF7" fill-opacity="0.1"/>
<rect y="511" width="372" height="51" rx="11" fill="#604AF7" fill-opacity="0.05"/>
<rect x="399" width="77" height="51" rx="11" fill="#604AF7" fill-opacity="0.4"/>
<rect x="399" y="73" width="77" height="51" rx="11" fill="#604AF7" fill-opacity="0.35"/>
<rect x="399" y="146" width="77" height="51" rx="11" fill="#604AF7" fill-opacity="0.3"/>
<rect x="399" y="219" width="77" height="51" rx="11" fill="#604AF7" fill-opacity="0.25"/>
<rect x="399" y="292" width="77" height="51" rx="11" fill="#604AF7" fill-opacity="0.2"/>
<rect x="399" y="365" width="77" height="51" rx="11" fill="#604AF7" fill-opacity="0.15"/>
<rect x="399" y="438" width="77" height="51" rx="11" fill="#604AF7" fill-opacity="0.1"/>
<rect x="399" y="511" width="77" height="51" rx="11" fill="#604AF7" fill-opacity="0.05"/>
<rect x="503" width="122" height="51" rx="11" fill="#604AF7" fill-opacity="0.4"/>
<rect x="503" y="73" width="122" height="51" rx="11" fill="#604AF7" fill-opacity="0.35"/>
<rect x="503" y="146" width="122" height="51" rx="11" fill="#604AF7" fill-opacity="0.3"/>
<rect x="503" y="219" width="122" height="51" rx="11" fill="#604AF7" fill-opacity="0.25"/>
<rect x="503" y="292" width="122" height="51" rx="11" fill="#604AF7" fill-opacity="0.2"/>
<rect x="503" y="365" width="122" height="51" rx="11" fill="#604AF7" fill-opacity="0.15"/>
<rect x="503" y="438" width="122" height="51" rx="11" fill="#604AF7" fill-opacity="0.1"/>
<rect x="503" y="511" width="122" height="51" rx="11" fill="#604AF7" fill-opacity="0.05"/>
</svg>
