<svg width="36" height="30" viewBox="0 0 36 30" fill="none" xmlns="http://www.w3.org/2000/svg">
<path d="M30.0422 4.86268L32.9619 9.73881C34.8357 12.8681 34.8571 16.7695 33.0177 19.9192L30.0253 25.043C28.2326 28.1128 24.9449 30 21.3901 30L14.698 30C11.1659 30 7.8958 28.1367 6.09512 25.098L3.05917 19.9748C1.17622 16.7974 1.19804 12.8407 3.11592 9.68421L6.07905 4.80739C7.89272 1.8224 11.1324 -1.087e-06 14.6252 -9.34322e-07L21.4626 -6.35448e-07C24.9785 -4.81767e-07 28.236 1.84629 30.0422 4.86268Z" fill="#604AF7"/>
<path d="M21.4022 11.7037C21.4022 13.7597 19.8696 15.4083 17.9583 15.4083C16.0469 15.4083 14.5143 13.7597 14.5143 11.7037C14.5143 9.64699 16.0469 8 17.9583 8C19.8696 8 21.4022 9.64699 21.4022 11.7037Z" fill="white"/>
<path d="M17.9583 22C15.151 22 12.7538 21.524 12.7538 19.6201C12.7538 17.7155 15.1356 17.2222 17.9583 17.2222C20.7656 17.2222 23.1627 17.6981 23.1627 19.6028C23.1627 21.5067 20.781 22 17.9583 22Z" fill="white"/>
<path d="M22.874 11.7706C22.874 12.8186 22.5817 13.795 22.0688 14.6067C22.0161 14.6902 22.063 14.8029 22.156 14.8203C22.2842 14.8439 22.4168 14.8573 22.5516 14.8612C23.896 14.8991 25.1025 13.9684 25.4359 12.5673C25.9296 10.4861 24.4798 8.61766 22.6337 8.61766C22.433 8.61766 22.241 8.64051 22.0542 8.68149C22.0286 8.68779 22.0014 8.7004 21.9868 8.72483C21.9692 8.75478 21.9824 8.79497 22 8.82098C22.5545 9.65708 22.874 10.6768 22.874 11.7706Z" fill="white"/>
<path d="M25.1004 16.3235C26.0037 16.5134 26.5978 16.9011 26.844 17.4646C27.052 17.9271 27.052 18.4638 26.844 18.9256C26.4674 19.7995 25.2535 20.08 24.7817 20.1525C24.6842 20.1683 24.6058 20.0777 24.6161 19.9729C24.8571 17.5513 22.9399 16.4031 22.4439 16.1391C22.4227 16.1273 22.4183 16.1092 22.4205 16.0981C22.4219 16.0902 22.4307 16.0776 22.4469 16.0753C23.5201 16.054 24.674 16.2116 25.1004 16.3235Z" fill="white"/>
<path d="M13.4486 14.8612C13.5834 14.8572 13.7152 14.8446 13.8442 14.8202C13.9372 14.8028 13.9841 14.6901 13.9313 14.6066C13.4185 13.7949 13.1262 12.8186 13.1262 11.7705C13.1262 10.6767 13.4456 9.657 14.0002 8.8209C14.0177 8.79489 14.0302 8.7547 14.0134 8.72475C13.9987 8.70111 13.9709 8.68772 13.946 8.68142C13.7584 8.64044 13.5665 8.61758 13.3658 8.61758C11.5196 8.61758 10.0698 10.486 10.5643 12.5672C10.8976 13.9683 12.1043 14.899 13.4486 14.8612Z" fill="white"/>
<path d="M13.5793 16.0977C13.5815 16.1095 13.5771 16.1268 13.5566 16.1394C13.0599 16.4034 11.1427 17.5516 11.3837 19.9724C11.394 20.078 11.3163 20.1678 11.2189 20.1529C10.7471 20.0804 9.53315 19.7998 9.15659 18.9259C8.9478 18.4633 8.9478 17.9275 9.15659 17.4649C9.40275 16.9014 9.99611 16.5137 10.8994 16.323C11.3265 16.2119 12.4797 16.0543 13.5537 16.0756C13.5698 16.078 13.5778 16.0906 13.5793 16.0977Z" fill="white"/>
</svg>
