<svg width="37" height="31" viewBox="0 0 37 31" fill="none" xmlns="http://www.w3.org/2000/svg">
<path d="M30.9757 4.92793L33.8955 9.80406C35.7693 12.9334 35.7907 16.8347 33.9513 19.9844L30.9589 25.1083C29.1662 28.178 25.8785 30.0652 22.3237 30.0652L15.6316 30.0652C12.0995 30.0652 8.8294 28.2019 7.02872 25.1633L3.99276 20.0401C2.10981 16.8626 2.13163 12.906 4.04951 9.74946L7.01264 4.87264C8.82631 1.88764 12.066 0.0652455 15.5588 0.0652456L22.3962 0.0652459C25.912 0.0652461 29.1696 1.91154 30.9757 4.92793Z" fill="#604AF7"/>
<path fill-rule="evenodd" clip-rule="evenodd" d="M24.4327 15.0007C24.4327 15.543 24.9003 15.9843 25.475 15.9843C25.7648 15.9843 26 16.2062 26 16.4797V18.2639C26 19.7727 24.6994 21 23.1006 21H14.9001C13.3013 21 12 19.7727 12 18.2639V16.4797C12 16.2062 12.2352 15.9843 12.525 15.9843C13.1004 15.9843 13.568 15.543 13.568 15.0007C13.568 14.4722 13.1193 14.0745 12.525 14.0745C12.3857 14.0745 12.2527 14.0223 12.154 13.9292C12.0553 13.8361 12 13.7099 12 13.5791L12.0014 11.7368C12.0014 10.228 13.302 9 14.9008 9H23.0992C24.698 9 25.9993 10.228 25.9993 11.7368L26 13.5216C26 13.6524 25.9447 13.7793 25.8467 13.8717C25.748 13.9649 25.615 14.0171 25.475 14.0171C24.9003 14.0171 24.4327 14.4583 24.4327 15.0007ZM20.5764 15.432L21.4017 14.6737C21.5452 14.5429 21.5949 14.35 21.5326 14.1716C21.471 13.9933 21.31 13.8665 21.1154 13.8407L19.9751 13.6835L19.4648 12.7085C19.3773 12.5407 19.1995 12.4363 19.0014 12.4356H19C18.8026 12.4356 18.6248 12.54 18.5359 12.7078L18.0256 13.6835L16.8874 13.84C16.6907 13.8665 16.5297 13.9933 16.4674 14.1716C16.4058 14.35 16.4555 14.5429 16.5983 14.6737L17.4236 15.432L17.229 16.5041C17.1954 16.6891 17.2745 16.8727 17.4355 16.983C17.5265 17.0445 17.6322 17.0762 17.7393 17.0762C17.8212 17.0762 17.9038 17.057 17.9794 17.0194L19 16.5134L20.0185 17.0181C20.1949 17.1072 20.4042 17.0934 20.5645 16.9824C20.7262 16.8727 20.8053 16.6891 20.7717 16.5041L20.5764 15.432Z" fill="white"/>
</svg>
