<svg width="1390" height="900" viewBox="0 0 1390 900" fill="none" xmlns="http://www.w3.org/2000/svg">
<path d="M1417.88 63.9165H1382.81L1365.02 33.4247L1382.81 2.93298H1417.88L1435.66 33.4247L1417.88 63.9165Z" fill="#A5A6F6"/>
<path d="M1417.88 140.654H1382.81L1365.02 110.162L1382.81 79.1624H1417.88L1435.66 110.162L1417.88 140.654Z" fill="#A5A6F6"/>
<path d="M1417.88 217.392H1382.81L1365.02 186.392L1382.81 155.9H1417.88L1435.66 186.392L1417.88 217.392Z" fill="#A5A6F6"/>
<path d="M1417.88 293.621H1382.81L1365.02 263.129L1382.81 232.638H1417.88L1435.66 263.129L1417.88 293.621Z" fill="#A5A6F6"/>
<path d="M1417.88 370.359H1382.81L1365.02 339.867L1382.81 308.867H1417.88L1435.66 339.867L1417.88 370.359Z" fill="#A5A6F6"/>
<path d="M1417.88 447.096H1382.81L1365.02 416.096L1382.81 385.604H1417.88L1435.66 416.096L1417.88 447.096Z" fill="#A5A6F6"/>
<path d="M1417.88 523.326H1382.81L1365.02 492.834L1382.81 462.342H1417.88L1435.66 492.834L1417.88 523.326Z" fill="#A5A6F6"/>
<path d="M1417.88 600.063H1382.81L1365.02 569.571L1382.81 539.08H1417.88L1435.66 569.571L1417.88 600.063Z" fill="#A5A6F6"/>
<path d="M1417.88 676.801H1382.81L1365.02 646.309L1382.81 615.309H1417.88L1435.66 646.309L1417.88 676.801Z" fill="#604AF7"/>
<path d="M1417.88 753.03H1382.81L1365.02 722.539L1382.81 692.047H1417.88L1435.66 722.539L1417.88 753.03Z" fill="#A5A6F6"/>
<path d="M1417.88 829.768H1382.81L1365.02 799.276L1382.81 768.784H1417.88L1435.66 799.276L1417.88 829.768Z" fill="#A5A6F6"/>
<path d="M1412.28 896.342H1388.4L1376.2 876.014L1388.4 855.178H1412.28L1423.97 876.014L1412.28 896.342Z" fill="#A5A6F6"/>
<path d="M1351.8 25.802H1316.23L1298.44 -5.19794L1316.23 -35.6897H1351.8L1369.08 -5.19794L1351.8 25.802Z" fill="#A5A6F6"/>
<path d="M1351.8 102.031H1316.23L1298.44 71.5395L1316.23 41.0477H1351.8L1369.08 71.5395L1351.8 102.031Z" fill="#A5A6F6"/>
<path d="M1351.8 178.769H1316.23L1298.44 148.277L1316.23 117.786H1351.8L1369.08 148.277L1351.8 178.769Z" fill="#A5A6F6"/>
<path d="M1351.8 255.507H1316.23L1298.44 225.015L1316.23 194.015H1351.8L1369.08 225.015L1351.8 255.507Z" fill="#A5A6F6"/>
<path d="M1351.8 332.244H1316.23L1298.44 301.244L1316.23 270.752H1351.8L1369.08 301.244L1351.8 332.244Z" fill="#A5A6F6"/>
<path d="M1351.8 408.473H1316.23L1298.44 377.982L1316.23 347.49H1351.8L1369.08 377.982L1351.8 408.473Z" fill="#A5A6F6"/>
<path d="M1351.8 485.211H1316.23L1298.44 454.719L1316.23 423.719H1351.8L1369.08 454.719L1351.8 485.211Z" fill="#A5A6F6"/>
<path d="M1351.8 561.949H1316.23L1298.44 530.949L1316.23 500.457H1351.8L1369.08 530.949L1351.8 561.949Z" fill="#A5A6F6"/>
<path d="M1351.8 638.178H1316.23L1298.44 607.686L1316.23 577.194H1351.8L1369.08 607.686L1351.8 638.178Z" fill="#A5A6F6"/>
<path d="M1351.8 714.916H1316.23L1298.44 684.424L1316.23 653.932H1351.8L1369.08 684.424L1351.8 714.916Z" fill="#A5A6F6"/>
<path d="M1351.8 791.653H1316.23L1298.44 761.162L1316.23 730.162H1351.8L1369.08 761.162L1351.8 791.653Z" fill="#A5A6F6"/>
<path d="M1350.79 866.866H1316.74L1299.97 837.391L1316.74 807.916H1350.79L1368.07 837.391L1350.79 866.866Z" fill="#A5A6F6"/>
<path d="M1285.23 63.9165H1249.65L1232.38 33.4247L1249.65 2.93298H1285.23L1303.01 33.4247L1285.23 63.9165Z" fill="#A5A6F6"/>
<path d="M1285.23 140.654H1249.65L1232.38 110.162L1249.65 79.1624H1285.23L1303.01 110.162L1285.23 140.654Z" fill="#A5A6F6"/>
<path d="M1285.23 217.392H1249.65L1232.38 186.392L1249.65 155.9H1285.23L1303.01 186.392L1285.23 217.392Z" fill="#604AF7"/>
<path d="M1285.23 293.621H1249.65L1232.38 263.129L1249.65 232.638H1285.23L1303.01 263.129L1285.23 293.621Z" fill="#A5A6F6"/>
<path d="M1285.23 370.359H1249.65L1232.38 339.867L1249.65 308.867H1285.23L1303.01 339.867L1285.23 370.359Z" fill="#A5A6F6"/>
<path d="M1285.23 447.096H1249.65L1232.38 416.096L1249.65 385.604H1285.23L1303.01 416.096L1285.23 447.096Z" fill="#604AF7"/>
<path d="M1285.23 523.326H1249.65L1232.38 492.834L1249.65 462.342H1285.23L1303.01 492.834L1285.23 523.326Z" fill="#A5A6F6"/>
<path d="M1285.23 600.063H1249.65L1232.38 569.571L1249.65 539.08H1285.23L1303.01 569.571L1285.23 600.063Z" fill="#A5A6F6"/>
<path d="M1285.23 676.801H1249.65L1232.38 646.309L1249.65 615.309H1285.23L1303.01 646.309L1285.23 676.801Z" fill="#A5A6F6"/>
<path d="M1285.23 753.03H1249.65L1232.38 722.539L1249.65 692.047H1285.23L1303.01 722.539L1285.23 753.03Z" fill="#A5A6F6"/>
<path d="M1285.23 829.768H1249.65L1232.38 799.276L1249.65 768.784H1285.23L1303.01 799.276L1285.23 829.768Z" fill="#A5A6F6"/>
<path d="M1280.65 898.883H1254.22L1241.01 876.014L1254.22 852.637H1280.65L1293.86 876.014L1280.65 898.883Z" fill="#A5A6F6"/>
<path d="M1219.15 25.802H1183.58L1165.79 -5.19794L1183.58 -35.6897H1219.15L1236.43 -5.19794L1219.15 25.802Z" fill="#A5A6F6"/>
<path d="M1219.15 102.031H1183.58L1165.79 71.5395L1183.58 41.0477H1219.15L1236.43 71.5395L1219.15 102.031Z" fill="#A5A6F6"/>
<path d="M1219.15 178.769H1183.58L1165.79 148.277L1183.58 117.786H1219.15L1236.43 148.277L1219.15 178.769Z" fill="#A5A6F6"/>
<path d="M1219.15 255.507H1183.58L1165.79 225.015L1183.58 194.015H1219.15L1236.43 225.015L1219.15 255.507Z" fill="#A5A6F6"/>
<path d="M1219.15 332.244H1183.58L1165.79 301.244L1183.58 270.752H1219.15L1236.43 301.244L1219.15 332.244Z" fill="#A5A6F6"/>
<path d="M1219.15 408.473H1183.58L1165.79 377.982L1183.58 347.49H1219.15L1236.43 377.982L1219.15 408.473Z" fill="#A5A6F6"/>
<path d="M1219.15 485.211H1183.58L1165.79 454.719L1183.58 423.719H1219.15L1236.43 454.719L1219.15 485.211Z" fill="#A5A6F6"/>
<path d="M1219.15 561.949H1183.58L1165.79 530.949L1183.58 500.457H1219.15L1236.43 530.949L1219.15 561.949Z" fill="#A5A6F6"/>
<path d="M1219.15 638.178H1183.58L1165.79 607.686L1183.58 577.194H1219.15L1236.43 607.686L1219.15 638.178Z" fill="#A5A6F6"/>
<path d="M1219.15 714.916H1183.58L1165.79 684.424L1183.58 653.932H1219.15L1236.43 684.424L1219.15 714.916Z" fill="#A5A6F6"/>
<path d="M1219.15 791.653H1183.58L1165.79 761.162L1183.58 730.162H1219.15L1236.43 761.162L1219.15 791.653Z" fill="#A5A6F6"/>
<path d="M1219.15 868.391H1183.58L1165.79 837.391L1183.58 806.899H1219.15L1236.43 837.391L1219.15 868.391Z" fill="#A5A6F6"/>
<path d="M1219.15 944.62H1183.58L1165.79 914.128L1183.58 883.636H1219.15L1236.43 914.128L1219.15 944.62Z" fill="#A5A6F6"/>
<path d="M1152.58 63.9165H1117.01L1099.73 33.4247L1117.01 2.93298H1152.58L1170.37 33.4247L1152.58 63.9165Z" fill="#A5A6F6"/>
<path d="M1152.58 140.654H1117.01L1099.73 110.162L1117.01 79.1624H1152.58L1170.37 110.162L1152.58 140.654Z" fill="#A5A6F6"/>
<path d="M1152.58 217.392H1117.01L1099.73 186.392L1117.01 155.9H1152.58L1170.37 186.392L1152.58 217.392Z" fill="#A5A6F6"/>
<path d="M1152.58 293.621H1117.01L1099.73 263.129L1117.01 232.638H1152.58L1170.37 263.129L1152.58 293.621Z" fill="#A5A6F6"/>
<path d="M1152.58 370.359H1117.01L1099.73 339.867L1117.01 308.867H1152.58L1170.37 339.867L1152.58 370.359Z" fill="#A5A6F6"/>
<path d="M1152.58 447.096H1117.01L1099.73 416.096L1117.01 385.604H1152.58L1170.37 416.096L1152.58 447.096Z" fill="#604AF7"/>
<path d="M1152.58 523.326H1117.01L1099.73 492.834L1117.01 462.342H1152.58L1170.37 492.834L1152.58 523.326Z" fill="#604AF7"/>
<path d="M1152.58 600.063H1117.01L1099.73 569.571L1117.01 539.08H1152.58L1170.37 569.571L1152.58 600.063Z" fill="#A5A6F6"/>
<path d="M1152.58 676.801H1117.01L1099.73 646.309L1117.01 615.309H1152.58L1170.37 646.309L1152.58 676.801Z" fill="#604AF7"/>
<path d="M1152.58 753.03H1117.01L1099.73 722.539L1117.01 692.047H1152.58L1170.37 722.539L1152.58 753.03Z" fill="#A5A6F6"/>
<path d="M1152.58 829.768H1117.01L1099.73 799.276L1117.01 768.784H1152.58L1170.37 799.276L1152.58 829.768Z" fill="#604AF7"/>
<path d="M1152.58 906.506H1117.01L1099.73 876.014L1117.01 845.014H1152.58L1170.37 876.014L1152.58 906.506Z" fill="#A5A6F6"/>
<path d="M1086.53 25.802H1050.95L1033.17 -5.19794L1050.95 -35.6897H1086.53L1103.81 -5.19794L1086.53 25.802Z" fill="#A5A6F6"/>
<path d="M1086.53 102.031H1050.95L1033.17 71.5395L1050.95 41.0477H1086.53L1103.81 71.5395L1086.53 102.031Z" fill="#A5A6F6"/>
<path d="M1086.53 178.769H1050.95L1033.17 148.277L1050.95 117.786H1086.53L1103.81 148.277L1086.53 178.769Z" fill="#A5A6F6"/>
<path d="M1086.53 255.507H1050.95L1033.17 225.015L1050.95 194.015H1086.53L1103.81 225.015L1086.53 255.507Z" fill="#A5A6F6"/>
<path d="M1086.53 332.244H1050.95L1033.17 301.244L1050.95 270.752H1086.53L1103.81 301.244L1086.53 332.244Z" fill="#A5A6F6"/>
<path d="M1086.53 408.473H1050.95L1033.17 377.982L1050.95 347.49H1086.53L1103.81 377.982L1086.53 408.473Z" fill="#A5A6F6"/>
<path d="M1086.53 485.211H1050.95L1033.17 454.719L1050.95 423.719H1086.53L1103.81 454.719L1086.53 485.211Z" fill="#604AF7"/>
<path d="M1086.53 561.949H1050.95L1033.17 530.949L1050.95 500.457H1086.53L1103.81 530.949L1086.53 561.949Z" fill="#A5A6F6"/>
<path d="M1086.53 638.178H1050.95L1033.17 607.686L1050.95 577.194H1086.53L1103.81 607.686L1086.53 638.178Z" fill="#A5A6F6"/>
<path d="M1086.53 714.916H1050.95L1033.17 684.424L1050.95 653.932H1086.53L1103.81 684.424L1086.53 714.916Z" fill="#A5A6F6"/>
<path d="M1086.53 791.653H1050.95L1033.17 761.162L1050.95 730.162H1086.53L1103.81 761.162L1086.53 791.653Z" fill="#A5A6F6"/>
<path d="M1086.53 868.391H1050.95L1033.17 837.391L1050.95 806.899H1086.53L1103.81 837.391L1086.53 868.391Z" fill="#A5A6F6"/>
<path d="M1086.53 944.62H1050.95L1033.17 914.128L1050.95 883.636H1086.53L1103.81 914.128L1086.53 944.62Z" fill="#A5A6F6"/>
<path d="M1019.95 63.9165H984.38L967.102 33.4247L984.38 2.93298H1019.95L1037.74 33.4247L1019.95 63.9165Z" fill="#A5A6F6"/>
<path d="M1019.95 140.654H984.38L967.102 110.162L984.38 79.1624H1019.95L1037.74 110.162L1019.95 140.654Z" fill="#A5A6F6"/>
<path d="M1019.95 217.392H984.38L967.102 186.392L984.38 155.9H1019.95L1037.74 186.392L1019.95 217.392Z" fill="#A5A6F6"/>
<path d="M1019.95 293.621H984.38L967.102 263.129L984.38 232.638H1019.95L1037.74 263.129L1019.95 293.621Z" fill="#A5A6F6"/>
<path d="M1019.95 370.359H984.38L967.102 339.867L984.38 308.867H1019.95L1037.74 339.867L1019.95 370.359Z" fill="#A5A6F6"/>
<path d="M1019.95 447.096H984.38L967.102 416.096L984.38 385.604H1019.95L1037.74 416.096L1019.95 447.096Z" fill="#A5A6F6"/>
<path d="M1019.95 523.326H984.38L967.102 492.834L984.38 462.342H1019.95L1037.74 492.834L1019.95 523.326Z" fill="#A5A6F6"/>
<path d="M1019.95 600.063H984.38L967.102 569.571L984.38 539.08H1019.95L1037.74 569.571L1019.95 600.063Z" fill="#A5A6F6"/>
<path d="M1019.95 676.801H984.38L967.102 646.309L984.38 615.309H1019.95L1037.74 646.309L1019.95 676.801Z" fill="#A5A6F6"/>
<path d="M1019.95 753.03H984.38L967.102 722.539L984.38 692.047H1019.95L1037.74 722.539L1019.95 753.03Z" fill="#A5A6F6"/>
<path d="M1019.95 829.768H984.38L967.102 799.276L984.38 768.784H1019.95L1037.74 799.276L1019.95 829.768Z" fill="#A5A6F6"/>
<path d="M1019.95 906.506H984.38L967.102 876.014L984.38 845.014H1019.95L1037.74 876.014L1019.95 906.506Z" fill="#A5A6F6"/>
<path d="M953.88 25.802H918.306L900.52 -5.19794L918.306 -35.6897H953.88L971.159 -5.19794L953.88 25.802Z" fill="#A5A6F6"/>
<path d="M953.88 102.031H918.306L900.52 71.5395L918.306 41.0477H953.88L971.159 71.5395L953.88 102.031Z" fill="#A5A6F6"/>
<path d="M953.88 178.769H918.306L900.52 148.277L918.306 117.786H953.88L971.159 148.277L953.88 178.769Z" fill="#A5A6F6"/>
<path d="M953.88 255.507H918.306L900.52 225.015L918.306 194.015H953.88L971.159 225.015L953.88 255.507Z" fill="#A5A6F6"/>
<path d="M953.88 332.244H918.306L900.52 301.244L918.306 270.752H953.88L971.159 301.244L953.88 332.244Z" fill="#A5A6F6"/>
<path d="M953.88 408.473H918.306L900.52 377.982L918.306 347.49H953.88L971.159 377.982L953.88 408.473Z" fill="#A5A6F6"/>
<path d="M953.88 485.211H918.306L900.52 454.719L918.306 423.719H953.88L971.159 454.719L953.88 485.211Z" fill="#A5A6F6"/>
<path d="M953.88 561.949H918.306L900.52 530.949L918.306 500.457H953.88L971.159 530.949L953.88 561.949Z" fill="#A5A6F6"/>
<path d="M953.88 638.178H918.306L900.52 607.686L918.306 577.194H953.88L971.159 607.686L953.88 638.178Z" fill="#604AF7"/>
<path d="M953.88 714.916H918.306L900.52 684.424L918.306 653.932H953.88L971.159 684.424L953.88 714.916Z" fill="#A5A6F6"/>
<path d="M953.88 791.653H918.306L900.52 761.162L918.306 730.162H953.88L971.159 761.162L953.88 791.653Z" fill="#A5A6F6"/>
<path d="M953.367 867.374H918.81L901.531 837.391L918.81 807.407H953.367L970.646 837.391L953.367 867.374Z" fill="#A5A6F6"/>
<path d="M951.339 940.555H920.847L905.602 914.129L920.847 887.702H951.339L966.077 914.129L951.339 940.555Z" fill="#A5A6F6"/>
<path d="M887.306 63.9165H851.732L834.453 33.4247L851.732 2.93298H887.306L905.092 33.4247L887.306 63.9165Z" fill="#A5A6F6"/>
<path d="M887.306 140.654H851.732L834.453 110.162L851.732 79.1624H887.306L905.092 110.162L887.306 140.654Z" fill="#A5A6F6"/>
<path d="M887.306 217.392H851.732L834.453 186.392L851.732 155.9H887.306L905.092 186.392L887.306 217.392Z" fill="#A5A6F6"/>
<path d="M887.306 293.621H851.732L834.453 263.129L851.732 232.638H887.306L905.092 263.129L887.306 293.621Z" fill="#A5A6F6"/>
<path d="M887.306 370.359H851.732L834.453 339.867L851.732 308.867H887.306L905.092 339.867L887.306 370.359Z" fill="#A5A6F6"/>
<path d="M887.306 447.096H851.732L834.453 416.096L851.732 385.604H887.306L905.092 416.096L887.306 447.096Z" fill="#A5A6F6"/>
<path d="M887.306 523.326H851.732L834.453 492.834L851.732 462.342H887.306L905.092 492.834L887.306 523.326Z" fill="#A5A6F6"/>
<path d="M887.306 600.063H851.732L834.453 569.571L851.732 539.08H887.306L905.092 569.571L887.306 600.063Z" fill="#A5A6F6"/>
<path d="M887.306 676.801H851.732L834.453 646.309L851.732 615.309H887.306L905.092 646.309L887.306 676.801Z" fill="#A5A6F6"/>
<path d="M887.306 753.03H851.732L834.453 722.539L851.732 692.047H887.306L905.092 722.539L887.306 753.03Z" fill="#A5A6F6"/>
<path d="M887.306 829.768H851.732L834.453 799.276L851.732 768.784H887.306L905.092 799.276L887.306 829.768Z" fill="#A5A6F6"/>
<path d="M886.303 904.473H853.27L836.5 876.014L853.27 847.047H886.303L902.565 876.014L886.303 904.473Z" fill="#A5A6F6"/>
<path d="M820.743 25.802H785.677L767.891 -5.19794L785.677 -35.6897H820.743L838.53 -5.19794L820.743 25.802Z" fill="#A5A6F6"/>
<path d="M820.743 102.031H785.677L767.891 71.5395L785.677 41.0477H820.743L838.53 71.5395L820.743 102.031Z" fill="#A5A6F6"/>
<path d="M820.743 178.769H785.677L767.891 148.277L785.677 117.786H820.743L838.53 148.277L820.743 178.769Z" fill="#A5A6F6"/>
<path d="M820.743 255.507H785.677L767.891 225.015L785.677 194.015H820.743L838.53 225.015L820.743 255.507Z" fill="#A5A6F6"/>
<path d="M820.743 332.244H785.677L767.891 301.244L785.677 270.752H820.743L838.53 301.244L820.743 332.244Z" fill="#A5A6F6"/>
<path d="M820.743 408.473H785.677L767.891 377.982L785.677 347.49H820.743L838.53 377.982L820.743 408.473Z" fill="#A5A6F6"/>
<path d="M820.743 485.211H785.677L767.891 454.719L785.677 423.719H820.743L838.53 454.719L820.743 485.211Z" fill="#A5A6F6"/>
<path d="M820.743 561.949H785.677L767.891 530.949L785.677 500.457H820.743L838.53 530.949L820.743 561.949Z" fill="#A5A6F6"/>
<path d="M820.743 638.178H785.677L767.891 607.686L785.677 577.194H820.743L838.53 607.686L820.743 638.178Z" fill="#A5A6F6"/>
<path d="M820.743 714.916H785.677L767.891 684.424L785.677 653.932H820.743L838.53 684.424L820.743 714.916Z" fill="#A5A6F6"/>
<path d="M808.532 770.309H797.86L792.27 761.161L797.86 751.506H808.532L814.122 761.161L808.532 770.309Z" fill="#A5A6F6"/>
<path d="M754.68 63.9165H719.107L701.828 33.4247L719.107 2.93298H754.68L772.467 33.4247L754.68 63.9165Z" fill="#A5A6F6"/>
<path d="M753.647 139.129H720.106L703.336 110.162L720.106 80.6869H753.647L770.418 110.162L753.647 139.129Z" fill="#A5A6F6"/>
<path d="M750.088 208.752H724.17L710.957 186.392L724.17 164.031H750.088L762.793 186.392L750.088 208.752Z" fill="#A5A6F6"/>
<path d="M743.491 274.31H730.786L724.18 263.129L730.786 251.949H743.491L749.589 263.129L743.491 274.31Z" fill="#A5A6F6"/>
<path d="M740.95 346.474H733.327L729.262 339.867L733.327 333.26H740.95L744.508 339.867L740.95 346.474Z" fill="#A5A6F6"/>
<path d="M742.47 426.26H731.29L725.191 416.096L731.29 406.441H742.47L748.568 416.096L742.47 426.26Z" fill="#A5A6F6"/>
<path d="M743.491 504.014H730.786L724.18 492.834L730.786 481.654H743.491L749.589 492.834L743.491 504.014Z" fill="#A5A6F6"/>
<path d="M749.587 591.932H724.178L711.473 569.572L724.178 547.211H749.587L762.8 569.572L749.587 591.932Z" fill="#A5A6F6"/>
<path d="M743.491 656.981H730.786L724.18 646.309L730.786 635.129H743.491L749.589 646.309L743.491 656.981Z" fill="#A5A6F6"/>
<path d="M688.098 25.802H653.033L635.246 -5.19794L653.033 -35.6897H688.098L705.885 -5.19794L688.098 25.802Z" fill="#A5A6F6"/>
<path d="M684.539 95.4246H656.588L642.867 71.5394L656.588 47.6542H684.539L698.261 71.5394L684.539 95.4246Z" fill="#A5A6F6"/>
<path d="M616.943 55.2773H591.533L578.828 33.4248L591.533 11.5724H616.943L629.648 33.4248L616.943 55.2773Z" fill="#A5A6F6"/>
<path d="M542.76 2.93318H533.613L529.039 -5.19798L533.613 -12.8209H542.76L547.334 -5.19798L542.76 2.93318Z" fill="#A5A6F6"/>
<path d="M422.821 25.802H387.756L369.969 -5.19794L387.756 -35.6897H422.821L440.608 -5.19794L422.821 25.802Z" fill="#A5A6F6"/>
<path d="M290.177 25.802H255.111L237.324 -5.19794L255.111 -35.6897H290.177L307.963 -5.19794L290.177 25.802Z" fill="#A5A6F6"/>
<path d="M224.122 63.9165H188.549L170.762 33.4247L188.549 2.93298H224.122L241.909 33.4247L224.122 63.9165Z" fill="#A5A6F6"/>
<path d="M157.548 25.802H122.482L104.695 -5.19794L122.482 -35.6897H157.548L175.335 -5.19794L157.548 25.802Z" fill="#A5A6F6"/>
<path d="M147.877 85.2607H132.123L123.992 71.5394L132.123 57.8181H147.877L156.009 71.5394L147.877 85.2607Z" fill="#A5A6F6"/>
<path d="M149.913 165.047H130.093L120.438 148.277L130.093 131.506H149.913L159.569 148.277L149.913 165.047Z" fill="#A5A6F6"/>
<path d="M87.4104 57.3099H59.9678L45.7383 33.4247L59.9678 9.53955H87.4104L101.64 33.4247L87.4104 57.3099Z" fill="#A5A6F6"/>
<path d="M77.7475 193.506H69.6163L65.5508 186.392L69.6163 179.785H77.7475L81.8131 186.392L77.7475 193.506Z" fill="#A5A6F6"/>
<path d="M11.1803 231.113H3.55737L0 225.015L3.55737 218.408H11.1803L14.7377 225.015L11.1803 231.113Z" fill="#604AF7"/>
<path d="M10.6795 307.343H4.073L0.515625 301.244L4.073 295.654H10.6795L14.2369 301.244L10.6795 307.343Z" fill="#604AF7"/>
</svg>
