<svg width="37" height="31" viewBox="0 0 37 31" fill="none" xmlns="http://www.w3.org/2000/svg">
<path d="M30.9757 4.92787L33.8955 9.804C35.7693 12.9333 35.7907 16.8347 33.9513 19.9843L30.9589 25.1082C29.1662 28.178 25.8785 30.0652 22.3237 30.0652L15.6316 30.0652C12.0995 30.0652 8.8294 28.2019 7.02872 25.1632L3.99276 20.04C2.10981 16.8626 2.13163 12.9059 4.04951 9.7494L7.01264 4.87258C8.82631 1.88758 12.066 0.0651845 15.5588 0.0651846L22.3962 0.0651849C25.912 0.0651851 29.1696 1.91148 30.9757 4.92787Z" fill="#604AF7"/>
<path fill-rule="evenodd" clip-rule="evenodd" d="M25.1912 16.106C25.4548 16.239 25.6581 16.449 25.8012 16.659C26.0798 17.093 26.0572 17.625 25.7861 18.094L25.259 18.934C24.9804 19.382 24.4608 19.662 23.9261 19.662C23.6626 19.662 23.3689 19.592 23.1279 19.452C22.9321 19.333 22.7062 19.291 22.4653 19.291C21.7198 19.291 21.0948 19.872 21.0722 20.565C21.0722 21.37 20.3794 22 19.5134 22H18.4893C17.6158 22 16.923 21.37 16.923 20.565C16.908 19.872 16.283 19.291 15.5375 19.291C15.289 19.291 15.0631 19.333 14.8748 19.452C14.6339 19.592 14.3326 19.662 14.0766 19.662C13.5344 19.662 13.0149 19.382 12.7362 18.934L12.2167 18.094C11.938 17.639 11.923 17.093 12.2016 16.659C12.3221 16.449 12.548 16.239 12.804 16.106C13.0148 16.008 13.1504 15.847 13.2784 15.658C13.6549 15.056 13.429 14.265 12.7889 13.908C12.0434 13.509 11.8025 12.62 12.2317 11.927L12.7362 11.101C13.173 10.408 14.1067 10.163 14.8598 10.569C15.5149 10.905 16.3658 10.681 16.7498 10.086C16.8703 9.89 16.9381 9.68 16.923 9.47C16.908 9.197 16.9908 8.938 17.1339 8.728C17.4125 8.294 17.917 8.014 18.4667 8H19.5285C20.0857 8 20.5903 8.294 20.8689 8.728C21.0044 8.938 21.0948 9.197 21.0722 9.47C21.0571 9.68 21.1249 9.89 21.2454 10.086C21.6294 10.681 22.4803 10.905 23.143 10.569C23.8885 10.163 24.8298 10.408 25.259 11.101L25.7635 11.927C26.2002 12.62 25.9593 13.509 25.2063 13.908C24.5662 14.265 24.3403 15.056 24.7243 15.658C24.8448 15.847 24.9804 16.008 25.1912 16.106ZM16.8703 15.007C16.8703 16.106 17.8266 16.981 19.0089 16.981C20.1911 16.981 21.1249 16.106 21.1249 15.007C21.1249 13.908 20.1911 13.026 19.0089 13.026C17.8266 13.026 16.8703 13.908 16.8703 15.007Z" fill="white"/>
</svg>
