<svg width="24" height="24" viewBox="0 0 24 24" fill="none" xmlns="http://www.w3.org/2000/svg">
<path d="M12 24C18.6274 24 24 18.6274 24 12C24 5.37258 18.6274 0 12 0C5.37258 0 0 5.37258 0 12C0 18.6274 5.37258 24 12 24Z" fill="#474E50"/>
<path d="M9.79995 17.5C9.41115 17.5 9.47725 17.3532 9.34315 16.983L8.19995 13.2207L17 8" fill="#596164"/>
<path d="M9.80005 17.5002C10.1 17.5002 10.2325 17.363 10.4 17.2002L12 15.6444L10.0042 14.4409" fill="#889397"/>
<path d="M10.004 14.4408L14.84 18.0137C15.3919 18.3182 15.7901 18.1605 15.9276 17.5014L17.8961 8.22507C18.0976 7.41708 17.5881 7.05048 17.0601 7.29018L5.50108 11.7473C4.71208 12.0638 4.71678 12.504 5.35728 12.7001L8.32358 13.626L15.1909 9.29347C15.5151 9.09687 15.8127 9.20247 15.5685 9.41927" fill="#6A7477"/>
</svg>
