<svg width="52" height="52" viewBox="0 0 52 52" fill="none" xmlns="http://www.w3.org/2000/svg">
<circle cx="25.5" cy="25.5" r="22.5" fill="white"/>
<path d="M34.9824 18.5542C35.146 17.5186 34.1408 16.7011 33.2009 17.1054L14.4788 25.1577C13.8047 25.4476 13.854 26.4478 14.5532 26.6659L18.4141 27.8703C19.151 28.1002 19.9489 27.9813 20.5924 27.5458L29.2971 21.6546C29.5596 21.477 29.8458 21.8426 29.6215 22.0691L23.3556 28.3974C22.7478 29.0113 22.8685 30.0515 23.5996 30.5006L30.6149 34.8101C31.4017 35.2934 32.414 34.8079 32.5611 33.8765L34.9824 18.5542Z" fill="#010010"/>
<path d="M34.9824 18.5542C35.146 17.5186 34.1408 16.7011 33.2009 17.1054L14.4788 25.1577C13.8047 25.4476 13.854 26.4478 14.5532 26.6659L18.4141 27.8703C19.151 28.1002 19.9489 27.9813 20.5924 27.5458L29.2971 21.6546C29.5596 21.477 29.8458 21.8426 29.6215 22.0691L23.3556 28.3974C22.7478 29.0113 22.8685 30.0515 23.5996 30.5006L30.6149 34.8101C31.4017 35.2934 32.414 34.8079 32.5611 33.8765L34.9824 18.5542Z" fill="black" fill-opacity="0.2"/>
</svg>
