<svg width="21" height="18" viewBox="0 0 21 18" fill="none" xmlns="http://www.w3.org/2000/svg">
<path d="M20.9824 1.55416C21.146 0.518551 20.1408 -0.29886 19.2009 0.105423L0.478823 8.15765C-0.195263 8.44757 -0.145955 9.44776 0.553175 9.66586L4.41413 10.8703C5.15101 11.1002 5.94894 10.9813 6.59241 10.5458L15.2971 4.65464C15.5596 4.47698 15.8458 4.84259 15.6215 5.0691L9.35565 11.3974C8.74782 12.0113 8.86847 13.0515 9.59958 13.5006L16.6149 17.8101C17.4017 18.2934 18.414 17.8079 18.5611 16.8765L20.9824 1.55416Z" fill="#010010"/>
<path d="M20.9824 1.55416C21.146 0.518551 20.1408 -0.29886 19.2009 0.105423L0.478823 8.15765C-0.195263 8.44757 -0.145955 9.44776 0.553175 9.66586L4.41413 10.8703C5.15101 11.1002 5.94894 10.9813 6.59241 10.5458L15.2971 4.65464C15.5596 4.47698 15.8458 4.84259 15.6215 5.0691L9.35565 11.3974C8.74782 12.0113 8.86847 13.0515 9.59958 13.5006L16.6149 17.8101C17.4017 18.2934 18.414 17.8079 18.5611 16.8765L20.9824 1.55416Z" fill="black" fill-opacity="0.2"/>
</svg>
