<svg width="36" height="30" viewBox="0 0 36 30" fill="none" xmlns="http://www.w3.org/2000/svg">
<path d="M30.0422 4.86268L32.9619 9.73881C34.8357 12.8681 34.8571 16.7695 33.0177 19.9192L30.0253 25.043C28.2326 28.1128 24.9449 30 21.3901 30L14.698 30C11.1659 30 7.8958 28.1367 6.09512 25.098L3.05917 19.9748C1.17622 16.7974 1.19804 12.8407 3.11592 9.68421L6.07905 4.80739C7.89272 1.8224 11.1324 -1.087e-06 14.6252 -9.34322e-07L21.4626 -6.35448e-07C24.9785 -4.81767e-07 28.236 1.84629 30.0422 4.86268Z" fill="#604AF7"/>
<path d="M13.4907 10.5815L16.4344 8.86779C17.3573 8.3305 18.4963 8.32435 19.4249 8.85163L22.4812 10.587C23.42 11.12 24 12.1162 24 13.1958V16.7661C24 17.8389 23.4272 18.83 22.4976 19.3656L19.4415 21.1263C18.5044 21.6662 17.3493 21.6599 16.4181 21.1098L13.4742 19.3708C12.5606 18.8311 12 17.8489 12 16.7878V13.1741C12 12.1062 12.5677 11.1188 13.4907 10.5815Z" fill="white"/>
</svg>
