<svg width="37" height="31" viewBox="0 0 37 31" fill="none" xmlns="http://www.w3.org/2000/svg">
<path d="M30.9757 4.92787L33.8955 9.804C35.7693 12.9333 35.7907 16.8347 33.9513 19.9843L30.9589 25.1082C29.1662 28.178 25.8785 30.0652 22.3237 30.0652L15.6316 30.0652C12.0995 30.0652 8.8294 28.2019 7.02872 25.1632L3.99276 20.04C2.10981 16.8626 2.13163 12.9059 4.04951 9.7494L7.01264 4.87258C8.82631 1.88758 12.066 0.0651845 15.5588 0.0651846L22.3962 0.0651849C25.912 0.0651851 29.1696 1.91148 30.9757 4.92787Z" fill="#604AF7"/>
<path fill-rule="evenodd" clip-rule="evenodd" d="M23.0382 12.8869H26C26 10.4333 24.5751 9 22.1609 9H15.8391C13.4249 9 12 10.4333 12 12.8556V18.1444C12 20.5667 13.4249 22 15.8391 22H22.1609C24.5751 22 26 20.5667 26 18.1444V17.9191H23.0382C21.6636 17.9191 20.5493 16.7982 20.5493 15.4155C20.5493 14.0328 21.6636 12.9119 23.0382 12.9119V12.8869ZM23.0382 13.9634H25.4773C25.766 13.9634 26 14.1988 26 14.4892V16.3168C25.9966 16.6058 25.7646 16.8392 25.4773 16.8426H23.0942C22.3984 16.852 21.7898 16.3727 21.632 15.6909C21.553 15.2677 21.6639 14.8309 21.9351 14.4977C22.2064 14.1645 22.6101 13.9689 23.0382 13.9634ZM23.144 15.8849H23.3742C23.6698 15.8849 23.9093 15.6439 23.9093 15.3467C23.9093 15.0494 23.6698 14.8084 23.3742 14.8084H23.144C23.0027 14.8067 22.8665 14.862 22.766 14.962C22.6655 15.0619 22.6089 15.1982 22.6089 15.3404C22.6089 15.6387 22.8475 15.8815 23.144 15.8849ZM15.3164 12.8869H19.2676C19.5631 12.8869 19.8027 12.6459 19.8027 12.3486C19.8027 12.0513 19.5631 11.8103 19.2676 11.8103H15.3164C15.0233 11.8103 14.7847 12.0475 14.7813 12.3423C14.7813 12.6406 15.0199 12.8834 15.3164 12.8869Z" fill="white"/>
</svg>
