<svg width="400" height="229" viewBox="0 0 400 229" fill="none" xmlns="http://www.w3.org/2000/svg">
<path d="M327.719 124.127C327.719 124.127 326.477 151.097 324.437 161.121C322.396 171.146 308.024 189.865 305.984 188.712C303.944 187.558 304.298 176.647 302.347 168.662C300.306 160.678 297.556 145.951 298.088 141.782C298.621 137.523 304.476 133.797 304.742 128.563C304.919 123.24 327.719 124.127 327.719 124.127Z" fill="#604AF7"/>
<path opacity="0.2" d="M325.945 124.66C325.945 124.66 324.88 155 322.574 161.831C320.267 168.662 309.888 184.01 308.912 184.187C308.025 184.365 315.033 170.969 316.896 164.138C318.759 157.307 321.687 143.911 321.864 134.33C322.041 124.748 322.396 122.708 322.396 122.708L325.945 124.66Z" fill="#939598"/>
<path d="M398.868 104.344C398.868 104.344 401.086 102.925 399.312 99.3763C397.538 95.8277 394.433 92.1017 394.078 89.3515C393.723 86.6901 392.925 65.1324 355.931 52.4462C319.025 39.76 283.184 40.9133 267.926 41.8004C252.667 42.5989 202.277 55.8173 161.734 84.827C121.192 113.837 85.3508 164.493 77.7213 169.372C70.0919 174.251 69.8257 172.122 50.6633 171.679C31.501 171.235 2.84613 176.558 0.805693 178.598C-1.23474 180.639 0.805682 180.55 4.62041 182.324C8.43514 184.099 8.43513 184.099 8.43513 184.099C8.43513 184.099 24.0489 191.462 31.5897 194.301C39.1304 197.14 50.3972 199.89 56.0749 199.713C61.7527 199.535 65.7448 199.535 65.7448 199.535C65.7448 199.535 66.4546 204.769 72.5759 209.116C78.6972 213.463 92.2705 219.052 95.4643 222.423C98.658 225.706 97.8595 228.013 100.255 228.545C102.65 229.077 107.441 214.971 106.287 210.092C105.134 205.213 100.344 194.478 100.965 191.551C101.497 188.712 105.578 180.195 108.594 177.889C111.61 175.582 140.176 156.154 170.783 150.298C192.163 146.218 228.093 141.782 255.417 137.967C282.652 134.152 324.526 126.967 337.212 126.346C349.987 125.725 371.633 123.418 382.811 118.361C394.255 113.304 398.868 104.344 398.868 104.344Z" fill="white"/>
<path d="M271.563 47.4781C271.563 47.4781 265.531 38.5179 263.49 34.8806C261.45 31.1546 259.143 14.2101 240.779 5.16119C222.504 -3.88771 217.891 1.34646 217.713 3.12075C217.536 4.89504 226.407 19.7104 226.673 29.6464C226.94 39.5825 222.593 55.8173 222.593 55.8173L271.563 47.4781Z" fill="#604AF7"/>
<path d="M288.152 88.198C288.152 88.198 278.394 82.0767 268.28 83.3187C258.256 84.5607 256.747 87.9318 256.038 89.44C255.328 90.9481 246.545 97.7792 242.819 99.997C239.093 102.215 233.948 110.022 232.44 118.184C230.931 126.345 224.367 138.322 224.899 140.894C225.431 143.467 240.69 140.983 249.384 132.91C258.078 124.837 275.644 103.812 277.95 99.1986C280.346 94.4967 283.894 92.1014 285.047 91.4804C286.378 90.7707 290.282 90.7707 288.152 88.198Z" fill="#604AF7"/>
<path d="M0.786777 178.766C2.82751 176.718 31.4865 171.375 50.6516 171.82C69.8168 172.265 70.083 174.402 77.7135 169.505C85.3441 164.608 121.19 113.765 161.738 84.648C202.287 55.5312 252.595 42.264 267.945 41.4626C283.206 40.6612 319.052 39.4146 355.963 52.1476C392.874 64.8807 393.761 86.5179 394.116 89.1892C394.471 91.8604 397.665 95.6892 399.351 99.2509C401.037 102.813 398.907 104.237 398.907 104.237C398.907 104.237 387.994 94.4427 377.346 93.4632C366.699 92.4837 322.158 88.6549 319.052 88.2097C315.947 87.7645 314.527 84.648 313.906 82.2439C313.285 79.8397 303.259 75.0315 300.065 75.4767C296.87 76.0109 294.564 82.2439 291.813 87.2302C289.062 92.3056 285.336 104.682 271.406 105.929C257.475 107.176 242.126 86.2508 226.421 87.4083C210.716 88.5659 190.575 111.094 180.992 113.32C171.41 115.546 162.448 99.8742 149.849 106.196C137.161 112.518 124.562 128.813 128.909 130.594C133.257 132.375 149.671 136.381 162.36 133.621C175.136 130.861 179.218 125.964 185.517 130.059C191.817 134.155 195.1 142.08 192.438 144.573C191.551 145.375 189.067 146.532 186.227 147.69C180.726 148.58 175.58 149.471 171.055 150.272C140.444 156.149 111.874 175.738 108.857 177.964C108.591 178.231 108.236 178.498 107.97 178.855C105.84 177.163 101.315 174.224 95.9914 174.313C88.5383 174.402 88.0059 178.855 74.7855 179.834C61.6539 180.814 17.9112 179.033 12.4101 179.122C6.90895 179.211 7.70751 181.081 7.70751 181.081C7.70751 181.081 33.616 194.348 43.2873 196.04C52.8698 197.732 63.7833 200.047 70.6153 198.533C74.1644 197.732 77.5361 196.93 79.9317 196.396C75.5841 197.642 68.9295 200.225 71.2364 204.499C74.5193 210.643 92.8859 218.211 96.0801 221.061C99.363 223.91 100.516 226.136 100.516 226.136C100.516 226.136 104.598 219.814 103.799 213.136C103.001 206.458 99.4518 196.663 101.226 191.855C100.694 194.704 105.485 205.567 106.55 210.465C107.703 215.362 102.912 229.52 100.516 228.985C98.1209 228.451 98.9194 226.225 95.7252 222.841C92.531 219.547 78.9557 213.848 72.8335 209.485C66.7113 205.122 66.0015 199.869 66.0015 199.869C66.0015 199.869 62.0087 199.869 56.3302 200.047C50.6516 200.225 39.3832 197.464 31.8414 194.615C24.2996 191.766 8.68355 184.375 8.68355 184.375C8.68355 184.375 8.6835 184.375 4.86822 182.594C0.875483 180.724 -1.25396 180.903 0.786777 178.766ZM322.158 68.7095C328.014 70.5794 341.145 71.2917 344.783 72.9835C348.421 74.6753 354.277 71.5588 350.373 69.778C350.373 69.778 324.553 57.3121 317.278 60.1614C309.913 63.0998 316.39 66.8396 322.158 68.7095Z" fill="#604AF7"/>
<path opacity="0.2" d="M220.498 59.3579C191.472 70.2198 157.491 91.4984 152.712 95.1487C149.792 97.3745 150.677 95.0597 154.836 90.252C157.314 88.2933 159.703 86.4236 162.181 84.643C202.623 55.5296 252.798 42.2638 268.108 41.4625C283.329 40.6612 319.08 39.4148 355.893 52.1463C367.929 56.3308 376.07 61.4057 381.645 66.4805C385.096 70.754 388.813 76.1849 388.99 79.8353C389.344 86.6907 380.141 72.3566 367.044 65.6792C354.035 59.0018 310.85 50.0096 301.116 51.5231C291.47 53.0367 286.78 56.865 277.134 53.6599C267.577 50.5438 249.524 48.496 220.498 59.3579Z" fill="#939598"/>
<path opacity="0.2" d="M261.449 39.3164C261.449 39.3164 256.481 20.1541 251.159 14.4763C245.924 8.79859 233.238 2.14499 228.536 1.70141C223.834 1.25784 244.949 10.218 249.207 15.5409C253.465 20.8638 257.457 39.8487 259.054 40.6472C260.651 41.4456 261.449 39.3164 261.449 39.3164Z" fill="#939598"/>
<path opacity="0.2" d="M279.104 88.2869C279.104 88.2869 274.579 85.1819 270.055 85.7142C265.53 86.2465 266.418 88.6418 267.571 88.9966C268.724 89.3515 273.071 91.6581 272.539 92.1904C272.007 92.7227 256.482 114.369 253.643 116.055C250.804 117.74 246.723 116.055 244.682 119.071C242.642 122.087 240.158 128.652 237.94 130.87C235.811 133.088 232.085 136.015 232.085 136.015C232.085 136.015 228.093 142.225 236.166 137.346C244.239 132.467 260.296 118.273 264.732 111.796C269.079 105.32 275.2 95.4728 277.329 94.0534C279.459 92.7227 283.185 89.5289 279.104 88.2869Z" fill="#939598"/>
</svg>
