<svg width="300" height="260" viewBox="0 0 300 260" fill="none" xmlns="http://www.w3.org/2000/svg">
<path d="M67.2374 153.299C67.2374 153.299 63.045 157.164 65.2067 160.373C67.3684 163.583 64.0931 178.846 65.5343 189.786C66.9754 200.791 71.2333 214.94 80.9937 219.787C86.7582 222.67 104.248 202.035 95.2085 184.545C93.3088 180.811 85.3826 176.16 84.4 171.378C83.4174 166.596 84.531 166.138 84.531 166.138C84.531 166.138 81.5833 152.775 67.2374 153.299Z" fill="#604AF6"/>
<path d="M296.05 247.3C287.403 237.409 251.506 205.049 251.506 205.049C251.506 205.049 248.427 123.952 198.905 85.1071C195.564 82.4869 192.223 80.1287 188.882 78.0325C182.266 73.8401 177.353 67.355 175.191 59.8218C174.34 56.9395 173.619 53.9263 173.161 50.782C169.82 30.2786 191.764 4.07618 190.52 1.65246C189.275 -0.771264 178.86 -1.95037 165.234 8.53059C151.609 18.946 139.949 39.7769 135.757 51.2405C134.84 53.6642 132.612 55.8259 129.665 57.6601C125.865 60.0183 121.542 61.3284 117.153 61.787C113.943 62.1145 110.864 62.5075 107.786 63.0316C92.3917 65.5863 79.2905 70.3683 70.3817 74.1021C46.21 84.2555 -2.26445 129.52 0.945346 160.963C4.15514 192.406 -1.41287 193.585 0.355796 199.153C2.12446 204.656 6.84088 208.52 14.8981 208.062C14.8981 208.062 20.0731 214.744 45.0309 204.197C69.9887 193.651 84.007 185.462 94.2259 183.759C104.445 182.056 155.016 171.837 165.169 170.134C175.322 168.431 192.943 172.754 203.686 183.17C214.429 193.585 222.88 211.075 222.88 211.075C222.88 211.075 214.036 222.67 213.643 230.53C213.25 238.457 214.429 250.772 216.984 250.313C219.539 249.855 221.963 243.697 228.579 244.876C235.195 246.121 245.479 250.444 246.92 250.248C248.362 249.986 248.034 246.579 252.75 250.444C257.467 254.309 257.991 252.213 265.917 252.606C273.843 252.999 291.53 256.143 294.216 258.305C296.836 260.532 304.697 257.191 296.05 247.3Z" fill="white"/>
<path d="M102.807 173.999C102.807 173.999 102.676 180.091 106.737 180.811C110.864 181.532 120.166 195.419 129.796 202.494C139.425 209.568 153.509 216.774 164.579 212.844C171.13 210.486 168.117 181.532 147.81 175.571C143.486 174.326 133.988 176.946 129.534 174.195C125.079 171.444 125.603 170.199 125.603 170.199C125.603 170.199 113.092 162.404 102.807 173.999Z" fill="#604AF6"/>
<path d="M296.05 247.3C287.403 237.409 251.506 205.049 251.506 205.049C251.506 205.049 248.427 123.952 198.905 85.1071C195.564 82.4869 192.223 80.1287 188.882 78.0325C182.266 73.8401 177.353 67.355 175.191 59.8218C174.34 56.9395 173.619 53.9263 173.161 50.782C169.82 30.2786 191.764 4.07618 190.52 1.65246C189.275 -0.771264 178.86 -1.95037 165.234 8.53059C151.609 18.946 139.949 39.7769 135.757 51.2405C134.84 53.6642 132.612 55.8259 129.665 57.6601C125.865 60.0183 121.542 61.3284 117.153 61.787C113.943 62.1145 110.864 62.5075 107.786 63.0316C92.3917 65.5863 79.2905 70.3683 70.3817 74.1021C46.21 84.2555 -2.26445 129.52 0.945346 160.963C4.15514 192.406 -1.41287 193.585 0.355796 199.153C2.12446 204.656 6.84088 208.52 14.8981 208.062C14.8981 208.062 37.3667 197.057 49.2233 190.572C61.0799 184.087 69.0716 179.96 73.526 179.501C77.9804 179.043 83.5484 177.667 85.5791 175.047C87.6098 172.361 85.7102 170.658 89.313 168.758C92.9158 166.859 104.838 161.815 107.131 163.321C109.423 164.828 97.4357 181.008 97.9597 183.104C108.113 181.204 130.123 176.881 146.565 173.671C148.465 171.575 153.116 167.317 159.928 166.4C169.165 165.155 177.746 167.055 184.428 163.583C191.109 160.111 208.534 137.643 216.002 137.839C223.469 138.036 232.706 150.155 231.985 157.688C231.199 165.221 219.08 160.308 212.857 160.57C206.634 160.898 191.306 167.252 191.83 168.431C192.354 169.675 200.084 168.955 201.787 170.855C203.555 172.754 201.066 175.047 204.407 176.816C207.748 178.584 212.595 182.449 212.726 184.742C212.792 186.117 211.285 188.541 210.172 190.572C217.639 200.267 222.88 211.075 222.88 211.075L236.505 234.657C236.505 234.657 239.649 236.033 237.029 227.452C234.409 218.87 243.907 209.569 244.693 209.896C245.479 210.224 281.508 238.784 285.372 244.811C289.303 250.837 290.416 253.261 290.416 253.261L279.804 254.571C286.355 255.75 292.578 257.257 294.085 258.502C296.836 260.532 304.697 257.191 296.05 247.3ZM72.2814 153.954C65.4688 157.688 32.8468 173.409 42.3452 161.16C42.3452 161.16 65.5998 134.826 78.963 135.023C92.2607 135.154 79.094 150.155 72.2814 153.954Z" fill="#604AF6"/>
<path opacity="0.2" d="M19.6145 121.332C19.6145 121.332 47.9786 85.7621 81.9108 75.1501C115.843 64.5382 118.594 68.7306 117.546 70.9578C116.432 73.185 80.9282 79.67 62.652 92.0507C44.3758 104.431 25.9031 132.795 19.2215 136.529C12.6054 140.263 14.9636 126.703 19.6145 121.332Z" fill="#B0BAC1"/>
<path opacity="0.2" d="M134.119 59.8217C134.119 59.8217 136.936 57.5945 138.901 52.0265C140.932 46.4585 149.579 23.5314 161.894 13.4435C174.143 3.35557 182.332 1.39039 182.987 1.65241C183.707 1.84893 168.641 9.05459 162.09 16.7188C155.54 24.383 143.88 47.1136 141.914 52.5506C140.015 57.9221 130.582 64.6037 134.119 59.8217Z" fill="#B0BAC1"/>
<path opacity="0.2" d="M187.179 79.932C187.179 79.932 205.062 90.2819 218.36 109.148C231.658 128.013 208.141 106.2 201.328 104.759C194.516 103.252 193.795 100.37 193.14 95.0639C192.616 89.8234 181.021 75.8051 187.179 79.932Z" fill="#B0BAC1"/>
<path opacity="0.2" d="M106.148 173.409C106.148 173.409 112.437 165.352 116.76 167.907C121.083 170.461 123.442 185.659 134.381 189.262C145.321 192.865 152.395 185.069 156.195 188.672C159.928 192.275 164.055 205.245 161.763 207.669C159.47 210.093 151.151 209.962 138.443 201.642C125.734 193.389 102.938 176.75 106.148 173.409Z" fill="#B0BAC1"/>
</svg>
