<svg width="600" height="429" viewBox="0 0 600 429" fill="none" xmlns="http://www.w3.org/2000/svg">
<g filter="url(#filter0_d_145_5853)">
<path d="M427.719 220.127C427.719 220.127 426.477 247.097 424.437 257.121C422.396 267.146 408.024 285.865 405.984 284.712C403.944 283.558 404.298 272.647 402.347 264.662C400.306 256.678 397.556 241.951 398.088 237.782C398.621 233.523 404.476 229.797 404.742 224.563C404.919 219.24 427.719 220.127 427.719 220.127Z" fill="#604AF7"/>
<path opacity="0.2" d="M425.945 220.66C425.945 220.66 424.88 251 422.574 257.831C420.267 264.662 409.888 280.01 408.912 280.187C408.025 280.365 415.033 266.969 416.896 260.138C418.759 253.307 421.687 239.911 421.864 230.33C422.041 220.748 422.396 218.708 422.396 218.708L425.945 220.66Z" fill="#939598"/>
<path d="M498.868 200.344C498.868 200.344 501.086 198.925 499.312 195.376C497.538 191.828 494.433 188.102 494.078 185.351C493.723 182.69 492.925 161.132 455.931 148.446C419.025 135.76 383.184 136.913 367.926 137.8C352.667 138.599 302.277 151.817 261.734 180.827C221.192 209.837 185.351 260.493 177.721 265.372C170.092 270.251 169.826 268.122 150.663 267.679C131.501 267.235 102.846 272.558 100.806 274.598C98.7653 276.639 100.806 276.55 104.62 278.324C108.435 280.099 108.435 280.099 108.435 280.099C108.435 280.099 124.049 287.462 131.59 290.301C139.13 293.14 150.397 295.89 156.075 295.713C161.753 295.535 165.745 295.535 165.745 295.535C165.745 295.535 166.455 300.769 172.576 305.116C178.697 309.463 192.271 315.052 195.464 318.423C198.658 321.706 197.86 324.013 200.255 324.545C202.65 325.077 207.441 310.971 206.287 306.092C205.134 301.213 200.344 290.478 200.965 287.551C201.497 284.712 205.578 276.195 208.594 273.889C211.61 271.582 240.176 252.154 270.783 246.298C292.163 242.218 328.093 237.782 355.417 233.967C382.652 230.152 424.526 222.967 437.212 222.346C449.987 221.725 471.633 219.418 482.811 214.361C494.255 209.304 498.868 200.344 498.868 200.344Z" fill="white"/>
<path d="M371.563 143.478C371.563 143.478 365.531 134.518 363.49 130.881C361.45 127.155 359.143 110.21 340.779 101.161C322.504 92.1123 317.891 97.3465 317.713 99.1208C317.536 100.895 326.407 115.71 326.673 125.646C326.94 135.582 322.593 151.817 322.593 151.817L371.563 143.478Z" fill="#604AF7"/>
<path d="M388.152 184.198C388.152 184.198 378.394 178.077 368.28 179.319C358.256 180.561 356.747 183.932 356.038 185.44C355.328 186.948 346.545 193.779 342.819 195.997C339.093 198.215 333.948 206.022 332.44 214.184C330.931 222.345 324.367 234.322 324.899 236.894C325.431 239.467 340.69 236.983 349.384 228.91C358.078 220.837 375.644 199.812 377.95 195.199C380.346 190.497 383.894 188.101 385.047 187.48C386.378 186.771 390.282 186.771 388.152 184.198Z" fill="#604AF7"/>
<path d="M100.807 274.598C102.847 272.558 131.502 267.235 150.664 267.679C169.827 268.122 170.093 270.251 177.722 265.372C185.352 260.493 221.192 209.837 261.735 180.827C302.278 151.817 352.579 138.599 367.926 137.8C383.185 137.002 419.026 135.76 455.931 148.446C492.837 161.132 493.724 182.69 494.079 185.351C494.434 188.013 497.627 191.827 499.313 195.376C500.999 198.925 498.869 200.344 498.869 200.344C498.869 200.344 487.957 190.585 477.312 189.61C466.666 188.634 422.131 184.819 419.026 184.375C415.921 183.932 414.502 180.827 413.881 178.432C413.26 176.036 403.235 171.246 400.041 171.689C396.847 172.222 394.541 178.432 391.791 183.4C389.041 188.456 385.315 200.788 371.386 202.03C357.458 203.272 342.111 182.424 326.408 183.577C310.706 184.73 290.567 207.175 280.986 209.393C271.405 211.611 262.445 195.997 249.847 202.296C237.161 208.595 224.564 224.829 228.911 226.604C233.258 228.378 249.67 232.37 262.356 229.62C275.131 226.87 279.212 221.99 285.511 226.071C291.809 230.152 295.092 238.048 292.43 240.532C291.543 241.33 289.059 242.484 286.22 243.637C280.72 244.524 275.575 245.411 271.05 246.21C240.444 252.065 211.877 271.582 208.861 273.8C208.595 274.066 208.24 274.332 207.974 274.687C205.845 273.001 201.32 270.074 195.997 270.163C188.545 270.251 188.013 274.687 174.795 275.663C161.665 276.639 117.929 274.864 112.428 274.953C106.928 275.042 107.726 276.905 107.726 276.905C107.726 276.905 133.631 290.123 143.301 291.809C152.882 293.494 163.794 295.801 170.625 294.293C174.174 293.494 177.545 292.696 179.94 292.164C175.593 293.406 168.94 295.978 171.246 300.237C174.529 306.358 192.892 313.899 196.086 316.738C199.369 319.577 200.522 321.794 200.522 321.794C200.522 321.794 204.603 315.496 203.804 308.842C203.006 302.189 199.457 292.43 201.232 287.639C200.699 290.478 205.49 301.301 206.555 306.181C207.708 311.06 202.917 325.166 200.522 324.633C198.127 324.101 198.925 321.883 195.731 318.512C192.538 315.23 178.964 309.552 172.843 305.205C166.722 300.858 166.012 295.624 166.012 295.624C166.012 295.624 162.02 295.624 156.342 295.801C150.664 295.979 139.397 293.228 131.857 290.389C124.316 287.551 108.702 280.187 108.702 280.187C108.702 280.187 108.702 280.187 104.887 278.413C100.895 276.55 98.7662 276.727 100.807 274.598ZM422.131 164.947C427.986 166.81 441.116 167.52 444.753 169.205C448.391 170.891 454.246 167.786 450.342 166.012C450.342 166.012 424.526 153.591 417.252 156.43C409.889 159.358 416.365 163.084 422.131 164.947Z" fill="#604AF7"/>
<path opacity="0.2" d="M320.197 155.632C291.098 166.455 257.032 187.658 252.241 191.295C249.314 193.513 250.201 191.206 254.371 186.416C256.855 184.464 259.25 182.601 261.734 180.827C302.277 151.817 352.578 138.599 367.925 137.8C383.184 137.002 419.025 135.76 455.93 148.446C467.996 152.616 476.157 157.672 481.746 162.729C485.206 166.987 488.932 172.399 489.11 176.036C489.464 182.867 480.238 168.584 467.108 161.931C454.067 155.277 410.775 146.317 401.016 147.825C391.346 149.333 386.644 153.148 376.974 149.954C367.393 146.849 349.295 144.809 320.197 155.632Z" fill="#939598"/>
<path opacity="0.2" d="M361.449 135.316C361.449 135.316 356.481 116.154 351.159 110.476C345.924 104.799 333.238 98.145 328.536 97.7014C323.834 97.2578 344.949 106.218 349.207 111.541C353.465 116.864 357.457 135.849 359.054 136.647C360.651 137.446 361.449 135.316 361.449 135.316Z" fill="#939598"/>
<path opacity="0.2" d="M379.104 184.287C379.104 184.287 374.579 181.182 370.055 181.714C365.53 182.246 366.418 184.642 367.571 184.997C368.724 185.352 373.071 187.658 372.539 188.19C372.007 188.723 356.482 210.369 353.643 212.055C350.804 213.74 346.723 212.055 344.682 215.071C342.642 218.087 340.158 224.652 337.94 226.87C335.811 229.088 332.085 232.015 332.085 232.015C332.085 232.015 328.093 238.225 336.166 233.346C344.239 228.467 360.296 214.273 364.732 207.796C369.079 201.32 375.2 191.473 377.329 190.053C379.459 188.723 383.185 185.529 379.104 184.287Z" fill="#939598"/>
</g>
<defs>
<filter id="filter0_d_145_5853" x="3.05176e-05" y="0" width="600" height="428.648" filterUnits="userSpaceOnUse" color-interpolation-filters="sRGB">
<feFlood flood-opacity="0" result="BackgroundImageFix"/>
<feColorMatrix in="SourceAlpha" type="matrix" values="0 0 0 0 0 0 0 0 0 0 0 0 0 0 0 0 0 0 127 0" result="hardAlpha"/>
<feOffset dy="4"/>
<feGaussianBlur stdDeviation="50"/>
<feComposite in2="hardAlpha" operator="out"/>
<feColorMatrix type="matrix" values="0 0 0 0 0.376471 0 0 0 0 0.290196 0 0 0 0 0.964706 0 0 0 1 0"/>
<feBlend mode="normal" in2="BackgroundImageFix" result="effect1_dropShadow_145_5853"/>
<feBlend mode="normal" in="SourceGraphic" in2="effect1_dropShadow_145_5853" result="shape"/>
</filter>
</defs>
</svg>
