<svg width="400" height="360" viewBox="0 0 400 360" fill="none" xmlns="http://www.w3.org/2000/svg">
<g filter="url(#filter0_d_145_5873)">
<path d="M117.237 199.299C117.237 199.299 113.045 203.164 115.207 206.373C117.368 209.583 114.093 224.846 115.534 235.786C116.975 246.791 121.233 260.94 130.994 265.787C136.758 268.67 154.248 248.035 145.209 230.545C143.309 226.811 135.383 222.16 134.4 217.378C133.417 212.596 134.531 212.138 134.531 212.138C134.531 212.138 131.583 198.775 117.237 199.299Z" fill="#604AF6"/>
<path d="M346.05 293.3C337.403 283.409 301.506 251.049 301.506 251.049C301.506 251.049 298.427 169.952 248.905 131.107C245.564 128.487 242.223 126.129 238.882 124.032C232.266 119.84 227.353 113.355 225.191 105.822C224.34 102.94 223.619 99.9263 223.161 96.782C219.82 76.2786 241.764 50.0762 240.52 47.6525C239.275 45.2287 228.86 44.0496 215.234 54.5306C201.609 64.946 189.949 85.7769 185.757 97.2405C184.84 99.6642 182.612 101.826 179.665 103.66C175.865 106.018 171.542 107.328 167.153 107.787C163.943 108.115 160.864 108.508 157.786 109.032C142.392 111.586 129.291 116.368 120.382 120.102C96.21 130.256 47.7356 175.52 50.9453 206.963C54.1551 238.406 48.5871 239.585 50.3558 245.153C52.1245 250.656 56.8409 254.52 64.8981 254.062C64.8981 254.062 70.0731 260.744 95.0309 250.197C119.989 239.651 134.007 231.462 144.226 229.759C154.445 228.056 205.016 217.837 215.169 216.134C225.322 214.431 242.943 218.754 253.686 229.17C264.429 239.585 272.88 257.075 272.88 257.075C272.88 257.075 264.036 268.67 263.643 276.53C263.25 284.457 264.429 296.772 266.984 296.313C269.539 295.855 271.963 289.697 278.579 290.876C285.195 292.121 295.479 296.444 296.92 296.248C298.362 295.986 298.034 292.579 302.75 296.444C307.467 300.309 307.991 298.213 315.917 298.606C323.843 298.999 341.53 302.143 344.216 304.305C346.836 306.532 354.697 303.191 346.05 293.3Z" fill="white"/>
<path d="M152.807 219.999C152.807 219.999 152.676 226.091 156.737 226.811C160.864 227.532 170.166 241.419 179.796 248.494C189.425 255.568 203.509 262.774 214.579 258.844C221.13 256.486 218.117 227.532 197.81 221.571C193.486 220.326 183.988 222.946 179.534 220.195C175.079 217.444 175.603 216.199 175.603 216.199C175.603 216.199 163.092 208.404 152.807 219.999Z" fill="#604AF6"/>
<path d="M346.05 293.3C337.403 283.409 301.506 251.049 301.506 251.049C301.506 251.049 298.427 169.952 248.905 131.107C245.564 128.487 242.223 126.129 238.882 124.032C232.266 119.84 227.353 113.355 225.191 105.822C224.34 102.94 223.619 99.9263 223.161 96.782C219.82 76.2786 241.764 50.0762 240.52 47.6525C239.275 45.2287 228.86 44.0496 215.234 54.5306C201.609 64.946 189.949 85.7769 185.757 97.2405C184.84 99.6642 182.612 101.826 179.665 103.66C175.865 106.018 171.542 107.328 167.153 107.787C163.943 108.114 160.864 108.508 157.786 109.032C142.392 111.586 129.291 116.368 120.382 120.102C96.21 130.256 47.7356 175.52 50.9453 206.963C54.1551 238.406 48.5871 239.585 50.3558 245.153C52.1245 250.656 56.8409 254.52 64.8981 254.062C64.8981 254.062 87.3667 243.057 99.2233 236.572C111.08 230.087 119.072 225.96 123.526 225.501C127.98 225.043 133.548 223.667 135.579 221.047C137.61 218.361 135.71 216.658 139.313 214.758C142.916 212.859 154.838 207.815 157.131 209.321C159.423 210.828 147.436 227.008 147.96 229.104C158.113 227.204 180.123 222.881 196.565 219.671C198.465 217.575 203.116 213.317 209.928 212.4C219.165 211.155 227.746 213.055 234.428 209.583C241.109 206.111 258.534 183.643 266.002 183.839C273.469 184.036 282.706 196.155 281.985 203.688C281.199 211.221 269.08 206.308 262.857 206.57C256.634 206.898 241.306 213.252 241.83 214.431C242.354 215.675 250.084 214.955 251.787 216.855C253.555 218.754 251.066 221.047 254.407 222.816C257.748 224.584 262.595 228.449 262.726 230.742C262.792 232.117 261.285 234.541 260.172 236.572C267.639 246.267 272.88 257.075 272.88 257.075L286.505 280.657C286.505 280.657 289.649 282.033 287.029 273.452C284.409 264.87 293.907 255.569 294.693 255.896C295.479 256.224 331.508 284.784 335.372 290.811C339.303 296.837 340.416 299.261 340.416 299.261L329.804 300.571C336.355 301.75 342.578 303.257 344.085 304.502C346.836 306.532 354.697 303.191 346.05 293.3ZM122.281 199.954C115.469 203.688 82.8468 219.409 92.3452 207.16C92.3452 207.16 115.6 180.826 128.963 181.023C142.261 181.154 129.094 196.155 122.281 199.954Z" fill="#604AF6"/>
<path opacity="0.2" d="M69.6145 167.332C69.6145 167.332 97.9786 131.762 131.911 121.15C165.843 110.538 168.594 114.731 167.546 116.958C166.432 119.185 130.928 125.67 112.652 138.051C94.3758 150.431 75.9031 178.795 69.2215 182.529C62.6054 186.263 64.9636 172.703 69.6145 167.332Z" fill="#B0BAC1"/>
<path opacity="0.2" d="M184.119 105.822C184.119 105.822 186.936 103.595 188.901 98.0265C190.932 92.4585 199.579 69.5314 211.894 59.4435C224.143 49.3556 232.332 47.3904 232.987 47.6524C233.707 47.8489 218.641 55.0546 212.09 62.7188C205.54 70.383 193.88 93.1136 191.914 98.5506C190.015 103.922 180.582 110.604 184.119 105.822Z" fill="#B0BAC1"/>
<path opacity="0.2" d="M237.179 125.932C237.179 125.932 255.062 136.282 268.36 155.148C281.658 174.013 258.141 152.2 251.328 150.759C244.516 149.252 243.795 146.37 243.14 141.064C242.616 135.823 231.021 121.805 237.179 125.932Z" fill="#B0BAC1"/>
<path opacity="0.2" d="M156.148 219.409C156.148 219.409 162.437 211.352 166.76 213.907C171.083 216.461 173.442 231.659 184.381 235.262C195.321 238.865 202.395 231.069 206.195 234.672C209.928 238.275 214.055 251.245 211.763 253.669C209.47 256.093 201.151 255.962 188.443 247.642C175.734 239.389 152.938 222.75 156.148 219.409Z" fill="#B0BAC1"/>
</g>
<defs>
<filter id="filter0_d_145_5873" x="0" y="0" width="400" height="359.07" filterUnits="userSpaceOnUse" color-interpolation-filters="sRGB">
<feFlood flood-opacity="0" result="BackgroundImageFix"/>
<feColorMatrix in="SourceAlpha" type="matrix" values="0 0 0 0 0 0 0 0 0 0 0 0 0 0 0 0 0 0 127 0" result="hardAlpha"/>
<feOffset dy="4"/>
<feGaussianBlur stdDeviation="25"/>
<feComposite in2="hardAlpha" operator="out"/>
<feColorMatrix type="matrix" values="0 0 0 0 0.376471 0 0 0 0 0.290196 0 0 0 0 0.964706 0 0 0 1 0"/>
<feBlend mode="normal" in2="BackgroundImageFix" result="effect1_dropShadow_145_5873"/>
<feBlend mode="normal" in="SourceGraphic" in2="effect1_dropShadow_145_5873" result="shape"/>
</filter>
</defs>
</svg>
