<svg width="135" height="55" viewBox="0 0 135 55" fill="none" xmlns="http://www.w3.org/2000/svg">
<path d="M5.02286 10.4344L18.2907 2.82072C21.3399 1.07097 25.0839 1.05089 28.1517 2.76784L41.8838 10.4533C45.0431 12.2215 47 15.5592 47 19.1796V34.7165C47 38.3145 45.067 41.6353 41.9382 43.4121L28.2068 51.2102C25.1108 52.9684 21.3135 52.9479 18.2367 51.1563L4.96809 43.4303C1.89208 41.6392 0 38.348 0 34.7886V19.1078C0 15.5257 1.91597 12.2172 5.02286 10.4344Z" fill="white"/>
<path d="M34.6629 24.415C34.6629 25.9492 34.3184 27.33 33.6294 28.5574C32.9405 29.7568 31.9484 30.6913 30.6531 31.3608C29.3579 32.0024 27.8283 32.3231 26.0646 32.3231H20.1946H18.8004H15.2754V16.8417H25.8579C28.6964 16.8417 30.8736 17.5111 32.3893 18.8501C33.905 20.1611 34.6629 22.0161 34.6629 24.415ZM29.7023 24.4987C29.7023 21.9882 28.2417 20.733 25.3205 20.733H20.1946V28.4737H25.4445C26.7949 28.4737 27.8421 28.139 28.5862 27.4695C29.3303 26.7721 29.7023 25.7819 29.7023 24.4987Z" fill="url(#paint0_linear_284_8393)"/>
<path d="M15.2754 17.0375H20.1712V52.0916L15.2754 49.4479V17.0375Z" fill="#161616"/>
<path d="M79.1806 26.7229C79.1806 27.7832 78.9396 28.7374 78.4577 29.5856C77.9758 30.4145 77.2818 31.0603 76.3758 31.5229C75.4697 31.9663 74.3999 32.188 73.1661 32.188H69.0601V38H65.6191V21.4892H73.0216C75.0071 21.4892 76.53 21.9518 77.5902 22.8771C78.6505 23.7831 79.1806 25.0651 79.1806 26.7229ZM75.7107 26.7807C75.7107 25.0458 74.689 24.1783 72.6456 24.1783H69.0601V29.5277H72.7324C73.677 29.5277 74.4095 29.2964 74.93 28.8338C75.4505 28.3518 75.7107 27.6675 75.7107 26.7807Z" fill="white"/>
<path d="M81.6613 23.0217V20.6217H84.9577V23.0217H81.6613ZM81.6613 38V25.306H84.9577V38H81.6613Z" fill="white"/>
<path d="M96.2405 38L93.2911 33.4024L90.3128 38H86.814L91.4405 31.4362L87.0164 25.306H90.573L93.2911 29.4699L95.9802 25.306H99.5658L95.1417 31.4072L99.826 38H96.2405Z" fill="white"/>
<path d="M113.711 31.6386C113.711 33.7012 113.133 35.3205 111.976 36.4964C110.839 37.653 109.268 38.2313 107.263 38.2313C105.278 38.2313 103.716 37.653 102.579 36.4964C101.461 35.3205 100.902 33.7012 100.902 31.6386C100.902 29.5952 101.461 27.9952 102.579 26.8386C103.716 25.6627 105.297 25.0747 107.321 25.0747C109.384 25.0747 110.964 25.6434 112.063 26.7807C113.162 27.8988 113.711 29.5181 113.711 31.6386ZM110.241 31.6386C110.241 30.135 109.991 29.0458 109.49 28.3711C109.008 27.6964 108.304 27.3591 107.379 27.3591C105.374 27.3591 104.372 28.7856 104.372 31.6386C104.372 33.0458 104.613 34.1253 105.094 34.8771C105.596 35.6097 106.299 35.9759 107.205 35.9759C109.229 35.9759 110.241 34.5301 110.241 31.6386Z" fill="white"/>
<path d="M116.279 38V20.6217H119.575V38H116.279Z" fill="white"/>
<path d="M131.147 38C131.108 37.8844 131.07 37.5952 131.031 37.1325C130.993 36.6506 130.973 36.2554 130.973 35.947H130.916C130.202 37.4699 128.853 38.2313 126.867 38.2313C125.383 38.2313 124.236 37.6627 123.426 36.5253C122.636 35.3687 122.241 33.7494 122.241 31.6675C122.241 29.5663 122.665 27.947 123.513 26.8097C124.361 25.653 125.566 25.0747 127.128 25.0747C128.034 25.0747 128.805 25.2675 129.441 25.653C130.096 26.0193 130.597 26.5783 130.944 27.3301H130.973L130.944 25.2482V20.6217H134.241V35.2241C134.241 36.0145 134.27 36.9398 134.328 38H131.147ZM131.002 31.5807C131.002 30.2121 130.771 29.1615 130.308 28.4289C129.846 27.6964 129.171 27.3301 128.284 27.3301C127.397 27.3301 126.742 27.6868 126.318 28.4C125.894 29.1133 125.682 30.2024 125.682 31.6675C125.682 34.5398 126.54 35.9759 128.255 35.9759C129.123 35.9759 129.797 35.6 130.279 34.8482C130.761 34.0771 131.002 32.988 131.002 31.5807Z" fill="white"/>
<defs>
<linearGradient id="paint0_linear_284_8393" x1="15.2754" y1="24.675" x2="34.6629" y2="24.675" gradientUnits="userSpaceOnUse">
<stop stop-color="#010010"/>
<stop offset="0.380208" stop-color="#010010"/>
<stop offset="1" stop-color="#010010"/>
</linearGradient>
</defs>
</svg>
